<svg width="120" height="120" viewBox="0 0 127 123" fill="none" xmlns="http://www.w3.org/2000/svg">
<g opacity="0.6" filter="url(#filter0_df_8447_19176)">
<ellipse cx="63.3359" cy="113.333" rx="55" ry="1.33333" fill="black"/>
</g>
<path d="M11.6819 109.298L14.2653 106.715C14.2653 106.715 15.4398 107.185 16.6924 108.437C17.9451 109.69 18.3364 110.864 18.3364 110.864L15.7529 113.448C15.7529 113.448 14.5002 113.683 12.9344 112.039C11.3686 110.394 11.6819 109.298 11.6819 109.298Z" fill="#7D8D89"/>
<path d="M118.301 11.0624L115.711 13.64C115.711 13.64 114.538 13.1676 113.288 11.9121C112.038 10.6565 111.65 9.4813 111.65 9.4813L114.239 6.90367C114.239 6.90367 115.492 6.67167 117.054 8.31935C118.616 9.96703 118.301 11.0624 118.301 11.0624Z" fill="#7D8D89"/>
<mask id="mask0_8447_19176" style="mask-type:alpha" maskUnits="userSpaceOnUse" x="12" y="99" width="14" height="14">
<path d="M22.013 99.8252C23.3615 100.043 25.0128 101.838 25.0663 103.192L15.3583 112.978L12.1484 109.69L22.013 99.8252Z" fill="#215F5F"/>
</mask>
<g mask="url(#mask0_8447_19176)">
<path d="M22.013 99.8252C23.3615 100.043 25.0128 101.838 25.0663 103.192L15.3583 112.978L12.1484 109.69L22.013 99.8252Z" fill="#E9ECEB"/>
<g filter="url(#filter1_f_8447_19176)">
<path d="M22.3296 100.217L22.682 99.9449L21.8205 99.7471L21.625 99.9449C21.8387 101.345 23.7108 103.175 25.0144 103.505L25.2099 103.241C25.2512 102.957 25.2172 102.829 25.0796 102.648L24.884 102.846L24.7537 102.978C24.2322 103.178 22.1766 101.245 22.0947 100.373C22.1599 100.317 22.3296 100.217 22.3296 100.217Z" fill="url(#paint0_linear_8447_19176)"/>
</g>
</g>
<mask id="mask1_8447_19176" style="mask-type:alpha" maskUnits="userSpaceOnUse" x="104" y="7" width="14" height="14">
<path d="M107.948 20.512C106.6 20.2916 104.953 18.4923 104.902 17.1386L114.633 7.37461L117.835 10.6701L107.948 20.512Z" fill="#215F5F"/>
</mask>
<g mask="url(#mask1_8447_19176)">
<path d="M107.948 20.512C106.6 20.2916 104.953 18.4923 104.902 17.1386L114.633 7.37461L117.835 10.6701L107.948 20.512Z" fill="#E9ECEB"/>
<g filter="url(#filter2_f_8447_19176)">
<path d="M107.632 20.12L107.279 20.3911L108.14 20.5909L108.336 20.3935C108.126 18.9929 106.258 17.1582 104.955 16.8256L104.759 17.0889C104.717 17.3731 104.751 17.5007 104.888 17.6825L105.084 17.4852L105.215 17.3536C105.737 17.1544 107.788 19.0918 107.868 19.9639C107.802 20.0205 107.632 20.12 107.632 20.12Z" fill="url(#paint1_linear_8447_19176)"/>
</g>
</g>
<mask id="mask2_8447_19176" style="mask-type:alpha" maskUnits="userSpaceOnUse" x="12" y="7" width="106" height="106">
<path d="M117.612 10.5743L15.2086 112.508L12.625 109.846L114.715 7.521L117.612 10.5743Z" fill="#D9D9D9"/>
</mask>
<g mask="url(#mask2_8447_19176)">
<path d="M117.612 10.5743L15.2086 112.508L12.625 109.846L114.715 7.521L117.612 10.5743Z" fill="#FCFDFC"/>
<g filter="url(#filter3_f_8447_19176)">
<path d="M117.612 10.5743L15.2086 112.508L12.625 109.846L114.715 7.521L117.612 10.5743Z" fill="url(#paint2_linear_8447_19176)"/>
</g>
<g filter="url(#filter4_d_8447_19176)">
<mask id="mask3_8447_19176" style="mask-type:alpha" maskUnits="userSpaceOnUse" x="37" y="65" width="23" height="23">
<path d="M56.3908 65.9805C56.2342 67.0217 57.9566 68.9007 59.0198 68.9007L40.5355 87.2988C39.6367 87.5337 37.5229 85.3416 37.836 84.579L56.3908 65.9805Z" fill="#EAF6F5"/>
</mask>
<g mask="url(#mask3_8447_19176)">
<g filter="url(#filter5_f_8447_19176)">
<path d="M56.3452 60.6021C56.3452 63.6358 60.6696 68.2875 64.3763 69.2988L38.8414 94.5799L30.3984 86.0855L56.3452 60.6021Z" fill="#F8FBFC"/>
</g>
<g filter="url(#filter6_f_8447_19176)">
<path d="M56.3452 60.6021C56.3452 63.6358 60.6696 68.2875 64.3763 69.2988L38.8414 94.5799L30.3984 86.0855L56.3452 60.6021Z" fill="url(#paint3_linear_8447_19176)"/>
</g>
</g>
</g>
<g filter="url(#filter7_f_8447_19176)">
<path d="M28.3648 99.2773C28.0517 98.6509 26.1727 96.9286 25.7812 96.772C26.7852 97.9315 27.165 98.2416 28.3648 99.2773Z" fill="url(#paint4_linear_8447_19176)"/>
</g>
<g filter="url(#filter8_f_8447_19176)">
<mask id="mask4_8447_19176" style="mask-type:alpha" maskUnits="userSpaceOnUse" x="25" y="94" width="6" height="6">
<path d="M28.3648 99.2772C28.3648 99.0423 26.0161 96.8502 25.7812 96.7719L27.8168 94.7363C27.8951 95.1278 30.0872 97.1633 30.4004 97.2416L28.3648 99.2772Z" fill="#2B3231"/>
</mask>
<g mask="url(#mask4_8447_19176)">
<path d="M28.3652 99.4336C28.3652 99.1987 25.8599 96.7717 25.625 96.6934L27.7388 94.5796C27.8171 94.971 30.1658 97.2415 30.479 97.3197L28.3652 99.4336Z" fill="#2B3231"/>
<path d="M28.3652 99.4336C28.3652 99.1987 25.8599 96.7717 25.625 96.6934L27.7388 94.5796C27.8171 94.971 30.1658 97.2415 30.479 97.3197L28.3652 99.4336Z" fill="url(#paint5_linear_8447_19176)"/>
<g opacity="0.5" filter="url(#filter9_f_8447_19176)">
<path d="M28.3653 99.512C28.3653 99.2771 25.7817 96.7718 25.5469 96.6935V96.6152C26.0166 96.6935 28.3653 99.1205 28.5219 99.4337L28.3653 99.512Z" fill="url(#paint6_linear_8447_19176)"/>
</g>
<g opacity="0.5" filter="url(#filter10_f_8447_19176)">
<path d="M30.3201 97.242C29.7721 97.1637 27.6582 94.9715 27.7365 94.5801L27.8948 94.1104L31.0264 97.242L28.5977 99.669L28.2063 99.3558L30.3201 97.242Z" fill="#151919"/>
</g>
</g>
</g>
<g filter="url(#filter11_f_8447_19176)">
<path d="M101.326 26.6236C101.013 25.9973 98.9774 23.9618 98.5859 23.8052C99.5898 24.9647 100.126 25.5879 101.326 26.6236Z" fill="url(#paint7_linear_8447_19176)"/>
</g>
<g filter="url(#filter12_f_8447_19176)">
<mask id="mask5_8447_19176" style="mask-type:alpha" maskUnits="userSpaceOnUse" x="98" y="21" width="6" height="6">
<path d="M101.326 26.6238C101.326 26.389 98.8208 23.8837 98.5859 23.8054L100.543 21.8481C100.778 21.8481 103.283 24.2751 103.362 24.5883L101.326 26.6238Z" fill="#2B3231"/>
</mask>
<g mask="url(#mask5_8447_19176)">
<path d="M101.092 26.4673C101.092 26.2324 98.5864 23.8054 98.3516 23.7271L100.465 21.6133C101.17 21.7699 103.284 23.8837 103.206 24.3534L101.092 26.4673Z" fill="#2B3231"/>
<path d="M101.092 26.4673C101.092 26.2324 98.5864 23.8054 98.3516 23.7271L100.465 21.6133C100.857 21.9264 103.049 24.0403 103.206 24.3534L101.092 26.4673Z" fill="url(#paint8_linear_8447_19176)"/>
<g opacity="0.5" filter="url(#filter13_f_8447_19176)">
<path d="M101.483 26.8591C101.483 26.6243 98.8989 24.119 98.6641 24.0407V23.9624C99.1338 24.0407 101.483 26.4677 101.639 26.7808L101.483 26.8591Z" fill="url(#paint9_linear_8447_19176)"/>
</g>
<g opacity="0.5" filter="url(#filter14_f_8447_19176)">
<path d="M103.281 24.5099C103.046 24.3533 100.306 21.9263 100.384 21.5348L100.463 21.4565C101.481 22.4743 103.908 24.5099 103.908 24.5099L101.402 26.7803L101.089 26.6237L103.281 24.5099Z" fill="#151919"/>
</g>
</g>
</g>
</g>
<mask id="mask6_8447_19176" style="mask-type:alpha" maskUnits="userSpaceOnUse" x="12" y="99" width="14" height="14">
<path d="M22.013 99.8252C22.013 101 23.6571 102.8 25.0663 103.192L15.3583 112.978L12.1484 109.69L22.013 99.8252Z" fill="#EAF6F5"/>
</mask>
<g mask="url(#mask6_8447_19176)">
<g filter="url(#filter15_f_8447_19176)">
<path d="M22.013 99.8252C22.013 101 23.6571 102.8 25.0663 103.192L15.3583 112.978L12.1484 109.69L22.013 99.8252Z" fill="#EAF6F5"/>
</g>
<g filter="url(#filter16_f_8447_19176)">
<path d="M22.013 99.8252C22.013 101 23.6571 102.8 25.0663 103.192L15.3583 112.978L12.1484 109.69L22.013 99.8252Z" fill="url(#paint10_linear_8447_19176)"/>
</g>
<g opacity="0.6" filter="url(#filter17_f_8447_19176)">
<path d="M22.3171 100.147L22.5595 99.8803L22.0948 99.6689L21.9382 99.8255C21.7816 100.843 23.8172 103.27 25.2264 103.192L25.3047 102.957C25.3047 102.957 22.0746 100.213 22.1352 100.147C22.1958 100.08 22.3171 100.147 22.3171 100.147Z" fill="#0E2F2F"/>
</g>
</g>
<mask id="mask7_8447_19176" style="mask-type:alpha" maskUnits="userSpaceOnUse" x="104" y="7" width="14" height="14">
<path d="M107.948 20.512C107.951 19.3377 106.311 17.5332 104.902 17.1386L114.633 7.37461L117.835 10.6701L107.948 20.512Z" fill="#EAF6F5"/>
</mask>
<g mask="url(#mask7_8447_19176)">
<g filter="url(#filter18_f_8447_19176)">
<path d="M107.948 20.512C107.951 19.3377 106.311 17.5332 104.902 17.1386L114.633 7.37461L117.835 10.6701L107.948 20.512Z" fill="#EAF6F5"/>
</g>
<g filter="url(#filter19_f_8447_19176)">
<path d="M107.952 20.5119C107.955 19.3376 106.315 17.5331 104.906 17.1385L114.637 7.37451L117.839 10.6701L107.952 20.5119Z" fill="url(#paint11_linear_8447_19176)"/>
</g>
<g opacity="0.6" filter="url(#filter20_f_8447_19176)">
<path d="M107.645 20.1905L107.402 20.4561L107.866 20.6686L108.023 20.5123C108.182 19.4949 106.152 17.0633 104.743 17.1383L104.664 17.373C104.664 17.373 107.888 20.1245 107.827 20.1909C107.766 20.2573 107.645 20.1905 107.645 20.1905Z" fill="#0E2F2F"/>
</g>
</g>
<mask id="mask8_8447_19176" style="mask-type:alpha" maskUnits="userSpaceOnUse" x="11" y="106" width="8" height="8">
<path d="M11.6819 109.298L14.2653 106.715C14.2653 106.715 15.4398 107.185 16.6924 108.437C17.9451 109.69 18.3364 110.864 18.3364 110.864L15.7529 113.448C15.7529 113.448 14.5002 113.683 12.9344 112.039C11.3686 110.394 11.6819 109.298 11.6819 109.298Z" fill="#174545"/>
</mask>
<g mask="url(#mask8_8447_19176)">
<g filter="url(#filter21_f_8447_19176)">
<path d="M11.6819 109.298L14.2653 106.715C14.2653 106.715 13.874 107.263 15.8312 109.22C17.7885 111.177 18.3364 110.864 18.3364 110.864L15.7529 113.448C15.7529 113.448 14.5002 113.683 12.9344 112.039C11.3686 110.394 11.6819 109.298 11.6819 109.298Z" fill="#0E2F2F"/>
</g>
<g opacity="0.75" filter="url(#filter22_f_8447_19176)">
<path d="M14.7359 107.106L15.049 106.793L14.2661 106.715L14.0312 106.95C14.2879 108.612 16.5365 110.786 18.1023 111.177L18.3372 110.864C18.3867 110.527 18.3459 110.375 18.1806 110.16L17.9458 110.394L17.7892 110.551C17.1629 110.789 14.5993 108.377 14.501 107.341C14.5793 107.274 14.7359 107.106 14.7359 107.106Z" fill="url(#paint12_linear_8447_19176)"/>
</g>
<mask id="mask9_8447_19176" style="mask-type:alpha" maskUnits="userSpaceOnUse" x="11" y="106" width="8" height="8">
<path d="M11.6819 109.298L14.2653 106.715C14.2653 106.715 13.874 107.263 15.8312 109.22C17.7885 111.177 18.3364 110.864 18.3364 110.864L15.7529 113.448C15.7529 113.448 14.5002 113.683 12.9344 112.039C11.3686 110.394 11.6819 109.298 11.6819 109.298Z" fill="#2B7777"/>
</mask>
<g mask="url(#mask9_8447_19176)">
<g filter="url(#filter23_f_8447_19176)">
<path d="M11.6819 109.298L14.2653 106.715C14.2653 106.715 13.9523 107.185 15.9095 109.142C17.8668 111.099 18.3364 110.864 18.3364 110.864L15.7529 113.448C15.7529 113.448 14.5002 113.683 12.9344 112.039C11.3686 110.394 11.6819 109.298 11.6819 109.298Z" fill="url(#paint13_linear_8447_19176)"/>
</g>
<g filter="url(#filter24_f_8447_19176)">
<path d="M15.2019 108.124L12.0703 111.177L12.2269 111.412L15.3585 108.359L15.2019 108.124Z" fill="#627470"/>
</g>
<g filter="url(#filter25_f_8447_19176)">
<path d="M11.6033 109.298L14.2652 106.636C14.2652 106.636 14.3683 107.233 15.2047 108.28L12.1514 111.255C11.3685 110.159 11.6033 109.298 11.6033 109.298Z" fill="#EAF6F5"/>
<path d="M18.3362 110.864L15.7527 113.447C15.7527 113.447 15.0481 113.839 13.7172 112.821L16.6922 109.768C17.8032 110.697 18.3362 110.864 18.3362 110.864Z" fill="#EAF6F5"/>
</g>
<g filter="url(#filter26_f_8447_19176)">
<path d="M11.6033 109.298L14.2652 106.636C14.2652 106.636 14.3683 107.233 15.2047 108.28L12.1514 111.255C11.3685 110.159 11.6033 109.298 11.6033 109.298Z" fill="url(#paint14_linear_8447_19176)"/>
<path d="M18.3362 110.864L15.7527 113.447C15.7527 113.447 15.0481 113.839 13.7172 112.821L16.6922 109.768C17.8032 110.697 18.3362 110.864 18.3362 110.864Z" fill="url(#paint15_linear_8447_19176)"/>
</g>
<g opacity="0.6" filter="url(#filter27_f_8447_19176)">
<path d="M14.7367 107.106L15.0499 106.793L14.267 106.636L14.1887 106.715C14.0321 106.871 14.2669 107.654 15.0107 108.476L15.1673 108.554C15.2456 108.711 16.4121 109.893 16.4904 109.893L13.6406 112.899L16.4904 109.961C16.5686 110.039 17.79 111.177 18.4163 110.864L18.4946 110.707C18.4946 110.707 14.4236 107.184 14.5019 107.106C14.5802 107.028 14.7367 107.106 14.7367 107.106Z" fill="#0E2F2F"/>
</g>
</g>
</g>
<mask id="mask10_8447_19176" style="mask-type:alpha" maskUnits="userSpaceOnUse" x="111" y="6" width="8" height="8">
<path d="M118.301 11.0624L115.711 13.64C115.711 13.64 114.538 13.1676 113.288 11.9121C112.038 10.6565 111.65 9.4813 111.65 9.4813L114.239 6.90367C114.239 6.90367 115.492 6.67167 117.054 8.31935C118.616 9.96703 118.301 11.0624 118.301 11.0624Z" fill="#174545"/>
</mask>
<g mask="url(#mask10_8447_19176)">
<g filter="url(#filter28_f_8447_19176)">
<path d="M118.301 11.0624L115.711 13.64C115.711 13.64 116.104 13.0929 114.151 11.1311C112.198 9.1694 111.65 9.4813 111.65 9.4813L114.239 6.90367C114.239 6.90367 115.492 6.67167 117.054 8.31935C118.616 9.96703 118.301 11.0624 118.301 11.0624Z" fill="#0E2F2F"/>
</g>
<g opacity="0.75" filter="url(#filter29_f_8447_19176)">
<path d="M115.242 13.2476L114.928 13.56L115.71 13.6401L115.946 13.4058C115.693 11.7425 113.449 9.5638 111.884 9.16876L111.649 9.48138C111.599 9.81889 111.639 9.97042 111.804 10.1863L112.039 9.95202L112.196 9.7958C112.823 9.55921 115.381 11.9776 115.477 13.0132C115.399 13.0805 115.242 13.2476 115.242 13.2476Z" fill="url(#paint16_linear_8447_19176)"/>
</g>
<mask id="mask11_8447_19176" style="mask-type:alpha" maskUnits="userSpaceOnUse" x="111" y="6" width="8" height="8">
<path d="M118.301 11.0624L115.711 13.64C115.711 13.64 116.104 13.0929 114.151 11.1311C112.198 9.1694 111.65 9.4813 111.65 9.4813L114.239 6.90367C114.239 6.90367 115.492 6.67167 117.054 8.31935C118.616 9.96703 118.301 11.0624 118.301 11.0624Z" fill="#2B7777"/>
</mask>
<g mask="url(#mask11_8447_19176)">
<g filter="url(#filter30_f_8447_19176)">
<path d="M118.299 11.0625L115.71 13.6401C115.71 13.6401 116.024 13.1711 114.071 11.2094C112.119 9.24762 111.648 9.48142 111.648 9.48142L114.238 6.90378C114.238 6.90378 115.491 6.67178 117.053 8.31946C118.615 9.96714 118.299 11.0625 118.299 11.0625Z" fill="url(#paint17_linear_8447_19176)"/>
</g>
<g filter="url(#filter31_f_8447_19176)">
<path d="M113.479 10.9046L116.515 7.75577L116.351 7.52586L113.315 10.6747L113.479 10.9046Z" fill="#627470"/>
</g>
<g filter="url(#filter32_f_8447_19176)">
<path d="M118.379 11.0627L115.711 13.7184C115.711 13.7184 115.61 13.1209 114.776 12.0722L117.836 9.10417C118.616 10.202 118.379 11.0627 118.379 11.0627Z" fill="#EAF6F5"/>
<path d="M111.65 9.48143L114.24 6.90379C114.24 6.90379 114.945 6.51396 116.274 7.53478L113.292 10.5813C112.183 9.64952 111.65 9.48143 111.65 9.48143Z" fill="#EAF6F5"/>
</g>
<g filter="url(#filter33_f_8447_19176)">
<path d="M118.378 11.0626L115.71 13.7183C115.71 13.7183 115.608 13.1208 114.774 12.0721L117.834 9.10405C118.614 10.2019 118.378 11.0626 118.378 11.0626Z" fill="url(#paint18_linear_8447_19176)"/>
<path d="M111.648 9.4813L114.238 6.90367C114.238 6.90367 114.943 6.51383 116.272 7.53466L113.29 10.5811C112.181 9.64939 111.648 9.4813 111.648 9.4813Z" fill="url(#paint19_linear_8447_19176)"/>
</g>
<g opacity="0.6" filter="url(#filter34_f_8447_19176)">
<path d="M114.931 13.5599L115.245 13.2475C115.245 13.2475 115.402 13.3261 115.48 13.248C115.559 13.1699 111.496 9.6375 111.496 9.6375L111.574 9.4811C112.201 9.16938 113.42 10.3098 113.498 10.3883L113.54 10.4962C114.051 10.9439 114.363 11.2599 114.95 11.9054C114.954 11.9054 114.964 11.8981 114.981 11.8842C114.979 11.8817 114.977 11.8792 114.974 11.8768L115.484 11.3959C116.306 10.5721 117.789 9.05052 117.846 9.16527L115.484 11.3959C115.239 11.6408 115.053 11.824 114.981 11.8842C115.718 12.7052 115.949 13.4844 115.792 13.6402L115.714 13.7183L114.931 13.5599Z" fill="#0E2F2F"/>
</g>
</g>
</g>
<mask id="mask12_8447_19176" style="mask-type:alpha" maskUnits="userSpaceOnUse" x="43" y="63" width="37" height="41">
<path d="M79.1872 99.3999C79.0282 99.5251 78.867 99.6462 78.7036 99.7631C78.5405 99.9034 78.3737 100.041 78.2034 100.175C70.2192 106.464 57.4517 103.569 49.6864 93.7107C41.9211 83.852 42.0986 70.7618 50.0827 64.473C50.2533 64.3386 50.4261 64.2085 50.6009 64.0825C50.7526 63.9513 50.9078 63.8232 51.0665 63.6982L51.383 63.5552C51.118 63.722 50.8572 63.8978 50.6009 64.0825C43.6402 70.1013 44.0542 82.5126 51.6538 92.1611C59.2533 101.809 71.2216 105.119 78.7036 99.7631C78.958 99.5446 79.2037 99.3187 79.4408 99.086L79.1872 99.3999Z" fill="#EAF6F5"/>
</mask>
<g mask="url(#mask12_8447_19176)">
<path d="M79.1872 99.3999C79.0282 99.5251 78.867 99.6462 78.7036 99.7631C78.5405 99.9034 78.3737 100.041 78.2034 100.175C70.2192 106.464 57.4517 103.569 49.6864 93.7107C41.9211 83.852 42.0986 70.7618 50.0827 64.473C50.2533 64.3386 50.4261 64.2085 50.6009 64.0825C50.7526 63.9513 50.9078 63.8232 51.0665 63.6982L51.383 63.5552C51.118 63.722 50.8572 63.8978 50.6009 64.0825C43.6402 70.1013 44.0542 82.5126 51.6538 92.1611C59.2533 101.809 71.2216 105.119 78.7036 99.7631C78.958 99.5446 79.2037 99.3187 79.4408 99.086L79.1872 99.3999Z" fill="#F8FBFC"/>
<g filter="url(#filter35_f_8447_19176)">
<path d="M79.1872 99.3999C79.0282 99.5251 78.867 99.6462 78.7036 99.7631C78.5405 99.9034 78.3737 100.041 78.2034 100.175C70.2192 106.464 57.4517 103.569 49.6864 93.7107C41.9211 83.852 42.0986 70.7618 50.0827 64.473C50.2533 64.3386 50.4261 64.2085 50.6009 64.0825C50.7526 63.9513 50.9078 63.8232 51.0665 63.6982L51.383 63.5552C51.118 63.722 50.8572 63.8978 50.6009 64.0825C43.6402 70.1013 44.0542 82.5126 51.6538 92.1611C59.2533 101.809 71.2216 105.119 78.7036 99.7631C78.958 99.5446 79.2037 99.3187 79.4408 99.086L79.1872 99.3999Z" fill="url(#paint20_linear_8447_19176)"/>
</g>
</g>
<mask id="mask13_8447_19176" style="mask-type:alpha" maskUnits="userSpaceOnUse" x="48" y="62" width="35" height="38">
<ellipse cx="65.5505" cy="81.1468" rx="15.4635" ry="20.1595" transform="rotate(-37.9353 65.5505 81.1468)" fill="#F8FBFC"/>
</mask>
<g mask="url(#mask13_8447_19176)">
<ellipse cx="65.5505" cy="81.1468" rx="15.4635" ry="20.1595" transform="rotate(-37.9353 65.5505 81.1468)" fill="#F8FBFC"/>
<g filter="url(#filter36_f_8447_19176)">
<ellipse cx="65.5505" cy="81.1468" rx="15.4635" ry="20.1595" transform="rotate(-37.9353 65.5505 81.1468)" fill="url(#paint21_linear_8447_19176)"/>
</g>
</g>
<g filter="url(#filter37_f_8447_19176)">
<mask id="mask14_8447_19176" style="mask-type:alpha" maskUnits="userSpaceOnUse" x="48" y="64" width="34" height="36">
<path fill-rule="evenodd" clip-rule="evenodd" d="M48.5123 78.3638L48.5363 78.7275C48.8378 82.6988 50.451 86.9317 53.3701 90.6648C59.4495 98.4396 69.0198 101.268 75.4051 97.4203L75.7071 97.2318C75.981 97.0547 76.2487 96.8649 76.5096 96.6622C82.8481 91.7371 82.765 81.0668 76.3239 72.8294C70.7045 65.6429 62.1025 62.6824 55.7902 65.3143L55.4601 65.458C54.6584 65.822 53.896 66.279 53.1844 66.832C49.8063 69.4568 48.2522 73.7134 48.5123 78.3638ZM61.2969 74.8116L65.1915 81.0527L59.9076 80.2009C59.4594 78.0716 59.9464 76.0417 61.2969 74.8116ZM61.1056 74.505C59.6275 75.8104 59.1051 77.9333 59.5341 80.1407L57.8129 79.8632C57.3431 77.0598 58.1167 74.4266 60.0612 72.9157C60.073 72.9066 60.0849 72.8974 60.0968 72.8883L61.1056 74.505ZM61.5726 74.5809L65.5184 80.9042L68.2867 74.8725C65.985 73.3842 63.3366 73.2274 61.5726 74.5809ZM68.4355 74.5484C66.0586 73.0316 63.2933 72.8349 61.3835 74.2779L60.3869 72.6807C62.7345 71.1103 66.0915 71.4086 68.997 73.3249L68.4355 74.5484ZM68.5858 75.0748L65.7973 81.1504L72.5019 82.2313C72.5088 80.5359 71.8807 78.6523 70.576 76.9837C69.9783 76.2193 69.302 75.5811 68.5858 75.0748ZM72.858 82.2887C72.8762 80.484 72.2084 78.4935 70.8571 76.7654C70.227 75.9595 69.5051 75.2834 68.7356 74.7484L69.2954 73.5286C70.2356 74.1921 71.122 75.028 71.9035 76.0274C73.5145 78.0876 74.3404 80.4092 74.4159 82.5399L72.858 82.2887ZM72.4908 82.5893L65.9078 81.5281L69.325 87.0043C69.8202 86.8481 70.2823 86.6106 70.6953 86.2898C71.794 85.4361 72.4028 84.102 72.4908 82.5893ZM69.5202 87.3171C70.0192 87.1485 70.4887 86.9007 70.9144 86.5699C72.1046 85.6451 72.7476 84.2315 72.8452 82.6465L74.4215 82.9006C74.4116 85.0749 73.6051 87.0186 72.0397 88.2349C71.598 88.5781 71.1146 88.8488 70.6008 89.0488L69.5202 87.3171ZM68.9663 87.1021L65.5664 81.6536L63.6589 85.8097C65.3763 87.0248 67.3235 87.4815 68.9663 87.1021ZM63.509 86.1362C65.3224 87.398 67.4007 87.8761 69.1661 87.4222L70.2571 89.1706C68.004 89.8936 65.2368 89.3317 62.8218 87.6335L63.509 86.1362ZM63.3662 85.5935L65.2786 81.4266L59.9958 80.575C60.2898 81.7022 60.8448 82.8457 61.6714 83.9028C62.1863 84.5612 62.7594 85.126 63.3662 85.5935ZM59.6155 80.5136C59.9134 81.7448 60.5052 82.9893 61.3903 84.1212C61.9387 84.8225 62.5567 85.4256 63.215 85.9229L62.5279 87.42C61.6909 86.7915 60.9015 86.0237 60.1974 85.1232C58.9884 83.577 58.2215 81.8836 57.8822 80.2342L59.6155 80.5136ZM57.4441 79.8037C56.9951 76.9393 57.7925 74.2281 59.8421 72.6356C59.8639 72.6187 59.8857 72.6019 59.9077 72.5853L58.8855 70.9472C58.758 71.0335 58.6329 71.1243 58.5103 71.2196C56.1618 73.0444 55.1819 76.1627 55.6343 79.512L57.4441 79.8037ZM55.6897 79.8808L57.509 80.174C57.8483 81.928 58.6511 83.7236 59.9163 85.3416C60.6537 86.2846 61.488 87.0905 62.3772 87.7485L61.633 89.37C60.5648 88.5774 59.5586 87.6046 58.6642 86.4607C57.0414 84.3854 56.0559 82.0916 55.6897 79.8808ZM55.2687 79.453C54.8343 76.0409 55.8397 72.8442 58.2912 70.9394C58.4239 70.8363 58.5592 70.7382 58.697 70.6451L57.6803 69.0158C57.362 69.2019 57.0545 69.4095 56.7592 69.639C54.0471 71.7463 52.8773 75.2983 53.307 79.1368L55.2687 79.453ZM53.3529 79.504L55.3211 79.8213C55.6846 82.1374 56.7059 84.5342 58.3831 86.6791C59.3106 87.8652 60.3618 88.8762 61.4824 89.6981L60.7319 91.3331C59.3593 90.359 58.0672 89.137 56.9295 87.682C54.9158 85.1067 53.7304 82.2424 53.3529 79.504ZM52.9435 79.0782C52.53 75.1757 53.7266 71.5449 56.5401 69.3588C56.8459 69.1212 57.1635 68.9063 57.4917 68.7136L56.6719 67.3999C56.1552 67.6689 55.6606 67.9848 55.1924 68.3485C52.1826 70.6872 50.8295 74.5682 51.1836 78.7944L52.9435 79.0782ZM51.2184 79.1599L52.987 79.445C53.3602 82.2891 54.5815 85.2571 56.6484 87.9004C57.8186 89.3969 59.1561 90.6568 60.582 91.6598L59.8331 93.2915C58.223 92.1638 56.7081 90.7403 55.3782 89.0395C52.948 85.9316 51.5693 82.4523 51.2184 79.1599ZM50.8223 78.7362C50.4826 74.4445 51.8639 70.4844 54.9733 68.0684C55.4523 67.6962 55.9568 67.3727 56.4826 67.0966L55.6501 65.7624C54.8569 66.1185 54.1043 66.5676 53.4035 67.1122C50.3398 69.4927 48.8083 73.2759 48.8413 77.5035C48.8436 77.8076 48.8541 78.1138 48.8727 78.4219L50.8223 78.7362ZM48.8984 78.7859L50.8553 79.1014C51.2001 82.5001 52.6152 86.0838 55.0971 89.2579C56.4592 90.9999 58.0198 92.4614 59.6834 93.6178L58.8737 95.3818C56.9811 94.084 55.2019 92.4296 53.6512 90.4464C50.7928 86.7909 49.2106 82.6578 48.8984 78.7859ZM55.981 65.6202L56.8021 66.9359C60.9643 64.9332 66.368 65.7978 70.9789 69.0067L71.2505 68.415C69.1423 66.8947 66.8797 65.8227 64.626 65.2386C61.5899 64.4516 58.5814 64.5515 55.981 65.6202ZM71.5437 68.63L71.2745 69.2165C72.8241 70.3371 74.2778 71.7252 75.5566 73.3606C78.0114 76.5 79.4225 80.0402 79.7867 83.4057L80.665 83.5473C80.1564 80.0199 78.6172 76.3401 76.0428 73.0478C74.6913 71.3193 73.1662 69.8406 71.5437 68.63ZM80.7143 83.9151L79.8222 83.7713C80.1948 88.1057 78.8166 92.1133 75.6803 94.5502C75.3084 94.8392 74.921 95.0989 74.5202 95.3298L75.5188 96.9301C75.7823 96.7595 76.0398 96.5769 76.2905 96.382C79.3542 94.0015 80.8857 90.2183 80.8527 85.9907C80.8474 85.3084 80.8013 84.6152 80.7143 83.9151ZM75.2168 97.1186L74.2082 95.5023C70.0919 97.6852 64.658 96.947 59.9819 93.8213L59.1731 95.5835C61.0694 96.8385 63.0723 97.7384 65.068 98.2556C68.7094 99.1994 72.3111 98.8676 75.2168 97.1186ZM60.1311 93.4961C64.7232 96.5867 70.0338 97.2951 74.019 95.1991L72.9924 93.554C69.4275 95.2333 64.8395 94.5287 60.8799 91.8647L60.1311 93.4961ZM61.0292 91.5394C64.9024 94.1659 69.3654 94.8432 72.8021 93.249L71.8164 91.6695C68.7979 92.867 65.0228 92.17 61.7774 89.909L61.0292 91.5394ZM61.9272 89.5827C65.0837 91.8043 68.7315 92.4755 71.6239 91.3609L70.4522 89.4832C68.075 90.286 65.1789 89.7004 62.672 87.9599L61.9272 89.5827ZM70.7931 89.357L71.9575 91.223C72.4869 90.9886 72.9883 90.6915 73.4534 90.3301C75.5218 88.7229 76.5285 86.1124 76.4302 83.2244L74.7776 82.958C74.7571 85.2022 73.9185 87.2254 72.2588 88.515C71.8052 88.8675 71.3132 89.1473 70.7931 89.357ZM74.774 82.5976L76.4122 82.8617C76.2442 80.2972 75.2166 77.5406 73.2995 75.0889C72.3183 73.8341 71.2026 72.785 70.0181 71.9541L69.4453 73.2022C70.4387 73.8944 71.3707 74.7682 72.1846 75.809C73.844 77.9313 74.7081 80.3589 74.774 82.5976ZM69.146 73.0003L69.7197 71.7503C66.1967 69.4094 62.1242 68.9717 59.1852 70.7549L60.1984 72.3787C62.6855 70.7191 66.1619 71.0533 69.146 73.0003ZM58.9967 70.4528C62.0712 68.5813 66.2649 69.052 69.8688 71.4255L70.3162 70.4507C66.2559 67.6349 61.5198 66.9737 57.9918 68.8424L58.9967 70.4528ZM57.8026 68.5393C61.4631 66.5828 66.3224 67.2754 70.4658 70.1247L70.8291 69.333C66.3033 66.1596 61.0245 65.3243 56.9922 67.2406L57.8026 68.5393ZM71.1242 69.544L70.7621 70.333C72.1338 71.3189 73.4206 72.5439 74.5511 73.9897C76.793 76.8567 78.0401 80.1057 78.2891 83.1643L79.423 83.3471C79.0531 80.0878 77.6782 76.6518 75.2755 73.579C74.0295 71.9856 72.6211 70.6355 71.1242 69.544ZM79.4603 83.7129L78.3141 83.5282C78.5164 87.1553 77.3 90.4795 74.6594 92.5313C74.2326 92.863 73.7824 93.1506 73.3129 93.3951L74.3315 95.0274C74.7225 94.8032 75.0998 94.5508 75.4613 94.27C78.4974 91.9108 79.8478 87.9822 79.4603 83.7129ZM73.1236 93.0917C73.584 92.8543 74.0243 92.5744 74.4404 92.2511C76.9828 90.2756 78.1699 87.0306 77.9545 83.4702L76.7883 83.2822C76.8746 86.2381 75.8375 88.928 73.6725 90.6102C73.196 90.9805 72.6854 91.286 72.1483 91.5287L73.1236 93.0917ZM76.7721 82.9197L77.9276 83.106C77.6714 80.1542 76.461 77.0101 74.2701 74.2081C73.1722 72.8041 71.9308 71.6171 70.6118 70.6604L70.1678 71.6278C71.4058 72.4874 72.5671 73.5745 73.5805 74.8705C75.5475 77.386 76.6124 80.2479 76.7721 82.9197Z" fill="#619B96"/>
</mask>
<g mask="url(#mask14_8447_19176)">
<path fill-rule="evenodd" clip-rule="evenodd" d="M48.5123 78.2071L48.5363 78.5708C48.8378 82.5421 50.451 86.7749 53.3701 90.5081C59.4495 98.2828 69.0198 101.111 75.405 97.2636L75.7071 97.0751C75.981 96.898 76.2487 96.7082 76.5096 96.5055C82.8481 91.5803 82.765 80.91 76.3239 72.6726C70.7045 65.4861 62.1025 62.5256 55.7902 65.1576L55.4601 65.3013C54.6584 65.6653 53.896 66.1223 53.1844 66.6753C49.8063 69.3 48.2522 73.5566 48.5123 78.2071ZM61.2969 74.6549L65.1915 80.896L59.9076 80.0442C59.4594 77.9149 59.9464 75.885 61.2969 74.6549ZM61.1056 74.3483C59.6275 75.6537 59.1051 77.7766 59.5341 79.9839L57.8129 79.7065C57.3431 76.9031 58.1167 74.2699 60.0612 72.759C60.073 72.7498 60.0849 72.7407 60.0968 72.7316L61.1056 74.3483ZM61.5726 74.4242L65.5184 80.7474L68.2867 74.7158C65.985 73.2275 63.3366 73.0706 61.5726 74.4242ZM68.4355 74.3917C66.0586 72.8749 63.2933 72.6781 61.3835 74.1211L60.3869 72.524C62.7345 70.9535 66.0915 71.2519 68.997 73.1682L68.4355 74.3917ZM68.5858 74.9181L65.7973 80.9937L72.5019 82.0745C72.5088 80.3792 71.8807 78.4955 70.576 76.827C69.9783 76.0626 69.302 75.4244 68.5858 74.9181ZM72.858 82.132C72.8762 80.3272 72.2083 78.3367 70.8571 76.6086C70.227 75.8028 69.5051 75.1267 68.7356 74.5917L69.2954 73.3719C70.2356 74.0354 71.122 74.8712 71.9035 75.8707C73.5145 77.9309 74.3404 80.2525 74.4159 82.3831L72.858 82.132ZM72.4908 82.4326L65.9077 81.3713L69.325 86.8476C69.8202 86.6913 70.2823 86.4539 70.6953 86.133C71.794 85.2793 72.4028 83.9453 72.4908 82.4326ZM69.5202 87.1603C70.0192 86.9918 70.4887 86.744 70.9144 86.4132C72.1045 85.4884 72.7475 84.0748 72.8452 82.4898L74.4215 82.7439C74.4116 84.9182 73.605 86.8618 72.0397 88.0781C71.598 88.4214 71.1146 88.692 70.6008 88.8921L69.5202 87.1603ZM68.9663 86.9453L65.5664 81.4968L63.6589 85.653C65.3763 86.8681 67.3235 87.3247 68.9663 86.9453ZM63.509 85.9794C65.3224 87.2412 67.4007 87.7194 69.1661 87.2654L70.2571 89.0139C68.004 89.7369 65.2368 89.1749 62.8218 87.4768L63.509 85.9794ZM63.3662 85.4368L65.2786 81.2699L59.9958 80.4182C60.2898 81.5455 60.8448 82.6889 61.6714 83.746C62.1863 84.4045 62.7594 84.9693 63.3662 85.4368ZM59.6154 80.3569C59.9134 81.588 60.5052 82.8325 61.3903 83.9644C61.9387 84.6658 62.5567 85.2689 63.215 85.7662L62.5279 87.2632C61.6909 86.6347 60.9015 85.867 60.1974 84.9665C58.9884 83.4203 58.2215 81.7269 57.8822 80.0775L59.6154 80.3569ZM57.4441 79.647C56.9951 76.7826 57.7925 74.0714 59.8421 72.4788C59.8639 72.4619 59.8857 72.4452 59.9077 72.4286L58.8855 70.7904C58.758 70.8768 58.6329 70.9676 58.5103 71.0628C56.1618 72.8877 55.1819 76.0059 55.6343 79.3552L57.4441 79.647ZM55.6897 79.724L57.509 80.0173C57.8483 81.7713 58.6511 83.5668 59.9163 85.1849C60.6537 86.1278 61.488 86.9337 62.3772 87.5917L61.633 89.2132C60.5648 88.4207 59.5586 87.4478 58.6642 86.304C57.0414 84.2286 56.0559 81.9349 55.6897 79.724ZM55.2687 79.2963C54.8343 75.8842 55.8397 72.6875 58.2912 70.7826C58.4239 70.6796 58.5592 70.5815 58.697 70.4884L57.6803 68.8591C57.362 69.0452 57.0545 69.2528 56.7592 69.4822C54.0471 71.5896 52.8773 75.1416 53.307 78.98L55.2687 79.2963ZM53.3529 79.3473L55.3211 79.6646C55.6846 81.9806 56.7059 84.3774 58.3831 86.5224C59.3106 87.7085 60.3618 88.7195 61.4824 89.5414L60.7319 91.1764C59.3593 90.2022 58.0672 88.9803 56.9295 87.5252C54.9158 84.95 53.7304 82.0856 53.3529 79.3473ZM52.9435 78.9214C52.53 75.0189 53.7266 71.3882 56.5401 69.2021C56.8459 68.9645 57.1635 68.7495 57.4917 68.5569L56.6719 67.2432C56.1552 67.5122 55.6606 67.828 55.1924 68.1918C52.1826 70.5305 50.8295 74.4114 51.1836 78.6377L52.9435 78.9214ZM51.2184 79.0032L52.987 79.2883C53.3602 82.1324 54.5815 85.1003 56.6484 87.7436C57.8186 89.2401 59.1561 90.5001 60.582 91.5031L59.8331 93.1348C58.223 92.0071 56.7081 90.5835 55.3782 88.8828C52.948 85.7749 51.5693 82.2955 51.2184 79.0032ZM50.8223 78.5795C50.4826 74.2877 51.8639 70.3277 54.9733 67.9116C55.4523 67.5395 55.9568 67.2159 56.4826 66.9398L55.6501 65.6057C54.8569 65.9618 54.1043 66.4109 53.4035 66.9554C50.3398 69.3359 48.8083 73.1191 48.8413 77.3468C48.8436 77.6508 48.8541 77.9571 48.8727 78.2651L50.8223 78.5795ZM48.8983 78.6291L50.8553 78.9446C51.2001 82.3434 52.6152 85.9271 55.0971 89.1012C56.4592 90.8432 58.0198 92.3046 59.6834 93.4611L58.8737 95.2251C56.9811 93.9273 55.2019 92.2729 53.6512 90.2897C50.7928 86.6342 49.2106 82.501 48.8983 78.6291ZM55.981 65.4634L56.8021 66.7792C60.9643 64.7765 66.368 65.6411 70.9789 68.85L71.2505 68.2582C69.1423 66.7379 66.8796 65.6659 64.626 65.0818C61.5899 64.2949 58.5814 64.3948 55.981 65.4634ZM71.5437 68.4733L71.2745 69.0597C72.8241 70.1803 74.2778 71.5685 75.5565 73.2039C78.0114 76.3433 79.4225 79.8834 79.7867 83.249L80.665 83.3906C80.1564 79.8631 78.6172 76.1834 76.0428 72.891C74.6913 71.1626 73.1662 69.6838 71.5437 68.4733ZM80.7143 83.7584L79.8222 83.6145C80.1948 87.949 78.8166 91.9565 75.6803 94.3934C75.3084 94.6824 74.921 94.9421 74.5202 95.173L75.5188 96.7733C75.7823 96.6028 76.0397 96.4201 76.2905 96.2253C79.3542 93.8448 80.8857 90.0616 80.8527 85.8339C80.8474 85.1517 80.8013 84.4584 80.7143 83.7584ZM75.2168 96.9619L74.2082 95.3456C70.0919 97.5285 64.658 96.7903 59.9819 93.6645L59.1731 95.4268C61.0694 96.6818 63.0723 97.5816 65.068 98.0989C68.7094 99.0427 72.3111 98.7109 75.2168 96.9619ZM60.1311 93.3394C64.7232 96.4299 70.0338 97.1384 74.019 95.0424L72.9924 93.3973C69.4275 95.0766 64.8395 94.3719 60.8799 91.708L60.1311 93.3394ZM61.0292 91.3826C64.9024 94.0092 69.3653 94.6864 72.8021 93.0923L71.8164 91.5127C68.7979 92.7103 65.0228 92.0133 61.7774 89.7523L61.0292 91.3826ZM61.9272 89.4259C65.0837 91.6475 68.7315 92.3187 71.6239 91.2042L70.4522 89.3265C68.075 90.1293 65.1789 89.5437 62.672 87.8031L61.9272 89.4259ZM70.7931 89.2003L71.9575 91.0662C72.4869 90.8318 72.9883 90.5347 73.4534 90.1733C75.5218 88.5662 76.5285 85.9557 76.4302 83.0677L74.7776 82.8013C74.7571 85.0454 73.9185 87.0687 72.2588 88.3583C71.8052 88.7108 71.3132 88.9906 70.7931 89.2003ZM74.7739 82.4408L76.4122 82.7049C76.2442 80.1404 75.2166 77.3839 73.2995 74.9322C72.3183 73.6774 71.2026 72.6283 70.0181 71.7973L69.4453 73.0454C70.4387 73.7377 71.3707 74.6115 72.1845 75.6523C73.844 77.7745 74.7081 80.2021 74.7739 82.4408ZM69.146 72.8436L69.7197 71.5936C66.1967 69.2527 62.1242 68.815 59.1852 70.5982L60.1984 72.222C62.6855 70.5624 66.1619 70.8966 69.146 72.8436ZM58.9967 70.2961C62.0712 68.4246 66.2649 68.8952 69.8688 71.2688L70.3162 70.294C66.2559 67.4782 61.5198 66.817 57.9918 68.6857L58.9967 70.2961ZM57.8026 68.3826C61.4631 66.426 66.3224 67.1186 70.4658 69.968L70.8291 69.1763C66.3033 66.0028 61.0245 65.1676 56.9922 67.0838L57.8026 68.3826ZM71.1242 69.3873L70.7621 70.1763C72.1338 71.1621 73.4206 72.3871 74.5511 73.833C76.793 76.7 78.0401 79.949 78.2891 83.0075L79.423 83.1903C79.0531 79.931 77.6782 76.4951 75.2755 73.4223C74.0295 71.8288 72.6211 70.4787 71.1242 69.3873ZM79.4603 83.5562L78.3141 83.3714C78.5164 86.9985 77.3 90.3228 74.6594 92.3745C74.2325 92.7063 73.7824 92.9939 73.3129 93.2384L74.3315 94.8707C74.7225 94.6464 75.0998 94.3941 75.4612 94.1133C78.4974 91.7541 79.8478 87.8255 79.4603 83.5562ZM73.1236 92.9349C73.584 92.6976 74.0243 92.4177 74.4404 92.0944C76.9828 90.1189 78.1699 86.8739 77.9545 83.3134L76.7882 83.1254C76.8746 86.0814 75.8375 88.7713 73.6725 90.4535C73.196 90.8237 72.6854 91.1292 72.1483 91.372L73.1236 92.9349ZM76.7721 82.763L77.9276 82.9493C77.6714 79.9975 76.461 76.8533 74.2701 74.0514C73.1722 72.6474 71.9308 71.4604 70.6118 70.5037L70.1678 71.471C71.4058 72.3307 72.5671 73.4177 73.5805 74.7138C75.5475 77.2293 76.6124 80.0912 76.7721 82.763Z" fill="white"/>
<path fill-rule="evenodd" clip-rule="evenodd" d="M48.8248 78.5205L48.8488 78.8843C49.1503 82.8556 50.7635 87.0884 53.6826 90.8215C59.762 98.5963 69.3323 101.425 75.7176 97.5771L76.0196 97.3885C76.2935 97.2115 76.5612 97.0216 76.8221 96.8189C83.1606 91.8938 83.0775 81.2235 76.6364 72.9861C71.017 65.7996 62.415 62.8391 56.1027 65.4711L55.7726 65.6147C54.9709 65.9787 54.2085 66.4358 53.4969 66.9887C50.1188 69.6135 48.5647 73.8701 48.8248 78.5205ZM61.6094 74.9683L65.504 81.2095L60.2201 80.3576C59.7719 78.2284 60.2589 76.1984 61.6094 74.9683ZM61.4181 74.6618C59.94 75.9671 59.4176 78.09 59.8466 80.2974L58.1254 80.0199C57.6556 77.2165 58.4292 74.5834 60.3737 73.0725C60.3855 73.0633 60.3974 73.0542 60.4093 73.0451L61.4181 74.6618ZM61.8851 74.7377L65.8309 81.0609L68.5992 75.0293C66.2975 73.5409 63.6491 73.3841 61.8851 74.7377ZM68.748 74.7052C66.3711 73.1884 63.6058 72.9916 61.696 74.4346L60.6994 72.8374C63.047 71.267 66.404 71.5654 69.3095 73.4817L68.748 74.7052ZM68.8983 75.2316L66.1098 81.3071L72.8144 82.388C72.8213 80.6926 72.1932 78.809 70.8885 77.1405C70.2908 76.3761 69.6145 75.7379 68.8983 75.2316ZM73.1705 82.4454C73.1887 80.6407 72.5209 78.6502 71.1696 76.9221C70.5395 76.1163 69.8176 75.4402 69.0481 74.9051L69.6079 73.6853C70.5481 74.3488 71.4345 75.1847 72.216 76.1841C73.827 78.2444 74.6529 80.566 74.7284 82.6966L73.1705 82.4454ZM72.8033 82.7461L66.2203 81.6848L69.6375 87.1611C70.1327 87.0048 70.5948 86.7674 71.0078 86.4465C72.1065 85.5928 72.7153 84.2588 72.8033 82.7461ZM69.8327 87.4738C70.3317 87.3053 70.8012 87.0574 71.2269 86.7267C72.4171 85.8019 73.0601 84.3882 73.1577 82.8032L74.734 83.0573C74.7241 85.2316 73.9176 87.1753 72.3522 88.3916C71.9105 88.7348 71.4271 89.0055 70.9133 89.2055L69.8327 87.4738ZM69.2788 87.2588L65.8789 81.8103L63.9714 85.9665C65.6888 87.1816 67.636 87.6382 69.2788 87.2588ZM63.8215 86.2929C65.6349 87.5547 67.7132 88.0329 69.4786 87.5789L70.5696 89.3274C68.3165 90.0504 65.5493 89.4884 63.1343 87.7903L63.8215 86.2929ZM63.6787 85.7503L65.5911 81.5834L60.3083 80.7317C60.6023 81.8589 61.1573 83.0024 61.9839 84.0595C62.4988 84.718 63.0719 85.2828 63.6787 85.7503ZM59.928 80.6704C60.2259 81.9015 60.8177 83.146 61.7028 84.2779C62.2512 84.9793 62.8692 85.5823 63.5275 86.0797L62.8404 87.5767C62.0034 86.9482 61.214 86.1805 60.5099 85.28C59.3009 83.7338 58.534 82.0403 58.1947 80.3909L59.928 80.6704ZM57.7566 79.9605C57.3076 77.0961 58.105 74.3849 60.1546 72.7923C60.1764 72.7754 60.1982 72.7586 60.2202 72.7421L59.198 71.1039C59.0705 71.1903 58.9454 71.281 58.8228 71.3763C56.4743 73.2011 55.4944 76.3194 55.9468 79.6687L57.7566 79.9605ZM56.0022 80.0375L57.8215 80.3308C58.1608 82.0848 58.9636 83.8803 60.2288 85.4983C60.9662 86.4413 61.8005 87.2472 62.6897 87.9052L61.9455 89.5267C60.8773 88.7342 59.8711 87.7613 58.9767 86.6175C57.3539 84.5421 56.3684 82.2483 56.0022 80.0375ZM55.5812 79.6098C55.1468 76.1977 56.1522 73.0009 58.6037 71.0961C58.7364 70.993 58.8717 70.895 59.0095 70.8019L57.9928 69.1726C57.6745 69.3586 57.367 69.5662 57.0717 69.7957C54.3596 71.903 53.1898 75.455 53.6195 79.2935L55.5812 79.6098ZM53.6654 79.6608L55.6336 79.9781C55.9971 82.2941 57.0184 84.6909 58.6956 86.8359C59.6231 88.0219 60.6743 89.0329 61.7949 89.8548L61.0444 91.4899C59.6718 90.5157 58.3797 89.2938 57.242 87.8387C55.2283 85.2634 54.0429 82.3991 53.6654 79.6608ZM53.256 79.2349C52.8425 75.3324 54.0391 71.7017 56.8526 69.5155C57.1584 69.278 57.476 69.063 57.8042 68.8703L56.9844 67.5567C56.4677 67.8256 55.9731 68.1415 55.5049 68.5053C52.4951 70.8439 51.142 74.7249 51.4961 78.9512L53.256 79.2349ZM51.5309 79.3166L53.2995 79.6018C53.6727 82.4459 54.894 85.4138 56.9609 88.0571C58.1311 89.5536 59.4686 90.8135 60.8945 91.8165L60.1456 93.4482C58.5355 92.3206 57.0206 90.897 55.6907 89.1962C53.2605 86.0883 51.8818 82.609 51.5309 79.3166ZM51.1348 78.8929C50.7951 74.6012 52.1764 70.6412 55.2858 68.2251C55.7648 67.853 56.2693 67.5294 56.7951 67.2533L55.9626 65.9191C55.1694 66.2753 54.4168 66.7244 53.716 67.2689C50.6523 69.6494 49.1208 73.4326 49.1538 77.6603C49.1561 77.9643 49.1666 78.2706 49.1852 78.5786L51.1348 78.8929ZM49.2109 78.9426L51.1678 79.2581C51.5126 82.6568 52.9277 86.2405 55.4096 89.4146C56.7717 91.1566 58.3323 92.6181 59.9959 93.7745L59.1862 95.5386C57.2936 94.2408 55.5144 92.5864 53.9637 90.6032C51.1053 86.9476 49.5231 82.8145 49.2109 78.9426ZM56.2935 65.7769L57.1146 67.0927C61.2768 65.09 66.6805 65.9546 71.2914 69.1635L71.563 68.5717C69.4548 67.0514 67.1922 65.9794 64.9385 65.3953C61.9024 64.6084 58.8939 64.7083 56.2935 65.7769ZM71.8562 68.7868L71.587 69.3732C73.1366 70.4938 74.5903 71.882 75.8691 73.5174C78.3239 76.6568 79.735 80.1969 80.0992 83.5624L80.9775 83.704C80.4689 80.1766 78.9297 76.4968 76.3553 73.2045C75.0038 71.476 73.4787 69.9973 71.8562 68.7868ZM81.0268 84.0719L80.1347 83.928C80.5073 88.2624 79.1291 92.27 75.9928 94.7069C75.6209 94.9959 75.2335 95.2556 74.8327 95.4865L75.8313 97.0868C76.0948 96.9163 76.3523 96.7336 76.603 96.5388C79.6667 94.1583 81.1982 90.3751 81.1652 86.1474C81.1599 85.4652 81.1138 84.7719 81.0268 84.0719ZM75.5293 97.2753L74.5207 95.6591C70.4044 97.8419 64.9705 97.1037 60.2944 93.978L59.4856 95.7402C61.3819 96.9952 63.3848 97.8951 65.3805 98.4124C69.0219 99.3562 72.6236 99.0243 75.5293 97.2753ZM60.4436 93.6528C65.0357 96.7434 70.3463 97.4519 74.3315 95.3558L73.3049 93.7107C69.74 95.39 65.152 94.6854 61.1924 92.0215L60.4436 93.6528ZM61.3417 91.6961C65.2149 94.3227 69.6779 94.9999 73.1146 93.4057L72.1289 91.8262C69.1104 93.0238 65.3353 92.3267 62.0899 90.0658L61.3417 91.6961ZM62.2397 89.7394C65.3962 91.961 69.044 92.6322 71.9364 91.5177L70.7647 89.6399C68.3875 90.4427 65.4914 89.8571 62.9845 88.1166L62.2397 89.7394ZM71.1056 89.5138L72.27 91.3797C72.7994 91.1453 73.3008 90.8482 73.7659 90.4868C75.8343 88.8796 76.841 86.2692 76.7427 83.3812L75.0901 83.1148C75.0696 85.3589 74.231 87.3821 72.5713 88.6718C72.1177 89.0242 71.6257 89.304 71.1056 89.5138ZM75.0865 82.7543L76.7247 83.0184C76.5567 80.4539 75.5291 77.6974 73.612 75.2456C72.6308 73.9908 71.5151 72.9418 70.3306 72.1108L69.7578 73.3589C70.7512 74.0511 71.6832 74.925 72.4971 75.9657C74.1565 78.088 75.0206 80.5156 75.0865 82.7543ZM69.4585 73.1571L70.0322 71.9071C66.5092 69.5661 62.4367 69.1285 59.4977 70.9116L60.5109 72.5355C62.998 70.8759 66.4744 71.21 69.4585 73.1571ZM59.3092 70.6096C62.3837 68.738 66.5774 69.2087 70.1813 71.5822L70.6287 70.6074C66.5684 67.7917 61.8323 67.1304 58.3043 68.9992L59.3092 70.6096ZM58.1151 68.696C61.7756 66.7395 66.6349 67.4321 70.7783 70.2815L71.1416 69.4898C66.6158 66.3163 61.337 65.481 57.3047 67.3973L58.1151 68.696ZM71.4367 69.7008L71.0746 70.4898C72.4463 71.4756 73.7331 72.7006 74.8636 74.1464C77.1055 77.0135 78.3526 80.2624 78.6016 83.321L79.7355 83.5038C79.3656 80.2445 77.9907 76.8086 75.588 73.7357C74.342 72.1423 72.9336 70.7922 71.4367 69.7008ZM79.7728 83.8697L78.6266 83.6849C78.8289 87.312 77.6125 90.6362 74.9719 92.688C74.5451 93.0197 74.0949 93.3073 73.6254 93.5518L74.644 95.1841C75.035 94.9599 75.4123 94.7076 75.7738 94.4267C78.8099 92.0676 80.1603 88.139 79.7728 83.8697ZM73.4361 93.2484C73.8965 93.0111 74.3368 92.7311 74.7529 92.4078C77.2953 90.4324 78.4824 87.1874 78.267 83.6269L77.1008 83.4389C77.1871 86.3949 76.15 89.0847 73.985 90.767C73.5085 91.1372 72.9979 91.4427 72.4608 91.6855L73.4361 93.2484ZM77.0846 83.0764L78.2401 83.2627C77.9839 80.3109 76.7735 77.1668 74.5826 74.3648C73.4847 72.9608 72.2433 71.7739 70.9243 70.8171L70.4803 71.7845C71.7183 72.6442 72.8796 73.7312 73.893 75.0272C75.86 77.5428 76.9249 80.4046 77.0846 83.0764Z" fill="#619B96"/>
</g>
</g>
<mask id="mask15_8447_19176" style="mask-type:alpha" maskUnits="userSpaceOnUse" x="45" y="60" width="40" height="43">
<ellipse cx="65.1271" cy="81.5489" rx="17.1504" ry="22.7233" transform="rotate(-38.226 65.1271 81.5489)" fill="#F8FBFC"/>
</mask>
<g mask="url(#mask15_8447_19176)">
<path fill-rule="evenodd" clip-rule="evenodd" d="M79.19 99.3994C86.631 93.5385 86.368 80.7953 78.6027 70.9365C70.8374 61.0777 58.5103 57.8368 51.0694 63.6977C43.6284 69.5586 43.8914 82.3019 51.6567 92.1606C59.422 102.019 71.7491 105.26 79.19 99.3994ZM77.9434 97.0466C84.6791 91.7963 84.5908 80.4215 77.746 71.6402C70.9013 62.859 59.8922 59.9966 53.1564 65.2469C46.4207 70.4972 46.5091 81.872 53.3538 90.6532C60.1985 99.4345 71.2077 102.297 77.9434 97.0466Z" fill="#F8FBFC"/>
<g filter="url(#filter38_f_8447_19176)">
<path fill-rule="evenodd" clip-rule="evenodd" d="M79.19 99.3994C86.631 93.5385 86.368 80.7953 78.6027 70.9365C70.8374 61.0777 58.5103 57.8368 51.0694 63.6977C43.6284 69.5586 43.8914 82.3019 51.6567 92.1606C59.422 102.019 71.7491 105.26 79.19 99.3994ZM77.9434 97.0466C84.6791 91.7963 84.5908 80.4215 77.746 71.6402C70.9013 62.859 59.8922 59.9966 53.1564 65.2469C46.4207 70.4972 46.5091 81.872 53.3538 90.6532C60.1985 99.4345 71.2077 102.297 77.9434 97.0466Z" fill="url(#paint22_linear_8447_19176)"/>
</g>
</g>
<mask id="mask16_8447_19176" style="mask-type:alpha" maskUnits="userSpaceOnUse" x="53" y="62" width="30" height="32">
<path d="M77.7458 71.6406C70.9011 62.8593 59.892 59.9969 53.1562 65.2472L53.3889 65.1673C59.9904 60.6958 70.4188 63.7799 77.0777 72.3228C82.515 79.2985 83.8093 87.8228 80.8632 93.6067L80.8827 93.7254C84.4352 87.8447 83.377 78.8649 77.7458 71.6406Z" fill="#F8FBFC"/>
</mask>
<g mask="url(#mask16_8447_19176)">
<path d="M77.7458 71.6406C70.9011 62.8593 59.892 59.9969 53.1562 65.2472L53.3889 65.1673C59.9904 60.6958 70.4188 63.7799 77.0777 72.3228C82.515 79.2985 83.8093 87.8228 80.8632 93.6067L80.8827 93.7254C84.4352 87.8447 83.377 78.8649 77.7458 71.6406Z" fill="#F8FBFC"/>
<g filter="url(#filter39_f_8447_19176)">
<path d="M77.7458 71.6406C70.9011 62.8593 59.892 59.9969 53.1562 65.2472L53.3889 65.1673C59.9904 60.6958 70.4188 63.7799 77.0777 72.3228C82.515 79.2985 83.8093 87.8228 80.8632 93.6067L80.8827 93.7254C84.4352 87.8447 83.377 78.8649 77.7458 71.6406Z" fill="url(#paint23_linear_8447_19176)"/>
</g>
</g>
<g filter="url(#filter40_f_8447_19176)">
<path d="M52.1528 72.8138L54.4703 73.9734L52.9253 71.6542L55.2428 72.5819L53.5433 70.4172M54.7021 69.1803L55.6291 70.2626M55.6291 70.2626L56.5561 71.3449M55.6291 70.2626L56.7106 69.4122M55.8608 68.4072L57.6376 70.4945M59.1827 68.5737L58.0239 67.3248L58.3329 68.9152M59.1827 68.5737L60.0324 69.4895M59.1827 68.5737L58.3329 68.9152M58.5647 70.108L58.3329 68.9152M61.3457 69.3349L60.4959 66.9321M60.4959 66.9321L59.4917 67.0929M60.4959 66.9321L61.423 66.7837M63.1225 69.0256L62.8135 66.5518L64.0495 68.3299L64.822 66.7837L65.2083 69.4895M67.5206 67.5924C67.5191 67.5692 67.5207 67.5568 67.5259 67.5568C67.5318 67.5568 67.5297 67.5692 67.5206 67.5924ZM67.5206 67.5924C67.531 67.7576 67.6976 68.4715 67.8718 69.1803M67.5206 67.5924C67.4625 67.7402 67.1202 68.3232 66.7904 68.871M67.8718 69.1803C67.9687 69.5744 68.0679 69.967 68.1439 70.2626M67.8718 69.1803L66.7904 68.871M66.3671 69.5668C66.4855 69.3743 66.6366 69.1265 66.7904 68.871M69.1481 70.8811L70.1524 68.7164L70.3842 71.9634L71.6202 69.7987M78.9591 78.0708C78.9591 78.0708 76.7961 78.0708 77.1051 79.3851C77.4141 80.6993 79.6544 79.617 79.6544 79.617M78.9591 81.5497C78.457 81.4917 77.9548 81.5497 77.9548 81.5497H78.9591ZM78.9591 81.5497C79.4613 81.6077 79.9634 81.7816 79.9634 82.2455C79.9634 83.1732 78.1866 82.864 78.1866 82.864M78.9591 81.5497H79.8089M78.3411 84.2555L80.2724 84.7194M80.7359 84.7194L80.9677 84.7967L80.8904 84.9513M80.9677 87.4252V86.7294L80.2172 86.4202M78.3411 85.6471L80.2172 86.4202M80.2172 86.4202V86.9613M78.2638 87.2706L80.9677 88.6621M72.3927 94.383L72.47 94.4603M70.8477 96.5476L70.4406 95.4161M70.4406 95.4161L70.1524 94.6149M70.4406 95.4161L69.9979 95.5426M70.4406 95.4161L71.6202 95.0788L71.3884 97.398M67.6804 97.0888H68.9164V96.1611C68.9164 96.1611 67.9664 96.2927 67.6031 95.9292C67.2398 95.5656 67.3569 94.8107 67.8349 94.6149C68.2346 94.4512 68.8391 94.6149 68.7619 95.1561M66.1353 93.4553V94.8855M66.1353 94.8855V96.3157M66.1353 94.8855C66.1353 94.8855 65.9036 94.1511 65.4401 94.1511C64.9765 94.1511 64.8993 94.6922 64.8993 94.6922M64.8993 94.6922V95.9292M64.8993 94.6922V93.9191M63.3543 95.4653C63.3969 94.83 63.484 94.4344 63.7072 93.9269M63.7072 93.9269C63.7613 93.8037 63.8235 93.674 63.895 93.5326C63.895 93.5326 63.8252 93.7053 63.7072 93.9269ZM63.7072 93.9269C63.4692 94.3735 63.0352 95.0185 62.5817 94.8469C61.9935 94.6241 62.4392 93.4308 62.6042 93.0389M62.6042 93.0389C62.6372 92.9605 62.659 92.9141 62.659 92.9141C62.659 92.9141 62.6397 92.9619 62.6042 93.0389ZM62.6042 93.0389C62.4433 93.3878 61.9507 94.3362 61.423 94.1511C60.7391 93.9112 61.5002 92.2957 61.5002 92.2957M59.4917 90.7495L58.9228 91.4453M58.9228 91.4453L58.1011 92.4503C58.1011 92.4503 57.0196 91.5226 57.4831 90.9814C57.9466 90.4402 58.9228 91.4453 58.9228 91.4453ZM56.0153 90.2856L57.1741 88.1983L54.7021 88.7394M51.8438 82.7093L52.0755 83.0186L52.1528 83.869L53.2343 83.7991M54.5476 83.7144L53.2343 83.7991M53.2343 83.7991L53.157 83.0186L52.9253 82.7866M79.1909 89.126C79.0364 88.9714 78.3936 88.5187 78.0321 88.8167C77.6566 89.1263 78.0321 89.8991 78.1866 90.0537C78.3411 90.2083 78.9839 90.661 79.3454 90.3629C79.7208 90.0534 79.3454 89.2806 79.1909 89.126ZM75.251 94.3057C74.9371 93.8491 74.4785 93.378 74.015 93.6099C73.5799 93.8276 73.8258 94.6561 74.1695 95.1561C74.4834 95.6127 75.0441 96.1499 75.4055 95.8519C75.781 95.5423 75.5947 94.8056 75.251 94.3057ZM55.8608 86.4975L53.9295 87.3479C53.9295 87.3479 52.848 85.6471 53.9295 85.1832C55.0111 84.7194 55.8608 86.4975 55.8608 86.4975Z" stroke="#174545" stroke-width="0.46974" stroke-linecap="round" stroke-linejoin="round"/>
</g>
<g filter="url(#filter41_f_8447_19176)">
<path d="M77.654 71.7125C81.0619 76.0845 82.7851 81.0989 82.8206 85.6685C82.8561 90.238 81.2049 94.356 77.8718 96.954C74.5387 99.5521 70.1422 100.148 65.7196 98.9982C61.2969 97.8482 56.8549 94.9531 53.447 90.5811C50.0392 86.2091 48.316 81.1947 48.2805 76.6251C48.245 72.0556 49.8962 67.9376 53.2292 65.3395C56.5623 62.7415 60.9588 62.1455 65.3814 63.2954C69.8041 64.4453 74.2461 67.3405 77.654 71.7125Z" stroke="#F8FBFC" stroke-width="0.23487"/>
</g>
<mask id="mask17_8447_19176" style="mask-type:alpha" maskUnits="userSpaceOnUse" x="60" y="70" width="16" height="16">
<path d="M61.7188 76.0319L68.3265 70.395L75.6545 79.4375L68.3735 85.505C63.7544 86.8359 59.057 80.2596 61.7188 76.0319Z" fill="#F8FBFC"/>
</mask>
<g mask="url(#mask17_8447_19176)">
<path d="M61.7188 76.0319L68.3265 70.395L75.6545 79.4375L68.3735 85.505C63.7544 86.8359 59.057 80.2596 61.7188 76.0319Z" fill="#F8FBFC"/>
<g filter="url(#filter42_f_8447_19176)">
<path d="M61.7188 76.0319L68.3265 70.395L75.6545 79.4375L68.3735 85.505C63.7544 86.8359 59.057 80.2596 61.7188 76.0319Z" fill="url(#paint24_linear_8447_19176)"/>
</g>
<g filter="url(#filter43_f_8447_19176)">
<path d="M61.7188 76.0319L68.3265 70.395L75.6545 79.4375L68.3735 85.505C63.7544 86.8359 59.057 80.2596 61.7188 76.0319Z" fill="url(#paint25_linear_8447_19176)"/>
<path d="M61.7188 76.0319L68.3265 70.395L75.6545 79.4375L68.3735 85.505C63.7544 86.8359 59.057 80.2596 61.7188 76.0319Z" fill="url(#paint26_radial_8447_19176)"/>
</g>
</g>
<g filter="url(#filter44_f_8447_19176)">
<path fill-rule="evenodd" clip-rule="evenodd" d="M75.5278 79.6497C77.3587 78.2225 77.2184 74.9814 75.2145 72.4105C73.2105 69.8396 70.1018 68.9124 68.2708 70.3395C66.4399 71.7667 66.5802 75.0078 68.5841 77.5787C70.5881 80.1496 73.6969 81.0768 75.5278 79.6497ZM74.9756 78.4107C76.2857 77.3895 76.1094 74.973 74.5819 73.0133C73.0543 71.0535 70.754 70.2927 69.4439 71.3139C68.1338 72.335 68.3101 74.7515 69.8376 76.7113C71.3652 78.671 73.6655 79.4319 74.9756 78.4107Z" fill="#F8FBFC"/>
</g>
<path fill-rule="evenodd" clip-rule="evenodd" d="M75.5278 79.6497C77.3587 78.2225 77.2184 74.9814 75.2145 72.4105C73.2105 69.8396 70.1018 68.9124 68.2708 70.3395C66.4399 71.7667 66.5802 75.0078 68.5841 77.5787C70.5881 80.1496 73.6969 81.0768 75.5278 79.6497ZM74.9756 78.4107C76.2857 77.3895 76.1094 74.973 74.5819 73.0133C73.0543 71.0535 70.754 70.2927 69.4439 71.3139C68.1338 72.335 68.3101 74.7515 69.8376 76.7113C71.3652 78.671 73.6655 79.4319 74.9756 78.4107Z" fill="#EAF6F5"/>
<mask id="mask18_8447_19176" style="mask-type:alpha" maskUnits="userSpaceOnUse" x="66" y="69" width="11" height="12">
<path fill-rule="evenodd" clip-rule="evenodd" d="M75.5278 79.6497C77.3587 78.2225 77.2184 74.9814 75.2145 72.4105C73.2105 69.8396 70.1018 68.9124 68.2708 70.3395C66.4399 71.7667 66.5802 75.0078 68.5841 77.5787C70.5881 80.1496 73.6969 81.0768 75.5278 79.6497ZM74.9756 78.4107C76.2857 77.3895 76.1094 74.973 74.5819 73.0133C73.0543 71.0535 70.754 70.2927 69.4439 71.3139C68.1338 72.335 68.3101 74.7515 69.8376 76.7113C71.3652 78.671 73.6655 79.4319 74.9756 78.4107Z" fill="#F8FBFC"/>
</mask>
<g mask="url(#mask18_8447_19176)">
<path fill-rule="evenodd" clip-rule="evenodd" d="M75.5278 79.6497C77.3587 78.2225 77.2184 74.9814 75.2145 72.4105C73.2105 69.8396 70.1018 68.9124 68.2708 70.3395C66.4399 71.7667 66.5802 75.0078 68.5841 77.5787C70.5881 80.1496 73.6969 81.0768 75.5278 79.6497ZM74.9756 78.4107C76.2857 77.3895 76.1094 74.973 74.5819 73.0133C73.0543 71.0535 70.754 70.2927 69.4439 71.3139C68.1338 72.335 68.3101 74.7515 69.8376 76.7113C71.3652 78.671 73.6655 79.4319 74.9756 78.4107Z" fill="#F8FBFC"/>
<g filter="url(#filter45_f_8447_19176)">
<path fill-rule="evenodd" clip-rule="evenodd" d="M75.5278 79.6497C77.3587 78.2225 77.2184 74.9814 75.2145 72.4105C73.2105 69.8396 70.1018 68.9124 68.2708 70.3395C66.4399 71.7667 66.5802 75.0078 68.5841 77.5787C70.5881 80.1496 73.6969 81.0768 75.5278 79.6497ZM74.9756 78.4107C76.2857 77.3895 76.1094 74.973 74.5819 73.0133C73.0543 71.0535 70.754 70.2927 69.4439 71.3139C68.1338 72.335 68.3101 74.7515 69.8376 76.7113C71.3652 78.671 73.6655 79.4319 74.9756 78.4107Z" fill="url(#paint27_linear_8447_19176)"/>
</g>
</g>
<mask id="mask19_8447_19176" style="mask-type:alpha" maskUnits="userSpaceOnUse" x="68" y="70" width="8" height="9">
<ellipse cx="72.2083" cy="74.8625" rx="3.00763" ry="4.49904" transform="rotate(-37.9353 72.2083 74.8625)" fill="#EAF6F5"/>
</mask>
<g mask="url(#mask19_8447_19176)">
<ellipse cx="72.2083" cy="74.8625" rx="3.00763" ry="4.49904" transform="rotate(-37.9353 72.2083 74.8625)" fill="#EAF6F5"/>
<g filter="url(#filter46_f_8447_19176)">
<ellipse cx="72.2083" cy="74.8625" rx="3.00763" ry="4.49904" transform="rotate(-37.9353 72.2083 74.8625)" fill="url(#paint28_linear_8447_19176)"/>
</g>
</g>
<defs>
<filter id="filter0_df_8447_19176" x="0.335938" y="104" width="126" height="18.6665" filterUnits="userSpaceOnUse" color-interpolation-filters="sRGB">
<feFlood flood-opacity="0" result="BackgroundImageFix"/>
<feColorMatrix in="SourceAlpha" type="matrix" values="0 0 0 0 0 0 0 0 0 0 0 0 0 0 0 0 0 0 127 0" result="hardAlpha"/>
<feOffset dy="4"/>
<feGaussianBlur stdDeviation="2"/>
<feComposite in2="hardAlpha" operator="out"/>
<feColorMatrix type="matrix" values="0 0 0 0 0 0 0 0 0 0 0 0 0 0 0 0 0 0 0.25 0"/>
<feBlend mode="normal" in2="BackgroundImageFix" result="effect1_dropShadow_8447_19176"/>
<feBlend mode="normal" in="SourceGraphic" in2="effect1_dropShadow_8447_19176" result="shape"/>
<feGaussianBlur stdDeviation="4" result="effect2_foregroundBlur_8447_19176"/>
</filter>
<filter id="filter1_f_8447_19176" x="21.3901" y="99.5122" width="4.0713" height="4.22755" filterUnits="userSpaceOnUse" color-interpolation-filters="sRGB">
<feFlood flood-opacity="0" result="BackgroundImageFix"/>
<feBlend mode="normal" in="SourceGraphic" in2="BackgroundImageFix" result="shape"/>
<feGaussianBlur stdDeviation="0.117435" result="effect1_foregroundBlur_8447_19176"/>
</filter>
<filter id="filter2_f_8447_19176" x="104.507" y="16.5908" width="4.06349" height="4.23488" filterUnits="userSpaceOnUse" color-interpolation-filters="sRGB">
<feFlood flood-opacity="0" result="BackgroundImageFix"/>
<feBlend mode="normal" in="SourceGraphic" in2="BackgroundImageFix" result="shape"/>
<feGaussianBlur stdDeviation="0.117435" result="effect1_foregroundBlur_8447_19176"/>
</filter>
<filter id="filter3_f_8447_19176" x="12.1553" y="7.05126" width="105.924" height="105.926" filterUnits="userSpaceOnUse" color-interpolation-filters="sRGB">
<feFlood flood-opacity="0" result="BackgroundImageFix"/>
<feBlend mode="normal" in="SourceGraphic" in2="BackgroundImageFix" result="shape"/>
<feGaussianBlur stdDeviation="0.23487" result="effect1_foregroundBlur_8447_19176"/>
</filter>
<filter id="filter4_d_8447_19176" x="37.3349" y="65.9805" width="21.6885" height="21.8057" filterUnits="userSpaceOnUse" color-interpolation-filters="sRGB">
<feFlood flood-opacity="0" result="BackgroundImageFix"/>
<feColorMatrix in="SourceAlpha" type="matrix" values="0 0 0 0 0 0 0 0 0 0 0 0 0 0 0 0 0 0 127 0" result="hardAlpha"/>
<feOffset dx="-0.23487" dy="0.23487"/>
<feGaussianBlur stdDeviation="0.117435"/>
<feComposite in2="hardAlpha" operator="out"/>
<feColorMatrix type="matrix" values="0 0 0 0 0 0 0 0 0 0 0 0 0 0 0 0 0 0 0.25 0"/>
<feBlend mode="normal" in2="BackgroundImageFix" result="effect1_dropShadow_8447_19176"/>
<feBlend mode="normal" in="SourceGraphic" in2="effect1_dropShadow_8447_19176" result="shape"/>
</filter>
<filter id="filter5_f_8447_19176" x="30.281" y="60.4846" width="34.2114" height="34.2129" filterUnits="userSpaceOnUse" color-interpolation-filters="sRGB">
<feFlood flood-opacity="0" result="BackgroundImageFix"/>
<feBlend mode="normal" in="SourceGraphic" in2="BackgroundImageFix" result="shape"/>
<feGaussianBlur stdDeviation="0.0587176" result="effect1_foregroundBlur_8447_19176"/>
</filter>
<filter id="filter6_f_8447_19176" x="30.281" y="60.4846" width="34.2114" height="34.2129" filterUnits="userSpaceOnUse" color-interpolation-filters="sRGB">
<feFlood flood-opacity="0" result="BackgroundImageFix"/>
<feBlend mode="normal" in="SourceGraphic" in2="BackgroundImageFix" result="shape"/>
<feGaussianBlur stdDeviation="0.0587176" result="effect1_foregroundBlur_8447_19176"/>
</filter>
<filter id="filter7_f_8447_19176" x="25.6638" y="96.6545" width="2.82081" height="2.74024" filterUnits="userSpaceOnUse" color-interpolation-filters="sRGB">
<feFlood flood-opacity="0" result="BackgroundImageFix"/>
<feBlend mode="normal" in="SourceGraphic" in2="BackgroundImageFix" result="shape"/>
<feGaussianBlur stdDeviation="0.0587176" result="effect1_foregroundBlur_8447_19176"/>
</filter>
<filter id="filter8_f_8447_19176" x="25.7343" y="94.6894" width="4.71114" height="4.63496" filterUnits="userSpaceOnUse" color-interpolation-filters="sRGB">
<feFlood flood-opacity="0" result="BackgroundImageFix"/>
<feBlend mode="normal" in="SourceGraphic" in2="BackgroundImageFix" result="shape"/>
<feGaussianBlur stdDeviation="0.023487" result="effect1_foregroundBlur_8447_19176"/>
</filter>
<filter id="filter9_f_8447_19176" x="25.4294" y="96.4978" width="3.21143" height="3.13184" filterUnits="userSpaceOnUse" color-interpolation-filters="sRGB">
<feFlood flood-opacity="0" result="BackgroundImageFix"/>
<feBlend mode="normal" in="SourceGraphic" in2="BackgroundImageFix" result="shape"/>
<feGaussianBlur stdDeviation="0.0587176" result="effect1_foregroundBlur_8447_19176"/>
</filter>
<filter id="filter10_f_8447_19176" x="27.2646" y="93.6406" width="4.22854" height="6.49807" filterUnits="userSpaceOnUse" color-interpolation-filters="sRGB">
<feFlood flood-opacity="0" result="BackgroundImageFix"/>
<feBlend mode="normal" in="SourceGraphic" in2="BackgroundImageFix" result="shape"/>
<feGaussianBlur stdDeviation="0.23487" result="effect1_foregroundBlur_8447_19176"/>
</filter>
<filter id="filter11_f_8447_19176" x="98.4685" y="23.6877" width="2.97706" height="3.05323" filterUnits="userSpaceOnUse" color-interpolation-filters="sRGB">
<feFlood flood-opacity="0" result="BackgroundImageFix"/>
<feBlend mode="normal" in="SourceGraphic" in2="BackgroundImageFix" result="shape"/>
<feGaussianBlur stdDeviation="0.0587176" result="effect1_foregroundBlur_8447_19176"/>
</filter>
<filter id="filter12_f_8447_19176" x="98.539" y="21.8012" width="4.86739" height="4.86983" filterUnits="userSpaceOnUse" color-interpolation-filters="sRGB">
<feFlood flood-opacity="0" result="BackgroundImageFix"/>
<feBlend mode="normal" in="SourceGraphic" in2="BackgroundImageFix" result="shape"/>
<feGaussianBlur stdDeviation="0.023487" result="effect1_foregroundBlur_8447_19176"/>
</filter>
<filter id="filter13_f_8447_19176" x="98.5466" y="23.845" width="3.21143" height="3.13184" filterUnits="userSpaceOnUse" color-interpolation-filters="sRGB">
<feFlood flood-opacity="0" result="BackgroundImageFix"/>
<feBlend mode="normal" in="SourceGraphic" in2="BackgroundImageFix" result="shape"/>
<feGaussianBlur stdDeviation="0.0587176" result="effect1_foregroundBlur_8447_19176"/>
</filter>
<filter id="filter14_f_8447_19176" x="99.9131" y="20.9868" width="4.46292" height="6.26321" filterUnits="userSpaceOnUse" color-interpolation-filters="sRGB">
<feFlood flood-opacity="0" result="BackgroundImageFix"/>
<feBlend mode="normal" in="SourceGraphic" in2="BackgroundImageFix" result="shape"/>
<feGaussianBlur stdDeviation="0.23487" result="effect1_foregroundBlur_8447_19176"/>
</filter>
<filter id="filter15_f_8447_19176" x="12.031" y="99.7078" width="13.1489" height="13.3877" filterUnits="userSpaceOnUse" color-interpolation-filters="sRGB">
<feFlood flood-opacity="0" result="BackgroundImageFix"/>
<feBlend mode="normal" in="SourceGraphic" in2="BackgroundImageFix" result="shape"/>
<feGaussianBlur stdDeviation="0.0587176" result="effect1_foregroundBlur_8447_19176"/>
</filter>
<filter id="filter16_f_8447_19176" x="11.6787" y="99.3555" width="13.8535" height="14.0923" filterUnits="userSpaceOnUse" color-interpolation-filters="sRGB">
<feFlood flood-opacity="0" result="BackgroundImageFix"/>
<feBlend mode="normal" in="SourceGraphic" in2="BackgroundImageFix" result="shape"/>
<feGaussianBlur stdDeviation="0.23487" result="effect1_foregroundBlur_8447_19176"/>
</filter>
<filter id="filter17_f_8447_19176" x="21.8123" y="99.5515" width="3.60987" height="3.75977" filterUnits="userSpaceOnUse" color-interpolation-filters="sRGB">
<feFlood flood-opacity="0" result="BackgroundImageFix"/>
<feBlend mode="normal" in="SourceGraphic" in2="BackgroundImageFix" result="shape"/>
<feGaussianBlur stdDeviation="0.0587176" result="effect1_foregroundBlur_8447_19176"/>
</filter>
<filter id="filter18_f_8447_19176" x="104.789" y="7.25708" width="13.1646" height="13.3726" filterUnits="userSpaceOnUse" color-interpolation-filters="sRGB">
<feFlood flood-opacity="0" result="BackgroundImageFix"/>
<feBlend mode="normal" in="SourceGraphic" in2="BackgroundImageFix" result="shape"/>
<feGaussianBlur stdDeviation="0.0587176" result="effect1_foregroundBlur_8447_19176"/>
</filter>
<filter id="filter19_f_8447_19176" x="104.437" y="6.90477" width="13.8692" height="14.0767" filterUnits="userSpaceOnUse" color-interpolation-filters="sRGB">
<feFlood flood-opacity="0" result="BackgroundImageFix"/>
<feBlend mode="normal" in="SourceGraphic" in2="BackgroundImageFix" result="shape"/>
<feGaussianBlur stdDeviation="0.23487" result="effect1_foregroundBlur_8447_19176"/>
</filter>
<filter id="filter20_f_8447_19176" x="104.547" y="17.0193" width="3.60206" height="3.76661" filterUnits="userSpaceOnUse" color-interpolation-filters="sRGB">
<feFlood flood-opacity="0" result="BackgroundImageFix"/>
<feBlend mode="normal" in="SourceGraphic" in2="BackgroundImageFix" result="shape"/>
<feGaussianBlur stdDeviation="0.0587176" result="effect1_foregroundBlur_8447_19176"/>
</filter>
<filter id="filter21_f_8447_19176" x="11.5388" y="106.597" width="6.91456" height="6.9795" filterUnits="userSpaceOnUse" color-interpolation-filters="sRGB">
<feFlood flood-opacity="0" result="BackgroundImageFix"/>
<feBlend mode="normal" in="SourceGraphic" in2="BackgroundImageFix" result="shape"/>
<feGaussianBlur stdDeviation="0.0587176" result="effect1_foregroundBlur_8447_19176"/>
</filter>
<filter id="filter22_f_8447_19176" x="13.7964" y="106.48" width="4.79787" height="4.93214" filterUnits="userSpaceOnUse" color-interpolation-filters="sRGB">
<feFlood flood-opacity="0" result="BackgroundImageFix"/>
<feBlend mode="normal" in="SourceGraphic" in2="BackgroundImageFix" result="shape"/>
<feGaussianBlur stdDeviation="0.117435" result="effect1_foregroundBlur_8447_19176"/>
</filter>
<filter id="filter23_f_8447_19176" x="11.4214" y="106.48" width="7.14943" height="7.21437" filterUnits="userSpaceOnUse" color-interpolation-filters="sRGB">
<feFlood flood-opacity="0" result="BackgroundImageFix"/>
<feBlend mode="normal" in="SourceGraphic" in2="BackgroundImageFix" result="shape"/>
<feGaussianBlur stdDeviation="0.117435" result="effect1_foregroundBlur_8447_19176"/>
</filter>
<filter id="filter24_f_8447_19176" x="12.0233" y="108.077" width="3.38301" height="3.38203" filterUnits="userSpaceOnUse" color-interpolation-filters="sRGB">
<feFlood flood-opacity="0" result="BackgroundImageFix"/>
<feBlend mode="normal" in="SourceGraphic" in2="BackgroundImageFix" result="shape"/>
<feGaussianBlur stdDeviation="0.023487" result="effect1_foregroundBlur_8447_19176"/>
</filter>
<filter id="filter25_f_8447_19176" x="11.5233" y="106.589" width="6.85957" height="6.9792" filterUnits="userSpaceOnUse" color-interpolation-filters="sRGB">
<feFlood flood-opacity="0" result="BackgroundImageFix"/>
<feBlend mode="normal" in="SourceGraphic" in2="BackgroundImageFix" result="shape"/>
<feGaussianBlur stdDeviation="0.023487" result="effect1_foregroundBlur_8447_19176"/>
</filter>
<filter id="filter26_f_8447_19176" x="11.1006" y="106.166" width="7.70511" height="7.82473" filterUnits="userSpaceOnUse" color-interpolation-filters="sRGB">
<feFlood flood-opacity="0" result="BackgroundImageFix"/>
<feBlend mode="normal" in="SourceGraphic" in2="BackgroundImageFix" result="shape"/>
<feGaussianBlur stdDeviation="0.23487" result="effect1_foregroundBlur_8447_19176"/>
</filter>
<filter id="filter27_f_8447_19176" x="13.5232" y="106.519" width="5.08643" height="6.49805" filterUnits="userSpaceOnUse" color-interpolation-filters="sRGB">
<feFlood flood-opacity="0" result="BackgroundImageFix"/>
<feBlend mode="normal" in="SourceGraphic" in2="BackgroundImageFix" result="shape"/>
<feGaussianBlur stdDeviation="0.0587176" result="effect1_foregroundBlur_8447_19176"/>
</filter>
<filter id="filter28_f_8447_19176" x="111.531" y="6.77514" width="6.91456" height="6.98243" filterUnits="userSpaceOnUse" color-interpolation-filters="sRGB">
<feFlood flood-opacity="0" result="BackgroundImageFix"/>
<feBlend mode="normal" in="SourceGraphic" in2="BackgroundImageFix" result="shape"/>
<feGaussianBlur stdDeviation="0.0587176" result="effect1_foregroundBlur_8447_19176"/>
</filter>
<filter id="filter29_f_8447_19176" x="111.39" y="8.93408" width="4.79005" height="4.94093" filterUnits="userSpaceOnUse" color-interpolation-filters="sRGB">
<feFlood flood-opacity="0" result="BackgroundImageFix"/>
<feBlend mode="normal" in="SourceGraphic" in2="BackgroundImageFix" result="shape"/>
<feGaussianBlur stdDeviation="0.117435" result="effect1_foregroundBlur_8447_19176"/>
</filter>
<filter id="filter30_f_8447_19176" x="111.414" y="6.65771" width="7.14943" height="7.2173" filterUnits="userSpaceOnUse" color-interpolation-filters="sRGB">
<feFlood flood-opacity="0" result="BackgroundImageFix"/>
<feBlend mode="normal" in="SourceGraphic" in2="BackgroundImageFix" result="shape"/>
<feGaussianBlur stdDeviation="0.117435" result="effect1_foregroundBlur_8447_19176"/>
</filter>
<filter id="filter31_f_8447_19176" x="113.266" y="7.4789" width="3.29707" height="3.47285" filterUnits="userSpaceOnUse" color-interpolation-filters="sRGB">
<feFlood flood-opacity="0" result="BackgroundImageFix"/>
<feBlend mode="normal" in="SourceGraphic" in2="BackgroundImageFix" result="shape"/>
<feGaussianBlur stdDeviation="0.023487" result="effect1_foregroundBlur_8447_19176"/>
</filter>
<filter id="filter32_f_8447_19176" x="111.601" y="6.78359" width="6.85957" height="6.98164" filterUnits="userSpaceOnUse" color-interpolation-filters="sRGB">
<feFlood flood-opacity="0" result="BackgroundImageFix"/>
<feBlend mode="normal" in="SourceGraphic" in2="BackgroundImageFix" result="shape"/>
<feGaussianBlur stdDeviation="0.023487" result="effect1_foregroundBlur_8447_19176"/>
</filter>
<filter id="filter33_f_8447_19176" x="111.179" y="6.36083" width="7.70511" height="7.82718" filterUnits="userSpaceOnUse" color-interpolation-filters="sRGB">
<feFlood flood-opacity="0" result="BackgroundImageFix"/>
<feBlend mode="normal" in="SourceGraphic" in2="BackgroundImageFix" result="shape"/>
<feGaussianBlur stdDeviation="0.23487" result="effect1_foregroundBlur_8447_19176"/>
</filter>
<filter id="filter34_f_8447_19176" x="111.375" y="9.04174" width="6.58643" height="4.79395" filterUnits="userSpaceOnUse" color-interpolation-filters="sRGB">
<feFlood flood-opacity="0" result="BackgroundImageFix"/>
<feBlend mode="normal" in="SourceGraphic" in2="BackgroundImageFix" result="shape"/>
<feGaussianBlur stdDeviation="0.0587176" result="effect1_foregroundBlur_8447_19176"/>
</filter>
<filter id="filter35_f_8447_19176" x="40.2186" y="59.7973" width="42.9768" height="47.4607" filterUnits="userSpaceOnUse" color-interpolation-filters="sRGB">
<feFlood flood-opacity="0" result="BackgroundImageFix"/>
<feBlend mode="normal" in="SourceGraphic" in2="BackgroundImageFix" result="shape"/>
<feGaussianBlur stdDeviation="1.87896" result="effect1_foregroundBlur_8447_19176"/>
</filter>
<filter id="filter36_f_8447_19176" x="44.4061" y="58.8607" width="42.2893" height="44.572" filterUnits="userSpaceOnUse" color-interpolation-filters="sRGB">
<feFlood flood-opacity="0" result="BackgroundImageFix"/>
<feBlend mode="normal" in="SourceGraphic" in2="BackgroundImageFix" result="shape"/>
<feGaussianBlur stdDeviation="1.87896" result="effect1_foregroundBlur_8447_19176"/>
</filter>
<filter id="filter37_f_8447_19176" x="47.7798" y="63.6621" width="34.1358" height="36.17" filterUnits="userSpaceOnUse" color-interpolation-filters="sRGB">
<feFlood flood-opacity="0" result="BackgroundImageFix"/>
<feBlend mode="normal" in="SourceGraphic" in2="BackgroundImageFix" result="shape"/>
<feGaussianBlur stdDeviation="0.352305" result="effect1_foregroundBlur_8447_19176"/>
</filter>
<filter id="filter38_f_8447_19176" x="41.8983" y="57.0204" width="46.4612" height="49.0564" filterUnits="userSpaceOnUse" color-interpolation-filters="sRGB">
<feFlood flood-opacity="0" result="BackgroundImageFix"/>
<feBlend mode="normal" in="SourceGraphic" in2="BackgroundImageFix" result="shape"/>
<feGaussianBlur stdDeviation="1.87896" result="effect1_foregroundBlur_8447_19176"/>
</filter>
<filter id="filter39_f_8447_19176" x="49.3983" y="58.8612" width="37.2971" height="38.6223" filterUnits="userSpaceOnUse" color-interpolation-filters="sRGB">
<feFlood flood-opacity="0" result="BackgroundImageFix"/>
<feBlend mode="normal" in="SourceGraphic" in2="BackgroundImageFix" result="shape"/>
<feGaussianBlur stdDeviation="1.87896" result="effect1_foregroundBlur_8447_19176"/>
</filter>
<filter id="filter40_f_8447_19176" x="51.4919" y="66.1995" width="29.8286" height="31.5508" filterUnits="userSpaceOnUse" color-interpolation-filters="sRGB">
<feFlood flood-opacity="0" result="BackgroundImageFix"/>
<feBlend mode="normal" in="SourceGraphic" in2="BackgroundImageFix" result="shape"/>
<feGaussianBlur stdDeviation="0.0587176" result="effect1_foregroundBlur_8447_19176"/>
</filter>
<filter id="filter41_f_8447_19176" x="47.9292" y="62.3838" width="35.2432" height="37.5259" filterUnits="userSpaceOnUse" color-interpolation-filters="sRGB">
<feFlood flood-opacity="0" result="BackgroundImageFix"/>
<feBlend mode="normal" in="SourceGraphic" in2="BackgroundImageFix" result="shape"/>
<feGaussianBlur stdDeviation="0.117435" result="effect1_foregroundBlur_8447_19176"/>
</filter>
<filter id="filter42_f_8447_19176" x="57.1874" y="66.6371" width="22.2268" height="22.8005" filterUnits="userSpaceOnUse" color-interpolation-filters="sRGB">
<feFlood flood-opacity="0" result="BackgroundImageFix"/>
<feBlend mode="normal" in="SourceGraphic" in2="BackgroundImageFix" result="shape"/>
<feGaussianBlur stdDeviation="1.87896" result="effect1_foregroundBlur_8447_19176"/>
</filter>
<filter id="filter43_f_8447_19176" x="57.1874" y="66.6371" width="22.2268" height="22.8005" filterUnits="userSpaceOnUse" color-interpolation-filters="sRGB">
<feFlood flood-opacity="0" result="BackgroundImageFix"/>
<feBlend mode="normal" in="SourceGraphic" in2="BackgroundImageFix" result="shape"/>
<feGaussianBlur stdDeviation="1.87896" result="effect1_foregroundBlur_8447_19176"/>
</filter>
<filter id="filter44_f_8447_19176" x="65.1054" y="67.7905" width="13.586" height="14.4083" filterUnits="userSpaceOnUse" color-interpolation-filters="sRGB">
<feFlood flood-opacity="0" result="BackgroundImageFix"/>
<feBlend mode="normal" in="SourceGraphic" in2="BackgroundImageFix" result="shape"/>
<feGaussianBlur stdDeviation="0.939481" result="effect1_foregroundBlur_8447_19176"/>
</filter>
<filter id="filter45_f_8447_19176" x="63.2265" y="65.9115" width="17.344" height="18.1662" filterUnits="userSpaceOnUse" color-interpolation-filters="sRGB">
<feFlood flood-opacity="0" result="BackgroundImageFix"/>
<feBlend mode="normal" in="SourceGraphic" in2="BackgroundImageFix" result="shape"/>
<feGaussianBlur stdDeviation="1.87896" result="effect1_foregroundBlur_8447_19176"/>
</filter>
<filter id="filter46_f_8447_19176" x="64.8046" y="67.1024" width="14.8049" height="15.5202" filterUnits="userSpaceOnUse" color-interpolation-filters="sRGB">
<feFlood flood-opacity="0" result="BackgroundImageFix"/>
<feBlend mode="normal" in="SourceGraphic" in2="BackgroundImageFix" result="shape"/>
<feGaussianBlur stdDeviation="1.87896" result="effect1_foregroundBlur_8447_19176"/>
</filter>
<linearGradient id="paint0_linear_8447_19176" x1="21.8205" y1="99.7471" x2="25.2493" y2="103.202" gradientUnits="userSpaceOnUse">
<stop stop-color="#0E2F2F"/>
<stop offset="0.48" stop-color="#0E2F2F" stop-opacity="0.2"/>
<stop offset="1" stop-color="#0E2F2F"/>
</linearGradient>
<linearGradient id="paint1_linear_8447_19176" x1="108.14" y1="20.5909" x2="104.72" y2="17.1279" gradientUnits="userSpaceOnUse">
<stop stop-color="#0E2F2F"/>
<stop offset="0.48" stop-color="#0E2F2F" stop-opacity="0.2"/>
<stop offset="1" stop-color="#0E2F2F"/>
</linearGradient>
<linearGradient id="paint2_linear_8447_19176" x1="60.7734" y1="53.1641" x2="75.232" y2="67.595" gradientUnits="userSpaceOnUse">
<stop offset="0.289069" stop-color="#071D1D"/>
<stop offset="0.335498" stop-color="white" stop-opacity="0"/>
<stop offset="0.344106" stop-color="#071D1D"/>
<stop offset="0.352314" stop-color="white" stop-opacity="0"/>
<stop offset="0.438943" stop-color="#071D1D"/>
<stop offset="0.446594" stop-color="white" stop-opacity="0"/>
<stop offset="0.452014" stop-color="white" stop-opacity="0"/>
<stop offset="0.459333" stop-color="#071D1D"/>
<stop offset="0.486785" stop-color="#071D1D" stop-opacity="0.5"/>
</linearGradient>
<linearGradient id="paint3_linear_8447_19176" x1="45.4301" y1="76.0252" x2="48.64" y2="79.2351" gradientUnits="userSpaceOnUse">
<stop stop-color="#949696"/>
<stop offset="0.350875" stop-color="#F8FBFC"/>
<stop offset="0.699133" stop-color="#F8FBFC"/>
<stop offset="1" stop-color="#949696"/>
</linearGradient>
<linearGradient id="paint4_linear_8447_19176" x1="25.703" y1="96.772" x2="28.4431" y2="99.5121" gradientUnits="userSpaceOnUse">
<stop stop-color="#2B3231"/>
<stop offset="0.205097" stop-color="white"/>
<stop offset="0.454812" stop-color="#AEB5B5"/>
<stop offset="0.733563" stop-color="#2B3231"/>
<stop offset="0.856678" stop-color="white"/>
<stop offset="0.942626" stop-color="#2B3231"/>
</linearGradient>
<linearGradient id="paint5_linear_8447_19176" x1="26.4862" y1="95.5191" x2="29.5395" y2="98.4941" gradientUnits="userSpaceOnUse">
<stop stop-color="#2B3231"/>
<stop offset="0.802911" stop-color="#859393"/>
<stop offset="1" stop-color="#3D4645"/>
</linearGradient>
<linearGradient id="paint6_linear_8447_19176" x1="25.5469" y1="96.4587" x2="28.9134" y2="99.7468" gradientUnits="userSpaceOnUse">
<stop offset="0.0110807" stop-color="#2B3231"/>
<stop offset="0.190512" stop-color="#FCFDFC"/>
<stop offset="0.697605" stop-color="#2B3231"/>
<stop offset="0.77131" stop-color="#FCFDFC"/>
<stop offset="0.897685" stop-color="#2B3231"/>
</linearGradient>
<linearGradient id="paint7_linear_8447_19176" x1="98.4294" y1="23.8052" x2="101.17" y2="26.5453" gradientUnits="userSpaceOnUse">
<stop stop-color="#2B3231"/>
<stop offset="0.205097" stop-color="white"/>
<stop offset="0.454812" stop-color="#AEB5B5"/>
<stop offset="0.733563" stop-color="#2B3231"/>
<stop offset="0.856678" stop-color="white"/>
<stop offset="0.942626" stop-color="#2B3231"/>
</linearGradient>
<linearGradient id="paint8_linear_8447_19176" x1="99.2128" y1="22.5528" x2="102.266" y2="25.5278" gradientUnits="userSpaceOnUse">
<stop stop-color="#2B3231"/>
<stop offset="0.802911" stop-color="#859393"/>
<stop offset="1" stop-color="#3D4645"/>
</linearGradient>
<linearGradient id="paint9_linear_8447_19176" x1="98.6641" y1="23.8058" x2="102.031" y2="27.094" gradientUnits="userSpaceOnUse">
<stop offset="0.0110807" stop-color="#2B3231"/>
<stop offset="0.190512" stop-color="#FCFDFC"/>
<stop offset="0.697605" stop-color="#2B3231"/>
<stop offset="0.77131" stop-color="#FCFDFC"/>
<stop offset="0.897685" stop-color="#2B3231"/>
</linearGradient>
<linearGradient id="paint10_linear_8447_19176" x1="16.9241" y1="104.288" x2="20.6038" y2="107.967" gradientUnits="userSpaceOnUse">
<stop offset="0.098069" stop-color="#071D1D"/>
<stop offset="0.216591" stop-color="white" stop-opacity="0"/>
<stop offset="0.25337" stop-color="#071D1D"/>
<stop offset="0.285459" stop-color="white" stop-opacity="0"/>
<stop offset="0.715598" stop-color="#071D1D"/>
<stop offset="0.764366" stop-color="white" stop-opacity="0"/>
<stop offset="0.782898" stop-color="white" stop-opacity="0"/>
<stop offset="0.855076" stop-color="#071D1D"/>
<stop offset="1" stop-color="#071D1D" stop-opacity="0.5"/>
</linearGradient>
<linearGradient id="paint11_linear_8447_19176" x1="109.687" y1="11.8319" x2="113.363" y2="15.5157" gradientUnits="userSpaceOnUse">
<stop offset="0.098069" stop-color="#071D1D"/>
<stop offset="0.216591" stop-color="white" stop-opacity="0"/>
<stop offset="0.25337" stop-color="#071D1D"/>
<stop offset="0.285459" stop-color="white" stop-opacity="0"/>
<stop offset="0.715598" stop-color="#071D1D"/>
<stop offset="0.764366" stop-color="white" stop-opacity="0"/>
<stop offset="0.782898" stop-color="white" stop-opacity="0"/>
<stop offset="0.855076" stop-color="#071D1D"/>
<stop offset="1" stop-color="#071D1D" stop-opacity="0.5"/>
</linearGradient>
<linearGradient id="paint12_linear_8447_19176" x1="14.2661" y1="106.715" x2="18.3372" y2="110.864" gradientUnits="userSpaceOnUse">
<stop stop-color="#0E2F2F"/>
<stop offset="0.48" stop-color="#0E2F2F" stop-opacity="0.2"/>
<stop offset="1" stop-color="#0E2F2F"/>
</linearGradient>
<linearGradient id="paint13_linear_8447_19176" x1="12.9345" y1="108.281" x2="16.849" y2="112.352" gradientUnits="userSpaceOnUse">
<stop offset="0.313837" stop-color="#4A5A56"/>
<stop offset="0.413502" stop-color="white" stop-opacity="0.8"/>
<stop offset="0.545174" stop-color="#7D8D89"/>
<stop offset="1" stop-color="#232726"/>
</linearGradient>
<linearGradient id="paint14_linear_8447_19176" x1="13.0126" y1="107.811" x2="17.1598" y2="111.962" gradientUnits="userSpaceOnUse">
<stop offset="0.0140138" stop-color="#071D1D"/>
<stop offset="0.135107" stop-color="white" stop-opacity="0"/>
<stop offset="0.180084" stop-color="#071D1D"/>
<stop offset="0.301178" stop-color="white" stop-opacity="0"/>
<stop offset="0.753547" stop-color="#071D1D"/>
<stop offset="0.788145" stop-color="white" stop-opacity="0"/>
<stop offset="0.809769" stop-color="white" stop-opacity="0"/>
<stop offset="0.855076" stop-color="#071D1D"/>
<stop offset="1" stop-color="#071D1D" stop-opacity="0.5"/>
</linearGradient>
<linearGradient id="paint15_linear_8447_19176" x1="13.0126" y1="107.811" x2="17.1598" y2="111.962" gradientUnits="userSpaceOnUse">
<stop offset="0.0140138" stop-color="#071D1D"/>
<stop offset="0.135107" stop-color="white" stop-opacity="0"/>
<stop offset="0.180084" stop-color="#071D1D"/>
<stop offset="0.301178" stop-color="white" stop-opacity="0"/>
<stop offset="0.753547" stop-color="#071D1D"/>
<stop offset="0.788145" stop-color="white" stop-opacity="0"/>
<stop offset="0.809769" stop-color="white" stop-opacity="0"/>
<stop offset="0.855076" stop-color="#071D1D"/>
<stop offset="1" stop-color="#071D1D" stop-opacity="0.5"/>
</linearGradient>
<linearGradient id="paint16_linear_8447_19176" x1="115.71" y1="13.6401" x2="111.649" y2="9.48139" gradientUnits="userSpaceOnUse">
<stop stop-color="#0E2F2F"/>
<stop offset="0.48" stop-color="#0E2F2F" stop-opacity="0.2"/>
<stop offset="1" stop-color="#0E2F2F"/>
</linearGradient>
<linearGradient id="paint17_linear_8447_19176" x1="112.832" y1="8.55412" x2="116.937" y2="12.4332" gradientUnits="userSpaceOnUse">
<stop offset="0.335497" stop-color="#4A5A56"/>
<stop offset="0.441327" stop-color="white" stop-opacity="0.8"/>
<stop offset="0.563625" stop-color="#7D8D89"/>
<stop offset="1" stop-color="#232726"/>
</linearGradient>
<linearGradient id="paint18_linear_8447_19176" x1="113.09" y1="8.00534" x2="117.239" y2="12.1551" gradientUnits="userSpaceOnUse">
<stop offset="0.0140138" stop-color="#071D1D"/>
<stop offset="0.135107" stop-color="white" stop-opacity="0"/>
<stop offset="0.180084" stop-color="#071D1D"/>
<stop offset="0.301178" stop-color="white" stop-opacity="0"/>
<stop offset="0.753547" stop-color="#071D1D"/>
<stop offset="0.788145" stop-color="white" stop-opacity="0"/>
<stop offset="0.809769" stop-color="white" stop-opacity="0"/>
<stop offset="0.855076" stop-color="#071D1D"/>
<stop offset="1" stop-color="#071D1D" stop-opacity="0.5"/>
</linearGradient>
<linearGradient id="paint19_linear_8447_19176" x1="113.09" y1="8.00534" x2="117.239" y2="12.1551" gradientUnits="userSpaceOnUse">
<stop offset="0.0140138" stop-color="#071D1D"/>
<stop offset="0.135107" stop-color="white" stop-opacity="0"/>
<stop offset="0.180084" stop-color="#071D1D"/>
<stop offset="0.301178" stop-color="white" stop-opacity="0"/>
<stop offset="0.753547" stop-color="#071D1D"/>
<stop offset="0.788145" stop-color="white" stop-opacity="0"/>
<stop offset="0.809769" stop-color="white" stop-opacity="0"/>
<stop offset="0.855076" stop-color="#071D1D"/>
<stop offset="1" stop-color="#071D1D" stop-opacity="0.5"/>
</linearGradient>
<linearGradient id="paint20_linear_8447_19176" x1="49.7389" y1="62.8791" x2="79.9589" y2="101.398" gradientUnits="userSpaceOnUse">
<stop stop-color="#F8FBFC" stop-opacity="0"/>
<stop offset="0.147498" stop-color="#619B96" stop-opacity="0.5"/>
<stop offset="0.272475" stop-color="#F8FBFC" stop-opacity="0"/>
<stop offset="1" stop-color="#619B96"/>
</linearGradient>
<linearGradient id="paint21_linear_8447_19176" x1="85.3502" y1="76.5983" x2="44.3851" y2="86.4498" gradientUnits="userSpaceOnUse">
<stop stop-color="#F8FBFC" stop-opacity="0"/>
<stop offset="0.472391" stop-color="#619B96" stop-opacity="0.5"/>
<stop offset="1" stop-color="#F8FBFC" stop-opacity="0"/>
</linearGradient>
<linearGradient id="paint22_linear_8447_19176" x1="56.8291" y1="60.9213" x2="83.1717" y2="101.632" gradientUnits="userSpaceOnUse">
<stop offset="0.0258783" stop-color="#F8FBFC"/>
<stop offset="0.158952" stop-color="#94BBB8" stop-opacity="0.5"/>
<stop offset="0.255897" stop-color="#F8FBFC" stop-opacity="0"/>
<stop offset="1" stop-color="#619B96"/>
</linearGradient>
<linearGradient id="paint23_linear_8447_19176" x1="52.6383" y1="63.662" x2="85.9116" y2="86.601" gradientUnits="userSpaceOnUse">
<stop stop-color="#E9F6F5"/>
<stop offset="1" stop-color="#F8FBFC"/>
</linearGradient>
<linearGradient id="paint24_linear_8447_19176" x1="63.3629" y1="72.7437" x2="72.6795" y2="83.7043" gradientUnits="userSpaceOnUse">
<stop offset="0.0718189" stop-color="#C2D9D7"/>
<stop offset="0.273092" stop-color="#F8FBFC" stop-opacity="0"/>
<stop offset="0.52" stop-color="#C0D7D6"/>
<stop offset="0.745" stop-color="#CCEBE1"/>
<stop offset="1" stop-color="#F8FBFC"/>
</linearGradient>
<linearGradient id="paint25_linear_8447_19176" x1="63.3629" y1="72.7437" x2="72.6795" y2="83.7043" gradientUnits="userSpaceOnUse">
<stop offset="0.0718189" stop-color="#C2D9D7"/>
<stop offset="0.273092" stop-color="#F8FBFC" stop-opacity="0"/>
<stop offset="0.52" stop-color="#C0D7D6"/>
<stop offset="0.745" stop-color="#CCEBE1"/>
<stop offset="1" stop-color="#F8FBFC"/>
</linearGradient>
<radialGradient id="paint26_radial_8447_19176" cx="0" cy="0" r="1" gradientUnits="userSpaceOnUse" gradientTransform="translate(61.5623 76.5016) rotate(-40.4261) scale(8.33045 3.17415)">
<stop stop-color="#619B96"/>
<stop offset="1" stop-color="#F8FBFC" stop-opacity="0"/>
</radialGradient>
<linearGradient id="paint27_linear_8447_19176" x1="69.8043" y1="69.7061" x2="76.601" y2="80.0464" gradientUnits="userSpaceOnUse">
<stop offset="0.06" stop-color="#F8FBFC"/>
<stop offset="0.225" stop-color="#94BBB8" stop-opacity="0.8"/>
<stop offset="0.42" stop-color="#F8FBFC" stop-opacity="0"/>
<stop offset="0.92" stop-color="#619B96"/>
</linearGradient>
<linearGradient id="paint28_linear_8447_19176" x1="73.3204" y1="69.9611" x2="75.437" y2="78.9805" gradientUnits="userSpaceOnUse">
<stop stop-color="#619B96"/>
<stop offset="0.493658" stop-color="#F8FBFC"/>
</linearGradient>
</defs>
</svg>
