<svg width="120" height="120" viewBox="0 0 120 120" fill="none" xmlns="http://www.w3.org/2000/svg">
<g opacity="0.6" filter="url(#filter0_df_8134_217095)">
<ellipse cx="59.6641" cy="107.667" rx="41" ry="4.33333" fill="black"/>
</g>
<mask id="mask0_8134_217095" style="mask-type:alpha" maskUnits="userSpaceOnUse" x="18" y="6" width="85" height="108">
<path d="M57.8591 6.67201C57.3905 6.67489 56.8403 6.67892 56.2393 6.68353C55.6897 6.68698 55.098 6.69216 54.4913 6.69676C53.6705 6.70309 52.8227 6.70827 52.0117 6.71345C50.9083 6.72093 49.8739 6.72555 49.0693 6.72555C48.7619 6.72612 48.4885 6.72554 48.2571 6.72382C47.7287 6.73475 47.2446 6.73878 46.7957 6.74684C46.2305 6.75662 45.7234 6.77044 45.2583 6.80958C44.3805 6.88268 43.6564 7.04269 42.9934 7.42143C42.6854 7.59756 42.4224 7.84909 42.2002 8.14321C41.852 8.60484 41.6045 9.17409 41.4445 9.73068C41.2787 10.304 41.2062 10.8629 41.2085 11.2767C41.2067 11.4235 41.2131 11.5708 41.2263 11.717C41.2701 12.212 41.3921 12.7024 41.5676 13.1549C41.7294 13.5722 41.9383 13.9566 42.1732 14.283C42.4218 14.6266 42.6998 14.9052 42.9859 15.0854C43.0716 15.1395 43.1603 15.1907 43.2495 15.2396C43.9385 15.6132 44.7109 15.8302 45.1616 16C45.2928 16.0501 45.397 16.0955 45.4638 16.1398C45.6198 16.2435 45.7533 16.4558 45.8517 16.7367C45.9306 16.9641 45.9864 17.2375 46.0112 17.5379C46.0192 17.6387 46.0244 17.7417 46.0256 17.8482C46.0279 18.041 46.0302 18.4871 46.0342 19.0869C46.0428 20.4884 46.0555 22.7286 46.0687 24.5348C46.0733 25.2209 46.0774 25.8437 46.082 26.3352C46.1113 27.9313 46.0595 30.9618 45.9674 33.6607C45.8995 35.6638 45.8091 37.4832 45.713 38.4013C45.6405 39.0931 45.4954 39.7717 45.3113 40.4216C44.921 41.7966 44.3529 43.0411 43.9068 44.0034C43.6616 44.5324 42.9801 45.8758 42.1772 47.4339C40.832 50.0431 39.1444 53.2531 38.5918 54.242C38.1809 54.9782 35.9499 59.1005 33.5739 63.4986C32.3105 65.8372 31.0056 68.2535 29.9114 70.2807C29.6449 70.7734 29.3911 71.2431 29.1534 71.6834C28.7959 72.3459 28.4747 72.9417 28.2025 73.4459C28.0793 73.6732 27.9665 73.8828 27.8652 74.071C27.6281 74.5101 27.4508 74.8376 27.3472 75.0287C27.0179 75.6377 26.3848 76.8177 25.6135 78.263C24.6609 80.0484 23.4994 82.2385 22.4386 84.2658C21.5251 86.0133 20.6871 87.6387 20.1241 88.7772C19.7592 89.5168 19.4461 90.2323 19.1813 90.9265C18.6236 92.3902 18.2851 93.7578 18.1453 95.0505C18.1119 95.3648 18.0889 95.6745 18.0785 95.9801C18.0537 96.6639 18.0854 97.3276 18.17 97.9751C18.2679 98.6249 18.3905 99.2564 18.539 99.8665C18.6311 100.245 18.7347 100.615 18.8486 100.977C19.2746 102.325 19.8588 103.555 20.645 104.641C20.8131 104.874 20.9898 105.1 21.1775 105.318C21.5337 105.737 21.9257 106.128 22.3557 106.494C22.6815 106.771 23.0297 107.033 23.4015 107.279C23.7601 107.517 24.1389 107.741 24.5412 107.947C24.7847 108.1 25.0431 108.247 25.3136 108.389C25.804 108.646 26.3359 108.887 26.8994 109.112C27.4623 109.337 28.0557 109.546 28.6687 109.742C29.3652 109.964 30.087 110.168 30.818 110.355C31.6606 110.571 32.5159 110.765 33.3569 110.94C35.7151 111.431 37.9622 111.77 39.5364 112.021C39.8956 112.078 40.219 112.131 40.5005 112.18C41.715 112.39 43.9402 112.607 46.3663 112.795C48.1921 112.936 50.1318 113.062 51.8436 113.156C53.853 113.266 55.5469 113.333 56.3671 113.333C57.8493 113.333 61.5198 113.333 64.975 113.265C67.2262 113.221 69.3858 113.147 70.7879 113.026C71.3226 113.002 71.9063 112.966 72.5233 112.922C74.3393 112.79 76.4338 112.578 78.3488 112.356C79.6698 112.203 80.9056 112.045 81.9059 111.904C82.1373 111.872 82.3566 111.84 82.561 111.81C84.05 111.589 86.0738 111.251 88.3157 110.698C89.9394 110.298 91.6783 109.784 93.4108 109.122C93.7855 108.978 94.1602 108.829 94.5343 108.671C94.589 108.649 94.6425 108.626 94.6966 108.603C95.4138 108.302 96.0556 107.96 96.6306 107.592C96.9276 107.402 97.2068 107.205 97.4687 107.003C97.6966 106.828 97.9113 106.649 98.115 106.467C98.64 105.997 99.0866 105.512 99.4654 105.035C99.8821 104.51 100.218 103.995 100.489 103.52C100.714 103.125 100.897 102.759 101.044 102.438C101.216 102.064 101.39 101.646 101.554 101.183C101.879 100.257 102.16 99.1487 102.278 97.8301C102.309 97.491 102.329 97.1376 102.337 96.7692C102.35 96.0739 102.319 95.328 102.229 94.5279C102.165 93.8487 101.98 93.0705 101.725 92.2601C101.668 92.0776 101.607 91.8934 101.542 91.7087C101.059 90.3089 100.408 88.863 99.8487 87.7078C99.6208 87.2369 99.4078 86.8145 99.2282 86.4634C99.0843 86.183 98.7626 85.5741 98.3153 84.736C97.5055 83.217 96.2864 80.9458 94.9769 78.5133C93.9892 76.6801 92.952 74.7553 92 72.9929C91.9091 72.8248 91.8193 72.6573 91.7301 72.4927C91.463 71.9977 91.204 71.5182 90.9559 71.0601C90.8091 70.789 90.6669 70.5259 90.5288 70.2704C89.5595 68.4797 88.8176 67.1133 88.5321 66.5952C88.2495 66.0824 87.6526 64.9778 86.9015 63.578C84.5859 59.2657 80.7916 52.148 80.1297 50.8823C79.7256 50.1093 78.9877 48.7089 78.2377 47.2601C77.3599 45.5633 76.4649 43.7997 76.0666 42.8949C75.8018 42.2945 75.5474 41.6165 75.3235 40.8463C74.9235 39.4655 74.6219 37.7877 74.5424 35.7213C74.4941 35.2171 74.455 34.508 74.4244 33.6607C74.3433 31.3693 74.3237 28.0666 74.3301 25.0758C74.3352 22.6641 74.3565 20.4567 74.3744 19.1438C74.3801 18.7427 74.3847 18.4238 74.3888 18.2097C74.3934 17.9806 74.4043 17.7785 74.4204 17.5972C74.4498 17.2617 74.4975 17.0015 74.5591 16.8C74.7088 16.3027 74.9367 16.1554 75.1583 16.0581C75.2429 16.0213 75.327 15.9913 75.4053 15.9522C75.9774 15.764 76.5317 15.5758 77.0336 15.3075C77.4785 15.0698 77.8826 14.7676 78.2239 14.344C78.4156 14.1069 78.5871 13.8312 78.7362 13.5077C78.8375 13.2861 78.9278 13.042 79.0061 12.7721C79.1189 12.3813 79.1874 12.0163 79.2208 11.671C79.3083 10.7667 79.1425 10.007 78.8409 9.32259C78.6211 8.82471 78.3292 8.36539 78.0109 7.91873C77.9868 7.88708 77.9632 7.85542 77.9378 7.82434C77.5148 7.30631 76.8379 7.04096 76.0954 6.90627C75.3747 6.77562 74.5931 6.76698 73.9248 6.76871C73.7021 6.76986 73.492 6.77159 73.3015 6.76986C72.9147 6.76698 71.6973 6.75835 70.1288 6.74684C69.8054 6.74397 69.4658 6.74165 69.1164 6.73878C68.6467 6.73532 68.1586 6.73244 67.6607 6.72784C67.259 6.72554 66.8515 6.72267 66.4434 6.71922C65.1811 6.71058 63.9142 6.70137 62.8005 6.69273C62.1276 6.68755 61.5112 6.6841 60.9851 6.68007C60.2564 6.67431 59.7021 6.67029 59.416 6.66856C59.3228 6.66798 59.2577 6.66741 59.2249 6.66741C59.1708 6.66684 59.1046 6.66683 59.0269 6.66683C58.7587 6.66683 58.3552 6.66914 57.8591 6.67201Z" fill="black"/>
</mask>
<g mask="url(#mask0_8134_217095)">
<path d="M57.859 6.67202C57.3905 6.6749 56.8403 6.67892 56.2393 6.68353C55.6897 6.68699 55.098 6.69217 54.4913 6.69677C53.6705 6.7031 52.8227 6.70827 52.0117 6.71346C50.9083 6.72094 49.8739 6.72556 49.0693 6.72556C48.7619 6.72613 48.4885 6.72555 48.2571 6.72382C47.7287 6.73476 47.2446 6.73879 46.7957 6.74685C46.2305 6.75663 45.7234 6.77045 45.2583 6.80959C44.3805 6.88268 43.6564 7.0427 42.9934 7.42144C42.6854 7.59756 42.4224 7.8491 42.2002 8.14322C41.852 8.60484 41.6045 9.1741 41.4445 9.73069C41.2787 10.304 41.2062 10.8629 41.2085 11.2767C41.2067 11.4235 41.2131 11.5708 41.2263 11.717C41.2701 12.2121 41.3921 12.7024 41.5676 13.1549C41.7294 13.5722 41.9383 13.9566 42.1731 14.283C42.4218 14.6266 42.6998 14.9052 42.9859 15.0854C43.0716 15.1395 43.1603 15.1907 43.2495 15.2396C43.9385 15.6132 44.7109 15.8302 45.1616 16C45.2928 16.0501 45.397 16.0955 45.4638 16.1399C45.6198 16.2435 45.7533 16.4558 45.8517 16.7367C45.9306 16.9641 45.9864 17.2375 46.0112 17.5379C46.0192 17.6387 46.0244 17.7417 46.0256 17.8482C46.0279 18.041 46.0302 18.4871 46.0342 19.0869C46.0428 20.4884 46.0555 22.7286 46.0687 24.5348C46.0733 25.2209 46.0774 25.8437 46.082 26.3352C46.1113 27.9313 46.0595 30.9618 45.9674 33.6607C45.8995 35.6638 45.8091 37.4832 45.713 38.4013C45.6405 39.0931 45.4954 39.7717 45.3112 40.4216C44.921 41.7966 44.3529 43.0411 43.9068 44.0034C43.6616 44.5324 42.9801 45.8758 42.1772 47.434C40.832 50.0431 39.1444 53.2531 38.5918 54.242C38.1809 54.9782 35.9499 59.1005 33.5739 63.4986C32.3105 65.8372 31.0056 68.2535 29.9114 70.2807C29.6449 70.7734 29.3911 71.2431 29.1534 71.6834C28.7959 72.3459 28.4747 72.9417 28.2025 73.4459C28.0793 73.6732 27.9665 73.8828 27.8652 74.071C27.6281 74.5101 27.4508 74.8376 27.3472 75.0287C27.0179 75.6377 26.3848 76.8177 25.6135 78.263C24.6609 80.0484 23.4994 82.2386 22.4386 84.2658C21.5251 86.0133 20.6871 87.6387 20.1241 88.7772C19.7592 89.5168 19.4461 90.2323 19.1813 90.9265C18.6236 92.3902 18.2851 93.7578 18.1453 95.0505C18.1119 95.3648 18.0889 95.6745 18.0785 95.9801C18.0537 96.6639 18.0854 97.3276 18.17 97.9751C18.2679 98.6249 18.3905 99.2564 18.539 99.8665C18.6311 100.245 18.7347 100.615 18.8486 100.977C19.2746 102.325 19.8588 103.555 20.645 104.641C20.8131 104.874 20.9898 105.1 21.1775 105.318C21.5337 105.737 21.9257 106.128 22.3557 106.494C22.6815 106.771 23.0297 107.033 23.4015 107.279C23.7601 107.517 24.1389 107.741 24.5412 107.947C24.7847 108.1 25.0431 108.247 25.3136 108.389C25.804 108.646 26.3359 108.887 26.8994 109.112C27.4623 109.337 28.0557 109.546 28.6687 109.742C29.3652 109.964 30.087 110.168 30.818 110.355C31.6606 110.571 32.5159 110.765 33.3569 110.94C35.7151 111.431 37.9622 111.77 39.5364 112.021C39.8955 112.078 40.219 112.131 40.5005 112.18C41.715 112.39 43.9402 112.607 46.3663 112.795C48.1921 112.936 50.1318 113.062 51.8436 113.156C53.853 113.266 55.5469 113.333 56.3671 113.333C57.8493 113.333 61.5198 113.333 64.975 113.265C67.2262 113.221 69.3858 113.147 70.7879 113.026C71.3226 113.002 71.9062 112.966 72.5233 112.922C74.3393 112.79 76.4338 112.578 78.3488 112.356C79.6698 112.203 80.9056 112.045 81.9059 111.904C82.1373 111.872 82.3566 111.84 82.5609 111.81C84.05 111.589 86.0737 111.251 88.3157 110.698C89.9394 110.298 91.6782 109.784 93.4108 109.122C93.7855 108.978 94.1602 108.829 94.5343 108.671C94.589 108.649 94.6425 108.626 94.6966 108.603C95.4138 108.302 96.0556 107.96 96.6306 107.592C96.9276 107.402 97.2068 107.205 97.4687 107.003C97.6966 106.828 97.9113 106.649 98.115 106.467C98.64 105.997 99.0866 105.512 99.4654 105.035C99.8821 104.51 100.218 103.995 100.489 103.52C100.714 103.125 100.897 102.759 101.044 102.438C101.216 102.064 101.39 101.646 101.554 101.183C101.879 100.257 102.16 99.1487 102.278 97.8301C102.309 97.491 102.329 97.1376 102.337 96.7692C102.35 96.0739 102.319 95.328 102.229 94.5279C102.165 93.8487 101.98 93.0705 101.725 92.2601C101.668 92.0776 101.607 91.8934 101.542 91.7087C101.059 90.3089 100.408 88.863 99.8487 87.7078C99.6208 87.2369 99.4078 86.8145 99.2282 86.4634C99.0843 86.1831 98.7626 85.5741 98.3153 84.736C97.5055 83.217 96.2864 80.9458 94.9769 78.5134C93.9892 76.6801 92.952 74.7553 92 72.9929C91.909 72.8248 91.8193 72.6573 91.73 72.4927C91.463 71.9977 91.204 71.5182 90.9559 71.0601C90.8091 70.789 90.6669 70.5259 90.5288 70.2704C89.5595 68.4797 88.8176 67.1133 88.5321 66.5952C88.2495 66.0824 87.6526 64.9778 86.9014 63.578C84.5859 59.2657 80.7916 52.148 80.1297 50.8823C79.7256 50.1093 78.9877 48.7089 78.2377 47.2601C77.3599 45.5633 76.4649 43.7997 76.0666 42.8949C75.8018 42.2945 75.5474 41.6165 75.3235 40.8464C74.9235 39.4655 74.6219 37.7877 74.5424 35.7213C74.4941 35.2171 74.4549 34.508 74.4244 33.6607C74.3433 31.3693 74.3237 28.0666 74.33 25.0758C74.3352 22.6641 74.3565 20.4568 74.3744 19.1438C74.3801 18.7427 74.3847 18.4238 74.3888 18.2097C74.3934 17.9806 74.4043 17.7786 74.4204 17.5972C74.4498 17.2617 74.4975 17.0015 74.5591 16.8C74.7088 16.3027 74.9367 16.1554 75.1583 16.0581C75.2429 16.0213 75.327 15.9914 75.4052 15.9522C75.9774 15.764 76.5317 15.5758 77.0336 15.3076C77.4785 15.0698 77.8826 14.7677 78.2239 14.344C78.4156 14.1069 78.5871 13.8312 78.7362 13.5077C78.8375 13.2861 78.9278 13.042 79.0061 12.7721C79.1189 12.3813 79.1874 12.0163 79.2208 11.671C79.3083 10.7667 79.1425 10.007 78.8409 9.3226C78.621 8.82471 78.3292 8.36539 78.0109 7.91874C77.9867 7.88708 77.9632 7.85543 77.9378 7.82435C77.5148 7.30632 76.8379 7.04097 76.0954 6.90628C75.3747 6.77562 74.5931 6.76699 73.9248 6.76871C73.7021 6.76987 73.492 6.7716 73.3015 6.76987C72.9147 6.76699 71.6973 6.75836 70.1288 6.74685C69.8054 6.74397 69.4658 6.74166 69.1164 6.73878C68.6467 6.73533 68.1586 6.73245 67.6607 6.72785C67.259 6.72555 66.8514 6.72267 66.4434 6.71922C65.1811 6.71059 63.9142 6.70138 62.8005 6.69274C62.1276 6.68756 61.5111 6.6841 60.9851 6.68008C60.2564 6.67432 59.7021 6.6703 59.416 6.66856C59.3228 6.66799 59.2577 6.66742 59.2249 6.66742C59.1708 6.66685 59.1046 6.66684 59.0269 6.66684C58.7587 6.66684 58.3552 6.66914 57.859 6.67202Z" fill="#EAF6F5"/>
<mask id="mask1_8134_217095" style="mask-type:alpha" maskUnits="userSpaceOnUse" x="18" y="7" width="84" height="106">
<path d="M57.8685 7.23672C57.41 7.23952 56.8716 7.24345 56.2837 7.24795C55.7458 7.25132 55.1669 7.25637 54.5733 7.26086C53.7702 7.26704 52.9407 7.27208 52.1471 7.27714C51.0675 7.28443 50.0555 7.28893 49.2682 7.28893C48.9674 7.2895 48.6999 7.28893 48.4735 7.28724C47.9565 7.2979 47.4829 7.30184 47.0436 7.3097C46.4906 7.31924 45.9944 7.33271 45.5394 7.37089C44.6805 7.44218 43.972 7.59827 43.3232 7.96767C43.0219 8.13945 42.7646 8.38478 42.5472 8.67166C42.2065 9.1219 41.9643 9.67712 41.8077 10.22C41.6012 10.7673 41.6012 12.0624 41.9283 12.6964C42.0865 13.1034 42.2909 13.4784 42.5207 13.7967C42.764 14.1319 43.036 14.4036 43.3159 14.5793C43.3998 14.6321 43.4866 14.6821 43.5739 14.7298C44.248 15.0941 45.0038 15.3058 45.4447 15.4714C45.5731 15.5202 45.6751 15.5646 45.7404 15.6078C45.893 15.7089 46.0237 15.916 46.12 16.19C46.1971 16.4117 46.2518 16.6784 46.276 16.9714C46.2839 17.0697 46.2889 17.1702 46.2901 17.274C46.2923 17.4621 46.2946 17.8972 46.2985 18.4822C46.307 19.8492 46.3194 24.4908 46.3323 26.2524C46.3368 26.9216 46.3408 27.5291 46.3453 28.0085C46.374 29.5653 46.3233 32.521 46.2332 35.1534C46.1667 37.1071 46.0783 38.8817 45.9843 39.7771C45.9133 40.4519 45.7714 41.1138 45.5912 41.7476C45.2093 43.0888 44.6535 44.3025 44.217 45.2412C43.9771 45.7571 43.3103 47.0674 42.5247 48.5871C41.2085 51.132 39.5573 54.2629 39.0166 55.2274C38.6145 55.9454 36.4316 59.9661 34.1068 64.2558C32.8707 66.5368 31.5939 68.8935 30.5233 70.8708C30.2626 71.3513 30.0142 71.8094 29.7816 72.2389C29.4319 72.8851 29.1176 73.4661 28.8512 73.9579C28.7307 74.1796 28.6203 74.384 28.5212 74.5676C28.2892 74.9959 28.1157 75.3154 28.0144 75.5017C27.6922 76.0957 27.0727 77.2466 26.3181 78.6562C25.386 80.3977 24.2495 82.5338 23.2116 84.5111C22.3178 86.2155 21.4978 87.8009 20.947 88.9113C20.59 89.6327 20.2836 90.3305 20.0246 91.0076C19.4788 92.4352 19.1477 93.7691 19.0108 95.03C18.9782 95.3365 18.9556 95.6386 18.9455 95.9367C18.9213 96.6036 18.9523 97.2509 19.0351 97.8825C19.1308 98.5163 19.2507 99.1322 19.396 99.7272C19.4862 100.096 19.5875 100.458 19.699 100.81C20.1158 102.125 20.6874 103.325 21.4567 104.384C21.6212 104.611 21.7941 104.832 21.9777 105.045C22.3263 105.453 22.7098 105.834 23.1305 106.191C23.4492 106.462 23.79 106.717 24.1538 106.958C24.5046 107.189 24.8752 107.407 25.2689 107.609C25.5071 107.758 25.76 107.901 26.0247 108.04C26.5045 108.291 27.0249 108.525 27.5762 108.744C28.127 108.964 28.7076 109.168 29.3074 109.36C29.9889 109.576 30.6951 109.775 31.4103 109.957C32.2348 110.168 33.0717 110.357 33.8945 110.527C36.2019 111.006 38.4005 111.337 39.9408 111.582C40.2922 111.638 40.6087 111.689 40.8841 111.737C42.0724 111.942 44.2497 112.153 46.6235 112.337C48.4099 112.475 50.3078 112.597 51.9827 112.689C53.9487 112.797 55.6062 112.862 56.4087 112.862C57.8589 112.862 61.4503 112.862 64.831 112.795C67.0336 112.752 69.1467 112.68 70.5186 112.563C71.0418 112.539 71.6128 112.504 72.2165 112.461C73.9934 112.332 76.0428 112.125 77.9165 111.909C79.209 111.76 80.4181 111.605 81.3969 111.468C81.6233 111.437 81.8379 111.406 82.0378 111.376C83.4948 111.161 85.4749 110.831 87.6685 110.292C89.2572 109.901 90.9586 109.401 92.6537 108.755C93.0204 108.614 93.387 108.469 93.7531 108.314C93.8066 108.293 93.8589 108.271 93.9119 108.249C94.6136 107.955 95.2415 107.622 95.8042 107.262C96.0947 107.077 96.3679 106.885 96.6241 106.688C96.8472 106.517 97.0572 106.342 97.2566 106.165C97.7702 105.707 98.2072 105.234 98.5778 104.768C98.9855 104.257 99.3139 103.754 99.5797 103.291C99.7999 102.906 99.9784 102.549 100.122 102.235C100.29 101.871 100.461 101.463 100.621 101.011C100.94 100.108 101.214 99.0272 101.33 97.741C101.36 97.4103 101.38 97.0657 101.388 96.7064C101.4 96.0282 101.37 95.3006 101.282 94.5203C101.22 93.8578 101.038 93.0988 100.789 92.3084C100.733 92.1304 100.673 91.9507 100.61 91.7705C100.137 90.4052 99.5003 88.995 98.9529 87.8682C98.7299 87.409 98.5215 86.997 98.3458 86.6545C98.205 86.3811 97.8902 85.7871 97.4526 84.9697C96.6602 83.4882 95.4674 81.2729 94.1861 78.9005C93.2197 77.1124 92.2049 75.2351 91.2734 73.5161C91.1844 73.3521 91.0965 73.1888 91.0092 73.0282C90.7479 72.5454 90.4945 72.0778 90.2518 71.6309C90.1082 71.3665 89.9691 71.1099 89.8339 70.8607C88.8855 69.1141 88.1596 67.7814 87.8802 67.2761C87.6037 66.7759 87.0197 65.6986 86.2847 64.3333C84.0191 60.1273 80.3066 53.185 79.659 51.9505C79.2636 51.1965 78.5416 49.8306 77.8078 48.4176C76.9489 46.7626 76.0732 45.0425 75.6835 44.1599C75.4244 43.5744 75.1755 42.9131 74.9564 42.1619C74.565 40.8151 74.2699 39.1786 74.1922 37.1632C74.1449 36.6714 74.1066 35.9798 74.0767 35.1534C73.9973 32.9185 73.9782 29.6972 73.9844 26.7802C73.9894 24.4279 74.0103 19.8183 74.0277 18.5377C74.0334 18.1464 74.0379 17.8354 74.0418 17.6266C74.0463 17.4032 74.057 17.2061 74.0728 17.0293C74.1015 16.702 74.1483 16.4482 74.2085 16.2517C74.3549 15.7667 74.578 15.623 74.7948 15.5281C74.8776 15.4921 74.9598 15.463 75.0364 15.4248C75.5962 15.2412 76.1385 15.0576 76.6296 14.796C77.065 14.5641 77.4603 14.2694 77.7943 13.8562C77.9818 13.6249 78.1496 13.356 78.2955 13.0405C78.3946 12.8244 78.5101 12.5927 78.5596 12.323C78.7266 11.4148 78.7266 10.5637 78.398 9.82197C78.1829 9.33636 77.8973 8.88836 77.5859 8.45271C77.5622 8.42184 77.5392 8.39096 77.5144 8.36064C77.1004 7.85538 76.4381 7.59658 75.7116 7.46521C75.0065 7.33777 74.2417 7.32935 73.5879 7.33103C73.3699 7.33215 73.1644 7.33384 72.978 7.33215C72.5995 7.32935 71.4084 7.32093 69.8737 7.3097C69.5572 7.30689 69.2249 7.30464 68.8831 7.30183C68.4235 7.29847 67.946 7.29566 67.4588 7.29118C67.0657 7.28893 66.667 7.28613 66.2677 7.28276C65.0326 7.27434 63.7931 7.26535 62.7033 7.25694C62.045 7.25188 61.4418 7.2485 60.9271 7.24458C60.2141 7.23896 59.6718 7.23504 59.3919 7.23335C59.3006 7.23279 59.237 7.23223 59.2049 7.23223C59.1519 7.23167 59.0872 7.23167 59.0111 7.23167C58.7487 7.23167 58.3539 7.23391 57.8685 7.23672Z" fill="#2B7777"/>
</mask>
<g mask="url(#mask1_8134_217095)">
<path d="M57.8685 7.23672C57.41 7.23952 56.8716 7.24345 56.2837 7.24795C55.7458 7.25132 55.1669 7.25637 54.5733 7.26086C53.7702 7.26704 52.9407 7.27208 52.1471 7.27714C51.0675 7.28443 50.0555 7.28893 49.2682 7.28893C48.9674 7.2895 48.6999 7.28893 48.4735 7.28724C47.9565 7.2979 47.4829 7.30184 47.0436 7.3097C46.4906 7.31924 45.9944 7.33271 45.5394 7.37089C44.6805 7.44218 43.972 7.59827 43.3232 7.96767C43.0219 8.13945 42.7646 8.38478 42.5472 8.67166C42.2065 9.1219 41.9643 9.67712 41.8077 10.22C41.6012 10.7673 41.6012 12.0624 41.9283 12.6964C42.0865 13.1034 42.2909 13.4784 42.5207 13.7967C42.764 14.1319 43.036 14.4036 43.3159 14.5793C43.3998 14.6321 43.4866 14.6821 43.5739 14.7298C44.248 15.0941 45.0038 15.3058 45.4447 15.4714C45.5731 15.5202 45.6751 15.5646 45.7404 15.6078C45.893 15.7089 46.0237 15.916 46.12 16.19C46.1971 16.4117 46.2518 16.6784 46.276 16.9714C46.2839 17.0697 46.2889 17.1702 46.2901 17.274C46.2923 17.4621 46.2946 17.8972 46.2985 18.4822C46.307 19.8492 46.3194 24.4908 46.3323 26.2524C46.3368 26.9216 46.3408 27.5291 46.3453 28.0085C46.374 29.5653 46.3233 32.521 46.2332 35.1534C46.1667 37.1071 46.0783 38.8817 45.9843 39.7771C45.9133 40.4519 45.7714 41.1138 45.5912 41.7476C45.2093 43.0888 44.6535 44.3025 44.217 45.2412C43.9771 45.7571 43.3103 47.0674 42.5247 48.5871C41.2085 51.132 39.5573 54.2629 39.0166 55.2274C38.6145 55.9454 36.4316 59.9661 34.1068 64.2558C32.8707 66.5368 31.5939 68.8935 30.5233 70.8708C30.2626 71.3513 30.0142 71.8094 29.7816 72.2389C29.4319 72.8851 29.1176 73.4661 28.8512 73.9579C28.7307 74.1796 28.6203 74.384 28.5212 74.5676C28.2892 74.9959 28.1157 75.3154 28.0144 75.5017C27.6922 76.0957 27.0727 77.2466 26.3181 78.6562C25.386 80.3977 24.2495 82.5338 23.2116 84.5111C22.3178 86.2155 21.4978 87.8009 20.947 88.9113C20.59 89.6327 20.2836 90.3305 20.0246 91.0076C19.4788 92.4352 19.1477 93.7691 19.0108 95.03C18.9782 95.3365 18.9556 95.6386 18.9455 95.9367C18.9213 96.6036 18.9523 97.2509 19.0351 97.8825C19.1308 98.5163 19.2507 99.1322 19.396 99.7272C19.4862 100.096 19.5875 100.458 19.699 100.81C20.1158 102.125 20.6874 103.325 21.4567 104.384C21.6212 104.611 21.7941 104.832 21.9777 105.045C22.3263 105.453 22.7098 105.834 23.1305 106.191C23.4492 106.462 23.79 106.717 24.1538 106.958C24.5046 107.189 24.8752 107.407 25.2689 107.609C25.5071 107.758 25.76 107.901 26.0247 108.04C26.5045 108.291 27.0249 108.525 27.5762 108.744C28.127 108.964 28.7076 109.168 29.3074 109.36C29.9889 109.576 30.6951 109.775 31.4103 109.957C32.2348 110.168 33.0717 110.357 33.8945 110.527C36.2019 111.006 38.4005 111.337 39.9408 111.582C40.2922 111.638 40.6087 111.689 40.8841 111.737C42.0724 111.942 44.2497 112.153 46.6235 112.337C48.4099 112.475 50.3078 112.597 51.9827 112.689C53.9487 112.797 55.6062 112.862 56.4087 112.862C57.8589 112.862 61.4503 112.862 64.831 112.795C67.0336 112.752 69.1467 112.68 70.5186 112.563C71.0418 112.539 71.6128 112.504 72.2165 112.461C73.9934 112.332 76.0428 112.125 77.9165 111.909C79.209 111.76 80.4181 111.605 81.3969 111.468C81.6233 111.437 81.8379 111.406 82.0378 111.376C83.4948 111.161 85.4749 110.831 87.6685 110.292C89.2572 109.901 90.9586 109.401 92.6537 108.755C93.0204 108.614 93.387 108.469 93.7531 108.314C93.8066 108.293 93.8589 108.271 93.9119 108.249C94.6136 107.955 95.2415 107.622 95.8042 107.262C96.0947 107.077 96.3679 106.885 96.6241 106.688C96.8472 106.517 97.0572 106.342 97.2566 106.165C97.7702 105.707 98.2072 105.234 98.5778 104.768C98.9855 104.257 99.3139 103.754 99.5797 103.291C99.7999 102.906 99.9784 102.549 100.122 102.235C100.29 101.871 100.461 101.463 100.621 101.011C100.94 100.108 101.214 99.0272 101.33 97.741C101.36 97.4103 101.38 97.0657 101.388 96.7064C101.4 96.0282 101.37 95.3006 101.282 94.5203C101.22 93.8578 101.038 93.0988 100.789 92.3084C100.733 92.1304 100.673 91.9507 100.61 91.7705C100.137 90.4052 99.5003 88.995 98.9529 87.8682C98.7299 87.409 98.5215 86.997 98.3458 86.6545C98.205 86.3811 97.8902 85.7871 97.4526 84.9697C96.6602 83.4882 95.4674 81.2729 94.1861 78.9005C93.2197 77.1124 92.2049 75.2351 91.2734 73.5161C91.1844 73.3521 91.0965 73.1888 91.0092 73.0282C90.7479 72.5454 90.4945 72.0778 90.2518 71.6309C90.1082 71.3665 89.9691 71.1099 89.8339 70.8607C88.8855 69.1141 88.1596 67.7814 87.8802 67.2761C87.6037 66.7759 87.0197 65.6986 86.2847 64.3333C84.0191 60.1273 80.3066 53.185 79.659 51.9505C79.2636 51.1965 78.5416 49.8306 77.8078 48.4176C76.9489 46.7626 76.0732 45.0425 75.6835 44.1599C75.4244 43.5744 75.1755 42.9131 74.9564 42.1619C74.565 40.8151 74.2699 39.1786 74.1922 37.1632C74.1449 36.6714 74.1066 35.9798 74.0767 35.1534C73.9973 32.9185 73.9782 29.6972 73.9844 26.7802C73.9894 24.4279 74.0103 19.8183 74.0277 18.5377C74.0334 18.1464 74.0379 17.8354 74.0418 17.6266C74.0463 17.4032 74.057 17.2061 74.0728 17.0293C74.1015 16.702 74.1483 16.4482 74.2085 16.2517C74.3549 15.7667 74.578 15.623 74.7948 15.5281C74.8776 15.4921 74.9598 15.463 75.0364 15.4248C75.5962 15.2412 76.1385 15.0576 76.6296 14.796C77.065 14.5641 77.4603 14.2694 77.7943 13.8562C77.9818 13.6249 78.1496 13.356 78.2955 13.0405C78.3946 12.8244 78.5101 12.5927 78.5596 12.323C78.7266 11.4148 78.7266 10.5637 78.398 9.82197C78.1829 9.33636 77.8973 8.88836 77.5859 8.45271C77.5622 8.42184 77.5392 8.39096 77.5144 8.36064C77.1004 7.85538 76.4381 7.59658 75.7116 7.46521C75.0065 7.33777 74.2417 7.32935 73.5879 7.33103C73.3699 7.33215 73.1644 7.33384 72.978 7.33215C72.5995 7.32935 71.4084 7.32093 69.8737 7.3097C69.5572 7.30689 69.2249 7.30464 68.8831 7.30183C68.4235 7.29847 67.946 7.29566 67.4588 7.29118C67.0657 7.28893 66.667 7.28613 66.2677 7.28276C65.0326 7.27434 63.7931 7.26535 62.7033 7.25694C62.045 7.25188 61.4418 7.2485 60.9271 7.24458C60.2141 7.23896 59.6718 7.23504 59.3919 7.23335C59.3006 7.23279 59.237 7.23223 59.2049 7.23223C59.1519 7.23167 59.0872 7.23167 59.0111 7.23167C58.7487 7.23167 58.3539 7.23391 57.8685 7.23672Z" fill="#EAF6F5"/>
<mask id="mask2_8134_217095" style="mask-type:alpha" maskUnits="userSpaceOnUse" x="9" y="67" width="102" height="48">
<path d="M9.00781 67.7502C32.5349 77.6791 82.8269 79.19 110.455 67.7502V114.157H9.00781V67.7502Z" fill="#2B7777"/>
<path d="M9.00781 77.2475C41.8163 69.0453 77.2149 69.0453 110.455 76.8158V114.589H9.00781V77.2475Z" fill="#2B7777"/>
</mask>
<g mask="url(#mask2_8134_217095)">
<mask id="mask3_8134_217095" style="mask-type:alpha" maskUnits="userSpaceOnUse" x="9" y="67" width="102" height="48">
<path d="M9.00781 67.7507C32.5349 77.6796 82.8269 79.1905 110.455 67.7507V114.157H9.00781V67.7507Z" fill="#2B7777"/>
</mask>
<g mask="url(#mask3_8134_217095)">
<rect x="4.25781" y="66.4558" width="99.2888" height="54.8247" fill="url(#paint0_linear_8134_217095)"/>
<g filter="url(#filter1_f_8134_217095)">
<rect x="34.1641" y="72.0679" width="19.4261" height="34.5352" rx="9.71303" transform="rotate(6.66168 34.1641 72.0679)" fill="#215F5F"/>
</g>
<g filter="url(#filter2_f_8134_217095)">
<rect x="72.4688" y="71.1411" width="17.622" height="31.328" rx="8.811" transform="rotate(-8.24446 72.4688 71.1411)" fill="#CCEBE2"/>
</g>
</g>
<g opacity="0.5" filter="url(#filter3_f_8134_217095)">
<path d="M9.00781 76.8161C41.8163 68.6139 77.2149 68.6139 110.455 76.3844V114.157H9.00781V76.8161Z" fill="#2B7777"/>
</g>
</g>
</g>
<g filter="url(#filter4_f_8134_217095)">
<path d="M71.3828 10.3359H72.8937C72.8937 10.3359 72.8937 31.4888 72.8937 33.6472C72.8937 35.8057 99.011 73.7944 106.565 87.6085C110.13 94.1263 108.292 107.466 102.465 108.761L92.5357 109.625C94.4782 105.74 96.2049 100.775 94.2623 94.0839C92.3197 87.3927 71.383 36.6691 71.383 33.6472C71.383 30.6254 71.3828 10.3359 71.3828 10.3359Z" fill="#CCEBE2"/>
</g>
<g opacity="0.5" filter="url(#filter5_f_8134_217095)">
<path d="M12.2422 25.4451L43.7556 25.4451L43.108 45.9504C26.0563 85.6659 5.1193 107.035 50.0151 114.373L12.2422 113.078V25.4451Z" fill="url(#paint1_linear_8134_217095)"/>
</g>
<g opacity="0.5" filter="url(#filter6_f_8134_217095)">
<path d="M108.078 25.4451H76.5647L77.2123 45.9504C94.264 85.6659 115.201 107.035 70.3052 114.373L108.078 113.078V25.4451Z" fill="url(#paint2_linear_8134_217095)"/>
</g>
<g filter="url(#filter7_f_8134_217095)">
<path d="M71.3828 10.3359H72.8937C72.8937 10.3359 72.8937 31.4888 72.8937 33.6472C72.8937 35.8057 99.011 73.7944 106.565 87.6085C110.13 94.1263 108.292 107.466 102.465 108.761L92.5357 109.625C94.4782 105.74 96.2049 100.775 94.2623 94.0839C92.3197 87.3927 71.383 36.6691 71.383 33.6472C71.383 30.6254 71.3828 10.3359 71.3828 10.3359Z" fill="#EAF6F5"/>
</g>
<g opacity="0.5" filter="url(#filter8_f_8134_217095)">
<path d="M9.00781 108.005C42.4638 116.423 77.2149 115.991 110.455 108.005V97.5374C69.8231 111.279 47.6565 111.034 9.00781 97.5374V108.005Z" fill="black"/>
</g>
<g opacity="0.5" filter="url(#filter9_f_8134_217095)">
<path d="M9.00781 98.1851C42.1579 105.458 76.9411 105.864 110.455 99.0486L110.455 94.5159C70.7178 107.665 48.5079 107.636 9.00782 94.7318L9.00781 98.1851Z" fill="url(#paint3_linear_8134_217095)"/>
</g>
<g filter="url(#filter10_f_8134_217095)">
<path d="M64.4807 16.1638H65.7759C65.7759 16.1638 65.7759 29.5462 65.7759 38.8276C65.7759 48.1089 80.7459 98.4008 80.7459 103.365C83.0434 102.934 92.7565 99.4801 94.0515 98.8325V99.6959C93.6198 100.343 81.1819 103.797 81.1819 103.797C81.1819 103.797 80.7459 105.308 80.7459 107.466C80.7459 109.625 80.0983 112.862 80.0983 112.862H78.5106C78.5106 112.862 78.8525 110.823 78.5106 104.229C56.2786 106.603 38.3635 105.092 28.2188 101.639L29.5138 100.775C37.7159 103.149 49.1557 105.955 78.5106 103.365C78.5297 97.7533 64.4807 41.8494 64.4807 38.8276C64.4807 35.8057 64.4807 16.1638 64.4807 16.1638Z" fill="url(#paint4_linear_8134_217095)"/>
</g>
<g filter="url(#filter11_f_8134_217095)">
<path d="M49.3692 16.1638H50.6641V38.8276C50.6641 49.1881 26.4411 95.379 25.8419 101.207C25.4366 105.148 24.7077 108.715 25.4102 111.352H24.829C24.101 107.711 24.3024 104.607 24.829 100.991C26.3375 90.6304 49.3692 48.1089 49.3692 38.8276V16.1638Z" fill="#A1F7DD"/>
</g>
<g opacity="0.3" filter="url(#filter12_f_8134_217095)">
<path d="M42.3855 39.738C42.2976 39.7123 42.2422 39.6314 42.2422 39.5399C42.2422 39.3955 42.3741 39.284 42.517 39.3047C43.5309 39.4519 47.6738 39.9069 60.1573 39.9069C72.6409 39.9069 76.7838 39.4519 77.7977 39.3047C77.9405 39.284 78.0725 39.3955 78.0725 39.5399C78.0725 39.6314 78.017 39.7123 77.9292 39.738C77.2188 39.9456 73.5535 40.7703 60.1573 40.7703C46.7611 40.7703 43.0959 39.9456 42.3855 39.738Z" fill="white"/>
</g>
<g opacity="0.1" filter="url(#filter13_f_8134_217095)">
<path d="M43.5391 14.8685C43.5391 14.8685 46.345 15.8759 59.9753 15.8759C73.6055 15.8759 76.7792 14.8685 76.7792 14.8685C76.7792 14.8685 74.0031 16.3076 70.5197 16.3076C67.0364 16.3076 52.1728 16.3076 49.151 16.3076C46.1293 16.3075 43.5391 14.8685 43.5391 14.8685Z" fill="black"/>
</g>
<g filter="url(#filter14_f_8134_217095)">
<path d="M67.5015 8.19926L75.2719 7.31399C63.5593 7.55057 57.8446 7.51108 46.1328 7.09814C46.1328 7.09814 50.8814 8.82491 65.343 8.19926C66.5157 9.01992 68.149 12.926 66.2064 14.6527C65.9863 14.9627 48.723 14.6527 46.1328 15.3003C48.723 15.5161 65.9905 16.1636 67.0697 15.732C69.61 14.7158 69.0124 9.90413 67.5015 8.19926Z" fill="white"/>
</g>
<g filter="url(#filter15_f_8134_217095)">
<path d="M67.5015 8.19926L75.2719 7.31399C63.5593 7.55057 57.8446 7.51108 46.1328 7.09814C46.1328 7.09814 50.8814 8.82491 65.343 8.19926C66.5157 9.01992 68.149 12.926 66.2064 14.6527C65.9863 14.9627 48.723 14.6527 46.1328 15.3003C48.723 15.5161 65.9905 16.1636 67.0697 15.732C69.61 14.7158 69.0124 9.90413 67.5015 8.19926Z" fill="white"/>
</g>
<g opacity="0.1" filter="url(#filter16_f_8134_217095)">
<path d="M73.3303 15.3001C74.5429 14.0661 75.5787 13.2091 75.4887 11.1992H73.3304C73.6738 12.8642 72.0506 14.2046 71.1719 15.3001H73.3303Z" fill="black"/>
</g>
<g opacity="0.1" filter="url(#filter17_f_8134_217095)">
<path d="M46.9979 15.3001C45.7852 14.0661 44.7495 13.2091 44.8394 11.1992H46.9977C46.6543 12.8642 48.2776 14.2046 49.1562 15.3001H46.9979Z" fill="black"/>
</g>
<g opacity="0.5" filter="url(#filter18_f_8134_217095)">
<path d="M45.2644 16.3796C41.379 16.3796 40.7322 13.5736 40.732 10.5518H41.8112C41.3795 13.5736 43.538 15.3004 46.3438 16.3796H45.2644Z" fill="black"/>
</g>
<g opacity="0.4" filter="url(#filter19_f_8134_217095)">
<path d="M49.3688 15.9479C46.2192 14.7352 46.1699 9.96872 48.0736 7.96167H49.3688C47.5219 9.90568 48.3921 15.114 50.6641 15.9479H49.3688Z" fill="#A1F7DD"/>
</g>
<g filter="url(#filter20_f_8134_217095)">
<path d="M42.3855 11.4621C42.2976 11.4365 42.2422 11.3555 42.2422 11.264C42.2422 11.1196 42.3741 11.0081 42.517 11.0288C43.5309 11.1761 47.6738 11.631 60.1573 11.631C72.6409 11.631 76.7838 11.1761 77.7977 11.0288C77.9405 11.0081 78.0725 11.1196 78.0725 11.264C78.0725 11.3555 78.017 11.4365 77.9292 11.4621C77.2188 11.6697 73.5535 12.4944 60.1573 12.4944C46.7611 12.4944 43.0959 11.6697 42.3855 11.4621Z" fill="#619B96"/>
</g>
</g>
<defs>
<filter id="filter0_df_8134_217095" x="10.6641" y="95.3333" width="98" height="24.6667" filterUnits="userSpaceOnUse" color-interpolation-filters="sRGB">
<feFlood flood-opacity="0" result="BackgroundImageFix"/>
<feColorMatrix in="SourceAlpha" type="matrix" values="0 0 0 0 0 0 0 0 0 0 0 0 0 0 0 0 0 0 127 0" result="hardAlpha"/>
<feOffset dy="4"/>
<feGaussianBlur stdDeviation="2"/>
<feComposite in2="hardAlpha" operator="out"/>
<feColorMatrix type="matrix" values="0 0 0 0 0 0 0 0 0 0 0 0 0 0 0 0 0 0 0.25 0"/>
<feBlend mode="normal" in2="BackgroundImageFix" result="effect1_dropShadow_8134_217095"/>
<feBlend mode="normal" in="SourceGraphic" in2="effect1_dropShadow_8134_217095" result="shape"/>
<feGaussianBlur stdDeviation="4" result="effect2_foregroundBlur_8134_217095"/>
</filter>
<filter id="filter1_f_8134_217095" x="10.4976" y="52.407" width="62.622" height="75.8773" filterUnits="userSpaceOnUse" color-interpolation-filters="sRGB">
<feFlood flood-opacity="0" result="BackgroundImageFix"/>
<feBlend mode="normal" in="SourceGraphic" in2="BackgroundImageFix" result="shape"/>
<feGaussianBlur stdDeviation="10.3606" result="effect1_foregroundBlur_8134_217095"/>
</filter>
<filter id="filter2_f_8134_217095" x="52.9195" y="49.0643" width="61.0282" height="72.631" filterUnits="userSpaceOnUse" color-interpolation-filters="sRGB">
<feFlood flood-opacity="0" result="BackgroundImageFix"/>
<feBlend mode="normal" in="SourceGraphic" in2="BackgroundImageFix" result="shape"/>
<feGaussianBlur stdDeviation="10.3606" result="effect1_foregroundBlur_8134_217095"/>
</filter>
<filter id="filter3_f_8134_217095" x="6.41767" y="68.0192" width="106.626" height="48.7281" filterUnits="userSpaceOnUse" color-interpolation-filters="sRGB">
<feFlood flood-opacity="0" result="BackgroundImageFix"/>
<feBlend mode="normal" in="SourceGraphic" in2="BackgroundImageFix" result="shape"/>
<feGaussianBlur stdDeviation="1.29507" result="effect1_foregroundBlur_8134_217095"/>
</filter>
<filter id="filter4_f_8134_217095" x="50.6617" y="-10.3852" width="78.4423" height="140.731" filterUnits="userSpaceOnUse" color-interpolation-filters="sRGB">
<feFlood flood-opacity="0" result="BackgroundImageFix"/>
<feBlend mode="normal" in="SourceGraphic" in2="BackgroundImageFix" result="shape"/>
<feGaussianBlur stdDeviation="10.3606" result="effect1_foregroundBlur_8134_217095"/>
</filter>
<filter id="filter5_f_8134_217095" x="1.88162" y="15.0845" width="58.4946" height="109.649" filterUnits="userSpaceOnUse" color-interpolation-filters="sRGB">
<feFlood flood-opacity="0" result="BackgroundImageFix"/>
<feBlend mode="normal" in="SourceGraphic" in2="BackgroundImageFix" result="shape"/>
<feGaussianBlur stdDeviation="5.18028" result="effect1_foregroundBlur_8134_217095"/>
</filter>
<filter id="filter6_f_8134_217095" x="59.9441" y="15.0845" width="58.4946" height="109.649" filterUnits="userSpaceOnUse" color-interpolation-filters="sRGB">
<feFlood flood-opacity="0" result="BackgroundImageFix"/>
<feBlend mode="normal" in="SourceGraphic" in2="BackgroundImageFix" result="shape"/>
<feGaussianBlur stdDeviation="5.18028" result="effect1_foregroundBlur_8134_217095"/>
</filter>
<filter id="filter7_f_8134_217095" x="50.6617" y="-10.3852" width="78.4423" height="140.731" filterUnits="userSpaceOnUse" color-interpolation-filters="sRGB">
<feFlood flood-opacity="0" result="BackgroundImageFix"/>
<feBlend mode="normal" in="SourceGraphic" in2="BackgroundImageFix" result="shape"/>
<feGaussianBlur stdDeviation="10.3606" result="effect1_foregroundBlur_8134_217095"/>
</filter>
<filter id="filter8_f_8134_217095" x="-1.35276" y="87.1768" width="122.166" height="37.3413" filterUnits="userSpaceOnUse" color-interpolation-filters="sRGB">
<feFlood flood-opacity="0" result="BackgroundImageFix"/>
<feBlend mode="normal" in="SourceGraphic" in2="BackgroundImageFix" result="shape"/>
<feGaussianBlur stdDeviation="5.18028" result="effect1_foregroundBlur_8134_217095"/>
</filter>
<filter id="filter9_f_8134_217095" x="-1.35276" y="84.1553" width="122.166" height="30.5993" filterUnits="userSpaceOnUse" color-interpolation-filters="sRGB">
<feFlood flood-opacity="0" result="BackgroundImageFix"/>
<feBlend mode="normal" in="SourceGraphic" in2="BackgroundImageFix" result="shape"/>
<feGaussianBlur stdDeviation="5.18028" result="effect1_foregroundBlur_8134_217095"/>
</filter>
<filter id="filter10_f_8134_217095" x="17.8582" y="5.80325" width="86.5571" height="117.42" filterUnits="userSpaceOnUse" color-interpolation-filters="sRGB">
<feFlood flood-opacity="0" result="BackgroundImageFix"/>
<feBlend mode="normal" in="SourceGraphic" in2="BackgroundImageFix" result="shape"/>
<feGaussianBlur stdDeviation="5.18028" result="effect1_foregroundBlur_8134_217095"/>
</filter>
<filter id="filter11_f_8134_217095" x="13.9988" y="5.80325" width="47.0258" height="115.909" filterUnits="userSpaceOnUse" color-interpolation-filters="sRGB">
<feFlood flood-opacity="0" result="BackgroundImageFix"/>
<feBlend mode="normal" in="SourceGraphic" in2="BackgroundImageFix" result="shape"/>
<feGaussianBlur stdDeviation="5.18028" result="effect1_foregroundBlur_8134_217095"/>
</filter>
<filter id="filter12_f_8134_217095" x="37.0619" y="34.122" width="46.1887" height="11.8286" filterUnits="userSpaceOnUse" color-interpolation-filters="sRGB">
<feFlood flood-opacity="0" result="BackgroundImageFix"/>
<feBlend mode="normal" in="SourceGraphic" in2="BackgroundImageFix" result="shape"/>
<feGaussianBlur stdDeviation="2.59014" result="effect1_foregroundBlur_8134_217095"/>
</filter>
<filter id="filter13_f_8134_217095" x="42.244" y="13.5736" width="35.8323" height="4.02911" filterUnits="userSpaceOnUse" color-interpolation-filters="sRGB">
<feFlood flood-opacity="0" result="BackgroundImageFix"/>
<feBlend mode="normal" in="SourceGraphic" in2="BackgroundImageFix" result="shape"/>
<feGaussianBlur stdDeviation="0.647536" result="effect1_foregroundBlur_8134_217095"/>
</filter>
<filter id="filter14_f_8134_217095" x="40.9525" y="1.91786" width="39.5012" height="19.1396" filterUnits="userSpaceOnUse" color-interpolation-filters="sRGB">
<feFlood flood-opacity="0" result="BackgroundImageFix"/>
<feBlend mode="normal" in="SourceGraphic" in2="BackgroundImageFix" result="shape"/>
<feGaussianBlur stdDeviation="2.59014" result="effect1_foregroundBlur_8134_217095"/>
</filter>
<filter id="filter15_f_8134_217095" x="40.9525" y="1.91786" width="39.5012" height="19.1396" filterUnits="userSpaceOnUse" color-interpolation-filters="sRGB">
<feFlood flood-opacity="0" result="BackgroundImageFix"/>
<feBlend mode="normal" in="SourceGraphic" in2="BackgroundImageFix" result="shape"/>
<feGaussianBlur stdDeviation="2.59014" result="effect1_foregroundBlur_8134_217095"/>
</filter>
<filter id="filter16_f_8134_217095" x="65.9916" y="6.01893" width="14.6809" height="14.4614" filterUnits="userSpaceOnUse" color-interpolation-filters="sRGB">
<feFlood flood-opacity="0" result="BackgroundImageFix"/>
<feBlend mode="normal" in="SourceGraphic" in2="BackgroundImageFix" result="shape"/>
<feGaussianBlur stdDeviation="2.59014" result="effect1_foregroundBlur_8134_217095"/>
</filter>
<filter id="filter17_f_8134_217095" x="39.6557" y="6.01893" width="14.6809" height="14.4614" filterUnits="userSpaceOnUse" color-interpolation-filters="sRGB">
<feFlood flood-opacity="0" result="BackgroundImageFix"/>
<feBlend mode="normal" in="SourceGraphic" in2="BackgroundImageFix" result="shape"/>
<feGaussianBlur stdDeviation="2.59014" result="effect1_foregroundBlur_8134_217095"/>
</filter>
<filter id="filter18_f_8134_217095" x="35.5541" y="5.37147" width="15.9699" height="16.1884" filterUnits="userSpaceOnUse" color-interpolation-filters="sRGB">
<feFlood flood-opacity="0" result="BackgroundImageFix"/>
<feBlend mode="normal" in="SourceGraphic" in2="BackgroundImageFix" result="shape"/>
<feGaussianBlur stdDeviation="2.59014" result="effect1_foregroundBlur_8134_217095"/>
</filter>
<filter id="filter19_f_8134_217095" x="44.1989" y="5.37153" width="9.05528" height="13.1666" filterUnits="userSpaceOnUse" color-interpolation-filters="sRGB">
<feFlood flood-opacity="0" result="BackgroundImageFix"/>
<feBlend mode="normal" in="SourceGraphic" in2="BackgroundImageFix" result="shape"/>
<feGaussianBlur stdDeviation="1.29507" result="effect1_foregroundBlur_8134_217095"/>
</filter>
<filter id="filter20_f_8134_217095" x="37.0619" y="5.84608" width="46.1887" height="11.8286" filterUnits="userSpaceOnUse" color-interpolation-filters="sRGB">
<feFlood flood-opacity="0" result="BackgroundImageFix"/>
<feBlend mode="normal" in="SourceGraphic" in2="BackgroundImageFix" result="shape"/>
<feGaussianBlur stdDeviation="2.59014" result="effect1_foregroundBlur_8134_217095"/>
</filter>
<linearGradient id="paint0_linear_8134_217095" x1="18.7194" y1="93.8682" x2="101.388" y2="93.8682" gradientUnits="userSpaceOnUse">
<stop stop-color="#2B7777"/>
<stop offset="0.6" stop-color="#3BA4A4"/>
<stop offset="1" stop-color="#50DDDD"/>
</linearGradient>
<linearGradient id="paint1_linear_8134_217095" x1="32.3158" y1="15.732" x2="32.3158" y2="120.633" gradientUnits="userSpaceOnUse">
<stop/>
<stop offset="1" stop-color="#737373"/>
</linearGradient>
<linearGradient id="paint2_linear_8134_217095" x1="88.0045" y1="15.732" x2="88.0045" y2="120.633" gradientUnits="userSpaceOnUse">
<stop/>
<stop offset="1" stop-color="#737373"/>
</linearGradient>
<linearGradient id="paint3_linear_8134_217095" x1="110.455" y1="98.8847" x2="9.00781" y2="98.8847" gradientUnits="userSpaceOnUse">
<stop stop-color="white"/>
<stop offset="1" stop-color="white" stop-opacity="0"/>
</linearGradient>
<linearGradient id="paint4_linear_8134_217095" x1="72.0354" y1="14.8688" x2="55.847" y2="113.294" gradientUnits="userSpaceOnUse">
<stop stop-color="#C4FAEA"/>
<stop offset="0.651645" stop-color="white"/>
<stop offset="1" stop-color="white" stop-opacity="0"/>
</linearGradient>
</defs>
</svg>
