<svg width="65" height="66" viewBox="0 0 65 66" fill="none" xmlns="http://www.w3.org/2000/svg">
<path fill-rule="evenodd" clip-rule="evenodd" d="M28.3998 1.3546C26.1111 2.59648 24.6527 5.44761 24.6527 8.6778C24.6527 11.4529 25.825 12.949 27.496 12.3072C28.2223 12.0289 28.5539 11.1082 28.5539 9.37026C28.5539 5.0926 31.7392 3.02886 34.9109 5.2506C37.3973 6.99183 36.8453 9.80265 33.3836 13.0263C30.8251 15.4093 30.4401 16.0992 30.6203 17.9815C30.7965 19.8209 31.0864 20.1681 32.446 20.1681C33.5559 20.1681 34.132 19.7605 34.2841 18.8677C34.4057 18.1525 35.6151 16.5173 36.9714 15.2338C38.3277 13.9503 39.7757 11.8748 40.1892 10.6219C42.3947 3.93914 34.7341 -2.08236 28.3998 1.3546ZM38.924 16.9568C37.6021 18.5498 38.7178 19.6519 44.1587 22.1246C46.8408 23.3437 48.9774 24.5323 48.9058 24.7657C48.7186 25.3808 33.7334 32.1968 32.5683 32.1968C32.0279 32.1968 27.9232 30.5226 23.4459 28.4764L15.3061 24.7566L20.6293 22.2722C25.1755 20.1499 25.9531 19.5537 25.9531 18.1896C25.9531 15.7344 23.7886 16.1258 15.4394 20.0895C9.29564 23.0069 7.3873 24.2885 3.94579 27.8106C1.36515 30.4517 -0.097151 32.4628 0.0445926 33.178C0.19869 33.9589 4.15581 36.0785 12.5057 39.8536L24.7405 45.3855L27.6228 42.5571L30.5045 39.7288V49.9258V60.1229L25.4655 57.8167C22.6937 56.5481 18.6007 54.7269 16.3698 53.7692L12.3132 52.028L12.3061 48.6677C12.297 44.3166 11.8438 43.2502 10.005 43.2502C8.85155 43.2502 8.39771 43.7203 8.05766 45.2685C7.48483 47.8771 8.25532 54.0371 9.25143 54.8154C10.204 55.5598 31.7952 65.3571 32.4831 65.3571C33.5468 65.3571 56.2154 54.7841 56.6653 54.078C56.928 53.6658 57.1471 49.7919 57.153 45.47L57.1627 37.6111L61.0639 35.9283C63.8214 34.7385 64.9651 33.8919 64.9651 33.0408C64.9651 32.3789 62.9905 29.8847 60.5763 27.4991C56.9865 23.951 54.9299 22.5765 49.2797 19.9464C40.3785 15.804 39.9773 15.6883 38.924 16.9568ZM31.2926 23.2163C30.2262 24.2826 30.3017 25.3671 31.5123 26.3723C32.9545 27.5687 35.039 25.5433 34.0234 23.9334C33.1099 22.4855 32.2497 22.2592 31.2926 23.2163ZM28.0929 35.2398C28.4115 35.4361 27.5929 36.7027 26.2737 38.0532L23.8757 40.509L15.3562 36.6358C10.6708 34.5057 6.5765 32.6019 6.25791 32.4049C5.93931 32.2085 6.75791 30.942 8.07716 29.5915L10.4751 27.1357L18.9947 31.0089C23.68 33.139 27.7743 35.0428 28.0929 35.2398ZM58.6231 32.297C58.3545 32.5655 54.3318 34.5246 49.6835 36.6501L41.2328 40.5142L38.7952 38.1754C37.4552 36.8887 36.5774 35.6234 36.8446 35.3633C37.1125 35.1032 41.1353 33.1513 45.7842 31.0271L54.2368 27.1636L56.6744 29.4862C58.0145 30.7638 58.8916 32.0284 58.6231 32.297ZM45.5924 42.9655C48.5586 41.6189 51.3519 40.3692 51.7986 40.1885C52.415 39.9394 52.6081 41.3315 52.599 45.944L52.5866 52.028L46.9097 54.5533C43.7875 55.9422 39.697 57.7673 37.8193 58.6086L34.4057 60.1392V49.9337V39.7288L37.3024 42.5714L40.1983 45.4141L45.5924 42.9655Z" fill="#97C3B8"/>
</svg>
