<svg width="25" height="25" viewBox="0 0 25 25" fill="none" xmlns="http://www.w3.org/2000/svg">
<path fill-rule="evenodd" clip-rule="evenodd" d="M4.55546 4.55546C5.07118 4.03973 5.77065 3.75 6.5 3.75H18.5C19.2293 3.75 19.9288 4.03973 20.4445 4.55546C20.9603 5.07118 21.25 5.77065 21.25 6.5V18.5C21.25 19.2293 20.9603 19.9288 20.4445 20.4445C19.9288 20.9603 19.2293 21.25 18.5 21.25H6.5C5.77065 21.25 5.07118 20.9603 4.55546 20.4445C4.03973 19.9288 3.75 19.2293 3.75 18.5V6.5C3.75 5.77065 4.03973 5.07118 4.55546 4.55546ZM6.5 5.25C6.16848 5.25 5.85054 5.3817 5.61612 5.61612C5.3817 5.85054 5.25 6.16848 5.25 6.5V18.5C5.25 18.8315 5.3817 19.1495 5.61612 19.3839C5.85054 19.6183 6.16848 19.75 6.5 19.75H18.5C18.8315 19.75 19.1495 19.6183 19.3839 19.3839C19.6183 19.1495 19.75 18.8315 19.75 18.5V6.5C19.75 6.16848 19.6183 5.85054 19.3839 5.61612C19.1495 5.3817 18.8315 5.25 18.5 5.25H6.5ZM16.5 7.75C16.9142 7.75 17.25 8.08579 17.25 8.5V16.5C17.25 16.9142 16.9142 17.25 16.5 17.25C16.0858 17.25 15.75 16.9142 15.75 16.5V8.5C15.75 8.08579 16.0858 7.75 16.5 7.75ZM12.5 10.75C12.9142 10.75 13.25 11.0858 13.25 11.5V16.5C13.25 16.9142 12.9142 17.25 12.5 17.25C12.0858 17.25 11.75 16.9142 11.75 16.5V11.5C11.75 11.0858 12.0858 10.75 12.5 10.75ZM8.5 13.75C8.91421 13.75 9.25 14.0858 9.25 14.5V16.5C9.25 16.9142 8.91421 17.25 8.5 17.25C8.08579 17.25 7.75 16.9142 7.75 16.5V14.5C7.75 14.0858 8.08579 13.75 8.5 13.75Z" fill="#4F5D5A"/>
</svg>
