<svg width="25" height="25" viewBox="0 0 25 25" fill="none" xmlns="http://www.w3.org/2000/svg">
<path fill-rule="evenodd" clip-rule="evenodd" d="M3.08496 6.1283C4.38972 5.26145 6.12377 4.75 8 4.75C9.68364 4.75 11.2528 5.16184 12.5 5.87277C13.7472 5.16184 15.3164 4.75 17 4.75C18.8773 4.75 20.6103 5.26147 21.915 6.1283C22.1243 6.26731 22.25 6.50181 22.25 6.753V19.753C22.25 20.0294 22.098 20.2834 21.8544 20.414C21.6108 20.5446 21.3152 20.5306 21.085 20.3777C20.0537 19.6925 18.6167 19.25 17 19.25C15.3842 19.25 13.9463 19.6926 12.915 20.3777C12.6636 20.5448 12.3364 20.5448 12.085 20.3777C11.0537 19.6926 9.61577 19.25 8 19.25C6.38423 19.25 4.94628 19.6926 3.91504 20.3777C3.68483 20.5306 3.38916 20.5446 3.14558 20.414C2.90201 20.2834 2.75 20.0294 2.75 19.753V6.753C2.75 6.50181 2.87574 6.26731 3.08496 6.1283ZM11.75 7.17187C10.7525 6.60522 9.4476 6.25 8 6.25C6.5524 6.25 5.24754 6.60522 4.25 7.17187V18.4982C5.35201 18.0193 6.63858 17.75 8 17.75C9.36142 17.75 10.648 18.0193 11.75 18.4982V7.17187ZM13.25 18.4982C14.352 18.0193 15.6386 17.75 17 17.75C18.3621 17.75 19.6483 18.0193 20.75 18.4982V7.17185C19.7526 6.6052 18.4484 6.25 17 6.25C15.5524 6.25 14.2475 6.60522 13.25 7.17187V18.4982Z" fill="#4F5D5A"/>
</svg>
