<svg width="24" height="25" viewBox="0 0 24 25" fill="none" xmlns="http://www.w3.org/2000/svg">
<path fill-rule="evenodd" clip-rule="evenodd" d="M8.25 3.5C8.25 3.08579 8.58579 2.75 9 2.75H15C15.4142 2.75 15.75 3.08579 15.75 3.5C15.75 3.91421 15.4142 4.25 15 4.25H9C8.58579 4.25 8.25 3.91421 8.25 3.5ZM9.375 5.75C9.78921 5.75 10.125 6.08579 10.125 6.5V9.67239C10.125 10.7031 9.77114 11.7026 9.1226 12.5038L7.88739 14.0296C9.49078 14.1178 10.4908 14.3896 11.522 14.67C11.6511 14.7051 11.7807 14.7403 11.912 14.7753C13.1114 15.0952 14.5294 15.42 17.2927 15.4873L14.8774 12.5038C14.2289 11.7026 13.875 10.7031 13.875 9.67239V6.5C13.875 6.08579 14.2108 5.75 14.625 5.75C15.0392 5.75 15.375 6.08579 15.375 6.5V9.67239C15.375 10.3596 15.6109 11.0259 16.0433 11.56L20.0793 16.5457C21.1602 17.881 21.75 19.5468 21.75 21.2647V21.5C21.75 21.9142 21.4142 22.25 21 22.25H3C2.58579 22.25 2.25 21.9142 2.25 21.5V21.2647C2.25 19.5468 2.83976 17.881 3.92066 16.5457L7.95673 11.56C8.3891 11.0259 8.625 10.3596 8.625 9.67239V6.5C8.625 6.08579 8.96079 5.75 9.375 5.75ZM18.5077 16.9883C18.4646 16.996 18.4203 17 18.375 17C14.7436 17 12.9911 16.6155 11.5255 16.2247C11.3907 16.1887 11.2592 16.153 11.1295 16.1178C9.90939 15.7862 8.85633 15.5 6.75 15.5C6.73269 15.5 6.71552 15.4994 6.6985 15.4983L5.08653 17.4895C4.33026 18.4237 3.87453 19.5602 3.77211 20.75H20.2279C20.1255 19.5602 19.6697 18.4237 18.9135 17.4895L18.5077 16.9883Z" fill="#4F5D5A"/>
</svg>
