<svg width="24" height="25" viewBox="0 0 24 25" fill="none" xmlns="http://www.w3.org/2000/svg">
<path fill-rule="evenodd" clip-rule="evenodd" d="M8.64124 4.14124C9.53204 3.25044 10.7402 2.75 12 2.75C13.2598 2.75 14.468 3.25044 15.3588 4.14124C16.2496 5.03204 16.75 6.24022 16.75 7.5V10.75H18C18.7293 10.75 19.4288 11.0397 19.9445 11.5555C20.4603 12.0712 20.75 12.7707 20.75 13.5V19.5C20.75 20.2293 20.4603 20.9288 19.9445 21.4445C19.4288 21.9603 18.7293 22.25 18 22.25H6C5.27065 22.25 4.57118 21.9603 4.05546 21.4445C3.53973 20.9288 3.25 20.2293 3.25 19.5V13.5C3.25 12.7707 3.53973 12.0712 4.05546 11.5555C4.57118 11.0397 5.27065 10.75 6 10.75H7.25V7.5C7.25 6.24022 7.75044 5.03204 8.64124 4.14124ZM8.75 10.75H15.25V7.5C15.25 6.63805 14.9076 5.8114 14.2981 5.2019C13.6886 4.59241 12.862 4.25 12 4.25C11.138 4.25 10.3114 4.59241 9.7019 5.2019C9.09241 5.8114 8.75 6.63805 8.75 7.5V10.75ZM6 12.25C5.66848 12.25 5.35054 12.3817 5.11612 12.6161C4.8817 12.8505 4.75 13.1685 4.75 13.5V19.5C4.75 19.8315 4.8817 20.1495 5.11612 20.3839C5.35054 20.6183 5.66848 20.75 6 20.75H18C18.3315 20.75 18.6495 20.6183 18.8839 20.3839C19.1183 20.1495 19.25 19.8315 19.25 19.5V13.5C19.25 13.1685 19.1183 12.8505 18.8839 12.6161C18.6495 12.3817 18.3315 12.25 18 12.25H6ZM12 14.75C12.4142 14.75 12.75 15.0858 12.75 15.5V17.5C12.75 17.9142 12.4142 18.25 12 18.25C11.5858 18.25 11.25 17.9142 11.25 17.5V15.5C11.25 15.0858 11.5858 14.75 12 14.75Z" fill="#4F5D5A"/>
</svg>
