<svg width="24" height="25" viewBox="0 0 24 25" fill="none" xmlns="http://www.w3.org/2000/svg">
<path fill-rule="evenodd" clip-rule="evenodd" d="M7.25 5.5C7.25 3.98122 8.48122 2.75 10 2.75H14C15.5188 2.75 16.75 3.98122 16.75 5.5V8C16.75 8.41421 16.4142 8.75 16 8.75H8C7.58579 8.75 7.25 8.41421 7.25 8V5.5ZM10 4.25C9.30964 4.25 8.75 4.80964 8.75 5.5V7.25H15.25V5.5C15.25 4.80964 14.6904 4.25 14 4.25H10ZM8 10.25C8.41421 10.25 8.75 10.5858 8.75 11V12C8.75 12.9665 7.9665 13.75 7 13.75C6.30964 13.75 5.75 14.3096 5.75 15V20.75H18.25V15C18.25 14.3096 17.6904 13.75 17 13.75C16.0335 13.75 15.25 12.9665 15.25 12V11C15.25 10.5858 15.5858 10.25 16 10.25C16.4142 10.25 16.75 10.5858 16.75 11V12C16.75 12.1381 16.8619 12.25 17 12.25C18.5188 12.25 19.75 13.4812 19.75 15V21.5C19.75 21.9142 19.4142 22.25 19 22.25H5C4.58579 22.25 4.25 21.9142 4.25 21.5V15C4.25 13.4812 5.48122 12.25 7 12.25C7.13807 12.25 7.25 12.1381 7.25 12V11C7.25 10.5858 7.58579 10.25 8 10.25Z" fill="#4F5D5A"/>
</svg>
