<svg width="25" height="25" viewBox="0 0 25 25" fill="none" xmlns="http://www.w3.org/2000/svg">
<path fill-rule="evenodd" clip-rule="evenodd" d="M11.5 4.25C11.1685 4.25 10.8505 4.3817 10.6161 4.61612C10.3817 4.85054 10.25 5.16848 10.25 5.5C10.25 5.83152 10.3817 6.14946 10.6161 6.38388C10.8505 6.6183 11.1685 6.75 11.5 6.75H13.5C13.8315 6.75 14.1495 6.6183 14.3839 6.38388C14.6183 6.14946 14.75 5.83152 14.75 5.5C14.75 5.16848 14.6183 4.85054 14.3839 4.61612C14.1495 4.3817 13.8315 4.25 13.5 4.25H11.5ZM9.55546 3.55546C10.0712 3.03973 10.7707 2.75 11.5 2.75H13.5C14.2293 2.75 14.9288 3.03973 15.4445 3.55546C15.7793 3.89024 16.0189 4.30245 16.1458 4.75H17.5C18.2293 4.75 18.9288 5.03973 19.4445 5.55546C19.9603 6.07118 20.25 6.77065 20.25 7.5V19.5C20.25 20.2293 19.9603 20.9288 19.4445 21.4445C18.9288 21.9603 18.2293 22.25 17.5 22.25H7.5C6.77065 22.25 6.07118 21.9603 5.55546 21.4445C5.03973 20.9288 4.75 20.2293 4.75 19.5V7.5C4.75 6.77065 5.03973 6.07118 5.55546 5.55546C6.07118 5.03973 6.77065 4.75 7.5 4.75H8.85424C8.98112 4.30245 9.22067 3.89024 9.55546 3.55546ZM8.85424 6.25H7.5C7.16848 6.25 6.85054 6.3817 6.61612 6.61612C6.3817 6.85054 6.25 7.16848 6.25 7.5V19.5C6.25 19.8315 6.3817 20.1495 6.61612 20.3839C6.85054 20.6183 7.16848 20.75 7.5 20.75H17.5C17.8315 20.75 18.1495 20.6183 18.3839 20.3839C18.6183 20.1495 18.75 19.8315 18.75 19.5V7.5C18.75 7.16848 18.6183 6.85054 18.3839 6.61612C18.1495 6.3817 17.8315 6.25 17.5 6.25H16.1458C16.0189 6.69755 15.7793 7.10976 15.4445 7.44454C14.9288 7.96027 14.2293 8.25 13.5 8.25H11.5C10.7707 8.25 10.0712 7.96027 9.55546 7.44454C9.22067 7.10976 8.98112 6.69755 8.85424 6.25ZM16.0303 11.9697C16.3232 12.2626 16.3232 12.7374 16.0303 13.0303L12.0303 17.0303C11.8897 17.171 11.6989 17.25 11.5 17.25C11.3011 17.25 11.1103 17.171 10.9697 17.0303L8.96967 15.0303C8.67678 14.7374 8.67678 14.2626 8.96967 13.9697C9.26256 13.6768 9.73744 13.6768 10.0303 13.9697L11.5 15.4393L14.9697 11.9697C15.2626 11.6768 15.7374 11.6768 16.0303 11.9697Z" fill="#4F5D5A"/>
</svg>
