<svg width="25" height="25" viewBox="0 0 25 25" fill="none" xmlns="http://www.w3.org/2000/svg">
<path d="M21.5 20H19.6194C20.5728 18.8414 21.1923 17.4449 21.4115 15.9606C21.6307 14.4763 21.4412 12.9603 20.8633 11.5757C20.2855 10.191 19.3411 8.99003 18.1319 8.10184C16.9226 7.21365 15.4941 6.67185 14 6.53469V3.5C14 3.10218 13.842 2.72064 13.5607 2.43934C13.2794 2.15804 12.8978 2 12.5 2H8C7.60218 2 7.22064 2.15804 6.93934 2.43934C6.65804 2.72064 6.5 3.10218 6.5 3.5V13.25C6.5 13.6478 6.65804 14.0294 6.93934 14.3107C7.22064 14.592 7.60218 14.75 8 14.75H12.5C12.8978 14.75 13.2794 14.592 13.5607 14.3107C13.842 14.0294 14 13.6478 14 13.25V8.04313C15.3232 8.19143 16.573 8.72776 17.5921 9.58464C18.6112 10.4415 19.3542 11.5807 19.7275 12.8587C20.1007 14.1368 20.0877 15.4968 19.69 16.7675C19.2922 18.0382 18.5276 19.1628 17.4922 20H3.5C3.30109 20 3.11032 20.079 2.96967 20.2197C2.82902 20.3603 2.75 20.5511 2.75 20.75C2.75 20.9489 2.82902 21.1397 2.96967 21.2803C3.11032 21.421 3.30109 21.5 3.5 21.5H21.5C21.6989 21.5 21.8897 21.421 22.0303 21.2803C22.171 21.1397 22.25 20.9489 22.25 20.75C22.25 20.5511 22.171 20.3603 22.0303 20.2197C21.8897 20.079 21.6989 20 21.5 20ZM12.5 13.25H8V3.5H12.5V13.25ZM7.25 17.75C7.05109 17.75 6.86032 17.671 6.71967 17.5303C6.57902 17.3897 6.5 17.1989 6.5 17C6.5 16.8011 6.57902 16.6103 6.71967 16.4697C6.86032 16.329 7.05109 16.25 7.25 16.25H13.25C13.4489 16.25 13.6397 16.329 13.7803 16.4697C13.921 16.6103 14 16.8011 14 17C14 17.1989 13.921 17.3897 13.7803 17.5303C13.6397 17.671 13.4489 17.75 13.25 17.75H7.25Z" fill="#4F5D5A"/>
</svg>
