<svg width="120" height="120" viewBox="0 0 120 120" fill="none" xmlns="http://www.w3.org/2000/svg">
<g opacity="0.6" filter="url(#filter0_df_8134_221514)">
<ellipse cx="59.6667" cy="110.667" rx="29.6667" ry="1.33333" fill="black"/>
</g>
<mask id="mask0_8134_221514" style="mask-type:alpha" maskUnits="userSpaceOnUse" x="15" y="28" width="99" height="66">
<path d="M16.3173 32.8891C15.2371 30.9434 16.0516 28.7696 18.798 28.5925C31.878 28.8475 38.5718 30.0028 51.9176 32.2902C57.3261 33.6342 63.177 37.2136 67.8333 40.5978C72.4897 43.982 91.7561 57.935 111.229 75.3472C113.822 77.7256 114.8 81.3749 110.68 81.6406C106.561 81.9063 95.3981 79.8684 88.3039 78.4167L83.0358 92.1211C83.0358 92.1211 81.7749 98.8847 53.6814 82.6649C25.588 66.4452 31.5272 61.5012 31.5272 61.5012L39.286 51.8789C24.4121 40.8956 17.3974 34.8347 16.3173 32.8891Z" fill="#D9D9D9"/>
</mask>
<g mask="url(#mask0_8134_221514)">
<path d="M16.3173 32.8891C15.2371 30.9434 16.0516 28.7696 18.798 28.5925C31.878 28.8475 38.5718 30.0028 51.9176 32.2902C57.3261 33.6342 63.177 37.2136 67.8333 40.5978C72.4897 43.982 91.7561 57.935 111.229 75.3472C113.822 77.7256 115.27 82.0871 111.15 82.3528C102.459 81.8818 97.52 80.9684 88.3039 78.4167L83.0358 92.1211C83.0358 92.1211 81.7749 98.8847 53.6814 82.6649C25.588 66.4452 31.5272 61.5012 31.5272 61.5012L39.286 51.8789C24.4121 40.8956 17.3974 34.8347 16.3173 32.8891Z" fill="#619B96"/>
<g filter="url(#filter1_f_8134_221514)">
<path d="M109.409 80.0261C106.356 85.3143 75.918 72.5883 59.3072 62.998C42.6964 53.4078 17.5367 35.3566 19.0632 32.7125C20.5898 30.0684 42.6199 30.0754 56.9123 37.378C71.2048 44.6806 112.462 74.7378 109.409 80.0261Z" fill="url(#paint0_radial_8134_221514)"/>
</g>
<g filter="url(#filter2_f_8134_221514)">
<path d="M89.3084 75.9121L83.035 92.1209C83.035 92.1209 81.7741 98.8845 53.6806 82.6647C25.5872 66.445 31.5263 61.501 31.5263 61.501L41.7149 48.4338C59.3006 43.1629 88.903 71.2712 89.3084 75.9121Z" fill="#2B7777"/>
</g>
<g opacity="0.5" filter="url(#filter3_f_8134_221514)">
<path d="M55.5415 68.756C43.1962 62.9046 36.4726 60.6511 30.1534 61.5897C25.1506 67.6422 33.8769 73.6643 48.6772 83.6984L52.3724 78.8247L37.2337 66.1182L58.0185 75.9149L76.7554 88.4954L60.4955 83.0739L57.6391 88.7846C75.0844 96.3939 81.6843 97.9248 83.8358 93.0239C80.8209 86.2342 77.2687 82.676 69.0924 76.5796C71.1049 72.2567 71.1166 68.4939 69.7199 63.2807C63.3752 63.5837 59.1892 65.3232 55.5415 68.756Z" fill="#F8FBFC"/>
</g>
<g opacity="0.5" filter="url(#filter4_f_8134_221514)">
<path d="M30.1532 61.5903C25.1505 67.6427 33.8768 73.6649 48.677 83.699L52.3722 78.8253L37.2336 66.1188L58.0183 75.9155L76.7552 88.496L60.4953 83.0745L57.6389 88.7851C75.0843 96.3945 81.6842 97.9254 83.8356 93.0245C73.0722 75.7931 46.1985 62.0403 30.1532 61.5903Z" fill="#97C3B8"/>
</g>
<g filter="url(#filter5_f_8134_221514)">
<path d="M93.7017 72.8064L84.4642 91.181C84.4642 91.181 74.698 80.1095 58.9069 70.9925C43.1158 61.8756 32.224 59.5384 32.224 59.5384L37.2931 51.352L42.3623 43.1656C61.9665 37.1973 93.2697 67.6179 93.7017 72.8064Z" fill="url(#paint1_linear_8134_221514)"/>
</g>
<mask id="mask1_8134_221514" style="mask-type:alpha" maskUnits="userSpaceOnUse" x="33" y="63" width="48" height="29">
<ellipse cx="56.7356" cy="77.3766" rx="27.0965" ry="4.96134" transform="rotate(30 56.7356 77.3766)" fill="#0E2F2F"/>
</mask>
<g mask="url(#mask1_8134_221514)">
<ellipse cx="56.7372" cy="77.3765" rx="30.913" ry="5.72462" transform="rotate(30 56.7372 77.3765)" fill="#215F5F"/>
<g filter="url(#filter6_f_8134_221514)">
<ellipse cx="58.2597" cy="74.7323" rx="25.57" ry="6.4879" transform="rotate(30 58.2597 74.7323)" fill="#071D1D"/>
</g>
</g>
<g filter="url(#filter7_f_8134_221514)">
<path d="M71.0702 57.8907C53.7951 46.5949 48.1491 49.5045 41.5252 48.7649C47.7675 50.1655 54.7355 48.0192 70.6886 58.5517C86.6417 69.0843 86.8051 74.9075 88.4065 76.7135C87.3264 74.7678 88.3454 69.1866 71.0702 57.8907Z" fill="#071D1D"/>
</g>
<g filter="url(#filter8_f_8134_221514)">
<path d="M55.9228 36.8051C48.2699 33.2681 23.1475 30.2212 13.968 29.3283C28.6913 29.0152 49.9929 33.3369 56.2692 36.2052C62.5455 39.0734 104.252 69.1149 113.721 79.4294C102.174 68.8978 63.5757 40.3422 55.9228 36.8051Z" fill="#0E2F2F"/>
</g>
<g filter="url(#filter9_f_8134_221514)">
<path d="M56.6853 35.4829C49.0324 31.9459 34.551 31.0766 17.3744 29.5329C35.4135 30.3939 50.5997 32.2844 56.8759 35.1526C63.1522 38.0209 94.1917 60.5382 111.979 77.1021C93.3759 60.7705 64.3381 39.0199 56.6853 35.4829Z" fill="#EAF6F5"/>
</g>
</g>
<mask id="mask2_8134_221514" style="mask-type:alpha" maskUnits="userSpaceOnUse" x="20" y="26" width="24" height="17">
<path d="M20.9717 40.8626C28.7681 33.4652 30.8036 29.1763 32.5332 27.707C36.702 24.1658 41.5674 27.9312 43.8912 30.933L37.8205 29.9984L37.542 29.7175C36.5213 29.0448 35.5518 28.9221 34.4652 29.7038C33.106 30.6816 32.8876 33.1995 22.9037 42.8594L20.9717 40.8626Z" fill="#D9D9D9"/>
</mask>
<g mask="url(#mask2_8134_221514)">
<path d="M20.9719 40.8622C28.7682 33.4649 30.4192 28.9195 32.2027 27.5161C37.0481 23.7033 42.3124 28.1673 44.6362 31.1691L38.0123 30.4294L37.5422 29.7171C36.5214 29.0444 35.5519 28.9217 34.4654 29.7034C33.1062 30.6812 32.8877 33.1992 22.9038 42.859L20.9719 40.8622Z" fill="#E9ECEB"/>
<g filter="url(#filter10_f_8134_221514)">
<path d="M28.042 37.0128C25.4727 39.9363 22.0517 42.8086 22.0517 42.8086L39.8555 31.0536C39.8555 31.0536 44.302 31.4543 44.1148 31.3091C44.1148 31.3091 41.9409 30.4947 41.089 30.4436C40.2372 30.3924 37.4292 29.2121 37.0717 29.0057C36.4107 28.624 34.1857 28.6615 33.4224 29.9835C32.6591 31.3056 30.6112 34.0893 28.042 37.0128Z" fill="#2B3231"/>
</g>
</g>
<mask id="mask3_8134_221514" style="mask-type:alpha" maskUnits="userSpaceOnUse" x="6" y="38" width="20" height="24">
<path d="M23.2762 46.4023C23.9014 46.0459 24.4431 45.5238 24.8289 44.8557C25.9882 42.8478 25.3002 40.2803 23.2923 39.121C21.2844 37.9617 18.7169 38.6497 17.5576 40.6576C17.1296 41.3991 16.9534 42.2169 17.0025 43.0119C15.685 43.3981 14.4325 44.6796 12.9972 47.1788C12.248 48.4765 11.1752 48.9561 10.0368 49.465C8.75037 50.0401 7.38019 50.6526 6.29878 52.5257C6.29878 52.5257 5.91804 55.5309 12.0123 59.0494C18.1066 62.568 20.1802 60.5402 20.1802 60.5402C20.9547 59.1987 20.9362 57.9419 20.9171 56.6481C20.8968 55.2758 20.876 53.8618 21.8001 52.2612C23.2747 49.5562 23.7287 47.7674 23.2762 46.4023Z" fill="#2B7777"/>
</mask>
<g mask="url(#mask3_8134_221514)">
<path d="M23.2762 46.4023C23.9014 46.0459 24.4431 45.5238 24.8289 44.8557C25.9882 42.8478 25.3002 40.2803 23.2923 39.121C21.2844 37.9617 18.7169 38.6497 17.5576 40.6576C17.1296 41.3991 16.9534 42.2169 17.0025 43.0119C15.685 43.3981 14.4325 44.6796 12.9972 47.1788C12.248 48.4765 11.1752 48.9561 10.0368 49.465C8.75037 50.0401 7.38019 50.6526 6.29878 52.5257C6.29878 52.5257 5.91804 55.5309 12.0123 59.0494C18.1066 62.568 20.1802 60.5402 20.1802 60.5402C20.9547 59.1987 20.9362 57.9419 20.9171 56.6481C20.8968 55.2758 20.876 53.8618 21.8001 52.2612C23.2747 49.5562 23.7287 47.7674 23.2762 46.4023Z" fill="#2B7777"/>
<g filter="url(#filter11_f_8134_221514)">
<path d="M23.5973 45.4658C22.1686 46.2874 18.9617 45.4344 17.551 43.2978C16.2179 41.4009 17.6159 39.3693 19.0402 38.4289C19.0402 38.4289 17.374 40.5518 18.7845 42.6881C20.1951 44.8245 23.5973 45.4658 23.5973 45.4658Z" fill="#215F5F"/>
</g>
<g filter="url(#filter12_f_8134_221514)">
<path d="M18.5963 51.8339C16.5628 53.1887 15.5057 54.8972 12.8616 53.3706C10.2175 51.844 5.7676 51.9188 5.29721 51.2068C4.82682 50.4948 13.0914 41.0087 17.3317 43.1241C21.572 45.2394 20.6299 50.4792 18.5963 51.8339Z" fill="#215F5F"/>
</g>
<g filter="url(#filter13_f_8134_221514)">
<ellipse cx="12.9911" cy="56.9688" rx="8.01447" ry="2.28985" transform="rotate(30 12.9911 56.9688)" fill="#215F5F"/>
</g>
<g opacity="0.5" filter="url(#filter14_f_8134_221514)">
<path d="M20.7124 45.121C22.8999 42.8585 23.9052 40.3541 21.9732 38.3574L23.8166 38.981C25.7486 40.9777 23.1793 43.9012 21.3734 45.5026C21.3943 47.3979 21.1177 49.7618 19.0698 52.5456C17.9296 53.6397 19.0474 55.6904 18.9539 57.3262L18.2928 56.9445C18.271 55.2563 16.9845 53.1044 18.0783 51.9732C19.1721 50.8419 20.9427 47.5663 20.7124 45.121Z" fill="#F8FBFC"/>
</g>
</g>
<defs>
<filter id="filter0_df_8134_221514" x="22" y="101.333" width="75.3359" height="18.6665" filterUnits="userSpaceOnUse" color-interpolation-filters="sRGB">
<feFlood flood-opacity="0" result="BackgroundImageFix"/>
<feColorMatrix in="SourceAlpha" type="matrix" values="0 0 0 0 0 0 0 0 0 0 0 0 0 0 0 0 0 0 127 0" result="hardAlpha"/>
<feOffset dy="4"/>
<feGaussianBlur stdDeviation="2"/>
<feComposite in2="hardAlpha" operator="out"/>
<feColorMatrix type="matrix" values="0 0 0 0 0 0 0 0 0 0 0 0 0 0 0 0 0 0 0.25 0"/>
<feBlend mode="normal" in2="BackgroundImageFix" result="effect1_dropShadow_8134_221514"/>
<feBlend mode="normal" in="SourceGraphic" in2="effect1_dropShadow_8134_221514" result="shape"/>
<feGaussianBlur stdDeviation="4" result="effect2_foregroundBlur_8134_221514"/>
</filter>
<filter id="filter1_f_8134_221514" x="14.4203" y="26.5214" width="99.7297" height="59.3259" filterUnits="userSpaceOnUse" color-interpolation-filters="sRGB">
<feFlood flood-opacity="0" result="BackgroundImageFix"/>
<feBlend mode="normal" in="SourceGraphic" in2="BackgroundImageFix" result="shape"/>
<feGaussianBlur stdDeviation="2.28985" result="effect1_foregroundBlur_8134_221514"/>
</filter>
<filter id="filter2_f_8134_221514" x="26.4203" y="43.1986" width="67.4641" height="54.9006" filterUnits="userSpaceOnUse" color-interpolation-filters="sRGB">
<feFlood flood-opacity="0" result="BackgroundImageFix"/>
<feBlend mode="normal" in="SourceGraphic" in2="BackgroundImageFix" result="shape"/>
<feGaussianBlur stdDeviation="2.28985" result="effect1_foregroundBlur_8134_221514"/>
</filter>
<filter id="filter3_f_8134_221514" x="19.575" y="52.2244" width="73.4204" height="52.7797" filterUnits="userSpaceOnUse" color-interpolation-filters="sRGB">
<feFlood flood-opacity="0" result="BackgroundImageFix"/>
<feBlend mode="normal" in="SourceGraphic" in2="BackgroundImageFix" result="shape"/>
<feGaussianBlur stdDeviation="4.5797" result="effect1_foregroundBlur_8134_221514"/>
</filter>
<filter id="filter4_f_8134_221514" x="26.4445" y="59.3005" width="59.6813" height="38.8346" filterUnits="userSpaceOnUse" color-interpolation-filters="sRGB">
<feFlood flood-opacity="0" result="BackgroundImageFix"/>
<feBlend mode="normal" in="SourceGraphic" in2="BackgroundImageFix" result="shape"/>
<feGaussianBlur stdDeviation="1.14492" result="effect1_foregroundBlur_8134_221514"/>
</filter>
<filter id="filter5_f_8134_221514" x="27.6469" y="37.8139" width="70.636" height="57.947" filterUnits="userSpaceOnUse" color-interpolation-filters="sRGB">
<feFlood flood-opacity="0" result="BackgroundImageFix"/>
<feBlend mode="normal" in="SourceGraphic" in2="BackgroundImageFix" result="shape"/>
<feGaussianBlur stdDeviation="2.28985" result="effect1_foregroundBlur_8134_221514"/>
</filter>
<filter id="filter6_f_8134_221514" x="26.7156" y="51.6043" width="63.0844" height="46.2563" filterUnits="userSpaceOnUse" color-interpolation-filters="sRGB">
<feFlood flood-opacity="0" result="BackgroundImageFix"/>
<feBlend mode="normal" in="SourceGraphic" in2="BackgroundImageFix" result="shape"/>
<feGaussianBlur stdDeviation="4.5797" result="effect1_foregroundBlur_8134_221514"/>
</filter>
<filter id="filter7_f_8134_221514" x="39.2336" y="46.4753" width="51.4625" height="32.5279" filterUnits="userSpaceOnUse" color-interpolation-filters="sRGB">
<feFlood flood-opacity="0" result="BackgroundImageFix"/>
<feBlend mode="normal" in="SourceGraphic" in2="BackgroundImageFix" result="shape"/>
<feGaussianBlur stdDeviation="1.14492" result="effect1_foregroundBlur_8134_221514"/>
</filter>
<filter id="filter8_f_8134_221514" x="11.6789" y="27.0222" width="104.33" height="54.6969" filterUnits="userSpaceOnUse" color-interpolation-filters="sRGB">
<feFlood flood-opacity="0" result="BackgroundImageFix"/>
<feBlend mode="normal" in="SourceGraphic" in2="BackgroundImageFix" result="shape"/>
<feGaussianBlur stdDeviation="1.14492" result="effect1_foregroundBlur_8134_221514"/>
</filter>
<filter id="filter9_f_8134_221514" x="15.0852" y="27.2429" width="99.1813" height="52.149" filterUnits="userSpaceOnUse" color-interpolation-filters="sRGB">
<feFlood flood-opacity="0" result="BackgroundImageFix"/>
<feBlend mode="normal" in="SourceGraphic" in2="BackgroundImageFix" result="shape"/>
<feGaussianBlur stdDeviation="1.14492" result="effect1_foregroundBlur_8134_221514"/>
</filter>
<filter id="filter10_f_8134_221514" x="18.6199" y="25.3611" width="28.932" height="20.8822" filterUnits="userSpaceOnUse" color-interpolation-filters="sRGB">
<feFlood flood-opacity="0" result="BackgroundImageFix"/>
<feBlend mode="normal" in="SourceGraphic" in2="BackgroundImageFix" result="shape"/>
<feGaussianBlur stdDeviation="1.71739" result="effect1_foregroundBlur_8134_221514"/>
</filter>
<filter id="filter11_f_8134_221514" x="14.7258" y="36.1389" width="11.1578" height="11.9249" filterUnits="userSpaceOnUse" color-interpolation-filters="sRGB">
<feFlood flood-opacity="0" result="BackgroundImageFix"/>
<feBlend mode="normal" in="SourceGraphic" in2="BackgroundImageFix" result="shape"/>
<feGaussianBlur stdDeviation="1.14492" result="effect1_foregroundBlur_8134_221514"/>
</filter>
<filter id="filter12_f_8134_221514" x="1.84648" y="39.3821" width="21.9086" height="18.0234" filterUnits="userSpaceOnUse" color-interpolation-filters="sRGB">
<feFlood flood-opacity="0" result="BackgroundImageFix"/>
<feBlend mode="normal" in="SourceGraphic" in2="BackgroundImageFix" result="shape"/>
<feGaussianBlur stdDeviation="1.71739" result="effect1_foregroundBlur_8134_221514"/>
</filter>
<filter id="filter13_f_8134_221514" x="4.8082" y="51.3517" width="16.3602" height="11.2342" filterUnits="userSpaceOnUse" color-interpolation-filters="sRGB">
<feFlood flood-opacity="0" result="BackgroundImageFix"/>
<feBlend mode="normal" in="SourceGraphic" in2="BackgroundImageFix" result="shape"/>
<feGaussianBlur stdDeviation="0.572462" result="effect1_foregroundBlur_8134_221514"/>
</filter>
<filter id="filter14_f_8134_221514" x="14.2059" y="34.9226" width="13.7289" height="25.8383" filterUnits="userSpaceOnUse" color-interpolation-filters="sRGB">
<feFlood flood-opacity="0" result="BackgroundImageFix"/>
<feBlend mode="normal" in="SourceGraphic" in2="BackgroundImageFix" result="shape"/>
<feGaussianBlur stdDeviation="1.71739" result="effect1_foregroundBlur_8134_221514"/>
</filter>
<radialGradient id="paint0_radial_8134_221514" cx="0" cy="0" r="1" gradientUnits="userSpaceOnUse" gradientTransform="translate(61.0894 56.0948) rotate(26.8396) scale(62.3023 18.3958)">
<stop stop-color="#0E2F2F"/>
<stop offset="0.555" stop-color="#1B4F4F"/>
<stop offset="1" stop-color="#619B96"/>
</radialGradient>
<linearGradient id="paint1_linear_8134_221514" x1="65.6561" y1="62.6949" x2="58.0233" y2="75.9154" gradientUnits="userSpaceOnUse">
<stop stop-color="#0E2F2F"/>
<stop offset="1" stop-color="#6E7F7F" stop-opacity="0"/>
</linearGradient>
</defs>
</svg>
