<svg width="60" height="65" viewBox="0 0 60 65" fill="none" xmlns="http://www.w3.org/2000/svg">
<path fill-rule="evenodd" clip-rule="evenodd" d="M3.44253 2.68485C5.16652 0.96577 7.50476 0 9.94286 0H50.0571C52.4952 0 54.8335 0.965771 56.5575 2.68485C58.2815 4.40394 59.25 6.73551 59.25 9.16667V62.5C59.25 63.3664 58.8001 64.1711 58.0609 64.6266C57.3218 65.0821 56.3988 65.1236 55.6216 64.7361L43.3714 58.6284L31.1212 64.7361C30.4154 65.088 29.5846 65.088 28.8788 64.7361L16.6286 58.6284L4.37837 64.7361C3.60119 65.1236 2.67821 65.0821 1.93906 64.6266C1.19991 64.1711 0.75 63.3664 0.75 62.5V9.16667C0.75 6.73552 1.71853 4.40394 3.44253 2.68485ZM9.94286 5C8.83463 5 7.77179 5.43899 6.98816 6.22039C6.20453 7.00179 5.76429 8.0616 5.76429 9.16667V58.4549L15.5073 53.5973C16.2132 53.2454 17.044 53.2454 17.7498 53.5973L30 59.7049L42.2502 53.5973C42.956 53.2454 43.7868 53.2454 44.4927 53.5973L54.2357 58.4549V9.16667C54.2357 8.0616 53.7955 7.00179 53.0118 6.22039C52.2282 5.43899 51.1654 5 50.0571 5H9.94286ZM10.7786 15.8333C10.7786 14.4526 11.9011 13.3333 13.2857 13.3333H46.7143C48.0989 13.3333 49.2214 14.4526 49.2214 15.8333C49.2214 17.214 48.0989 18.3333 46.7143 18.3333H13.2857C11.9011 18.3333 10.7786 17.214 10.7786 15.8333ZM10.7786 29.1667C10.7786 27.786 11.9011 26.6667 13.2857 26.6667H46.7143C48.0989 26.6667 49.2214 27.786 49.2214 29.1667C49.2214 30.5474 48.0989 31.6667 46.7143 31.6667H13.2857C11.9011 31.6667 10.7786 30.5474 10.7786 29.1667ZM10.7786 42.5C10.7786 41.1193 11.9011 40 13.2857 40H46.7143C48.0989 40 49.2214 41.1193 49.2214 42.5C49.2214 43.8807 48.0989 45 46.7143 45H13.2857C11.9011 45 10.7786 43.8807 10.7786 42.5Z" fill="#A3A3A3"/>
</svg>
