<svg width="72" height="72" viewBox="0 0 72 72" fill="none" xmlns="http://www.w3.org/2000/svg">
<path fill-rule="evenodd" clip-rule="evenodd" d="M46.6875 9L25.3125 9.00005V19.1547L46.6875 19.1547V9ZM25.3125 4.50005L46.6875 4.5C49.1728 4.49999 51.1875 6.51472 51.1875 9V21.4047C51.1875 22.6473 50.1801 23.6547 48.9375 23.6547L23.0625 23.6547C22.4658 23.6547 21.8935 23.4177 21.4715 22.9957C21.0496 22.5738 20.8125 22.0015 20.8125 21.4047V9.00005C20.8125 6.51477 22.8272 4.50005 25.3125 4.50005ZM48.9375 25.875C50.1801 25.875 51.1875 26.8824 51.1875 28.125V30.0938C51.1875 30.8705 51.8171 31.5001 52.5938 31.5001C55.8557 31.5001 58.5 34.1444 58.5 37.4063V63.0001C58.5 65.4853 56.4853 67.5001 54 67.5001L18 67.5001C15.5147 67.5001 13.5 65.4854 13.5 63.0001V37.4064C13.5 34.1444 16.1443 31.5001 19.4062 31.5001C20.1829 31.5001 20.8125 30.8705 20.8125 30.0939V28.1251C20.8125 26.8824 21.8199 25.8751 23.0625 25.8751C24.3051 25.8751 25.3125 26.8824 25.3125 28.1251V30.0939C25.3125 33.3558 22.6682 36.0001 19.4062 36.0001C18.6296 36.0001 18 36.6297 18 37.4064V63.0001L54 63.0001V37.4063C54 36.6297 53.3704 36.0001 52.5938 36.0001C49.3318 36.0001 46.6875 33.3557 46.6875 30.0938V28.125C46.6875 26.8824 47.6949 25.875 48.9375 25.875ZM36.7051 45.6583C40.2154 44.5896 44.3082 43.3435 50.1465 45.095C51.0982 45.3805 51.75 46.2565 51.75 47.2501V58.5006C51.75 59.0973 51.5129 59.6696 51.091 60.0915C50.669 60.5135 50.0967 60.7506 49.5 60.7506L22.5 60.7504C21.2574 60.7504 20.25 59.7431 20.25 58.5004V47.25C20.25 46.485 20.6387 45.7724 21.2819 45.3582C21.9251 44.9441 22.7347 44.8851 23.4311 45.2017C26.2695 46.4919 28.4845 46.8985 30.3574 46.8986C32.2541 46.8986 33.933 46.4847 35.7827 45.9366C36.0861 45.8467 36.3933 45.7532 36.7051 45.6583ZM24.75 50.5164V56.2505L47.25 56.2505V49.0022C43.616 48.274 40.9972 49.0646 37.9651 49.98C37.6682 50.0696 37.3673 50.1605 37.0611 50.2512C35.1139 50.8281 32.9256 51.3986 30.3574 51.3986C28.6266 51.3985 26.7819 51.1409 24.75 50.5164Z" fill="#7D8D89"/>
</svg>
