<svg width="94" height="93" viewBox="0 0 94 93" fill="none" xmlns="http://www.w3.org/2000/svg">
<path d="M88.811 45.5313H76.715C76.659 45.6251 76.659 45.7936 76.659 46.1494C76.659 50.2698 76.659 54.4091 76.6404 58.5296C76.6404 59.3912 76.7708 59.1851 76.044 59.6346C73.2482 61.3578 70.4526 63.0996 67.6568 64.8226C61.208 68.8121 54.7778 72.8014 48.329 76.7907C48.0681 76.9593 47.8259 77.1654 47.5091 77.2402C47.2481 77.0905 46.9871 76.9593 46.7449 76.7907C39.886 72.5393 33.0272 68.2688 26.1683 64.0174C23.7268 62.5001 21.2852 60.983 18.8436 59.4848C18.564 59.3162 18.3963 59.1289 18.4522 58.7731C18.4708 58.6608 18.4522 58.5296 18.4522 58.4172C18.4522 54.3155 18.4522 50.1951 18.4522 46.0932C18.4522 45.756 18.4708 45.6063 18.3963 45.5127H6.35607C6.30015 45.6251 6.31879 45.7936 6.31879 46.1681C6.31879 52.9668 6.31879 59.7657 6.31879 66.5458C6.31879 66.6394 6.33743 66.7518 6.31879 66.8453C6.28152 67.1263 6.41198 67.295 6.65428 67.4074C6.71019 67.426 6.76611 67.4636 6.80338 67.501C10.0464 69.3926 13.3081 71.2844 16.5511 73.1759C25.9447 78.6449 35.3383 84.0953 44.7319 89.5643C45.496 90.0138 46.2602 90.4445 47.0243 90.9128C47.3785 91.1375 47.7141 91.1375 48.0681 90.9128C48.18 90.8378 48.3104 90.7816 48.4222 90.7068C55.2066 86.7735 62.0095 82.8216 68.7937 78.8885C75.3171 75.1051 81.8404 71.3217 88.3638 67.5384C88.9416 67.2013 88.867 67.3136 88.867 66.6768C88.867 66.602 88.867 66.527 88.867 66.4334C88.867 63.0996 88.867 59.7657 88.867 56.4131C88.867 56.4131 88.867 56.4131 88.8856 56.4131C88.8856 53.023 88.8856 49.6144 88.8856 46.2243C88.867 45.8122 88.8856 45.6251 88.811 45.5313Z" fill="#2B7777"/>
<path d="M88.6815 41.4482C88.6815 18.5983 70.2483 0 47.5844 0C24.9205 0 6.46875 18.5983 6.46875 41.4482H18.5835C18.5835 25.3036 31.5928 12.1741 47.5658 12.1741C63.5385 12.1741 76.5667 25.3036 76.5667 41.4482H88.6815Z" fill="#2B7777"/>
</svg>
