<svg width="32" height="32" viewBox="0 0 32 32" fill="none" xmlns="http://www.w3.org/2000/svg">
    <path d="M29 14C29 17.5638 25.9413 20.5137 22 20.945V22C22 22.2652 21.8946 22.5196 21.7071 22.7071C21.5196 22.8946 21.2652 23 21 23C20.7348 23 20.4804 22.8946 20.2929 22.7071C20.1054 22.5196 20 22.2652 20 22V20C20 19.7348 20.1054 19.4804 20.2929 19.2929C20.4804 19.1054 20.7348 19 21 19C24.3087 19 27 16.7575 27 14C27 11.2425 24.3087 9 21 9C17.6913 9 15 11.2425 15 14C15 14.2652 14.8946 14.5196 14.7071 14.7071C14.5196 14.8946 14.2652 15 14 15C13.7348 15 13.4804 14.8946 13.2929 14.7071C13.1054 14.5196 13 14.2652 13 14C13 10.14 16.5887 7 21 7C25.4113 7 29 10.14 29 14ZM21 26C20.6044 26 20.2178 26.1173 19.8889 26.3371C19.56 26.5568 19.3036 26.8692 19.1522 27.2346C19.0009 27.6001 18.9613 28.0022 19.0384 28.3902C19.1156 28.7781 19.3061 29.1345 19.5858 29.4142C19.8655 29.6939 20.2219 29.8844 20.6098 29.9616C20.9978 30.0387 21.3999 29.9991 21.7654 29.8478C22.1308 29.6964 22.4432 29.44 22.6629 29.1111C22.8827 28.7822 23 28.3956 23 28C23 27.4696 22.7893 26.9609 22.4142 26.5858C22.0391 26.2107 21.5304 26 21 26Z" fill="#4F5D5A"/>
    <path fill-rule="evenodd" clip-rule="evenodd" d="M7 5.66667C7 3.64162 8.64162 2 10.6667 2H16C17.8303 2 19.3473 3.34104 19.6222 5.09414C18.9455 5.1874 18.2904 5.34837 17.6639 5.56999C17.6138 4.69451 16.888 4 16 4H10.6667C9.74619 4 9 4.74619 9 5.66667V8H13.8586C13.272 8.59829 12.7601 9.26998 12.3378 10H8C7.44772 10 7 9.55228 7 9V5.66667ZM18 28V26H5V18.3333C5 17.4129 5.74619 16.6667 6.66667 16.6667C7.95533 16.6667 9 15.622 9 14.3333V13C9 12.4477 8.55229 12 8 12C7.44772 12 7 12.4477 7 13V14.3333C7 14.5174 6.85076 14.6667 6.66667 14.6667C4.64162 14.6667 3 16.3083 3 18.3333V27C3 27.5523 3.44772 28 4 28H18Z" fill="#4F5D5A"/>
    </svg>
    