<svg width="68" height="69" viewBox="0 0 68 69" fill="none" xmlns="http://www.w3.org/2000/svg">
<path fill-rule="evenodd" clip-rule="evenodd" d="M4.85714 28.4286C4.85714 15.6866 15.1866 5.35714 27.9286 5.35714C40.6706 5.35714 51 15.6866 51 28.4286C51 41.1706 40.6706 51.5 27.9286 51.5C15.1866 51.5 4.85714 41.1706 4.85714 28.4286ZM27.9286 0.5C12.504 0.5 0 13.004 0 28.4286C0 43.8531 12.504 56.3571 27.9286 56.3571C34.7665 56.3571 41.0304 53.8998 45.8854 49.82L63.8542 67.7887C64.8026 68.7371 66.3403 68.7371 67.2887 67.7887C68.2371 66.8403 68.2371 65.3026 67.2887 64.3542L49.32 46.3854C53.3998 41.5304 55.8571 35.2665 55.8571 28.4286C55.8571 13.004 43.3531 0.5 27.9286 0.5ZM27.9286 15.0714C22.72 15.0714 20.6429 18.0599 20.6429 19.9286C20.6429 21.2698 19.5555 22.3571 18.2143 22.3571C16.873 22.3571 15.7857 21.2698 15.7857 19.9286C15.7857 14.5115 20.9943 10.2143 27.9286 10.2143C31.4333 10.2143 34.7524 11.2658 37.2384 13.3693C39.7647 15.507 41.2857 18.6173 41.2857 22.3571C41.2857 25.7813 39.0057 28.1591 36.8897 29.6367C34.7242 31.1489 32.1936 32.1123 30.5426 32.643C30.4716 32.6658 30.4163 32.7087 30.384 32.7507C30.369 32.7702 30.3624 32.7851 30.3596 32.7928C30.3573 32.7994 30.3571 32.8026 30.3571 32.8053V35.7143C30.3571 37.0555 29.2698 38.1429 27.9286 38.1429C26.5873 38.1429 25.5 37.0555 25.5 35.7143V32.8053C25.5 30.5142 27.0647 28.6588 29.0564 28.0188C30.528 27.5458 32.5262 26.7596 34.1088 25.6544C35.7411 24.5146 36.4286 23.4072 36.4286 22.3571C36.4286 20.0255 35.521 18.2788 34.1009 17.0772C32.6404 15.8414 30.4952 15.0714 27.9286 15.0714ZM27.9286 46.6429C29.2698 46.6429 30.3571 45.5555 30.3571 44.2143C30.3571 42.873 29.2698 41.7857 27.9286 41.7857C26.5873 41.7857 25.5 42.873 25.5 44.2143C25.5 45.5555 26.5873 46.6429 27.9286 46.6429Z" fill="#D4D4D4"/>
</svg>
