<svg width="26" height="34" viewBox="0 0 26 34" fill="none" xmlns="http://www.w3.org/2000/svg">
<path d="M6.65225 0.46582C5.82514 0.46582 5.23212 0.968698 5.23212 1.87349L5.24535 6.69802C5.24535 7.9092 6.0907 8.65273 7.22419 8.65273C8.35767 8.65273 9.21625 7.97145 9.21625 6.76027V2.11628H8.81706L8.78126 6.72292C8.78126 7.60341 8.01472 8.29245 7.23741 8.29245C6.46011 8.29245 5.63054 7.59174 5.63054 6.71125L5.64221 1.83925C5.64221 1.31853 6.21311 0.849448 6.68882 0.849448C7.16452 0.849448 7.6226 1.30686 7.6226 1.82758V6.0008C7.6226 6.0008 7.43318 6.39921 7.23119 6.39921C7.02919 6.39921 6.77438 6.25728 6.82577 6.03815V2.11705H6.42736L6.41413 5.96423C6.41413 6.51404 6.70904 6.76105 7.24053 6.76105C7.77201 6.76105 8.02101 6.47591 8.02101 5.9261V1.86026C8.02101 0.955469 7.47935 0.46582 6.65225 0.46582ZM9.61388 0.921038C9.39396 0.921038 9.21547 1.09953 9.21547 1.31945C9.21547 1.53937 9.39396 1.71786 9.61388 1.71786H16.7853V5.89575C16.7853 7.98622 18.486 9.68612 20.5765 9.68612H24.7536V29.3149C24.7536 31.0134 23.3725 32.3956 21.6736 32.3956H4.32869C2.63026 32.3956 1.248 31.0138 1.248 29.3149V4.79856C1.248 3.10013 2.62986 1.71864 4.32869 1.71864H4.83371C5.05363 1.71864 5.23212 1.54015 5.23212 1.32023C5.23212 1.10031 5.05363 0.921816 4.83371 0.921816H4.32869C2.19081 0.921816 0.451172 2.66028 0.451172 4.79856V29.3149C0.451172 31.4528 2.19041 33.1925 4.32869 33.1925H21.6736C23.8115 33.1925 25.5504 31.4528 25.5504 29.3149V9.38653C25.5504 9.28095 25.5086 9.17974 25.4337 9.10484L17.3666 1.03776C17.2921 0.962859 17.1905 0.921038 17.0849 0.921038H9.61388ZM17.1837 1.98088L24.4898 9.2877H20.5765C18.7059 9.2877 17.1837 7.7663 17.1837 5.89575V1.98088ZM4.33803 4.18771C4.28788 4.1781 4.23404 4.18776 4.18862 4.21884C3.34479 4.79255 2.84087 5.74161 2.84087 6.75716V27.7384C2.84087 29.4273 4.2095 30.802 5.89199 30.802H20.1088C21.7913 30.802 23.1599 29.4273 23.1607 27.7384V20.6425C23.1607 20.5325 23.0714 20.4433 22.9615 20.4433C22.8515 20.4433 22.7623 20.5325 22.7623 20.6425V27.7384C22.7623 29.2078 21.5721 30.4036 20.1096 30.4036H5.89277C4.4302 30.4036 3.24006 29.2078 3.24006 27.7384V6.75716C3.24006 5.87348 3.67806 5.0476 4.41273 4.54799C4.50357 4.48624 4.5274 4.36299 4.46565 4.27175C4.43477 4.22653 4.38818 4.19732 4.33803 4.18771ZM22.9607 15.2639C22.8507 15.2639 22.7615 15.3531 22.7615 15.4631V16.6583C22.7615 16.7683 22.8507 16.8575 22.9607 16.8575C23.0711 16.8575 23.1599 16.7683 23.1599 16.6583V15.4631C23.1599 15.3531 23.0707 15.2639 22.9607 15.2639ZM5.03214 16.8575C4.92218 16.8575 4.83293 16.9468 4.83293 17.0567C4.83293 17.1667 4.92218 17.256 5.03214 17.256H14.1956C14.306 17.256 14.3948 17.1667 14.3948 17.0567C14.3948 16.9468 14.3056 16.8575 14.1956 16.8575H5.03214ZM22.9607 17.256C22.8507 17.256 22.7615 17.3452 22.7615 17.4552V19.8456C22.7615 19.9556 22.8507 20.0448 22.9607 20.0448C23.0711 20.0448 23.1599 19.9556 23.1599 19.8456V17.4552C23.1599 17.3452 23.0707 17.256 22.9607 17.256ZM5.03214 19.6464C4.92218 19.6464 4.83293 19.7357 4.83293 19.8456C4.83293 19.9556 4.92218 20.0448 5.03214 20.0448H10.6099C10.7203 20.0448 10.8091 19.9556 10.8091 19.8456C10.8091 19.7357 10.7199 19.6464 10.6099 19.6464H5.03214ZM11.4067 19.6464C11.2968 19.6464 11.2075 19.7357 11.2075 19.8456C11.2075 19.9556 11.2968 20.0448 11.4067 20.0448H20.9686C21.079 20.0448 21.1678 19.9556 21.1678 19.8456C21.1678 19.7357 21.0786 19.6464 20.9686 19.6464H11.4067ZM5.03214 22.4353C4.92218 22.4353 4.83293 22.5246 4.83293 22.6345C4.83293 22.7445 4.92218 22.8337 5.03214 22.8337H12.2036C12.3139 22.8337 12.4028 22.7445 12.4028 22.6345C12.4028 22.5246 12.3135 22.4353 12.2036 22.4353H5.03214ZM13.0004 22.4353C12.8904 22.4353 12.8012 22.5246 12.8012 22.6345C12.8012 22.7445 12.8904 22.8337 13.0004 22.8337H17.3829C17.4933 22.8337 17.5821 22.7445 17.5821 22.6345C17.5821 22.5246 17.4929 22.4353 17.3829 22.4353H13.0004ZM18.1798 22.4353C18.0698 22.4353 17.9805 22.5246 17.9805 22.6345C17.9805 22.7445 18.0698 22.8337 18.1798 22.8337H21.3671C21.4774 22.8337 21.5663 22.7445 21.5663 22.6345C21.5663 22.5246 21.477 22.4353 21.3671 22.4353H18.1798ZM5.03214 25.2242C4.92218 25.2242 4.83293 25.3135 4.83293 25.4234C4.83293 25.5334 4.92218 25.6226 5.03214 25.6226H14.594C14.7044 25.6226 14.7932 25.5334 14.7932 25.4234C14.7932 25.3135 14.704 25.2242 14.594 25.2242H5.03214ZM15.7893 25.2242C15.6793 25.2242 15.5901 25.3135 15.5901 25.4234C15.5901 25.5334 15.6793 25.6226 15.7893 25.6226H20.9686C21.079 25.6226 21.1678 25.5334 21.1678 25.4234C21.1678 25.3135 21.0786 25.2242 20.9686 25.2242H15.7893Z" fill="#525252"/>
</svg>
