<svg width="50" height="50" viewBox="0 0 50 50" fill="none" xmlns="http://www.w3.org/2000/svg">
<rect width="50" height="50" fill="#F5F5F5"/>
<path fill-rule="evenodd" clip-rule="evenodd" d="M30.9375 10L19.0625 10V15.6415L30.9375 15.6415V10ZM19.0625 7.50003L30.9375 7.5C32.3182 7.5 33.4375 8.61929 33.4375 10V16.8915C33.4375 17.5818 32.8779 18.1415 32.1875 18.1415L17.8125 18.1415C17.481 18.1415 17.163 18.0098 16.9286 17.7754C16.6942 17.541 16.5625 17.223 16.5625 16.8915V10C16.5625 8.61932 17.6818 7.50003 19.0625 7.50003ZM32.1875 19.375C32.8779 19.375 33.4375 19.9346 33.4375 20.625V21.7188C33.4375 22.1503 33.7873 22.5 34.2188 22.5C36.0309 22.5 37.5 23.9691 37.5 25.7813V40C37.5 41.3807 36.3807 42.5 35 42.5L15 42.5001C13.6193 42.5001 12.5 41.3808 12.5 40.0001V25.7813C12.5 23.9691 13.9691 22.5001 15.7812 22.5001C16.2127 22.5001 16.5625 22.1503 16.5625 21.7188V20.625C16.5625 19.9347 17.1221 19.375 17.8125 19.375C18.5029 19.375 19.0625 19.9347 19.0625 20.625V21.7188C19.0625 23.531 17.5934 25.0001 15.7812 25.0001C15.3498 25.0001 15 25.3498 15 25.7813V40.0001L35 40V25.7813C35 25.3498 34.6502 25 34.2188 25C32.4066 25 30.9375 23.531 30.9375 21.7188V20.625C30.9375 19.9346 31.4971 19.375 32.1875 19.375ZM25.3917 30.3657C27.3419 29.772 29.6157 29.0797 32.8592 30.0528C33.3879 30.2114 33.75 30.6981 33.75 31.2501V37.5003C33.75 37.8318 33.6183 38.1498 33.3839 38.3842C33.1495 38.6186 32.8315 38.7503 32.5 38.7503L17.5 38.7502C16.8096 38.7502 16.25 38.1906 16.25 37.5002V31.25C16.25 30.825 16.4659 30.4291 16.8233 30.199C17.1806 29.9689 17.6304 29.9362 18.0173 30.112C19.5941 30.8288 20.8247 31.0547 21.8652 31.0548C22.9189 31.0548 23.8517 30.8248 24.8793 30.5203C25.0478 30.4704 25.2185 30.4184 25.3917 30.3657ZM18.75 33.0647V36.2502L31.25 36.2503V32.2234C29.2311 31.8189 27.7762 32.2581 26.0917 32.7667C25.9268 32.8165 25.7596 32.8669 25.5895 32.9173C24.5077 33.2379 23.292 33.5548 21.8652 33.5548C20.9037 33.5547 19.8788 33.4116 18.75 33.0647Z" fill="#7D8D89"/>
</svg>
