<svg width="120" height="26" viewBox="0 0 120 26" fill="none" xmlns="http://www.w3.org/2000/svg">
<path d="M73.0321 17.353C72.7875 17.369 72.5425 17.369 72.298 17.353C72.2714 17.3316 72.2393 17.3316 72.2128 17.3316C72.1221 17.3316 72.0264 17.3262 71.9362 17.3262C71.9201 17.3262 71.9041 17.3209 71.8881 17.3209C71.8244 17.2781 71.7498 17.2995 71.6806 17.2941C71.6646 17.2941 71.6485 17.2888 71.6325 17.2888C71.5899 17.2513 71.5368 17.2674 71.4892 17.262C71.175 17.2193 70.8663 17.139 70.5632 17.0428C68.5833 16.4224 66.9707 14.9626 66.162 13.0481C65.9119 12.4599 65.7471 11.8449 65.6564 11.2139C65.3211 8.76472 66.2737 6.39037 68.0511 4.85562C68.9506 4.08022 69.9829 3.56685 71.1379 3.30482C71.175 3.29412 71.2121 3.29412 71.2497 3.28878C71.2762 3.28878 71.3078 3.29947 71.3293 3.26739C71.3559 3.26204 71.3824 3.26204 71.409 3.25669C71.4355 3.25669 71.4676 3.26739 71.4892 3.24064C71.5263 3.2353 71.5633 3.22995 71.6009 3.2246C71.638 3.2246 71.6806 3.24064 71.7127 3.20322C72.2659 3.123 72.8191 3.10695 73.3784 3.17113C73.4315 3.20322 73.4901 3.19252 73.5482 3.19252C73.7827 3.20322 74.0112 3.25669 74.2347 3.31016C75.7886 3.6738 77.0869 4.47059 78.1142 5.70054C78.8433 6.5722 79.3274 7.57757 79.5774 8.68982C79.7373 9.39038 79.7854 10.0963 79.7318 10.8129C79.6466 11.9038 79.3274 12.9252 78.7742 13.8717C78.7371 13.9358 78.6835 13.9893 78.6729 14.0642C78.7211 14.1123 78.7687 14.1658 78.8168 14.2139C79.1891 14.5775 79.5564 14.9412 79.9287 15.3048C79.9713 15.3476 80.0139 15.385 80.046 15.4118C80.0565 15.4599 80.0355 15.4813 80.0194 15.4973C79.4286 16.107 78.8378 16.7113 78.242 17.3209C78.226 17.3369 78.2099 17.3476 78.1994 17.3583C78.1463 17.3636 78.1303 17.3262 78.1037 17.2995C77.7098 16.9144 77.316 16.5241 76.9221 16.139C76.8955 16.1123 76.869 16.0855 76.8424 16.0588C76.8209 16.0374 76.7943 16.0374 76.7733 16.0535C76.7467 16.0749 76.7202 16.0909 76.6936 16.107C75.9059 16.6524 75.0385 17.0214 74.1019 17.2193C73.9581 17.2513 73.8093 17.2674 73.6655 17.2888C73.5963 17.2941 73.5216 17.2727 73.458 17.3155C73.4315 17.3155 73.4099 17.3209 73.3833 17.3209C73.3037 17.3209 73.229 17.3209 73.1493 17.3262C73.1012 17.3262 73.0641 17.3209 73.0321 17.353ZM72.0634 5.83955C72.0053 5.84492 71.9412 5.82351 71.8881 5.86633C71.8084 5.88237 71.7337 5.89841 71.6541 5.91446C69.2858 6.48662 67.8758 8.80217 68.3172 11.0963C68.5888 12.4866 69.5149 13.6792 70.7761 14.2727C71.1058 14.4278 71.4516 14.5401 71.8134 14.6203C71.8349 14.6524 71.8615 14.6417 71.8881 14.6364C71.9306 14.6417 71.9732 14.6417 72.0158 14.6471C72.5159 14.7273 73.016 14.7113 73.5166 14.615C74.4211 14.4385 75.1928 14.0161 75.8367 13.3529C76.8795 12.2834 77.295 10.7754 77.0023 9.34225C76.6986 7.87165 75.6558 6.63101 74.2563 6.09092C73.8198 5.91977 73.3623 5.82888 72.8993 5.79679C72.8777 5.78075 72.8512 5.77538 72.8246 5.77538C72.7184 5.77538 72.6066 5.77538 72.4999 5.77538C72.4733 5.77538 72.4468 5.78075 72.4258 5.79679C72.3992 5.79679 72.3721 5.79679 72.3455 5.80216C72.2659 5.80747 72.1807 5.78612 72.106 5.82888C72.0955 5.83956 72.0795 5.83955 72.0634 5.83955Z" fill="#FCFDFC"/>
<path d="M64.2306 9.88769C64.2467 10.3208 64.2361 10.7487 64.1775 11.1765C64.0337 12.2941 63.6558 13.3209 63.023 14.246C61.9531 15.8129 60.4899 16.8075 58.6434 17.2246C58.5051 17.2567 58.3612 17.2727 58.2229 17.2942C58.1643 17.2995 58.1007 17.2781 58.047 17.3209C57.9143 17.3369 57.7865 17.3636 57.6537 17.3583C57.3235 17.3583 56.9882 17.3583 56.6585 17.3583C56.632 17.3583 56.6049 17.353 56.5783 17.353C56.5042 17.3102 56.419 17.3315 56.3388 17.3262C56.2381 17.3315 56.1424 17.2995 56.0412 17.2888C56.0091 17.2567 55.9665 17.2621 55.9239 17.2674C55.9029 17.2621 55.8763 17.2621 55.8547 17.2567C55.8227 17.2246 55.7801 17.2353 55.743 17.23C55.3281 17.1551 54.9342 17.0267 54.5457 16.877C52.3851 16.0161 50.7727 14.1069 50.2672 11.8289C50.1128 11.1391 50.0703 10.4439 50.1022 9.738C50.1554 8.71122 50.4162 7.73799 50.9058 6.83424C51.8583 5.08557 53.2898 3.93049 55.2056 3.37969C55.4398 3.31017 55.6738 3.2567 55.9189 3.22996C55.956 3.22996 55.9986 3.24065 56.0307 3.20857C56.2591 3.16579 56.4931 3.1444 56.7221 3.13905C57.0203 3.1337 57.3129 3.12835 57.6111 3.13905C58.5792 3.18183 59.5052 3.41178 60.3677 3.85562C62.1716 4.78076 63.3792 6.21926 63.9701 8.17114C64.1034 8.60429 64.183 9.04811 64.2201 9.49736C64.2306 9.61497 64.2522 9.72727 64.2417 9.84493C64.2041 9.85561 64.2041 9.87165 64.2306 9.88769ZM56.5042 14.6524C56.5678 14.6898 56.6369 14.6738 56.7061 14.6792C57.0043 14.6898 57.3024 14.6898 57.6001 14.6792C57.6692 14.6792 57.7383 14.6898 57.797 14.6578C57.9674 14.6257 58.1433 14.5989 58.3081 14.5562C59.4577 14.2567 60.3251 13.5883 60.8888 12.5294C61.1925 11.9572 61.3518 11.3423 61.3999 10.7006C61.4586 9.95186 61.3839 9.2139 61.1233 8.50803C60.7505 7.49198 60.0961 6.72731 59.1224 6.24598C58.7977 6.08555 58.4569 5.97862 58.1057 5.90377C58.0736 5.87169 58.0315 5.88236 57.9939 5.88236C57.9038 5.87169 57.813 5.85564 57.7278 5.84491C57.7068 5.82356 57.6852 5.81819 57.6587 5.81819C57.579 5.81819 57.5044 5.81819 57.4247 5.81819C57.137 5.81819 56.8444 5.80752 56.5573 5.85028C56.4776 5.86095 56.4029 5.87169 56.3233 5.88236C56.2807 5.88236 56.2431 5.87169 56.206 5.90377C56.1424 5.91981 56.0838 5.93049 56.0196 5.94653C55.2215 6.14441 54.5403 6.54011 53.9922 7.15509C53.4548 7.76471 53.1408 8.47595 52.9971 9.27276C52.912 9.73263 52.8907 10.1979 52.9279 10.6685C52.9652 11.1712 53.0663 11.6577 53.2525 12.123C53.6942 13.2139 54.4499 13.984 55.5461 14.4118C55.8492 14.5294 56.1795 14.5989 56.5042 14.6524Z" fill="#FCFDFC"/>
<path d="M44.2855 3.4492C44.4664 3.45454 44.642 3.48663 44.8177 3.52406C44.8389 3.55615 44.8709 3.54545 44.8975 3.5401C45.1635 3.57754 45.4243 3.6524 45.6798 3.73796C46.2651 3.93048 46.8026 4.20855 47.2708 4.60962C47.9946 5.21925 48.4416 5.99998 48.6385 6.91977C48.7076 7.24062 48.7396 7.5722 48.7396 7.89842C48.7396 8.06415 48.7502 8.22995 48.7396 8.39037C48.6651 9.52939 48.1968 10.4706 47.34 11.2192C47.042 11.4813 46.7068 11.6791 46.3449 11.8396C46.2917 11.861 46.2332 11.8717 46.1853 11.9252C46.3556 12.2086 46.5259 12.4973 46.7014 12.7807C46.8718 13.0695 47.0474 13.3529 47.2176 13.6417C47.388 13.9305 47.5635 14.2139 47.7338 14.5027C47.9041 14.7915 48.0797 15.0749 48.25 15.3636C48.4203 15.6524 48.5959 15.9358 48.7662 16.2246C48.9365 16.508 49.1068 16.7915 49.2771 17.0802C49.2185 17.1123 49.176 17.1016 49.1387 17.1016C48.2234 17.1016 47.3081 17.1016 46.3928 17.1016C46.2438 17.1016 46.2651 17.123 46.1853 16.9786C45.552 15.8877 44.9187 14.7915 44.2855 13.7005C44.062 13.3155 43.8385 12.9305 43.615 12.5454C43.599 12.5187 43.583 12.492 43.5671 12.4652C43.5511 12.4332 43.5245 12.4225 43.4873 12.4225C43.4607 12.4225 43.4341 12.4225 43.4075 12.4225C42.7689 12.4225 42.1249 12.4225 41.4864 12.4225C41.3161 12.4225 41.3267 12.4117 41.3267 12.5882C41.3267 14.0214 41.3267 15.4599 41.3267 16.893C41.3267 17.1337 41.3587 17.1016 41.1139 17.1016C40.3316 17.1016 39.5493 17.1016 38.7618 17.1016C38.6074 17.1016 38.6181 17.1123 38.6181 16.9519C38.6181 16.4118 38.6181 15.8663 38.6181 15.3262C38.6181 11.4225 38.6181 7.51334 38.6181 3.60962C38.6181 3.36364 38.5915 3.39572 38.8256 3.39572C40.3103 3.39572 41.8003 3.39572 43.285 3.39572C43.5405 3.39572 43.7906 3.40107 44.046 3.42781C44.1312 3.45989 44.211 3.4492 44.2855 3.4492ZM44.2004 9.96791C44.3068 9.94119 44.4185 9.92515 44.525 9.89306C45.1582 9.70586 45.6052 9.31016 45.8287 8.67377C45.9565 8.31016 45.9778 7.93581 45.9032 7.55616C45.7649 6.87701 45.3871 6.39573 44.7431 6.12832C44.6048 6.06951 44.4611 6.03743 44.3174 5.99998C44.2642 5.95721 44.2057 5.97326 44.1471 5.97326C43.9715 5.95721 43.8012 5.94654 43.6256 5.94654C42.9232 5.94654 42.2208 5.94654 41.513 5.94654C41.3161 5.94654 41.3374 5.92513 41.3374 6.12301C41.3374 7.35292 41.3374 8.58825 41.3374 9.81816C41.3374 9.85561 41.3374 9.89306 41.3374 9.93046C41.3374 9.96791 41.3534 9.98932 41.3906 9.98932C41.4172 9.98932 41.4438 9.98932 41.4704 9.98932C42.3165 9.98932 43.1626 9.98932 44.0088 9.98395C44.0726 9.98932 44.1418 10.0054 44.2004 9.96791Z" fill="#FCFDFC"/>
<path d="M109.687 14.4813C109.65 14.5134 109.639 14.5669 109.623 14.6096C109.325 15.385 109.027 16.1658 108.724 16.9412C108.719 16.9626 108.708 16.9786 108.703 17C108.66 17.1016 108.66 17.1016 108.554 17.1016C108.085 17.1016 107.622 17.1016 107.154 17.1016C106.718 17.1016 106.287 17.1016 105.85 17.1016C105.818 17.1016 105.786 17.1016 105.755 17.0962C105.744 17.0374 105.776 16.9947 105.797 16.9465C106.09 16.2246 106.388 15.5027 106.686 14.7807C107.958 11.6738 109.229 8.56685 110.501 5.45455C110.762 4.81818 111.023 4.17647 111.283 3.54011C111.289 3.52941 111.294 3.51871 111.294 3.50802C111.315 3.41711 111.368 3.38502 111.464 3.38502C112.231 3.39037 112.997 3.38502 113.769 3.38502C113.774 3.38502 113.779 3.38502 113.785 3.38502C113.87 3.36898 113.907 3.41711 113.934 3.48663C114.019 3.71123 114.115 3.93048 114.205 4.14973C115.296 6.81284 116.387 9.4706 117.472 12.1337C118.122 13.7219 118.771 15.3048 119.42 16.893C119.441 16.9518 119.463 17.0107 119.484 17.0641C119.457 17.1016 119.42 17.0909 119.394 17.0909C118.494 17.0909 117.595 17.0909 116.696 17.0909C116.68 17.0909 116.664 17.0909 116.648 17.0909C116.599 17.0962 116.568 17.0749 116.552 17.0267C116.504 16.8984 116.456 16.7701 116.403 16.6417C116.137 15.9572 115.876 15.2781 115.61 14.5936C115.594 14.5508 115.589 14.4973 115.546 14.4706C115.488 14.4278 115.423 14.4492 115.36 14.4492C113.524 14.4492 111.693 14.4492 109.857 14.4492C109.815 14.4492 109.772 14.4492 109.729 14.4492C109.719 14.4599 109.703 14.4653 109.687 14.4813ZM110.639 12.0588C110.81 12.0749 114.503 12.0749 114.62 12.0535C114.626 12 114.594 11.9519 114.578 11.9038C114.306 11.2086 114.035 10.508 113.769 9.81285C113.519 9.16579 113.258 8.52409 113.034 7.86097C112.917 7.51335 112.8 7.16578 112.683 6.82352C112.672 6.78612 112.667 6.74331 112.619 6.71659C112.593 6.78076 112.571 6.83956 112.55 6.89842C112.396 7.35292 112.252 7.81816 112.082 8.2674C111.827 8.95723 111.555 9.6417 111.289 10.3315C111.086 10.8556 110.879 11.3797 110.682 11.9038C110.655 11.9572 110.618 12 110.639 12.0588Z" fill="#FCFDFC"/>
<path d="M90.2048 3.41712C90.2369 3.39039 90.2739 3.39573 90.311 3.39573C91.1413 3.39573 91.9717 3.39573 92.8015 3.39573C92.828 3.39573 92.8551 3.39573 92.8817 3.40108C92.8922 3.40643 92.9027 3.42247 92.9082 3.43316C92.9132 3.44921 92.9132 3.46525 92.9132 3.48129C92.9132 3.52942 92.9132 3.57755 92.9132 3.62568C92.9132 6.08025 92.9132 8.53476 92.9132 10.9893C92.9132 11.3529 92.9082 11.7112 92.8761 12.0695C92.7965 12.8556 92.6261 13.6204 92.2958 14.3423C91.6945 15.6417 90.7154 16.5294 89.3744 17.0053C89.1034 17.1016 88.8318 17.1818 88.5496 17.2299C88.5126 17.2299 88.47 17.2193 88.4379 17.2513C88.1613 17.3048 87.8792 17.3423 87.597 17.353C87.2352 17.353 86.8735 17.353 86.5117 17.353C86.4851 17.353 86.4586 17.3476 86.432 17.3476C86.4104 17.3316 86.3894 17.3262 86.3629 17.3262C86.2882 17.3262 86.2085 17.3209 86.1338 17.3209C85.7505 17.2834 85.3726 17.2086 85.0003 17.1016C84.3138 16.8984 83.6804 16.5829 83.1272 16.123C82.5309 15.631 82.0895 15.0214 81.7752 14.3209C81.5412 13.8021 81.3869 13.2567 81.2912 12.6952C81.206 12.1872 81.1689 11.6738 81.1689 11.1551C81.1689 8.6257 81.1689 6.09629 81.1689 3.56685C81.1689 3.52942 81.1689 3.49199 81.1689 3.45456C81.1689 3.42782 81.185 3.40643 81.2165 3.40108C81.2486 3.40108 81.2807 3.40108 81.3122 3.40108C82.116 3.40108 82.9198 3.40108 83.723 3.40108C83.7496 3.40108 83.7761 3.40108 83.8027 3.40108C83.8564 3.40108 83.8724 3.41712 83.8724 3.46525C83.8724 3.51338 83.8724 3.5615 83.8724 3.60964C83.8724 6.05884 83.8724 8.50804 83.8724 10.9572C83.8724 11.3209 83.8829 11.6792 83.9305 12.0375C83.9841 12.4385 84.0743 12.8289 84.2342 13.2032C84.5744 14 85.1652 14.5027 86.0005 14.7113C86.4475 14.8235 86.9 14.8503 87.3575 14.8235C87.6717 14.8021 87.9749 14.754 88.2786 14.6578C88.97 14.4332 89.4701 13.9893 89.7899 13.3369C89.9652 12.9733 90.0665 12.5936 90.1301 12.1979C90.1943 11.8021 90.2048 11.4064 90.2048 11.0054C90.2048 8.79144 90.2048 6.5722 90.2048 4.3583C90.2048 4.09626 90.2048 3.83958 90.2048 3.57755C90.1943 3.51873 90.1832 3.46525 90.2048 3.41712Z" fill="#FCFDFC"/>
<path d="M32.7912 3.44918C33.0732 3.46523 33.3446 3.5187 33.6214 3.58287C34.0737 3.68448 34.5047 3.83421 34.9145 4.04811C36.064 4.65239 36.777 5.59358 37.0484 6.86631C37.1549 7.3743 37.1868 7.88766 37.1442 8.40639C37.1069 8.89303 37.0165 9.36364 36.8356 9.81819C36.5003 10.6791 35.9256 11.3422 35.1327 11.8128C34.6378 12.1069 34.1003 12.2995 33.5362 12.4225C33.4724 12.4331 33.4138 12.4439 33.35 12.4545C33.3074 12.4545 33.2648 12.4439 33.2329 12.4759C33.0573 12.508 32.8817 12.5347 32.7061 12.5454C32.589 12.5454 32.4719 12.5508 32.3496 12.5508C32.3123 12.5508 32.275 12.5454 32.2484 12.5722C32.1473 12.5775 32.0462 12.5829 31.9451 12.5829C31.2693 12.5829 30.5881 12.5829 29.9123 12.5829C29.7154 12.5829 29.7367 12.5615 29.7367 12.7647C29.7367 14.139 29.7367 15.5187 29.7367 16.893C29.7367 16.9411 29.7367 16.9893 29.7367 17.0374C29.7367 17.1016 29.726 17.1069 29.6622 17.1123C29.6249 17.1123 29.5877 17.1123 29.5504 17.1123C28.7735 17.1123 27.9965 17.1123 27.2143 17.1123C27.1824 17.1123 27.1504 17.1123 27.1185 17.1123C27.0386 17.1123 27.0333 17.1069 27.0333 17.016C27.0333 16.984 27.0333 16.9519 27.0333 16.9198C27.0333 12.4759 27.0333 8.03205 27.0333 3.59357C27.0333 3.37966 27.012 3.4064 27.2196 3.4064C28.7468 3.4064 30.2795 3.4064 31.8068 3.4064C32.0569 3.4064 32.3017 3.41175 32.5517 3.43849C32.6316 3.45988 32.7114 3.44918 32.7912 3.44918ZM32.0569 5.94115C32.0356 5.94115 32.0143 5.94652 31.993 5.94652C31.3065 5.94652 30.6201 5.94652 29.9335 5.94652C29.8857 5.94652 29.8378 5.94652 29.7899 5.94652C29.758 5.94652 29.742 5.96792 29.742 6.00001C29.742 6.02673 29.742 6.05345 29.742 6.08022C29.742 7.35826 29.742 8.63635 29.742 9.91445C29.742 9.95721 29.7367 9.99997 29.758 10.0374C29.7899 10.0641 29.8271 10.0535 29.8644 10.0535C30.0666 10.0535 30.2688 10.0535 30.4657 10.0535C30.9606 10.0535 31.4609 10.0535 31.9557 10.0535C32.0143 10.0535 32.0728 10.0695 32.126 10.0374C32.1846 10.0321 32.2484 10.0267 32.307 10.0267C32.3549 10.0267 32.4028 10.0428 32.4453 10.0053C32.4613 9.99997 32.4772 9.99997 32.4932 9.99466C32.8018 9.94117 33.0999 9.85559 33.3766 9.70589C33.8555 9.44385 34.1695 9.04809 34.2972 8.50801C34.3558 8.25664 34.3664 8.00533 34.3398 7.74865C34.2866 7.18716 34.0471 6.73797 33.5841 6.41175C33.4405 6.31013 33.2861 6.22992 33.1211 6.16575C32.9296 6.0909 32.7274 6.04277 32.5251 6.00001C32.4719 5.95719 32.4081 5.97323 32.3496 5.97323C32.3229 5.97323 32.2963 5.96792 32.275 5.96792C32.2112 5.92511 32.1314 5.94115 32.0569 5.94115Z" fill="#FCFDFC"/>
<path d="M101.843 11.7433C101.837 11.8075 101.832 11.8717 101.832 11.9358C101.832 13.5936 101.832 15.2513 101.832 16.9091C101.832 17.1284 101.859 17.1016 101.641 17.1016C100.864 17.1016 100.087 17.1016 99.3048 17.1016C99.2622 17.1016 99.2196 17.1016 99.177 17.1016C99.1449 17.1016 99.1289 17.0855 99.1289 17.0535C99.1289 17.0107 99.1289 16.9679 99.1289 16.9251C99.1289 12.4759 99.1289 8.03206 99.1289 3.58288C99.1289 3.55615 99.1289 3.52941 99.1289 3.50267C99.1289 3.40107 99.1344 3.39572 99.2406 3.39572C99.2777 3.39572 99.3153 3.39572 99.3524 3.39572C102.758 3.39572 106.169 3.39572 109.575 3.39572C109.602 3.39572 109.628 3.39572 109.655 3.39572C109.799 3.39572 109.799 3.39037 109.74 3.53476C109.432 4.30481 109.123 5.06951 108.814 5.83954C108.809 5.86095 108.798 5.877 108.793 5.8984C108.782 5.92512 108.761 5.94117 108.735 5.94117C108.686 5.94117 108.638 5.94117 108.591 5.94117C106.409 5.94117 104.232 5.94117 102.05 5.94117C101.806 5.94117 101.837 5.90908 101.837 6.14972C101.837 7.13905 101.837 8.12832 101.837 9.11228C101.837 9.30479 101.816 9.28344 102.008 9.28344C103.732 9.28344 105.456 9.28344 107.186 9.28344C107.239 9.28344 107.292 9.28344 107.345 9.28875C107.372 9.28875 107.378 9.31016 107.372 9.33157C107.361 9.36365 107.35 9.39037 107.34 9.42246C107.037 10.1604 106.739 10.8984 106.435 11.631C106.425 11.6577 106.419 11.6952 106.387 11.7112C106.34 11.7112 106.292 11.7059 106.244 11.7059C104.833 11.7059 103.423 11.7059 102.013 11.7059C101.976 11.7059 101.939 11.7059 101.901 11.7059C101.875 11.7166 101.853 11.7273 101.843 11.7433Z" fill="#FCFDFC"/>
<path d="M97.3252 10.262C97.3252 12.4759 97.3252 14.6952 97.3252 16.9091C97.3252 17.1283 97.3517 17.1016 97.1282 17.1016C96.3405 17.1016 95.5533 17.1016 94.7656 17.1016C94.6112 17.1016 94.6217 17.1123 94.6217 16.9519C94.6217 16.9251 94.6217 16.8984 94.6217 16.8717C94.6217 12.4492 94.6217 8.03205 94.6217 3.60961C94.6217 3.55078 94.6217 3.49196 94.6273 3.43314C94.6273 3.41175 94.6433 3.3957 94.6699 3.39036C94.7014 3.39036 94.7335 3.38501 94.7656 3.38501C95.5743 3.38501 96.3831 3.38501 97.1919 3.38501C97.2134 3.38501 97.2345 3.38501 97.256 3.38501C97.3197 3.39036 97.3252 3.3957 97.3307 3.45987C97.3307 3.50801 97.3307 3.55613 97.3307 3.60426C97.3252 5.83422 97.3252 8.04809 97.3252 10.262Z" fill="#FCFDFC"/>
<path d="M28.2889 21.3636C28.571 20.877 28.853 20.401 29.1297 19.9251C29.1457 19.9037 29.1563 19.8824 29.167 19.8556C29.1936 19.7914 29.2415 19.7754 29.3054 19.7754C29.5874 19.7807 29.5448 19.738 29.5448 20.0053C29.5448 20.7754 29.5448 21.5454 29.5448 22.3155C29.5448 22.3583 29.5448 22.401 29.5448 22.4439C29.5448 22.5027 29.5289 22.5187 29.465 22.5133C29.1404 22.508 29.1883 22.5668 29.1883 22.2567C29.1883 21.7005 29.1936 21.139 29.1936 20.5829C29.1936 20.5455 29.2042 20.508 29.1829 20.4759C29.1457 20.4706 29.1404 20.5027 29.1297 20.5241C28.9009 20.9251 28.6721 21.3262 28.4433 21.7273C28.4273 21.754 28.4114 21.7807 28.3954 21.8075C28.3794 21.8395 28.3528 21.8503 28.3155 21.8503C28.2836 21.8503 28.2517 21.8503 28.2198 21.8503C28.1878 21.8503 28.1719 21.8342 28.1559 21.8128C28.1346 21.7807 28.1187 21.7487 28.1027 21.7166C27.8952 21.3529 27.6876 20.9893 27.4801 20.6257C27.4641 20.5936 27.4428 20.5615 27.4215 20.5294C27.4109 20.5187 27.4002 20.5027 27.3843 20.5134C27.3736 20.5241 27.3683 20.5401 27.363 20.5508C27.3577 20.5722 27.363 20.5936 27.363 20.6149C27.3789 21.1818 27.3736 21.754 27.3736 22.3208C27.3736 22.5401 27.3949 22.5133 27.1767 22.5133C27.0224 22.5133 27.0171 22.5241 27.0171 22.3583C27.0171 21.5454 27.0171 20.7326 27.0171 19.9198C27.0171 19.8877 27.0171 19.8556 27.0224 19.8235C27.0224 19.7914 27.0437 19.7754 27.0756 19.7754C27.0863 19.7754 27.0969 19.7754 27.1075 19.7754C27.1874 19.7807 27.2726 19.754 27.3417 19.7914C27.4055 19.8289 27.4268 19.9091 27.4641 19.9732C27.7248 20.4224 27.9962 20.8663 28.2464 21.3208C28.2623 21.3369 28.273 21.3476 28.2889 21.3636Z" fill="#FCFDFC"/>
<path d="M51.3154 21.1444C51.3154 20.754 51.3154 20.3689 51.3154 19.9786C51.3154 19.9412 51.3154 19.9037 51.3154 19.8663C51.3207 19.7861 51.3261 19.7754 51.4112 19.7754C51.805 19.7754 52.1935 19.7701 52.5873 19.7754C53.1673 19.7861 53.6782 20.2032 53.8325 20.7807C54.04 21.5508 53.593 22.2781 52.8906 22.4652C52.7842 22.492 52.6724 22.5133 52.5606 22.5133C52.1828 22.5133 51.8103 22.5133 51.4325 22.5133C51.4112 22.5133 51.3899 22.5133 51.3686 22.5133C51.3367 22.508 51.3207 22.492 51.3207 22.4599C51.3207 22.4171 51.3207 22.3743 51.3207 22.3316C51.3154 21.9412 51.3154 21.5401 51.3154 21.1444ZM51.6826 21.139C51.6826 21.4278 51.6826 21.7112 51.6826 22C51.6826 22.0428 51.6826 22.0856 51.6879 22.1283C51.6879 22.1497 51.7039 22.1658 51.7252 22.1711C51.7411 22.1764 51.7571 22.1764 51.773 22.1764C52.0444 22.1764 52.3105 22.1818 52.5819 22.1764C52.7575 22.1711 52.9225 22.1176 53.0715 22.016C53.4334 21.7754 53.593 21.3636 53.4813 20.8824C53.3749 20.4331 52.9597 20.123 52.5181 20.1283C52.2786 20.1283 52.0444 20.1283 51.805 20.1283C51.7784 20.1283 51.7518 20.1283 51.7252 20.1337C51.6986 20.1337 51.6879 20.1497 51.6879 20.1764C51.6879 20.2139 51.6826 20.2513 51.6826 20.2887C51.6826 20.5668 51.6826 20.8556 51.6826 21.139Z" fill="#FCFDFC"/>
<path d="M77.7261 21.8022C77.7261 21.984 77.7261 22.1658 77.7261 22.3423C77.7261 22.3797 77.7261 22.4172 77.7261 22.4546C77.7261 22.5027 77.71 22.5134 77.6569 22.5187C77.6354 22.5187 77.6143 22.5187 77.5928 22.5187C77.3909 22.5134 77.4014 22.5508 77.4014 22.337C77.4014 22.2941 77.4174 22.2353 77.3853 22.2139C77.3377 22.1872 77.3057 22.246 77.2686 22.2728C76.7414 22.7112 75.9006 22.6578 75.406 22.0963C74.6769 21.2781 75.0813 20.0374 76.087 19.7647C76.6512 19.6097 77.2526 19.8289 77.5928 20.2995C77.6143 20.3316 77.6354 20.3583 77.6569 20.3904C77.6835 20.4386 77.6835 20.4707 77.6193 20.4813C77.5452 20.4974 77.476 20.5188 77.4069 20.5348C77.3643 20.5455 77.3267 20.5401 77.2951 20.4974C77.2736 20.4653 77.247 20.4385 77.226 20.4118C76.8747 20.0214 76.2679 19.9519 75.8369 20.2514C75.5764 20.4385 75.427 20.6899 75.406 21.0161C75.39 21.2353 75.406 21.4546 75.5177 21.6524C75.7036 21.9947 75.9913 22.1872 76.3851 22.2086C76.4969 22.2139 76.6086 22.2139 76.7149 22.1926C76.9599 22.1391 77.1618 22.0107 77.3217 21.8129C77.3803 21.738 77.4119 21.6632 77.4119 21.5669C77.4069 21.369 77.4279 21.3851 77.231 21.3851C77.0451 21.3851 76.8587 21.3851 76.6778 21.3851C76.5981 21.3851 76.5926 21.3797 76.5926 21.3049C76.5926 21.0482 76.5555 21.0803 76.8056 21.0803C77.0556 21.0803 77.3001 21.0803 77.5502 21.0803C77.5928 21.0803 77.6354 21.0803 77.678 21.0803C77.7045 21.0803 77.7261 21.1016 77.7261 21.1337C77.7261 21.1712 77.7261 21.2086 77.7261 21.246C77.7261 21.4332 77.7261 21.615 77.7261 21.8022Z" fill="#FCFDFC"/>
<path d="M114.998 20.4278C114.988 20.4706 114.993 20.5187 114.993 20.5615C114.993 21.1658 114.998 21.7754 114.998 22.3797C114.998 22.3957 114.998 22.4118 114.998 22.4278C114.993 22.508 114.988 22.5133 114.902 22.5187C114.844 22.5187 114.785 22.5187 114.726 22.5187C114.647 22.5187 114.641 22.508 114.636 22.4224C114.636 22.3316 114.636 22.2406 114.636 22.1497C114.636 21.4064 114.636 20.6631 114.636 19.9197C114.636 19.7807 114.631 19.7754 114.775 19.7807C115.014 19.7861 114.945 19.7486 115.083 19.9358C115.525 20.5347 115.967 21.1337 116.408 21.7272C116.43 21.7593 116.456 21.7861 116.477 21.8128C116.483 21.8181 116.499 21.8181 116.504 21.8181C116.509 21.8128 116.52 21.8021 116.52 21.7968C116.525 21.77 116.525 21.7433 116.525 21.7166C116.52 21.1443 116.52 20.5668 116.515 19.9947C116.515 19.7486 116.488 19.7807 116.722 19.7807C116.887 19.7807 116.882 19.7754 116.882 19.9358C116.882 20.7487 116.882 21.5615 116.882 22.3743C116.882 22.4064 116.882 22.4385 116.882 22.4706C116.882 22.5027 116.861 22.5187 116.834 22.5187C116.754 22.5187 116.674 22.5187 116.595 22.5187C116.568 22.5187 116.546 22.5027 116.53 22.4812C116.509 22.4492 116.488 22.4224 116.461 22.3904C115.993 21.754 115.514 21.123 115.062 20.4759C115.046 20.4599 115.035 20.4278 114.998 20.4278Z" fill="#FCFDFC"/>
<path d="M50.2457 21.861C50.2564 21.8075 50.2511 21.7594 50.2511 21.7112C50.2511 21.1283 50.2457 20.5401 50.2457 19.9572C50.2457 19.7593 50.2298 19.7754 50.4267 19.7754C50.6236 19.7754 50.6076 19.754 50.6076 19.9519C50.6076 20.7487 50.6076 21.5454 50.6076 22.3422C50.6076 22.5294 50.6236 22.5134 50.4373 22.5134C50.2564 22.5134 50.2936 22.5348 50.1925 22.3904C49.7349 21.77 49.2825 21.1497 48.8302 20.5294C48.8142 20.508 48.7983 20.4866 48.7823 20.4652C48.7717 20.4545 48.761 20.4439 48.745 20.4545C48.7397 20.4599 48.7291 20.4706 48.7291 20.4813C48.7291 20.5133 48.7291 20.5454 48.7291 20.5775C48.7291 21.1604 48.7344 21.7487 48.7344 22.3316C48.7344 22.369 48.7344 22.4064 48.7344 22.4439C48.7291 22.4973 48.7184 22.5134 48.6706 22.5134C48.5908 22.5134 48.5109 22.5134 48.4311 22.5134C48.3938 22.5134 48.3726 22.492 48.3726 22.4545C48.3726 22.4278 48.3726 22.4011 48.3726 22.3743C48.3726 21.5562 48.3726 20.7379 48.3726 19.9198C48.3726 19.7701 48.3672 19.7701 48.5216 19.7754C48.5269 19.7754 48.5322 19.7754 48.5375 19.7754C48.7291 19.7808 48.6865 19.7487 48.8089 19.9145C49.2613 20.5294 49.7136 21.1444 50.1659 21.7594C50.1818 21.7914 50.1978 21.8342 50.2457 21.861Z" fill="#FCFDFC"/>
<path d="M40.4325 21.8502C40.4698 21.7968 40.4592 21.754 40.4592 21.7112C40.4592 21.123 40.4538 20.5347 40.4538 19.9412C40.4538 19.9037 40.4538 19.8663 40.4538 19.8289C40.4538 19.7968 40.4751 19.7807 40.5017 19.7807C40.5921 19.7807 40.6826 19.7807 40.7731 19.7807C40.7944 19.7807 40.8103 19.7968 40.8157 19.8182C40.821 19.8449 40.821 19.8716 40.821 19.8984C40.821 20.7273 40.821 21.5562 40.821 22.385C40.821 22.4118 40.821 22.4385 40.821 22.4652C40.821 22.4973 40.7997 22.5133 40.7731 22.5133C40.6933 22.5133 40.6134 22.5133 40.5336 22.5133C40.507 22.5133 40.4858 22.4973 40.4645 22.476C40.4485 22.4599 40.4379 22.4439 40.4272 22.4278C39.9908 21.8342 39.5545 21.2406 39.1181 20.647C39.0649 20.5722 39.017 20.4866 38.9478 20.4171C38.9159 20.4599 38.9319 20.4973 38.9319 20.5294C38.9319 21.1176 38.9319 21.7059 38.9372 22.2995C38.9372 22.3369 38.9372 22.3743 38.9372 22.4118C38.9372 22.5133 38.9318 22.5187 38.8254 22.5187C38.7616 22.5187 38.6977 22.5187 38.6338 22.5187C38.5966 22.5187 38.5753 22.492 38.5753 22.4599C38.5753 22.4278 38.5753 22.3957 38.5753 22.3637C38.5753 21.5562 38.5753 20.7487 38.5753 19.9412C38.5753 19.7647 38.5647 19.7807 38.7403 19.7807C38.7563 19.7807 38.7722 19.7807 38.7882 19.7807C38.8786 19.7647 38.9319 19.8128 38.9851 19.8824C39.4374 20.5027 39.8951 21.123 40.3527 21.7379C40.3687 21.77 40.3953 21.8021 40.4325 21.8502Z" fill="#FCFDFC"/>
<path d="M68.1582 21.1444C68.1582 20.7593 68.1582 20.3797 68.1582 19.9947C68.1582 19.9626 68.1582 19.9305 68.1582 19.8984C68.1582 19.7754 68.1582 19.7754 68.2805 19.7754C68.6528 19.7754 69.0201 19.7701 69.3924 19.7754C70.111 19.7861 70.6962 20.3797 70.7123 21.1016C70.7228 21.6203 70.5154 22.0267 70.0789 22.3101C69.877 22.4439 69.6479 22.508 69.4034 22.5133C69.0256 22.5187 68.6528 22.5133 68.2749 22.5133C68.2594 22.5133 68.2434 22.5133 68.2274 22.5133C68.1792 22.508 68.1582 22.4973 68.1582 22.4492C68.1582 22.4064 68.1582 22.3636 68.1582 22.3208C68.1582 21.9305 68.1582 21.5401 68.1582 21.1444ZM68.52 21.1497C68.52 21.4652 68.52 21.7754 68.52 22.0909C68.52 22.1604 68.5305 22.1711 68.6052 22.1711C68.8762 22.1711 69.1423 22.1764 69.4139 22.1711C69.5788 22.1711 69.7387 22.1176 69.877 22.0321C70.2548 21.8021 70.4412 21.3636 70.3079 20.8503C70.1906 20.401 69.7813 20.123 69.3769 20.123C69.1268 20.123 68.8818 20.123 68.6317 20.123C68.6157 20.123 68.5996 20.123 68.5836 20.123C68.5465 20.123 68.525 20.139 68.525 20.1764C68.525 20.2139 68.525 20.2513 68.525 20.2887C68.52 20.5775 68.52 20.8663 68.52 21.1497Z" fill="#FCFDFC"/>
<path d="M43.6894 22.1979C43.6362 22.1979 43.6256 22.2193 43.6043 22.2406C42.9817 22.7968 41.9812 22.631 41.5289 21.8877C41.0127 21.0321 41.5023 19.9145 42.4974 19.7487C43.0721 19.6524 43.5351 19.861 43.8863 20.3208C43.9076 20.3476 43.9289 20.385 43.9449 20.4171C43.9661 20.4599 43.9608 20.4759 43.9236 20.4866C43.8917 20.4973 43.8651 20.508 43.8331 20.5134C43.7639 20.5241 43.7001 20.5668 43.6309 20.5508C43.5671 20.5347 43.5458 20.4652 43.5032 20.4171C43.0615 19.9465 42.2899 19.9733 41.8961 20.4759C41.5715 20.8877 41.5875 21.6791 42.1409 22.0428C42.3005 22.1497 42.4708 22.2085 42.6624 22.2139C42.8061 22.2193 42.9497 22.2193 43.0881 22.1765C43.3063 22.107 43.4872 21.9839 43.6256 21.8022C43.6735 21.7433 43.6947 21.6791 43.6947 21.5989C43.6894 21.3636 43.7213 21.3904 43.4925 21.3904C43.3382 21.3904 43.1839 21.3904 43.0349 21.3904C42.9977 21.3904 42.9604 21.3904 42.9231 21.385C42.9018 21.385 42.8859 21.369 42.8805 21.3422C42.8805 21.3316 42.8752 21.3208 42.8752 21.3102C42.8752 21.0535 42.8433 21.0856 43.0881 21.0856C43.3329 21.0856 43.5724 21.0856 43.8171 21.0856C43.8597 21.0856 43.9023 21.0856 43.9449 21.0856C43.9821 21.0856 44.0034 21.1016 44.0087 21.139C44.0087 21.1551 44.0087 21.1711 44.0087 21.1872C44.0087 21.5936 44.0087 22.0053 44.0087 22.4118C44.0087 22.4278 44.0087 22.4439 44.0087 22.4599C44.0087 22.4973 43.9927 22.5187 43.9502 22.5187C43.881 22.5187 43.8118 22.5187 43.7426 22.5187C43.7054 22.5187 43.6894 22.492 43.6894 22.4545C43.6894 22.3743 43.6894 22.2887 43.6894 22.1979Z" fill="#FCFDFC"/>
<path d="M84.2448 21.1444C84.2609 21.893 83.6275 22.5722 82.8187 22.5668C82.068 22.5615 81.4086 21.9412 81.4136 21.139C81.4136 20.3743 82.0365 19.7112 82.8663 19.7219C83.6861 19.7272 84.2769 20.4118 84.2448 21.1444ZM81.7914 21.1283C81.7914 21.2193 81.7914 21.3101 81.813 21.401C81.9248 21.9037 82.3928 22.3101 83.0206 22.1925C83.6756 22.0695 84.0479 21.3689 83.8028 20.7433C83.5688 20.1604 82.8718 19.8984 82.3236 20.1978C81.9563 20.4011 81.7865 20.7166 81.7914 21.1283Z" fill="#FCFDFC"/>
<path d="M74.1711 21.877C74.1711 21.7861 74.1711 21.7326 74.1711 21.6738C74.1711 21.0909 74.1655 20.508 74.1655 19.9198C74.1655 19.7701 74.1606 19.7754 74.2989 19.7754C74.5539 19.7807 74.5224 19.738 74.5224 19.9893C74.5224 20.7647 74.5224 21.5401 74.5224 22.3155C74.5224 22.3583 74.5224 22.4011 74.5224 22.4439C74.5224 22.4974 74.5063 22.5134 74.4582 22.5134C74.4532 22.5134 74.4477 22.5134 74.4421 22.5134C74.2081 22.5241 74.2026 22.5241 74.0643 22.3369C73.6229 21.7326 73.1704 21.1391 72.7394 20.5294C72.7184 20.4974 72.6968 20.4599 72.6598 20.4332C72.6221 20.4706 72.6382 20.508 72.6382 20.5455C72.6382 21.1444 72.6382 21.7433 72.6437 22.3476C72.6437 22.5348 72.6542 22.5187 72.4733 22.5187C72.2714 22.5187 72.2869 22.5401 72.2869 22.3316C72.2869 21.5401 72.2869 20.7487 72.2869 19.9572C72.2869 19.7593 72.2714 19.7807 72.4678 19.7807C72.6277 19.7807 72.6011 19.7593 72.7024 19.8984C72.9789 20.2728 73.2555 20.647 73.5321 21.0214C73.7291 21.2888 73.921 21.5508 74.1124 21.8182C74.123 21.8289 74.139 21.8396 74.1711 21.877Z" fill="#FCFDFC"/>
<path d="M112.731 22.5668C111.954 22.5775 111.321 21.9144 111.321 21.1444C111.321 20.3904 111.938 19.7112 112.763 19.7166C113.545 19.7219 114.157 20.3476 114.152 21.1337C114.152 21.9626 113.481 22.5829 112.731 22.5668ZM112.731 22.2139C113.013 22.2246 113.258 22.1284 113.466 21.9358C113.896 21.5348 113.88 20.7968 113.487 20.4011C113.258 20.1711 112.976 20.0588 112.656 20.0855C112.146 20.1283 111.757 20.5187 111.704 21.0321C111.619 21.7861 112.204 22.2353 112.731 22.2139Z" fill="#FCFDFC"/>
<path d="M87.5444 21.1337C87.5444 20.738 87.5444 20.3476 87.5444 19.9519C87.5444 19.9091 87.5444 19.8663 87.5444 19.8235C87.5444 19.7914 87.5654 19.7754 87.5925 19.7754C87.9222 19.7754 88.2469 19.7594 88.5766 19.7861C88.726 19.7968 88.8693 19.8396 88.997 19.9198C89.2261 20.0535 89.3588 20.2514 89.3909 20.5187C89.407 20.6471 89.407 20.7754 89.3699 20.8984C89.3113 21.107 89.1835 21.2674 88.9921 21.369C88.96 21.385 88.9279 21.4011 88.8908 21.4171C88.8693 21.4278 88.8643 21.4492 88.8748 21.4706C88.8908 21.5027 88.9119 21.5348 88.9334 21.5669C89.0983 21.8342 89.2582 22.1016 89.423 22.369C89.444 22.4011 89.4601 22.4331 89.4761 22.4652C89.4816 22.4813 89.4761 22.5027 89.4545 22.5027C89.3483 22.5081 89.2421 22.5081 89.1353 22.5081C89.1143 22.5081 89.0983 22.492 89.0822 22.476C89.0612 22.4439 89.0452 22.4118 89.0236 22.3797C88.8693 22.123 88.7099 21.8663 88.5556 21.5989C88.5075 21.5187 88.4544 21.492 88.3636 21.4973C88.2253 21.5027 88.087 21.4973 87.9487 21.5027C87.8956 21.5027 87.8851 21.5187 87.8851 21.5722C87.8851 21.7273 87.8851 21.8823 87.8851 22.0321C87.8851 22.1658 87.8851 22.2995 87.8851 22.4332C87.8851 22.4973 87.8741 22.5134 87.816 22.5134C87.7358 22.5134 87.6561 22.5134 87.5765 22.5134C87.5499 22.5134 87.5388 22.4973 87.5338 22.4706C87.5283 22.4278 87.5283 22.385 87.5283 22.3423C87.5444 21.9465 87.5444 21.5401 87.5444 21.1337ZM87.9006 20.6417C87.9006 20.7914 87.9006 20.9412 87.9006 21.0856C87.9006 21.1712 87.9061 21.1818 87.9858 21.1818C88.1667 21.1818 88.3426 21.1872 88.5235 21.1872C88.5661 21.1872 88.6087 21.1818 88.6458 21.1712C88.9013 21.0963 89.0662 20.8449 89.0291 20.5829C88.997 20.3155 88.7791 20.1177 88.513 20.1123C88.3321 20.107 88.1562 20.1177 87.9753 20.123C87.9061 20.123 87.8956 20.1391 87.8956 20.2139C87.8956 20.3583 87.9006 20.4973 87.9006 20.6417Z" fill="#FCFDFC"/>
<path d="M55.4074 21.1391C55.4074 20.7487 55.4074 20.3637 55.4074 19.9733C55.4074 19.9305 55.4074 19.8878 55.4074 19.8449C55.4074 19.7915 55.4234 19.7755 55.471 19.7755C55.5031 19.7755 55.5352 19.7755 55.5673 19.7755C56.0723 19.7755 56.5835 19.7755 57.0891 19.7755C57.1156 19.7755 57.1422 19.7755 57.1687 19.7755C57.2219 19.7808 57.2379 19.7915 57.2379 19.8396C57.2379 19.9145 57.2379 19.9893 57.2379 20.0642C57.2379 20.1016 57.2113 20.1177 57.1743 20.123C57.1317 20.123 57.0891 20.123 57.0465 20.123C56.6847 20.123 56.3279 20.123 55.9661 20.123C55.9235 20.123 55.8809 20.123 55.8383 20.123C55.7852 20.123 55.7692 20.1391 55.7692 20.1872C55.7692 20.4064 55.7692 20.6203 55.7692 20.8396C55.7692 20.877 55.7907 20.8984 55.8278 20.8984C55.8809 20.8984 55.934 20.8984 55.9877 20.8984C56.2538 20.8984 56.5143 20.8984 56.7804 20.8984C56.8175 20.8984 56.8551 20.8984 56.8922 20.8984C56.9187 20.8984 56.9453 20.9145 56.9453 20.9466C56.9453 21.0268 56.9453 21.107 56.9453 21.1872C56.9453 21.2086 56.9242 21.2246 56.9027 21.2246C56.8601 21.23 56.8175 21.23 56.7749 21.23C56.4983 21.23 56.2267 21.23 55.9501 21.23C55.9075 21.23 55.8649 21.23 55.8223 21.2353C55.7908 21.2353 55.7747 21.2514 55.7692 21.2835C55.7692 21.2888 55.7692 21.2941 55.7692 21.2995C55.7692 21.5722 55.7692 21.8396 55.7692 22.1124C55.7692 22.1498 55.7907 22.1712 55.8278 22.1712C55.8704 22.1712 55.913 22.1712 55.9556 22.1712C56.3334 22.1712 56.7057 22.1712 57.0836 22.1712C57.1262 22.1712 57.1687 22.1712 57.2113 22.1712C57.2434 22.1712 57.2644 22.1872 57.2644 22.2193C57.2644 22.2995 57.2644 22.3797 57.2644 22.4599C57.2644 22.4974 57.2379 22.5134 57.2008 22.5134C57.1743 22.5134 57.1477 22.5134 57.1212 22.5134C56.5995 22.5134 56.0723 22.5134 55.5512 22.5134C55.4019 22.5134 55.4019 22.5134 55.4019 22.3637C55.4129 21.9572 55.4074 21.5508 55.4074 21.1391Z" fill="#FCFDFC"/>
<path d="M30.2581 21.139C30.2581 20.7487 30.2581 20.353 30.2581 19.9626C30.2581 19.9198 30.2581 19.877 30.2581 19.8342C30.2581 19.8021 30.274 19.7861 30.306 19.7807C30.3379 19.7754 30.3698 19.7807 30.4018 19.7807C30.9126 19.7807 31.4288 19.7807 31.9397 19.7807C31.9663 19.7807 31.9929 19.7807 32.0195 19.7807C32.0834 19.7861 32.0887 19.7915 32.094 19.8556C32.094 19.9251 32.094 19.9947 32.094 20.0642C32.094 20.1016 32.0727 20.123 32.0355 20.123C31.9929 20.123 31.9503 20.123 31.9078 20.123C31.5353 20.123 31.1681 20.123 30.7956 20.123C30.753 20.123 30.7104 20.123 30.6678 20.1284C30.6412 20.1284 30.6306 20.1444 30.6306 20.1711C30.6306 20.1978 30.6253 20.2246 30.6253 20.2513C30.6253 20.4278 30.6253 20.6043 30.6253 20.7754C30.6253 20.9091 30.6253 20.9038 30.7583 20.9038C30.9978 20.9038 31.2319 20.9038 31.4714 20.9038C31.5619 20.9038 31.6523 20.9038 31.7428 20.9038C31.78 20.9038 31.8013 20.9198 31.8013 20.9626C31.8013 21.0374 31.8013 21.1123 31.8013 21.1872C31.8013 21.2086 31.7853 21.2246 31.7587 21.2299C31.7162 21.2353 31.6736 21.2353 31.6311 21.2353C31.3543 21.2353 31.0829 21.2353 30.8062 21.2353C30.7637 21.2353 30.7211 21.2353 30.6785 21.2353C30.6412 21.2353 30.6252 21.2567 30.6199 21.2941C30.6199 21.3101 30.6199 21.3262 30.6199 21.3422C30.6199 21.5829 30.6199 21.8182 30.6199 22.0588C30.6199 22.0802 30.6199 22.1016 30.6199 22.123C30.6199 22.1551 30.6359 22.1711 30.6678 22.1765C30.7104 22.1765 30.753 22.1765 30.7956 22.1765C31.1787 22.1765 31.5565 22.1765 31.9397 22.1765C31.9823 22.1765 32.0248 22.1765 32.0674 22.1818C32.0993 22.1818 32.1153 22.2032 32.1153 22.2353C32.11 22.5829 32.1739 22.5241 31.8599 22.5241C31.3916 22.5294 30.9179 22.5241 30.4497 22.5241C30.2421 22.5241 30.2581 22.5455 30.2581 22.3422C30.2581 21.9359 30.2581 21.5401 30.2581 21.139Z" fill="#FCFDFC"/>
<path d="M98.4106 21.1444C98.4106 20.754 98.4106 20.369 98.4106 19.9786C98.4106 19.9412 98.4106 19.9038 98.4106 19.8663C98.4106 19.7861 98.4217 19.7808 98.5069 19.7755C98.5384 19.7755 98.5705 19.7755 98.6026 19.7755C99.0866 19.7755 99.5762 19.7755 100.061 19.7755C100.092 19.7755 100.124 19.7755 100.157 19.7755C100.242 19.7808 100.247 19.7808 100.247 19.8663C100.247 19.9305 100.247 19.9947 100.247 20.0589C100.247 20.0963 100.226 20.1177 100.188 20.1177C100.146 20.1177 100.103 20.1177 100.061 20.1177C99.688 20.1177 99.3206 20.1177 98.9483 20.1177C98.9058 20.1177 98.8632 20.1177 98.8206 20.123C98.7995 20.123 98.7835 20.1391 98.778 20.1605C98.778 20.1712 98.773 20.1818 98.773 20.1926C98.773 20.4064 98.773 20.615 98.773 20.8289C98.773 20.8824 98.7885 20.8931 98.8421 20.8931C98.9378 20.8931 99.0335 20.8931 99.1292 20.8931C99.3527 20.8931 99.5762 20.8931 99.7947 20.8931C99.9646 20.8931 99.9541 20.8878 99.9541 21.0589C99.9541 21.0963 99.9541 21.1337 99.9491 21.1712C99.9491 21.1926 99.933 21.2086 99.9065 21.2139C99.8639 21.2193 99.8213 21.2193 99.7787 21.2193C99.5021 21.2193 99.2305 21.2193 98.9539 21.2193C98.9163 21.2193 98.8792 21.2193 98.8421 21.2193C98.778 21.2193 98.7675 21.2353 98.7619 21.2941C98.7619 21.3209 98.7619 21.3476 98.7619 21.3743C98.7619 21.5883 98.7619 21.7968 98.7619 22.0107C98.7619 22.0482 98.7619 22.0856 98.7675 22.123C98.7675 22.1444 98.7835 22.1605 98.81 22.1658C98.8526 22.1658 98.8952 22.1712 98.9378 22.1712C99.3206 22.1712 99.6985 22.1712 100.082 22.1712C100.124 22.1712 100.167 22.1712 100.21 22.1712C100.247 22.1712 100.268 22.1979 100.268 22.2353C100.268 22.3102 100.268 22.3851 100.268 22.4599C100.268 22.4974 100.247 22.5187 100.21 22.5187C100.178 22.5187 100.146 22.5187 100.114 22.5187C99.6028 22.5187 99.0867 22.5187 98.5761 22.5187C98.5384 22.5187 98.5014 22.5187 98.4643 22.5187C98.4322 22.5187 98.4162 22.4974 98.4162 22.4653C98.4162 22.4225 98.4162 22.3797 98.4162 22.337C98.4106 21.9412 98.4106 21.5401 98.4106 21.1444Z" fill="#FCFDFC"/>
<path d="M65.6992 21.1337C65.6992 20.738 65.6992 20.3476 65.6992 19.9519C65.6992 19.9091 65.6992 19.8663 65.6992 19.8236C65.6992 19.7915 65.7208 19.7755 65.7529 19.7755C65.7844 19.7755 65.8165 19.7755 65.8486 19.7755C66.3592 19.7755 66.8753 19.7755 67.3865 19.7755C67.4185 19.7755 67.4501 19.7755 67.4822 19.7755C67.5142 19.7755 67.5303 19.7915 67.5353 19.8236C67.5353 19.8289 67.5353 19.8343 67.5353 19.8396C67.5303 20.1658 67.5884 20.1123 67.2797 20.1177C66.9339 20.123 66.5937 20.1177 66.2474 20.1177C66.2048 20.1177 66.1622 20.1177 66.1196 20.1177C66.0881 20.1177 66.0721 20.1337 66.0665 20.1658C66.0665 20.1765 66.0665 20.1872 66.0665 20.1979C66.0665 20.4064 66.0665 20.6097 66.0665 20.8182C66.0665 20.8824 66.0771 20.8931 66.1412 20.8931C66.3808 20.8931 66.6147 20.8931 66.8543 20.8931C66.95 20.8931 67.0457 20.8931 67.1414 20.8931C67.2371 20.8931 67.2482 20.8984 67.2426 20.9893C67.2426 21.2514 67.2797 21.2193 67.0191 21.2193C66.753 21.2193 66.4925 21.2193 66.2264 21.2193C66.1888 21.2193 66.1517 21.2193 66.1147 21.2193C66.0826 21.2193 66.0665 21.2353 66.0616 21.2674C66.0616 21.2781 66.0616 21.2888 66.0616 21.2995C66.0616 21.5615 66.0616 21.8182 66.0616 22.0803C66.0616 22.1551 66.0721 22.1605 66.1462 22.1605C66.5561 22.1605 66.9605 22.1605 67.3704 22.1605C67.413 22.1605 67.4556 22.1605 67.4982 22.1605C67.5458 22.1605 67.5568 22.1765 67.5618 22.23C67.5618 22.2353 67.5618 22.2407 67.5618 22.246C67.5568 22.5508 67.6044 22.5027 67.3173 22.5027C66.8277 22.5027 66.3326 22.5027 65.843 22.5027C65.7048 22.5027 65.7048 22.5027 65.7048 22.3637C65.6992 21.9626 65.6992 21.5508 65.6992 21.1337Z" fill="#FCFDFC"/>
<path d="M103.179 20.4759C103.088 20.4973 102.987 20.5241 102.891 20.5508C102.859 20.5615 102.827 20.5508 102.806 20.5187C102.795 20.5027 102.779 20.4866 102.769 20.4706C102.492 20.1497 102.146 20.016 101.731 20.1123C101.321 20.2085 101.05 20.4706 100.943 20.877C100.784 21.4759 101.162 22.1016 101.806 22.1979C102.221 22.262 102.566 22.1123 102.811 21.7647C102.881 21.6684 102.87 21.6364 103.013 21.6898C103.056 21.7058 103.104 21.7166 103.152 21.7273C103.232 21.7487 103.237 21.7647 103.194 21.8342C102.929 22.2834 102.545 22.5401 102.024 22.5615C101.444 22.5829 100.997 22.3316 100.715 21.8235C100.369 21.2032 100.544 20.4224 101.114 20C101.683 19.5776 102.476 19.6364 102.971 20.139C103.045 20.2139 103.11 20.2995 103.168 20.3904C103.173 20.4118 103.189 20.4385 103.179 20.4759Z" fill="#FCFDFC"/>
<path d="M45.334 22.5187C45.318 22.4492 45.3552 22.4064 45.3765 22.3583C45.6852 21.6364 45.9991 20.9198 46.3078 20.1978C46.3556 20.0802 46.4089 19.9626 46.4568 19.8449C46.4781 19.7968 46.51 19.7701 46.5685 19.7754C46.6324 19.7807 46.6962 19.7754 46.7601 19.7754C46.7974 19.7754 46.8187 19.7915 46.8346 19.8236C46.8665 19.8984 46.8984 19.9679 46.9304 20.0428C47.2603 20.8128 47.5956 21.5829 47.9255 22.3476C47.9415 22.3851 47.9575 22.4278 47.9734 22.4653C47.9787 22.4866 47.9681 22.508 47.9415 22.508C47.8457 22.508 47.7499 22.508 47.6541 22.508C47.6275 22.508 47.6009 22.4974 47.5903 22.4706C47.569 22.4278 47.553 22.3851 47.5317 22.3422C47.4678 22.1925 47.3987 22.0428 47.3402 21.8877C47.3189 21.8289 47.2816 21.8075 47.2231 21.8075C47.0209 21.8075 46.8186 21.8075 46.6217 21.8075C46.4462 21.8075 46.2705 21.8128 46.1002 21.8075C46.0257 21.8075 45.9832 21.8289 45.9566 21.8984C45.8927 22.0588 45.8235 22.2193 45.7543 22.3851C45.7437 22.4118 45.733 22.4439 45.7171 22.4706C45.7064 22.4974 45.6852 22.5134 45.6532 22.5134C45.5415 22.5187 45.435 22.5187 45.334 22.5187ZM46.6483 20.2674C46.6324 20.2995 46.6164 20.3155 46.6111 20.3369C46.4887 20.6364 46.361 20.9305 46.2386 21.2299C46.212 21.2888 46.1907 21.3476 46.1641 21.4064C46.1481 21.4545 46.1588 21.4759 46.212 21.4759C46.5047 21.4759 46.7921 21.4759 47.0847 21.4759C47.1379 21.4759 47.1486 21.4545 47.1326 21.4064C47.1273 21.3904 47.122 21.3797 47.1167 21.3636C46.9623 21.0053 46.808 20.6471 46.6483 20.2674Z" fill="#FCFDFC"/>
<path d="M118.404 22.5668C117.909 22.5936 117.542 22.2674 117.425 21.9198C117.35 21.7059 117.35 21.7433 117.542 21.6899C117.59 21.6738 117.643 21.6417 117.696 21.6578C117.755 21.6791 117.744 21.7487 117.76 21.7968C117.856 22.0535 118.09 22.2246 118.366 22.2353C118.431 22.2353 118.494 22.2407 118.558 22.2407C118.803 22.2299 119.016 22.0428 119.048 21.8022C119.064 21.6899 119.021 21.5936 118.947 21.5134C118.894 21.4545 118.824 21.4118 118.75 21.3797C118.632 21.3262 118.51 21.2888 118.393 21.2513C118.26 21.2086 118.132 21.1711 118 21.1284C117.898 21.0963 117.803 21.0482 117.717 20.984C117.441 20.7915 117.366 20.4438 117.537 20.1497C117.579 20.0802 117.627 20.0214 117.685 19.9679C117.984 19.7005 118.611 19.615 118.989 19.893C119.154 20.0107 119.271 20.1604 119.341 20.353C119.351 20.3797 119.357 20.4011 119.362 20.4278C119.372 20.4653 119.357 20.492 119.324 20.5027C119.245 20.5241 119.16 20.5455 119.079 20.5668C119.053 20.5722 119.037 20.5561 119.032 20.5401C119.021 20.5134 119.016 20.4813 119 20.4492C118.899 20.2139 118.718 20.0855 118.468 20.0535C118.409 20.0481 118.35 20.0481 118.292 20.0481C118.074 20.0481 117.893 20.1818 117.824 20.3904C117.792 20.492 117.813 20.5776 117.877 20.6578C117.919 20.7113 117.978 20.7487 118.042 20.7807C118.148 20.8342 118.266 20.8717 118.382 20.9091C118.521 20.9519 118.654 20.9947 118.792 21.0374C118.91 21.0749 119.016 21.1337 119.117 21.2032C119.542 21.508 119.473 22.0267 119.213 22.2888C119.042 22.4599 118.835 22.5401 118.606 22.5668C118.542 22.5668 118.473 22.5668 118.404 22.5668Z" fill="#FCFDFC"/>
<path d="M61.5429 22.5668C60.9045 22.5775 60.2396 22.1016 60.1439 21.3155C60.0476 20.5241 60.5909 19.8663 61.2984 19.7487C61.8571 19.6524 62.3201 19.8449 62.6764 20.2834C62.7085 20.3262 62.735 20.369 62.7671 20.4171C62.7881 20.4545 62.7776 20.4759 62.735 20.4866C62.6609 20.508 62.5807 20.5294 62.5066 20.5455C62.4584 20.5562 62.4264 20.5455 62.3948 20.5027C62.3788 20.4813 62.3627 20.4599 62.3467 20.4385C62.0751 20.139 61.7398 20.016 61.3465 20.1016C60.9527 20.1872 60.681 20.4278 60.5588 20.8128C60.3563 21.4492 60.7502 22.0856 61.3941 22.1925C61.804 22.262 62.1448 22.1176 62.3998 21.7808C62.4158 21.7593 62.4319 21.738 62.4424 21.7166C62.485 21.6524 62.4905 21.6524 62.5597 21.6685C62.6344 21.6899 62.714 21.7112 62.7881 21.7326C62.8097 21.738 62.8202 21.7593 62.8097 21.7861C62.7937 21.8235 62.7727 21.861 62.7511 21.8984C62.5381 22.2567 62.1022 22.5829 61.5429 22.5668Z" fill="#FCFDFC"/>
<path d="M108.037 22.5187C107.936 22.5187 107.846 22.5187 107.756 22.5187C107.697 22.5187 107.659 22.5027 107.633 22.4439C107.585 22.3208 107.532 22.1979 107.478 22.0748C107.452 22.0054 107.42 21.9412 107.388 21.8716C107.372 21.8289 107.346 21.8182 107.303 21.8182C107.212 21.8182 107.122 21.8182 107.031 21.8182C106.739 21.8182 106.452 21.8235 106.159 21.8182C106.079 21.8182 106.036 21.8449 106.005 21.9198C105.936 22.0909 105.861 22.262 105.792 22.4331C105.765 22.492 105.733 22.5294 105.664 22.5241C105.589 22.5187 105.515 22.5241 105.44 22.5241C105.387 22.5241 105.377 22.5027 105.398 22.4492C105.419 22.4011 105.44 22.3529 105.462 22.3048C105.808 21.5133 106.148 20.7166 106.494 19.9251C106.558 19.7754 106.531 19.7861 106.702 19.7861C106.904 19.7861 106.862 19.7593 106.941 19.9465C107.293 20.7593 107.644 21.5722 107.995 22.385C108.016 22.4171 108.037 22.4545 108.037 22.5187ZM107.202 21.4706C107.223 21.4064 107.186 21.3636 107.165 21.3155C107.031 20.9893 106.893 20.6577 106.755 20.3316C106.744 20.3102 106.744 20.2834 106.712 20.2834C106.558 20.6417 106.409 21 106.255 21.3529C106.244 21.3797 106.233 21.401 106.228 21.4278C106.223 21.4492 106.228 21.4706 106.255 21.4759C106.276 21.4813 106.297 21.4813 106.318 21.4813C106.59 21.4813 106.856 21.4813 107.128 21.4813C107.149 21.4813 107.175 21.4759 107.202 21.4706Z" fill="#FCFDFC"/>
<path d="M32.7222 21.1497C32.7222 20.7594 32.7222 20.3637 32.7222 19.9733C32.7222 19.9305 32.7222 19.8877 32.7222 19.8449C32.7222 19.8075 32.7381 19.7861 32.7754 19.7861C32.802 19.7861 32.8286 19.7861 32.8552 19.7861C33.3767 19.7861 33.9035 19.7861 34.4251 19.7861C34.4517 19.7861 34.4783 19.7861 34.5049 19.7861C34.5261 19.7861 34.5421 19.8022 34.5474 19.8235C34.5527 19.8396 34.5527 19.8556 34.5527 19.8717C34.5474 20.1765 34.5953 20.123 34.3079 20.1283C33.9514 20.1337 33.6002 20.1283 33.2437 20.1283C33.2011 20.1283 33.1585 20.1283 33.1159 20.1337C33.0946 20.1337 33.0787 20.1497 33.0787 20.1765C33.0787 20.1818 33.0787 20.1872 33.0787 20.1925C33.0787 20.4118 33.0787 20.6257 33.0787 20.8449C33.0787 20.8823 33.0946 20.9037 33.1372 20.9037C33.1798 20.9037 33.2224 20.9037 33.265 20.9037C33.5417 20.9037 33.8131 20.9037 34.0898 20.9037C34.1324 20.9037 34.1749 20.9037 34.2175 20.9091C34.2388 20.9091 34.2547 20.9252 34.26 20.9519C34.2654 21 34.2654 21.0481 34.2654 21.0963C34.2654 21.2406 34.2707 21.2353 34.1271 21.2353C33.845 21.2353 33.5683 21.2353 33.2862 21.2353C33.249 21.2353 33.2117 21.2353 33.1745 21.2353C33.0946 21.2406 33.084 21.246 33.084 21.3316C33.084 21.5883 33.084 21.8396 33.084 22.0963C33.084 22.1711 33.0946 22.1818 33.1638 22.1818C33.4086 22.1818 33.6481 22.1818 33.8929 22.1818C34.0951 22.1818 34.2973 22.1818 34.4942 22.1818C34.5634 22.1818 34.574 22.1925 34.574 22.2513C34.5687 22.5775 34.6272 22.5241 34.3186 22.5241C33.8503 22.5294 33.3767 22.5241 32.9084 22.5241C32.8658 22.5241 32.8232 22.5241 32.7807 22.5241C32.7488 22.5241 32.7328 22.5081 32.7275 22.476C32.7222 22.4332 32.7222 22.3904 32.7222 22.3476C32.7222 21.9412 32.7222 21.5454 32.7222 21.1497Z" fill="#FCFDFC"/>
<path d="M63.2463 21.1391C63.2463 20.7433 63.2463 20.353 63.2463 19.9572C63.2463 19.9145 63.2463 19.8717 63.2463 19.8289C63.2463 19.7968 63.2623 19.7808 63.2938 19.7808C63.3259 19.7808 63.358 19.7808 63.3895 19.7808C63.9007 19.7808 64.4168 19.7808 64.928 19.7808C64.9595 19.7808 64.9916 19.7808 65.0237 19.7808C65.0552 19.7808 65.0768 19.7968 65.0768 19.8289C65.0768 19.9091 65.0768 19.9893 65.0768 20.0695C65.0768 20.0962 65.0607 20.1177 65.0286 20.123C64.986 20.123 64.9434 20.1283 64.9008 20.1283C64.5125 20.1283 64.1297 20.1283 63.7408 20.1283C63.6025 20.1283 63.6025 20.1283 63.5975 20.2674C63.5975 20.4492 63.5975 20.631 63.5975 20.8075C63.5975 20.8984 63.6025 20.9037 63.6982 20.9037C64.0019 20.9037 64.2995 20.9037 64.6032 20.9037C64.7841 20.9037 64.7786 20.8877 64.7786 21.0749C64.7786 21.0802 64.7786 21.0856 64.7786 21.0909C64.7786 21.2353 64.7786 21.23 64.6403 21.23C64.3532 21.23 64.0711 21.23 63.7834 21.23C63.7408 21.23 63.6982 21.23 63.6556 21.23C63.6186 21.23 63.5975 21.2567 63.5975 21.2941C63.5975 21.5669 63.5975 21.8343 63.5975 22.107C63.5975 22.1604 63.613 22.1712 63.6667 22.1712C63.7093 22.1712 63.7519 22.1712 63.7945 22.1712C64.1723 22.1712 64.5446 22.1712 64.9224 22.1712C64.965 22.1712 65.0076 22.1712 65.0502 22.1765C65.0712 22.1765 65.0873 22.1925 65.0928 22.2139C65.0928 22.2353 65.0978 22.2567 65.0978 22.2781C65.0928 22.5562 65.1354 22.5134 64.8638 22.5187C64.3847 22.5187 63.9112 22.5187 63.4321 22.5187C63.3895 22.5187 63.3469 22.5187 63.3049 22.5187C63.2673 22.5187 63.2463 22.5027 63.2407 22.4599C63.2407 22.4171 63.2407 22.3743 63.2407 22.3316C63.2463 21.9358 63.2463 21.5348 63.2463 21.1391Z" fill="#FCFDFC"/>
<path d="M91.0353 21.1391C91.0353 20.7433 91.0353 20.353 91.0353 19.9572C91.0353 19.9145 91.0353 19.8717 91.0353 19.8289C91.0353 19.7968 91.0508 19.7808 91.0829 19.7808C91.115 19.7808 91.1471 19.7808 91.1786 19.7808C91.6897 19.7808 92.2059 19.7808 92.7165 19.7808C92.7485 19.7808 92.7806 19.7808 92.8127 19.7808C92.8442 19.7808 92.8603 19.8022 92.8603 19.8343C92.8603 19.8449 92.8603 19.8556 92.8603 19.8663C92.8553 20.1711 92.9029 20.123 92.6158 20.123C92.2695 20.1283 91.9293 20.123 91.583 20.123C91.5404 20.123 91.4978 20.123 91.4557 20.123C91.3971 20.1283 91.3811 20.1391 91.3811 20.2032C91.3811 20.4118 91.3811 20.6203 91.3811 20.8235C91.3811 20.8877 91.3916 20.8984 91.4557 20.8984C91.7323 20.8984 92.0034 20.8984 92.2806 20.8984C92.3547 20.8984 92.4294 20.8984 92.504 20.8984C92.5411 20.8984 92.5621 20.9198 92.5621 20.9572C92.5621 21.0268 92.5621 21.0963 92.5621 21.1658C92.5621 21.2032 92.5356 21.2193 92.504 21.2246C92.4614 21.2246 92.4189 21.2246 92.3763 21.2246C92.1046 21.2246 91.8386 21.2246 91.5675 21.2246C91.5354 21.2246 91.5033 21.2246 91.4712 21.2246C91.3916 21.23 91.386 21.2353 91.386 21.3208C91.386 21.5776 91.386 21.8289 91.386 22.0856C91.386 22.1551 91.3971 22.1658 91.4712 22.1658C91.828 22.1658 92.1793 22.1658 92.5356 22.1658C92.6313 22.1658 92.7275 22.1658 92.8232 22.1658C92.8603 22.1658 92.8819 22.1872 92.8819 22.2246C92.8819 22.2406 92.8819 22.2567 92.8819 22.2727C92.8763 22.5508 92.9189 22.5081 92.6529 22.5134C92.1738 22.5134 91.7002 22.5134 91.2212 22.5134C91.1786 22.5134 91.136 22.5134 91.0934 22.5134C91.0563 22.5134 91.0353 22.4973 91.0298 22.4546C91.0298 22.4118 91.0298 22.369 91.0298 22.3262C91.0353 21.9358 91.0353 21.5348 91.0353 21.1391Z" fill="#FCFDFC"/>
<path d="M93.2806 19.786C93.3763 19.7754 93.4615 19.7807 93.5522 19.7807C93.5893 19.7807 93.6263 19.7807 93.664 19.7807C93.701 19.7807 93.7171 19.8128 93.7381 19.8395C93.8609 20.0053 93.9831 20.1711 94.1054 20.3422C94.2011 20.4759 94.2968 20.6096 94.3875 20.7433C94.4351 20.8075 94.4462 20.8128 94.4888 20.7487C94.6857 20.4438 94.9142 20.1658 95.1166 19.8716C95.1592 19.8075 95.2068 19.7754 95.287 19.7807C95.3877 19.7861 95.4889 19.7807 95.5846 19.7807C95.6007 19.8395 95.5581 19.8663 95.5371 19.8984C95.276 20.2566 95.0099 20.6149 94.7493 20.9786C94.6481 21.1176 94.6481 21.0802 94.7493 21.2193C95.0259 21.5989 95.3031 21.9733 95.5797 22.3475C95.6112 22.3904 95.6433 22.4331 95.6698 22.4759C95.6803 22.4973 95.6698 22.5187 95.6433 22.5187C95.5371 22.5187 95.4303 22.5187 95.3241 22.5187C95.287 22.5187 95.2605 22.5027 95.2444 22.4813C95.2229 22.4545 95.1963 22.4224 95.1753 22.3904C94.9407 22.0748 94.6962 21.77 94.4777 21.4439C94.4511 21.4064 94.4301 21.4064 94.4086 21.4439C94.1906 21.77 93.9455 22.0748 93.7115 22.3904C93.6905 22.4171 93.6745 22.4438 93.6529 22.4652C93.6319 22.4973 93.5998 22.5133 93.5627 22.5133C93.456 22.5133 93.3497 22.5133 93.2435 22.5133C93.222 22.5133 93.2059 22.4866 93.217 22.4706C93.238 22.4331 93.2646 22.401 93.2911 22.3636C93.5627 21.9893 93.8393 21.6203 94.1109 21.246C94.1214 21.2353 94.132 21.2193 94.1375 21.2085C94.2227 21.0855 94.2387 21.1123 94.1425 20.9786C93.8819 20.6256 93.6214 20.2674 93.3658 19.9091C93.3287 19.877 93.2911 19.8449 93.2806 19.786Z" fill="#FCFDFC"/>
<path d="M58.8185 20.7968C58.9092 20.6685 58.9993 20.5348 59.095 20.4064C59.2339 20.2193 59.3722 20.0321 59.5105 19.8396C59.5426 19.7914 59.5846 19.77 59.6433 19.77C59.739 19.7754 59.8352 19.77 59.9309 19.77C59.9735 19.77 59.984 19.7914 59.9575 19.8342C59.8031 20.0481 59.6433 20.262 59.4889 20.476C59.3611 20.6524 59.2339 20.8235 59.1061 21C59.0419 21.0856 59.0419 21.0856 59.1111 21.1765C59.3988 21.5669 59.6859 21.9519 59.968 22.3423C60.0001 22.385 60.0742 22.4278 60.0427 22.4866C60.0161 22.5294 59.947 22.5027 59.8933 22.5027C59.8136 22.5027 59.734 22.4973 59.6543 22.4973C59.6062 22.4332 59.5531 22.3743 59.505 22.3102C59.2815 22.0107 59.0475 21.7166 58.84 21.4011C58.7974 21.3958 58.7869 21.4331 58.7709 21.4546C58.5474 21.7861 58.2863 22.1016 58.0523 22.4278C58.0152 22.4813 57.9726 22.5081 57.9085 22.5027C57.8078 22.4973 57.701 22.5027 57.5948 22.4973C57.5893 22.4385 57.6263 22.4117 57.6534 22.3797C57.9405 21.984 58.2276 21.5936 58.5208 21.1979C58.6215 21.0588 58.6165 21.0909 58.5208 20.9572C58.2813 20.6203 58.0362 20.2888 57.7917 19.9519C57.7652 19.9144 57.7331 19.877 57.7065 19.8342C57.6955 19.8182 57.68 19.8021 57.685 19.7754C57.6955 19.7487 57.717 19.754 57.7381 19.754C57.8233 19.754 57.9085 19.754 57.9936 19.754C58.0578 19.7487 58.1004 19.77 58.143 19.8235C58.3449 20.1016 58.5474 20.385 58.7493 20.6631C58.7548 20.7219 58.7759 20.77 58.8185 20.7968Z" fill="#FCFDFC"/>
<path d="M86.9428 20.7006C86.9428 20.9412 86.9428 21.1765 86.9428 21.4171C86.9428 21.5615 86.9268 21.7006 86.8842 21.8396C86.7725 22.2139 86.5329 22.4492 86.1501 22.5348C85.9106 22.5883 85.6655 22.5829 85.4266 22.5187C85.1068 22.4332 84.8889 22.23 84.7771 21.9198C84.7185 21.7594 84.6919 21.5883 84.6919 21.4171C84.6864 20.9037 84.6919 20.3851 84.6919 19.8717C84.6919 19.8556 84.6919 19.8396 84.6919 19.8235C84.6919 19.8022 84.708 19.7808 84.729 19.7808C84.8252 19.7808 84.9209 19.7808 85.0166 19.7808C85.0377 19.7808 85.0537 19.8022 85.0537 19.8235C85.0537 19.8663 85.0592 19.9091 85.0592 19.9519C85.0592 20.4172 85.0592 20.8877 85.0592 21.3529C85.0592 21.476 85.0642 21.5989 85.0963 21.7166C85.171 21.9893 85.3414 22.1551 85.618 22.2086C85.7668 22.2353 85.9106 22.2353 86.0594 22.2032C86.2884 22.1497 86.4428 22.0107 86.5224 21.7861C86.5706 21.6471 86.5866 21.508 86.5866 21.3637C86.5866 20.9037 86.5866 20.4385 86.5866 19.9786C86.5866 19.9358 86.5866 19.8931 86.5866 19.8503C86.5866 19.7914 86.5971 19.7808 86.6663 19.7808C86.7354 19.7808 86.8046 19.7808 86.8737 19.7808C86.9379 19.7808 86.9428 19.7914 86.9428 19.861C86.9428 20.1391 86.9428 20.4225 86.9428 20.7006Z" fill="#FCFDFC"/>
<path d="M96.0959 21.1337C96.0959 20.7433 96.0959 20.3476 96.0959 19.9572C96.0959 19.9145 96.0959 19.8717 96.0959 19.8289C96.0959 19.7968 96.1169 19.7808 96.144 19.7808C96.1545 19.7808 96.165 19.7808 96.1755 19.7808C96.4737 19.7808 96.7663 19.7808 97.0645 19.7861C97.2238 19.7914 97.3782 19.8289 97.522 19.9037C97.7399 20.016 97.8733 20.1872 97.9319 20.4225C97.9585 20.5348 97.969 20.6524 97.9529 20.7701C97.9159 21.0909 97.751 21.3208 97.4473 21.4492C97.304 21.508 97.1547 21.5401 97.0003 21.5401C96.846 21.5401 96.6917 21.5401 96.5428 21.5401C96.4737 21.5401 96.4577 21.5508 96.4577 21.6257C96.4577 21.8717 96.4577 22.1123 96.4577 22.3583C96.4577 22.5348 96.4632 22.5241 96.2928 22.5241C96.2447 22.5241 96.1971 22.5241 96.149 22.5241C96.1119 22.5241 96.0903 22.4973 96.0903 22.4652C96.0903 22.4225 96.0903 22.3797 96.0903 22.3369C96.0959 21.9305 96.0959 21.5348 96.0959 21.1337ZM96.7929 20.1283V20.123C96.7077 20.123 96.6225 20.123 96.5373 20.123C96.4682 20.123 96.4577 20.1337 96.4577 20.2086C96.4577 20.4706 96.4577 20.7273 96.4577 20.9893C96.4577 21.0374 96.4577 21.0856 96.4577 21.1337C96.4577 21.1712 96.4792 21.1925 96.5163 21.1925C96.7132 21.1925 96.9102 21.2032 97.1016 21.1818C97.1812 21.1712 97.2559 21.1497 97.3251 21.1123C97.4528 21.0428 97.538 20.9358 97.5701 20.7968C97.5862 20.7326 97.5862 20.6578 97.5806 20.5883C97.5701 20.4172 97.4849 20.2888 97.3306 20.2032C97.2454 20.1551 97.1547 20.1283 97.059 20.123C96.9738 20.1283 96.8836 20.1283 96.7929 20.1283Z" fill="#FCFDFC"/>
<path d="M108.761 21.3209C108.761 20.9786 108.761 20.6417 108.761 20.2995C108.761 20.2567 108.761 20.2139 108.761 20.1711C108.761 20.139 108.74 20.123 108.713 20.1176C108.676 20.1176 108.639 20.1123 108.601 20.1123C108.41 20.1123 108.218 20.1123 108.032 20.1123C107.995 20.1123 107.957 20.1123 107.92 20.107C107.888 20.107 107.878 20.0856 107.872 20.0535C107.872 20.0428 107.872 20.0321 107.872 20.0214C107.878 19.7166 107.825 19.7647 108.117 19.7647C108.692 19.7647 109.272 19.7647 109.846 19.7647C109.889 19.7647 109.932 19.7647 109.974 19.7647C110.001 19.7647 110.027 19.7807 110.027 19.8128C110.027 19.893 110.027 19.9733 110.027 20.0535C110.027 20.0802 110.011 20.1016 109.98 20.107C109.942 20.1123 109.905 20.107 109.868 20.107C109.676 20.107 109.485 20.107 109.298 20.107C109.261 20.107 109.224 20.107 109.187 20.107C109.149 20.107 109.128 20.1284 109.128 20.1658C109.128 20.2139 109.128 20.262 109.128 20.3102C109.128 20.968 109.128 21.6257 109.128 22.2834C109.128 22.3209 109.128 22.3583 109.128 22.3957C109.128 22.4974 109.123 22.5027 109.022 22.5027C108.735 22.4974 108.777 22.5455 108.777 22.262C108.761 21.9626 108.761 21.6417 108.761 21.3209Z" fill="#FCFDFC"/>
<path d="M36.1541 21.3262C36.1541 21.6685 36.1541 22.0053 36.1541 22.3476C36.1541 22.3904 36.1541 22.4331 36.1487 22.4759C36.1487 22.4973 36.1328 22.5187 36.1062 22.5187C36.0157 22.5187 35.9252 22.5187 35.8348 22.5187C35.8135 22.5187 35.7975 22.4973 35.7975 22.4759C35.7975 22.4278 35.7922 22.3797 35.7922 22.3316C35.7922 21.6577 35.7922 20.9839 35.7922 20.3101C35.7922 20.1176 35.8082 20.1283 35.6112 20.1283C35.3984 20.1283 35.1856 20.1283 34.978 20.1283C34.9035 20.1283 34.8929 20.1176 34.8929 20.0428C34.8982 19.7326 34.845 19.7861 35.1323 19.7861C35.7177 19.7807 36.3084 19.7861 36.8938 19.7861C37.0481 19.7861 37.0374 19.7807 37.0374 19.9358C37.0374 20.1551 37.064 20.1283 36.8405 20.1283C36.6649 20.1283 36.4893 20.1283 36.319 20.1283C36.2871 20.1283 36.2552 20.1283 36.2232 20.1283C36.1541 20.1337 36.1487 20.139 36.1434 20.2139C36.1434 20.2513 36.1434 20.2887 36.1434 20.3262C36.1541 20.6577 36.1541 20.9947 36.1541 21.3262Z" fill="#FCFDFC"/>
<path d="M104.669 21.3102C104.669 21.6578 104.669 22 104.669 22.3476C104.669 22.3904 104.669 22.4331 104.664 22.476C104.664 22.4973 104.648 22.5187 104.626 22.5187C104.536 22.5187 104.445 22.5187 104.355 22.5187C104.333 22.5187 104.317 22.4973 104.317 22.476C104.317 22.4278 104.312 22.3797 104.312 22.3316C104.312 21.6578 104.312 20.984 104.312 20.3102C104.312 20.1123 104.333 20.1283 104.136 20.1283C103.924 20.1283 103.716 20.1283 103.504 20.1283C103.434 20.1283 103.418 20.1177 103.418 20.0428C103.423 19.738 103.37 19.7861 103.658 19.7808C104.227 19.7808 104.802 19.7808 105.371 19.7808C105.414 19.7808 105.456 19.7808 105.499 19.7808C105.552 19.7808 105.568 19.7968 105.568 19.8449C105.568 19.9198 105.568 19.9947 105.568 20.0695C105.568 20.107 105.542 20.1283 105.505 20.1283C105.313 20.1283 105.121 20.1283 104.935 20.1283C104.866 20.1283 104.796 20.1283 104.727 20.1283C104.69 20.1283 104.669 20.1444 104.669 20.1872C104.669 20.23 104.669 20.2728 104.669 20.3155C104.669 20.6417 104.669 20.9786 104.669 21.3102Z" fill="#FCFDFC"/>
<path d="M80.0565 21.8289C80.0565 21.6524 80.0515 21.476 80.0565 21.3049C80.062 21.2139 80.0355 21.1444 79.9768 21.0695C79.6947 20.7006 79.4126 20.3262 79.1304 19.9519C79.0989 19.9091 79.0668 19.8663 79.0403 19.8236C79.0297 19.8075 79.0403 19.7808 79.0613 19.7808C79.1625 19.7808 79.2637 19.7808 79.365 19.7808C79.402 19.7808 79.4231 19.7968 79.4446 19.8236C79.4712 19.861 79.5033 19.8984 79.5348 19.9359C79.7428 20.2032 79.9447 20.476 80.1522 20.7434C80.1632 20.7594 80.1787 20.7755 80.1898 20.7915C80.2324 20.8396 80.2479 20.8449 80.2855 20.7915C80.509 20.5027 80.7269 20.2086 80.9504 19.9198C81.0837 19.7487 81.0196 19.7808 81.2381 19.7755C81.2967 19.7755 81.3548 19.7755 81.4135 19.7755C81.44 19.7755 81.4511 19.8022 81.44 19.8182C81.4085 19.861 81.3814 19.9038 81.3498 19.9466C81.0677 20.3155 80.7856 20.6899 80.4985 21.0589C80.4343 21.1391 80.4078 21.2193 80.4133 21.3209C80.4183 21.6524 80.4133 21.9786 80.4133 22.3102C80.4133 22.3476 80.4133 22.3851 80.4133 22.4225C80.4078 22.5027 80.4022 22.5134 80.3176 22.5134C80.0139 22.5081 80.062 22.5615 80.0565 22.2567C80.0565 22.1177 80.0565 21.9733 80.0565 21.8289Z" fill="#FCFDFC"/>
<path d="M110.821 21.1497C110.821 21.5401 110.821 21.9358 110.821 22.3262C110.821 22.369 110.821 22.4118 110.821 22.4546C110.821 22.492 110.805 22.5187 110.767 22.5187C110.682 22.5187 110.597 22.5187 110.512 22.5187C110.48 22.5187 110.464 22.5027 110.459 22.4706C110.459 22.4385 110.454 22.4064 110.454 22.3743C110.454 21.5562 110.454 20.738 110.454 19.9251C110.454 19.7808 110.454 19.7808 110.586 19.7808C110.852 19.7861 110.815 19.7433 110.815 20.0054C110.826 20.3851 110.821 20.7647 110.821 21.1497Z" fill="#FCFDFC"/>
<path d="M37.857 21.1604C37.857 21.5455 37.857 21.9358 37.857 22.3209C37.857 22.3637 37.857 22.4064 37.857 22.4492C37.857 22.5027 37.841 22.5187 37.7931 22.5187C37.7133 22.5187 37.6335 22.5187 37.5536 22.5187C37.5164 22.5187 37.4951 22.5027 37.4951 22.4599C37.4951 22.4225 37.4951 22.385 37.4951 22.3476C37.4951 21.5455 37.4951 20.7433 37.4951 19.9466C37.4951 19.9145 37.4951 19.8824 37.4951 19.8503C37.5004 19.7968 37.5111 19.7808 37.559 19.7808C37.6388 19.7808 37.7187 19.7808 37.7985 19.7808C37.8357 19.7808 37.857 19.8022 37.857 19.8396C37.857 19.8824 37.857 19.9251 37.857 19.9679C37.857 20.3637 37.857 20.7594 37.857 21.1604Z" fill="#FCFDFC"/>
<path d="M71.5688 21.1497C71.5688 21.5455 71.5688 21.9466 71.5688 22.3423C71.5688 22.385 71.5688 22.4278 71.5633 22.4706C71.5633 22.492 71.5473 22.5134 71.5262 22.5134C71.4355 22.5134 71.3453 22.5134 71.2546 22.5134C71.2336 22.5134 71.2175 22.4973 71.212 22.476C71.207 22.4439 71.207 22.4118 71.207 22.3797C71.207 21.5562 71.207 20.7326 71.207 19.9091C71.207 19.8824 71.207 19.8556 71.207 19.8289C71.207 19.7968 71.2281 19.7808 71.2546 19.7808C71.3398 19.7808 71.425 19.7808 71.5102 19.7808C71.5423 19.7808 71.5583 19.7968 71.5633 19.8289C71.5633 19.8717 71.5633 19.9145 71.5633 19.9572C71.5688 20.353 71.5688 20.754 71.5688 21.1497Z" fill="#FCFDFC"/>
<path d="M109.688 14.4813C109.703 14.4652 109.719 14.4599 109.746 14.4599C109.788 14.4599 109.831 14.4599 109.873 14.4599C111.709 14.4599 113.54 14.4599 115.376 14.4599C115.44 14.4599 115.504 14.4385 115.562 14.4813C115.514 14.4813 115.466 14.4866 115.419 14.4866C113.556 14.4866 111.699 14.4866 109.836 14.4866C109.783 14.4866 109.735 14.4813 109.688 14.4813Z" fill="#FCFDFC"/>
<path d="M101.843 11.7433C101.859 11.7273 101.875 11.7166 101.896 11.7166C101.934 11.7166 101.971 11.7166 102.008 11.7166C103.418 11.7166 104.828 11.7166 106.238 11.7166C106.286 11.7166 106.334 11.7166 106.382 11.7219C106.371 11.7273 106.356 11.7433 106.345 11.7433C106.313 11.7487 106.281 11.7433 106.249 11.7433C104.78 11.7433 103.311 11.7433 101.843 11.7433Z" fill="#FCFDFC"/>
<path d="M86.5063 17.3529C86.8681 17.3529 87.2299 17.3529 87.5923 17.3529C87.2355 17.3903 86.8737 17.3957 86.5063 17.3529Z" fill="#FCFDFC"/>
<path d="M56.6528 17.3529C56.9825 17.3529 57.3178 17.3529 57.648 17.3529C57.398 17.3903 57.1424 17.385 56.8868 17.3743C56.8121 17.3743 56.7325 17.3636 56.6528 17.3529Z" fill="#FCFDFC"/>
<path d="M32.2534 12.5668C32.2853 12.5401 32.3226 12.5454 32.3545 12.5454C32.4716 12.5401 32.5887 12.5401 32.7111 12.5401C32.562 12.5615 32.4078 12.5829 32.2534 12.5668Z" fill="#FCFDFC"/>
<path d="M71.9307 17.3209C72.0214 17.3209 72.1171 17.3262 72.2073 17.3262C72.2393 17.3262 72.2714 17.3262 72.2924 17.3476C72.1757 17.3636 72.0529 17.3423 71.9307 17.3209Z" fill="#FCFDFC"/>
<path d="M73.0322 17.3529C73.0643 17.3262 73.1014 17.3315 73.1335 17.3315C73.2131 17.3315 73.2878 17.3315 73.3675 17.3262C73.2612 17.3476 73.1495 17.3636 73.0322 17.3529Z" fill="#FCFDFC"/>
<path d="M86.1284 17.3209C86.2031 17.3209 86.2828 17.3262 86.3574 17.3262C86.384 17.3262 86.4105 17.3315 86.4266 17.3476C86.3309 17.3583 86.2297 17.3423 86.1284 17.3209Z" fill="#FCFDFC"/>
<path d="M32.7908 3.44917C32.711 3.44917 32.6312 3.45987 32.5566 3.42778C32.6365 3.42243 32.7163 3.42243 32.7908 3.44917Z" fill="#FCFDFC"/>
<path d="M44.2854 3.44919C44.2056 3.44919 44.1258 3.45989 44.0513 3.4278C44.1364 3.42245 44.2109 3.4278 44.2854 3.44919Z" fill="#FCFDFC"/>
<path d="M56.3335 17.3209C56.4132 17.3262 56.4983 17.3048 56.573 17.3476C56.4928 17.3583 56.4132 17.3476 56.3335 17.3209Z" fill="#FCFDFC"/>
<path d="M73.4478 17.3155C73.5114 17.2727 73.5861 17.2941 73.6552 17.2888C73.5861 17.3102 73.5169 17.3262 73.4478 17.3155Z" fill="#FCFDFC"/>
<path d="M71.6807 17.2888C71.7498 17.2941 71.8245 17.2727 71.8881 17.3155C71.8134 17.3262 71.7443 17.3102 71.6807 17.2888Z" fill="#FCFDFC"/>
<path d="M73.5381 3.19251C73.4794 3.19251 73.4208 3.2032 73.3677 3.17112C73.4318 3.16577 73.485 3.17112 73.5381 3.19251Z" fill="#FCFDFC"/>
<path d="M58.042 17.3208C58.0951 17.2781 58.1587 17.2994 58.2174 17.2941C58.1642 17.3102 58.1056 17.3262 58.042 17.3208Z" fill="#FCFDFC"/>
<path d="M71.7074 3.2032C71.6754 3.23528 71.6328 3.22459 71.5957 3.22459C71.6278 3.19785 71.6704 3.2032 71.7074 3.2032Z" fill="#FCFDFC"/>
<path d="M71.4839 17.2567C71.532 17.2567 71.5851 17.2459 71.6277 17.2834C71.5796 17.2941 71.532 17.278 71.4839 17.2567Z" fill="#FCFDFC"/>
<path d="M56.0195 3.2032C55.9879 3.23528 55.9453 3.22459 55.9077 3.22459C55.9398 3.19785 55.9769 3.2032 56.0195 3.2032Z" fill="#FCFDFC"/>
<path d="M71.484 3.24064C71.4624 3.27272 71.4309 3.25668 71.4043 3.25668C71.4309 3.2353 71.4574 3.2353 71.484 3.24064Z" fill="#FCFDFC"/>
<path d="M88.438 17.2513C88.4701 17.2192 88.5127 17.23 88.5497 17.23C88.5127 17.246 88.4751 17.2567 88.438 17.2513Z" fill="#FCFDFC"/>
<path d="M55.7324 17.2246C55.7695 17.2246 55.8121 17.2139 55.8442 17.2513C55.8071 17.2567 55.7695 17.246 55.7324 17.2246Z" fill="#FCFDFC"/>
<path d="M71.3238 3.26738C71.3028 3.29947 71.2707 3.28877 71.2441 3.28877C71.2707 3.26203 71.2973 3.26203 71.3238 3.26738Z" fill="#FCFDFC"/>
<path d="M55.918 17.262C55.9606 17.262 56.0032 17.2513 56.0352 17.2834C55.9926 17.2941 55.9556 17.2834 55.918 17.262Z" fill="#FCFDFC"/>
<path d="M33.2383 12.4706C33.2702 12.4385 33.3181 12.4439 33.3553 12.4492C33.3181 12.4652 33.2808 12.476 33.2383 12.4706Z" fill="#FCFDFC"/>
<path d="M64.2303 9.8877C64.2093 9.87166 64.2037 9.86098 64.2303 9.84494C64.2408 9.85562 64.2408 9.87166 64.2303 9.8877Z" fill="#FCFDFC"/>
<path d="M44.8977 3.5401C44.8711 3.5401 44.8392 3.5508 44.8179 3.52406C44.8498 3.51871 44.8765 3.51871 44.8977 3.5401Z" fill="#FCFDFC"/>
<path d="M90.2051 3.41758L90.2112 3.41177H90.2051V3.41758Z" fill="#FCFDFC"/>
<path d="M72.8997 5.80746C72.7454 5.80746 72.5855 5.80746 72.4312 5.80746C72.4527 5.79141 72.4793 5.7861 72.5058 5.7861C72.612 5.7861 72.7238 5.7861 72.8306 5.7861C72.8571 5.7861 72.8781 5.7861 72.8997 5.80746Z" fill="#FCFDFC"/>
<path d="M72.3513 5.80752C72.2717 5.8182 72.1915 5.83961 72.1118 5.83424C72.1865 5.79148 72.2717 5.81283 72.3513 5.80752Z" fill="#FCFDFC"/>
<path d="M72.0641 5.8396C72.0055 5.85564 71.9524 5.87168 71.8882 5.86632C71.9413 5.82887 72.0055 5.84491 72.0641 5.8396Z" fill="#FCFDFC"/>
<path d="M71.8135 14.6257C71.84 14.6203 71.8671 14.6257 71.8882 14.6417C71.8671 14.6417 71.8351 14.6524 71.8135 14.6257Z" fill="#FCFDFC"/>
<path d="M57.7172 5.83955C57.616 5.84492 57.5147 5.82351 57.4141 5.81284C57.4937 5.81284 57.5684 5.81284 57.6481 5.81284C57.6746 5.81284 57.7012 5.8182 57.7172 5.83955Z" fill="#FCFDFC"/>
<path d="M56.5039 14.6524C56.5731 14.6471 56.6367 14.6577 56.7058 14.6792C56.6367 14.6738 56.5675 14.6898 56.5039 14.6524Z" fill="#FCFDFC"/>
<path d="M57.5947 14.6792C57.6583 14.6631 57.7275 14.6471 57.7911 14.6577C57.733 14.6898 57.6639 14.6738 57.5947 14.6792Z" fill="#FCFDFC"/>
<path d="M58.1 5.89838C58.0574 5.90375 58.0204 5.89302 57.9883 5.87698C58.0259 5.87166 58.0685 5.8663 58.1 5.89838Z" fill="#FCFDFC"/>
<path d="M56.312 5.87698C56.275 5.89302 56.2379 5.90906 56.1953 5.89838C56.2324 5.8663 56.275 5.87166 56.312 5.87698Z" fill="#FCFDFC"/>
<path d="M44.0034 9.98931C44.0673 9.97863 44.1312 9.95722 44.2003 9.9679C44.1418 10.0054 44.0726 9.98931 44.0034 9.98931Z" fill="#FCFDFC"/>
<path d="M44.3172 5.99464C44.2587 6.00001 44.2002 5.9786 44.147 5.96792C44.2002 5.97324 44.264 5.95188 44.3172 5.99464Z" fill="#FCFDFC"/>
<path d="M29.7578 10.0374C30.274 10.0374 30.7902 10.0374 31.3064 10.0321C31.5778 10.0321 31.8545 10.0321 32.1259 10.0321C32.0727 10.0695 32.0142 10.0481 31.9556 10.0481C31.4607 10.0481 30.9605 10.0481 30.4656 10.0481C30.2634 10.0481 30.0611 10.0481 29.8642 10.0481C29.8323 10.0535 29.7897 10.0642 29.7578 10.0374Z" fill="#FCFDFC"/>
<path d="M32.2802 5.9626C32.2057 5.96796 32.1312 5.96796 32.0566 5.94119C32.1312 5.94119 32.211 5.92515 32.2802 5.9626Z" fill="#FCFDFC"/>
<path d="M32.312 10.0214C32.3546 10.0054 32.4025 9.99463 32.4504 9.99999C32.4078 10.0321 32.3599 10.016 32.312 10.0214Z" fill="#FCFDFC"/>
<path d="M32.5354 5.99464C32.4716 5.99995 32.4131 5.98391 32.3599 5.96786C32.4184 5.97323 32.4769 5.95719 32.5354 5.99464Z" fill="#FCFDFC"/>
<path d="M23.5582 13H20.1046C20.0886 13.0268 20.0886 13.0749 20.0886 13.1765C20.0886 14.3529 20.0886 15.5348 20.0833 16.7113C20.0833 16.9573 20.1205 16.8984 19.913 17.0267C19.1148 17.5187 18.3166 18.0161 17.5183 18.508C15.6771 19.6471 13.8411 20.7861 11.9999 21.9251C11.9254 21.9733 11.8562 22.0321 11.7658 22.0535C11.6913 22.0107 11.6168 21.9733 11.5476 21.9251C9.58926 20.7113 7.63096 19.492 5.67261 18.2781C4.97551 17.8449 4.27839 17.4118 3.58127 16.984C3.50145 16.9358 3.45356 16.8824 3.46952 16.7808C3.47485 16.7487 3.46952 16.7113 3.46952 16.6792C3.46952 15.5081 3.46952 14.3316 3.46952 13.1604C3.46952 13.0642 3.47485 13.0214 3.45356 12.9947H0.0158574C-0.000107178 13.0268 0.00521434 13.0749 0.00521434 13.1818C0.00521434 15.123 0.00521434 17.0642 0.00521434 19C0.00521434 19.0267 0.0105359 19.0588 0.00521434 19.0855C-0.0054287 19.1658 0.0318219 19.2139 0.101002 19.246C0.116966 19.2513 0.132931 19.2621 0.143574 19.2727C1.06952 19.8128 2.00078 20.353 2.92673 20.893C5.60877 22.4545 8.29081 24.0107 10.9728 25.5722C11.191 25.7006 11.4092 25.8235 11.6274 25.9572C11.7285 26.0214 11.8243 26.0214 11.9254 25.9572C11.9574 25.9358 11.9946 25.9198 12.0265 25.8984C13.9636 24.7754 15.9059 23.6471 17.8429 22.5241C19.7055 21.4439 21.568 20.3636 23.4306 19.2834C23.5955 19.1872 23.5742 19.2193 23.5742 19.0374C23.5742 19.0161 23.5742 18.9947 23.5742 18.9679C23.5742 18.0161 23.5742 17.0642 23.5742 16.1069C23.5742 16.1069 23.5742 16.1069 23.5795 16.1069C23.5795 15.139 23.5795 14.1658 23.5795 13.1979C23.5742 13.0802 23.5795 13.0268 23.5582 13Z" fill="#FCFDFC"/>
<path d="M23.5211 11.8342C23.5211 5.31016 18.2581 0 11.7871 0C5.31616 0 0.0478516 5.31016 0.0478516 11.8342H3.50684C3.50684 7.22463 7.22124 3.47593 11.7818 3.47593C16.3423 3.47593 20.0621 7.22463 20.0621 11.8342H23.5211Z" fill="#FCFDFC"/>
</svg>
