<svg width="184" height="40" viewBox="0 0 184 40" fill="none" xmlns="http://www.w3.org/2000/svg">
<mask id="mask0_1962_62568" style="mask-type:luminance" maskUnits="userSpaceOnUse" x="0" y="0" width="184" height="40">
<path d="M183.83 0H0V40H183.83V0Z" fill="white"/>
</mask>
<g mask="url(#mask0_1962_62568)">
<path d="M112.357 26.697C111.981 26.7217 111.604 26.7217 111.228 26.697C111.187 26.6641 111.138 26.6641 111.097 26.6641C110.957 26.6641 110.81 26.6558 110.671 26.6558C110.647 26.6558 110.622 26.6476 110.597 26.6476C110.499 26.5818 110.384 26.6147 110.278 26.6064C110.253 26.6064 110.229 26.5983 110.204 26.5983C110.139 26.5407 110.057 26.5653 109.984 26.5571C109.5 26.4913 109.025 26.3679 108.559 26.2198C105.513 25.2654 103.032 23.0195 101.788 20.0742C101.403 19.1692 101.15 18.2231 101.01 17.2523C100.494 13.4843 101.96 9.83147 104.694 7.47032C106.078 6.27739 107.666 5.48759 109.443 5.08447C109.5 5.06801 109.557 5.06801 109.615 5.05979C109.656 5.05979 109.705 5.07624 109.738 5.02688C109.779 5.01865 109.819 5.01865 109.86 5.01043C109.901 5.01043 109.95 5.02688 109.984 4.98574C110.041 4.97752 110.098 4.96929 110.156 4.96106C110.213 4.96106 110.278 4.98574 110.327 4.92816C111.179 4.80474 112.03 4.78006 112.89 4.87879C112.972 4.92816 113.062 4.9117 113.151 4.9117C113.512 4.92816 113.864 5.01042 114.207 5.09269C116.598 5.65214 118.596 6.87797 120.176 8.77019C121.298 10.1112 122.042 11.6579 122.427 13.3691C122.673 14.4469 122.747 15.5328 122.664 16.6353C122.533 18.3136 122.042 19.885 121.191 21.3412C121.134 21.4399 121.052 21.5221 121.036 21.6373C121.11 21.7114 121.183 21.7937 121.257 21.8677C121.83 22.4271 122.395 22.9865 122.967 23.546C123.033 23.6118 123.099 23.6694 123.148 23.7105C123.164 23.7846 123.132 23.8175 123.107 23.8422C122.198 24.7801 121.289 25.7098 120.373 26.6476C120.348 26.6723 120.323 26.6887 120.307 26.7052C120.225 26.7134 120.201 26.6558 120.16 26.6147C119.554 26.0224 118.948 25.4218 118.342 24.8294C118.301 24.7883 118.26 24.7471 118.219 24.706C118.186 24.6731 118.145 24.6731 118.113 24.6978C118.072 24.7307 118.031 24.7554 117.99 24.7801C116.779 25.6192 115.444 26.1869 114.003 26.4913C113.782 26.5407 113.553 26.5653 113.332 26.5983C113.225 26.6064 113.11 26.5736 113.013 26.6394C112.972 26.6394 112.939 26.6476 112.898 26.6476C112.775 26.6476 112.66 26.6476 112.538 26.6558C112.464 26.6558 112.407 26.6476 112.357 26.697ZM110.867 8.98406C110.778 8.99232 110.679 8.95938 110.597 9.02525C110.475 9.04993 110.36 9.07462 110.237 9.0993C106.594 9.97955 104.425 13.5419 105.104 17.0713C105.522 19.2104 106.946 21.045 108.887 21.9582C109.394 22.1967 109.926 22.3695 110.482 22.4929C110.516 22.5423 110.556 22.5259 110.597 22.5176C110.663 22.5259 110.728 22.5259 110.794 22.5341C111.563 22.6575 112.333 22.6328 113.103 22.4847C114.494 22.2133 115.682 21.5633 116.672 20.5431C118.276 18.8977 118.916 16.5777 118.465 14.3728C117.998 12.1104 116.394 10.2017 114.241 9.37079C113.569 9.10747 112.865 8.96764 112.153 8.91827C112.12 8.89359 112.079 8.88534 112.038 8.88534C111.875 8.88534 111.703 8.88534 111.539 8.88534C111.498 8.88534 111.457 8.89359 111.424 8.91827C111.384 8.91827 111.342 8.91827 111.301 8.92653C111.179 8.9347 111.047 8.90185 110.933 8.96764C110.916 8.98406 110.892 8.98406 110.867 8.98406Z" fill="#627470"/>
<path d="M98.8162 15.2119C98.8409 15.8782 98.8247 16.5364 98.7345 17.1946C98.5132 18.9141 97.9319 20.4936 96.9583 21.917C95.3124 24.3275 93.0613 25.8577 90.2205 26.4994C90.0077 26.5488 89.7864 26.5735 89.5737 26.6064C89.4834 26.6146 89.3856 26.5817 89.303 26.6475C89.0988 26.6722 88.9022 26.7133 88.6979 26.7051C88.1898 26.7051 87.6741 26.7051 87.1668 26.7051C87.126 26.7051 87.0843 26.6969 87.0434 26.6969C86.9294 26.6311 86.7983 26.6639 86.6749 26.6558C86.52 26.6639 86.3728 26.6146 86.2171 26.5981C86.1677 26.5488 86.1022 26.557 86.0366 26.5652C86.0043 26.557 85.9634 26.557 85.9302 26.5488C85.8809 26.4994 85.8154 26.5159 85.7583 26.5077C85.12 26.3924 84.514 26.195 83.9163 25.9646C80.5924 24.6401 78.1118 21.703 77.334 18.1983C77.0965 17.137 77.0311 16.0675 77.0802 14.9816C77.1621 13.4019 77.5633 11.9046 78.3165 10.5142C79.7819 7.82398 81.9842 6.04693 84.9315 5.19954C85.292 5.09259 85.6519 5.01032 86.029 4.96919C86.086 4.96919 86.1515 4.98564 86.2009 4.93628C86.5524 4.87046 86.9124 4.83755 87.2647 4.82932C87.7234 4.82109 88.1736 4.81287 88.6324 4.82932C90.1217 4.89514 91.5464 5.24891 92.8732 5.93175C95.6485 7.35503 97.5064 9.56811 98.4154 12.571C98.6205 13.2374 98.743 13.9202 98.8 14.6113C98.8162 14.7923 98.8494 14.965 98.8332 15.1461C98.7753 15.1625 98.7754 15.1872 98.8162 15.2119ZM86.9294 22.5422C87.0273 22.5998 87.1337 22.5751 87.24 22.5833C87.6988 22.5998 88.1575 22.5998 88.6154 22.5833C88.7217 22.5833 88.8281 22.5998 88.9183 22.5504C89.1805 22.501 89.4511 22.4599 89.7047 22.3941C91.4732 21.9334 92.8077 20.905 93.6749 19.276C94.1422 18.3958 94.3873 17.4496 94.4613 16.4624C94.5515 15.3106 94.4366 14.1753 94.0358 13.0893C93.4622 11.5261 92.4554 10.3497 90.9575 9.60921C90.4579 9.3624 89.9337 9.19789 89.3932 9.08275C89.3439 9.03338 89.2792 9.04981 89.2213 9.04981C89.0826 9.03338 88.943 9.0087 88.8119 8.99219C88.7796 8.95934 88.7464 8.95109 88.7056 8.95109C88.583 8.95109 88.4681 8.95109 88.3456 8.95109C87.903 8.95109 87.4528 8.93466 87.0111 9.00045C86.8885 9.01687 86.7737 9.03338 86.6511 9.04981C86.5856 9.04981 86.5277 9.03338 86.4707 9.08275C86.3728 9.10743 86.2826 9.12385 86.1839 9.14853C84.956 9.45296 83.9081 10.0617 83.0649 11.0079C82.238 11.9457 81.7549 13.0399 81.5339 14.2658C81.4029 14.9733 81.3702 15.689 81.4274 16.413C81.4848 17.1864 81.6404 17.935 81.9268 18.6508C82.6064 20.3291 83.769 21.5138 85.4554 22.172C85.9217 22.353 86.4298 22.4599 86.9294 22.5422Z" fill="#627470"/>
<path d="M68.1316 5.30655C68.41 5.31477 68.6801 5.36414 68.9503 5.42173C68.983 5.47109 69.0322 5.45464 69.0731 5.44641C69.4824 5.504 69.8836 5.61917 70.2766 5.75081C71.1771 6.04699 72.004 6.47479 72.7244 7.09182C73.8379 8.02971 74.5256 9.23082 74.8285 10.6459C74.9349 11.1395 74.9841 11.6496 74.9841 12.1515C74.9841 12.4065 75.0004 12.6615 74.9841 12.9084C74.8695 14.6607 74.149 16.1087 72.8309 17.2604C72.3724 17.6636 71.8566 17.968 71.2999 18.2148C71.2181 18.2478 71.128 18.2642 71.0543 18.3465C71.3164 18.7825 71.5783 19.2267 71.8484 19.6627C72.1105 20.1071 72.3806 20.5431 72.6426 20.9873C72.9046 21.4316 73.1747 21.8677 73.4367 22.3119C73.6987 22.7562 73.9689 23.1922 74.2309 23.6364C74.4929 24.0807 74.763 24.5168 75.025 24.961C75.287 25.397 75.549 25.8331 75.8109 26.2774C75.7209 26.3267 75.6554 26.3102 75.5981 26.3102C74.19 26.3102 72.7818 26.3102 71.3736 26.3102C71.1444 26.3102 71.1771 26.3432 71.0543 26.121C70.0801 24.4427 69.1058 22.7562 68.1316 21.0778C67.7878 20.4855 67.4439 19.8931 67.1 19.3008C67.0755 19.2597 67.0509 19.2185 67.0263 19.1774C67.0018 19.128 66.9609 19.1116 66.9036 19.1116C66.8627 19.1116 66.8217 19.1116 66.7808 19.1116C65.7983 19.1116 64.8077 19.1116 63.8253 19.1116C63.5633 19.1116 63.5797 19.0951 63.5797 19.3666C63.5797 21.5714 63.5797 23.7845 63.5797 25.9894C63.5797 26.3596 63.6288 26.3102 63.2522 26.3102C62.0487 26.3102 60.8452 26.3102 59.6336 26.3102C59.3961 26.3102 59.4125 26.3267 59.4125 26.0799C59.4125 25.249 59.4125 24.4098 59.4125 23.5788C59.4125 17.5731 59.4125 11.5591 59.4125 5.55336C59.4125 5.17492 59.3716 5.22428 59.7318 5.22428C62.0159 5.22428 64.3083 5.22428 66.5925 5.22428C66.9854 5.22428 67.3702 5.2325 67.7632 5.27364C67.8942 5.323 68.017 5.30655 68.1316 5.30655ZM68.0006 15.3353C68.1644 15.2942 68.3363 15.2695 68.5 15.2202C69.4742 14.9322 70.162 14.3234 70.5058 13.3444C70.7023 12.785 70.7351 12.209 70.6205 11.625C70.4076 10.5801 69.8263 9.83968 68.8357 9.42827C68.6228 9.3378 68.4017 9.28844 68.1807 9.23083C68.0988 9.16504 68.0088 9.18972 67.9188 9.18972C67.6485 9.16504 67.3866 9.14861 67.1165 9.14861C66.0358 9.14861 64.9551 9.14861 63.8662 9.14861C63.5633 9.14861 63.596 9.11568 63.596 9.4201C63.596 11.3123 63.596 13.2128 63.596 15.105C63.596 15.1626 63.596 15.2202 63.596 15.2777C63.596 15.3353 63.6206 15.3683 63.6779 15.3683C63.7188 15.3683 63.7598 15.3683 63.8007 15.3683C65.1024 15.3683 66.4041 15.3683 67.7059 15.36C67.8041 15.3683 67.9106 15.393 68.0006 15.3353Z" fill="#627470"/>
<path d="M168.749 22.2791C168.692 22.3284 168.676 22.4107 168.651 22.4765C168.193 23.6695 167.735 24.8706 167.267 26.0635C167.26 26.0964 167.243 26.1211 167.235 26.154C167.17 26.3103 167.17 26.3103 167.006 26.3103C166.285 26.3103 165.573 26.3103 164.853 26.3103C164.181 26.3103 163.518 26.3103 162.847 26.3103C162.798 26.3103 162.748 26.3103 162.7 26.302C162.683 26.2116 162.732 26.1458 162.765 26.0718C163.216 24.9611 163.673 23.8504 164.132 22.7398C166.089 17.9598 168.045 13.1799 170.002 8.39177C170.404 7.41275 170.804 6.4255 171.205 5.44648C171.214 5.43003 171.222 5.41357 171.222 5.39712C171.255 5.25725 171.336 5.20789 171.484 5.20789C172.663 5.21612 173.842 5.20789 175.029 5.20789C175.037 5.20789 175.045 5.20789 175.054 5.20789C175.185 5.18321 175.242 5.25725 175.283 5.3642C175.414 5.70975 175.561 6.04706 175.701 6.38437C177.379 10.4815 179.057 14.5703 180.727 18.6674C181.726 21.1108 182.724 23.5461 183.724 25.9895C183.756 26.0799 183.789 26.1705 183.821 26.2527C183.781 26.3103 183.724 26.2939 183.683 26.2939C182.299 26.2939 180.915 26.2939 179.532 26.2939C179.507 26.2939 179.483 26.2939 179.458 26.2939C179.384 26.3021 179.336 26.2692 179.311 26.1952C179.237 25.9977 179.164 25.8003 179.082 25.6028C178.673 24.5497 178.271 23.5049 177.861 22.4518C177.837 22.3861 177.829 22.3038 177.764 22.2626C177.673 22.1968 177.575 22.2297 177.477 22.2297C174.652 22.2297 171.836 22.2297 169.011 22.2297C168.946 22.2297 168.88 22.2297 168.815 22.2297C168.798 22.2461 168.774 22.2544 168.749 22.2791ZM170.215 18.5522C170.477 18.5769 176.158 18.5769 176.339 18.544C176.347 18.4617 176.298 18.3877 176.273 18.3136C175.856 17.2441 175.438 16.1663 175.029 15.0969C174.644 14.1014 174.243 13.1141 173.899 12.094C173.719 11.5592 173.539 11.0244 173.358 10.4979C173.342 10.4403 173.335 10.3745 173.261 10.3334C173.22 10.4321 173.187 10.5226 173.154 10.6131C172.917 11.3123 172.696 12.0281 172.433 12.7192C172.041 13.7805 171.623 14.8335 171.214 15.8948C170.902 16.7011 170.583 17.5073 170.28 18.3136C170.239 18.3959 170.182 18.4617 170.215 18.5522Z" fill="#627470"/>
<path d="M138.777 5.25721C138.826 5.21608 138.883 5.2243 138.94 5.2243C140.218 5.2243 141.495 5.2243 142.772 5.2243C142.813 5.2243 142.854 5.2243 142.895 5.23253C142.911 5.24076 142.927 5.26544 142.936 5.28189C142.944 5.30658 142.944 5.33126 142.944 5.35594C142.944 5.42998 142.944 5.50403 142.944 5.57807C142.944 9.35433 142.944 13.1305 142.944 16.9068C142.944 17.4662 142.936 18.0174 142.887 18.5686C142.764 19.778 142.502 20.9545 141.994 22.0651C141.069 24.0643 139.562 25.43 137.499 26.1622C137.082 26.3102 136.664 26.4337 136.23 26.5077C136.173 26.5077 136.108 26.4913 136.058 26.5406C135.633 26.6229 135.199 26.6805 134.765 26.697C134.208 26.697 133.652 26.697 133.095 26.697C133.054 26.697 133.013 26.6887 132.973 26.6887C132.939 26.664 132.907 26.6558 132.866 26.6558C132.751 26.6558 132.629 26.6476 132.514 26.6476C131.924 26.59 131.343 26.4748 130.77 26.3102C129.714 25.9977 128.739 25.5123 127.888 24.8047C126.971 24.0479 126.292 23.11 125.808 22.0322C125.448 21.2342 125.211 20.395 125.064 19.5312C124.933 18.7496 124.875 17.9598 124.875 17.1618C124.875 13.2704 124.875 9.37901 124.875 5.48757C124.875 5.42998 124.875 5.3724 124.875 5.31481C124.875 5.27366 124.9 5.24076 124.949 5.23253C124.998 5.23253 125.047 5.23253 125.096 5.23253C126.333 5.23253 127.569 5.23253 128.805 5.23253C128.846 5.23253 128.887 5.23253 128.927 5.23253C129.01 5.23253 129.035 5.25721 129.035 5.33126C129.035 5.4053 129.035 5.47934 129.035 5.55339C129.035 9.32139 129.035 13.0894 129.035 16.8574C129.035 17.4168 129.051 17.968 129.124 18.5193C129.207 19.1363 129.345 19.7369 129.591 20.3127C130.115 21.5386 131.024 22.3119 132.309 22.6328C132.996 22.8056 133.693 22.8467 134.396 22.8056C134.88 22.7726 135.346 22.6986 135.813 22.5505C136.877 22.205 137.647 21.5222 138.138 20.5184C138.408 19.959 138.564 19.3748 138.662 18.7661C138.761 18.1572 138.777 17.5485 138.777 16.9314C138.777 13.5254 138.777 10.1112 138.777 6.70518C138.777 6.30205 138.777 5.90715 138.777 5.50402C138.761 5.41353 138.744 5.33126 138.777 5.25721Z" fill="#627470"/>
<path d="M50.4481 5.30623C50.882 5.33091 51.2995 5.41318 51.7253 5.5119C52.4211 5.66822 53.0843 5.89858 53.7147 6.22766C55.4831 7.15732 56.5801 8.6053 56.9976 10.5633C57.1614 11.3449 57.2105 12.1347 57.1451 12.9327C57.0877 13.6814 56.9485 14.4054 56.6702 15.1047C56.1544 16.4292 55.2702 17.4494 54.0503 18.1734C53.289 18.6258 52.4621 18.9221 51.5942 19.1113C51.496 19.1277 51.406 19.1442 51.3078 19.1606C51.2422 19.1606 51.1767 19.1442 51.1276 19.1936C50.8575 19.2429 50.5873 19.284 50.3171 19.3005C50.137 19.3005 49.9569 19.3087 49.7686 19.3087C49.7113 19.3087 49.654 19.3004 49.6131 19.3416C49.4575 19.3498 49.3019 19.3581 49.1464 19.3581C48.1067 19.3581 47.0588 19.3581 46.019 19.3581C45.716 19.3581 45.7488 19.3251 45.7488 19.6378C45.7488 21.7521 45.7488 23.8747 45.7488 25.989C45.7488 26.0631 45.7488 26.1371 45.7488 26.2112C45.7488 26.3099 45.7325 26.3182 45.6342 26.3264C45.5769 26.3264 45.5196 26.3264 45.4622 26.3264C44.2669 26.3264 43.0717 26.3264 41.8682 26.3264C41.8191 26.3264 41.7699 26.3264 41.7208 26.3264C41.598 26.3264 41.5898 26.3182 41.5898 26.1783C41.5898 26.129 41.5898 26.0796 41.5898 26.0302C41.5898 19.1936 41.5898 12.3568 41.5898 5.52836C41.5898 5.19927 41.557 5.24042 41.8764 5.24042C44.226 5.24042 46.5839 5.24042 48.9336 5.24042C49.3183 5.24042 49.6949 5.24864 50.0797 5.28978C50.2025 5.32268 50.3253 5.30623 50.4481 5.30623ZM49.3183 9.14002C49.2856 9.14002 49.2528 9.14828 49.22 9.14828C48.1639 9.14828 47.1079 9.14828 46.0517 9.14828C45.9781 9.14828 45.9044 9.14828 45.8307 9.14828C45.7816 9.14828 45.757 9.18122 45.757 9.23058C45.757 9.27168 45.757 9.31279 45.757 9.35398C45.757 11.3202 45.757 13.2865 45.757 15.2528C45.757 15.3186 45.7488 15.3844 45.7816 15.442C45.8307 15.4831 45.8879 15.4667 45.9453 15.4667C46.2564 15.4667 46.5675 15.4667 46.8704 15.4667C47.6318 15.4667 48.4014 15.4667 49.1628 15.4667C49.2528 15.4667 49.3428 15.4913 49.4247 15.442C49.5148 15.4337 49.6131 15.4256 49.7031 15.4256C49.7768 15.4256 49.8505 15.4502 49.9159 15.3926C49.9405 15.3844 49.965 15.3844 49.9896 15.3762C50.4645 15.2939 50.9229 15.1622 51.3487 14.9319C52.0855 14.5288 52.5685 13.9199 52.765 13.089C52.8551 12.7023 52.8714 12.3157 52.8305 11.9208C52.7486 11.057 52.3802 10.3659 51.6679 9.86402C51.4469 9.70768 51.2095 9.58428 50.9557 9.48556C50.661 9.37041 50.3499 9.29636 50.0388 9.23058C49.9569 9.1647 49.8587 9.18939 49.7686 9.18939C49.7277 9.18939 49.6868 9.18122 49.654 9.18122C49.5558 9.11534 49.433 9.14002 49.3183 9.14002Z" fill="#627470"/>
<path d="M156.682 18.0666C156.673 18.1653 156.665 18.2641 156.665 18.3628C156.665 20.9132 156.665 23.4636 156.665 26.0139C156.665 26.3513 156.706 26.3101 156.371 26.3101C155.175 26.3101 153.98 26.3101 152.777 26.3101C152.711 26.3101 152.646 26.3101 152.58 26.3101C152.531 26.3101 152.506 26.2854 152.506 26.2361C152.506 26.1703 152.506 26.1045 152.506 26.0386C152.506 19.1937 152.506 12.357 152.506 5.51211C152.506 5.47098 152.506 5.42984 152.506 5.3887C152.506 5.23239 152.515 5.22416 152.678 5.22416C152.735 5.22416 152.793 5.22416 152.85 5.22416C158.09 5.22416 163.338 5.22416 168.577 5.22416C168.619 5.22416 168.66 5.22416 168.7 5.22416C168.922 5.22416 168.922 5.21594 168.831 5.43807C168.357 6.62276 167.882 7.79923 167.407 8.9839C167.398 9.01683 167.382 9.04151 167.374 9.07445C167.357 9.11556 167.325 9.14024 167.284 9.14024C167.21 9.14024 167.136 9.14024 167.063 9.14024C163.706 9.14024 160.357 9.14024 157.001 9.14024C156.625 9.14024 156.673 9.09088 156.673 9.46109C156.673 10.9831 156.673 12.5051 156.673 14.0189C156.673 14.315 156.641 14.2822 156.935 14.2822C159.588 14.2822 162.241 14.2822 164.901 14.2822C164.983 14.2822 165.065 14.2822 165.147 14.2904C165.188 14.2904 165.197 14.3233 165.188 14.3562C165.172 14.4056 165.155 14.4467 165.139 14.4961C164.672 15.6314 164.214 16.7667 163.747 17.8939C163.731 17.935 163.723 17.9926 163.673 18.0173C163.6 18.0173 163.526 18.009 163.453 18.009C161.283 18.009 159.113 18.009 156.944 18.009C156.887 18.009 156.829 18.009 156.772 18.009C156.731 18.0255 156.698 18.0419 156.682 18.0666Z" fill="#627470"/>
<path d="M149.731 15.7875C149.731 19.1935 149.731 22.6078 149.731 26.0138C149.731 26.3511 149.772 26.3099 149.428 26.3099C148.216 26.3099 147.005 26.3099 145.793 26.3099C145.556 26.3099 145.572 26.3264 145.572 26.0796C145.572 26.0384 145.572 25.9973 145.572 25.9562C145.572 19.1524 145.572 12.3568 145.572 5.55306C145.572 5.46256 145.572 5.37206 145.581 5.28156C145.581 5.24865 145.605 5.22397 145.646 5.21575C145.695 5.21575 145.744 5.20752 145.793 5.20752C147.038 5.20752 148.282 5.20752 149.526 5.20752C149.559 5.20752 149.592 5.20752 149.625 5.20752C149.723 5.21575 149.731 5.22397 149.74 5.32269C149.74 5.39674 149.74 5.47079 149.74 5.54483C149.731 8.97554 149.731 12.3815 149.731 15.7875Z" fill="#627470"/>
<path d="M43.5216 32.8671C43.9556 32.1184 44.3895 31.3861 44.8152 30.654C44.8398 30.621 44.8561 30.5882 44.8725 30.547C44.9135 30.4483 44.9871 30.4236 45.0854 30.4236C45.5192 30.4318 45.4538 30.3661 45.4538 30.7774C45.4538 31.9621 45.4538 33.1467 45.4538 34.3315C45.4538 34.3973 45.4538 34.4631 45.4538 34.5289C45.4538 34.6194 45.4292 34.6441 45.331 34.6358C44.8316 34.6277 44.9052 34.7181 44.9052 34.2409C44.9052 33.3854 44.9135 32.5215 44.9135 31.6659C44.9135 31.6083 44.9298 31.5507 44.897 31.5014C44.8397 31.4931 44.8316 31.5425 44.8152 31.5754C44.4632 32.1924 44.1111 32.8095 43.7591 33.4265C43.7345 33.4677 43.71 33.5088 43.6854 33.5499C43.6608 33.5992 43.6198 33.6157 43.5626 33.6157C43.5135 33.6157 43.4643 33.6157 43.4152 33.6157C43.366 33.6157 43.3415 33.5911 43.3169 33.5581C43.2842 33.5088 43.2597 33.4594 43.2351 33.41C42.9158 32.8506 42.5965 32.2912 42.2772 31.7318C42.2527 31.6824 42.2199 31.633 42.1872 31.5837C42.1708 31.5672 42.1544 31.5425 42.1299 31.559C42.1135 31.5754 42.1053 31.6001 42.0971 31.6165C42.0889 31.6495 42.0971 31.6824 42.0971 31.7152C42.1216 32.5873 42.1135 33.4677 42.1135 34.3397C42.1135 34.677 42.1462 34.6358 41.8106 34.6358C41.5731 34.6358 41.5649 34.6523 41.5649 34.3973C41.5649 33.1467 41.5649 31.8963 41.5649 30.6457C41.5649 30.5963 41.5649 30.547 41.5731 30.4976C41.5731 30.4483 41.6059 30.4236 41.655 30.4236C41.6714 30.4236 41.6878 30.4236 41.7041 30.4236C41.8269 30.4318 41.958 30.3907 42.0643 30.4483C42.1626 30.5059 42.1953 30.6293 42.2527 30.728C42.6538 31.4191 43.0713 32.102 43.4562 32.8012C43.4807 32.8259 43.4971 32.8424 43.5216 32.8671Z" fill="#2B7777"/>
<path d="M78.9468 32.5297C78.9468 31.9292 78.9468 31.3367 78.9468 30.7362C78.9468 30.6786 78.9468 30.621 78.9468 30.5635C78.9549 30.4401 78.9631 30.4236 79.0941 30.4236C79.7 30.4236 80.2976 30.4154 80.9035 30.4236C81.7958 30.4401 82.5818 31.0818 82.8192 31.9703C83.1384 33.155 82.4508 34.2739 81.3701 34.5618C81.2064 34.603 81.0344 34.6358 80.8624 34.6358C80.2812 34.6358 79.7081 34.6358 79.1269 34.6358C79.0941 34.6358 79.0613 34.6358 79.0286 34.6358C78.9795 34.6276 78.955 34.603 78.955 34.5536C78.955 34.4877 78.955 34.4219 78.955 34.3561C78.9468 33.7556 78.9468 33.1385 78.9468 32.5297ZM79.5116 32.5215C79.5116 32.9658 79.5116 33.4018 79.5116 33.846C79.5116 33.9119 79.5116 33.9777 79.5198 34.0435C79.5198 34.0764 79.5444 34.1011 79.5772 34.1093C79.6017 34.1175 79.6263 34.1175 79.6508 34.1175C80.0683 34.1175 80.4777 34.1258 80.8952 34.1175C81.1654 34.1093 81.4192 34.027 81.6484 33.8707C82.2052 33.5005 82.4508 32.867 82.2789 32.1266C82.1151 31.4355 81.4765 30.9584 80.797 30.9665C80.4286 30.9665 80.0683 30.9665 79.7 30.9665C79.659 30.9665 79.6181 30.9665 79.5772 30.9748C79.5362 30.9748 79.5198 30.9995 79.5198 31.0406C79.5198 31.0982 79.5116 31.1558 79.5116 31.2133C79.5116 31.6412 79.5116 32.0854 79.5116 32.5215Z" fill="#2B7777"/>
<path d="M119.579 33.542C119.579 33.8217 119.579 34.1014 119.579 34.3729C119.579 34.4305 119.579 34.4881 119.579 34.5457C119.579 34.6197 119.554 34.6362 119.473 34.6444C119.439 34.6444 119.407 34.6444 119.374 34.6444C119.063 34.6362 119.079 34.6937 119.079 34.3647C119.079 34.2988 119.104 34.2084 119.055 34.1754C118.981 34.1343 118.932 34.2248 118.875 34.266C118.064 34.9405 116.77 34.8583 116.01 33.9945C114.888 32.7357 115.51 30.827 117.057 30.4074C117.925 30.1689 118.85 30.5062 119.374 31.2302C119.407 31.2795 119.439 31.3206 119.473 31.3701C119.513 31.4441 119.513 31.4935 119.415 31.5099C119.301 31.5346 119.194 31.5675 119.088 31.5922C119.022 31.6086 118.964 31.6004 118.916 31.5346C118.883 31.4852 118.842 31.444 118.81 31.4029C118.269 30.8023 117.335 30.6954 116.673 31.1561C116.272 31.444 116.042 31.8308 116.01 32.3326C115.985 32.6699 116.01 33.0072 116.181 33.3116C116.467 33.8382 116.91 34.1343 117.516 34.1673C117.688 34.1754 117.86 34.1754 118.023 34.1426C118.4 34.0603 118.711 33.8628 118.957 33.5584C119.047 33.4433 119.095 33.3281 119.095 33.1799C119.088 32.8756 119.12 32.9003 118.817 32.9003C118.531 32.9003 118.244 32.9003 117.966 32.9003C117.844 32.9003 117.835 32.892 117.835 32.7769C117.835 32.382 117.778 32.4314 118.163 32.4314C118.547 32.4314 118.924 32.4314 119.308 32.4314C119.374 32.4314 119.439 32.4314 119.505 32.4314C119.546 32.4314 119.579 32.4642 119.579 32.5136C119.579 32.5712 119.579 32.6288 119.579 32.6863C119.579 32.9743 119.579 33.254 119.579 33.542Z" fill="#2B7777"/>
<path d="M176.92 31.4273C176.904 31.4931 176.911 31.5671 176.911 31.6329C176.911 32.5626 176.92 33.5005 176.92 34.4302C176.92 34.4549 176.92 34.4795 176.92 34.5042C176.911 34.6276 176.904 34.6358 176.773 34.6441C176.682 34.6441 176.592 34.6441 176.502 34.6441C176.379 34.6441 176.371 34.6276 176.363 34.496C176.363 34.3561 176.363 34.2162 176.363 34.0764C176.363 32.9328 176.363 31.7892 176.363 30.6457C176.363 30.4318 176.355 30.4235 176.576 30.4318C176.945 30.4401 176.838 30.3824 177.051 30.6704C177.73 31.5918 178.41 32.5132 179.089 33.4264C179.122 33.4758 179.163 33.5169 179.196 33.5581C179.204 33.5663 179.229 33.5663 179.236 33.5663C179.245 33.5581 179.261 33.5416 179.261 33.5334C179.27 33.4922 179.27 33.4511 179.27 33.41C179.261 32.5297 179.261 31.6412 179.254 30.7609C179.254 30.3824 179.212 30.4318 179.573 30.4318C179.826 30.4318 179.818 30.4235 179.818 30.6704C179.818 31.9209 179.818 33.1714 179.818 34.4219C179.818 34.4713 179.818 34.5207 179.818 34.57C179.818 34.6194 179.785 34.6441 179.745 34.6441C179.621 34.6441 179.499 34.6441 179.376 34.6441C179.335 34.6441 179.302 34.6194 179.277 34.5864C179.245 34.5371 179.213 34.496 179.171 34.4466C178.451 33.4675 177.714 32.4968 177.018 31.5013C176.994 31.4767 176.977 31.4273 176.92 31.4273Z" fill="#2B7777"/>
<path d="M77.3013 33.6324C77.3176 33.5501 77.3094 33.476 77.3094 33.402C77.3094 32.5052 77.3013 31.6003 77.3013 30.7035C77.3013 30.3991 77.2767 30.4238 77.5796 30.4238C77.8825 30.4238 77.8579 30.3909 77.8579 30.6953C77.8579 31.9211 77.8579 33.1469 77.8579 34.3728C77.8579 34.6607 77.8825 34.636 77.596 34.636C77.3176 34.636 77.375 34.669 77.2194 34.4468C76.5153 33.4925 75.8194 32.5382 75.1235 31.5838C75.099 31.5509 75.0744 31.518 75.0499 31.485C75.0334 31.4686 75.0171 31.4522 74.9925 31.4686C74.9843 31.4769 74.968 31.4933 74.968 31.5097C74.968 31.5591 74.968 31.6085 74.968 31.6578C74.968 32.5546 74.9761 33.4596 74.9761 34.3564C74.9761 34.4139 74.9761 34.4715 74.9761 34.5291C74.968 34.6113 74.9516 34.636 74.8779 34.636C74.7551 34.636 74.6323 34.636 74.5095 34.636C74.4521 34.636 74.4195 34.6032 74.4195 34.5456C74.4195 34.5045 74.4195 34.4633 74.4195 34.4222C74.4195 33.1634 74.4195 31.9046 74.4195 30.6459C74.4195 30.4156 74.4112 30.4156 74.6487 30.4238C74.6568 30.4238 74.6651 30.4238 74.6733 30.4238C74.968 30.432 74.9024 30.3827 75.0908 30.6377C75.7867 31.5838 76.4825 32.5299 77.1784 33.476C77.203 33.5254 77.2276 33.5912 77.3013 33.6324Z" fill="#2B7777"/>
<path d="M62.2041 33.6158C62.2614 33.5336 62.2451 33.4678 62.2451 33.402C62.2451 32.497 62.2368 31.592 62.2368 30.6788C62.2368 30.6212 62.2368 30.5637 62.2368 30.5061C62.2368 30.4567 62.2696 30.432 62.3105 30.432C62.4497 30.432 62.5889 30.432 62.7281 30.432C62.7608 30.432 62.7853 30.4567 62.7936 30.4896C62.8018 30.5307 62.8018 30.5718 62.8018 30.613C62.8018 31.8882 62.8018 33.1634 62.8018 34.4386C62.8018 34.4798 62.8018 34.5209 62.8018 34.562C62.8018 34.6113 62.769 34.636 62.7281 34.636C62.6053 34.636 62.4824 34.636 62.3596 34.636C62.3187 34.636 62.286 34.6113 62.2533 34.5785C62.2287 34.5538 62.2123 34.5291 62.1959 34.5044C61.5246 33.5912 60.8533 32.678 60.1819 31.7648C60.1001 31.6496 60.0264 31.518 59.92 31.411C59.8709 31.4769 59.8954 31.5344 59.8954 31.5838C59.8954 32.4888 59.8954 33.3937 59.9035 34.307C59.9035 34.3645 59.9035 34.4221 59.9035 34.4798C59.9035 34.636 59.8954 34.6443 59.7316 34.6443C59.6334 34.6443 59.5351 34.6443 59.4369 34.6443C59.3796 34.6443 59.3469 34.6032 59.3469 34.5538C59.3469 34.5044 59.3469 34.4551 59.3469 34.4057C59.3469 33.1634 59.3469 31.9211 59.3469 30.6788C59.3469 30.4073 59.3305 30.432 59.6007 30.432C59.6252 30.432 59.6498 30.432 59.6744 30.432C59.8135 30.4073 59.8954 30.4814 59.9773 30.5884C60.6732 31.5427 61.3773 32.497 62.0813 33.4431C62.1058 33.4924 62.1468 33.5418 62.2041 33.6158Z" fill="#2B7777"/>
<path d="M104.859 32.5297C104.859 31.9373 104.859 31.3533 104.859 30.7609C104.859 30.7116 104.859 30.6622 104.859 30.6128C104.859 30.4236 104.859 30.4236 105.047 30.4236C105.62 30.4236 106.185 30.4154 106.758 30.4236C107.863 30.4401 108.764 31.3533 108.788 32.4639C108.804 33.2619 108.485 33.8872 107.814 34.3232C107.503 34.5289 107.151 34.6276 106.775 34.6358C106.193 34.6441 105.62 34.6358 105.038 34.6358C105.015 34.6358 104.99 34.6358 104.965 34.6358C104.891 34.6276 104.859 34.6111 104.859 34.5371C104.859 34.4713 104.859 34.4055 104.859 34.3396C104.859 33.7391 104.859 33.1385 104.859 32.5297ZM105.415 32.5379C105.415 33.0233 105.415 33.5005 105.415 33.9859C105.415 34.0928 105.432 34.1093 105.547 34.1093C105.964 34.1093 106.373 34.1175 106.791 34.1093C107.044 34.1093 107.29 34.027 107.503 33.8954C108.084 33.5416 108.371 32.867 108.166 32.0773C107.986 31.3861 107.356 30.9584 106.734 30.9584C106.349 30.9584 105.972 30.9584 105.587 30.9584C105.563 30.9584 105.538 30.9584 105.513 30.9584C105.456 30.9584 105.423 30.983 105.423 31.0406C105.423 31.0982 105.423 31.1558 105.423 31.2133C105.415 31.6576 105.415 32.1019 105.415 32.5379Z" fill="#2B7777"/>
<path d="M67.2148 34.1506C67.133 34.1506 67.1166 34.1835 67.0838 34.2164C66.126 35.072 64.5868 34.817 63.8909 33.6734C63.0968 32.357 63.85 30.6376 65.381 30.3826C66.2651 30.2345 66.9775 30.5553 67.5177 31.2628C67.5505 31.304 67.5833 31.3615 67.6078 31.4109C67.6405 31.4768 67.6324 31.5015 67.5751 31.5179C67.526 31.5344 67.485 31.5508 67.4359 31.5591C67.3295 31.5755 67.2312 31.6413 67.1248 31.6166C67.0266 31.5919 66.9938 31.485 66.9283 31.4109C66.2488 30.687 65.0617 30.7281 64.4559 31.5015C63.9564 32.1349 63.981 33.3525 64.8324 33.912C65.0781 34.0765 65.34 34.167 65.6347 34.1753C65.8559 34.1835 66.0769 34.1835 66.2897 34.1176C66.6254 34.0107 66.9038 33.8215 67.1166 33.5418C67.1903 33.4512 67.223 33.3525 67.223 33.2291C67.2148 32.8672 67.2639 32.9083 66.9119 32.9083C66.6745 32.9083 66.4371 32.9083 66.2078 32.9083C66.1506 32.9083 66.0932 32.9083 66.0359 32.9C66.0032 32.9 65.9787 32.8753 65.9704 32.8342C65.9704 32.8178 65.9622 32.8013 65.9622 32.7849C65.9622 32.39 65.9131 32.4393 66.2897 32.4393C66.6663 32.4393 67.0347 32.4393 67.4113 32.4393C67.4768 32.4393 67.5423 32.4393 67.6078 32.4393C67.6651 32.4393 67.6979 32.464 67.7061 32.5216C67.7061 32.5463 67.7061 32.571 67.7061 32.5957C67.7061 33.2209 67.7061 33.8544 67.7061 34.4797C67.7061 34.5044 67.7061 34.529 67.7061 34.5537C67.7061 34.6113 67.6815 34.6442 67.616 34.6442C67.5095 34.6442 67.4032 34.6442 67.2967 34.6442C67.2394 34.6442 67.2148 34.6031 67.2148 34.5455C67.2148 34.4221 67.2148 34.2904 67.2148 34.1506Z" fill="#2B7777"/>
<path d="M129.608 32.5298C129.632 33.6817 128.658 34.7265 127.414 34.7183C126.259 34.71 125.244 33.7557 125.252 32.5217C125.252 31.3452 126.21 30.325 127.487 30.3415C128.748 30.3497 129.657 31.4028 129.608 32.5298ZM125.833 32.5052C125.833 32.6451 125.833 32.7849 125.866 32.9247C126.038 33.6981 126.758 34.3234 127.724 34.1424C128.732 33.9532 129.305 32.8754 128.928 31.9128C128.568 31.0161 127.495 30.613 126.652 31.0737C126.087 31.3864 125.826 31.8717 125.833 32.5052Z" fill="#2B7777"/>
<path d="M114.11 33.6571C114.11 33.5173 114.11 33.435 114.11 33.3445C114.11 32.4478 114.101 31.551 114.101 30.646C114.101 30.4157 114.093 30.4239 114.306 30.4239C114.699 30.4321 114.65 30.3663 114.65 30.753C114.65 31.9459 114.65 33.1388 114.65 34.3318C114.65 34.3976 114.65 34.4634 114.65 34.5292C114.65 34.6115 114.625 34.6361 114.551 34.6361C114.544 34.6361 114.535 34.6361 114.527 34.6361C114.167 34.6526 114.158 34.6526 113.945 34.3646C113.266 33.435 112.57 32.5218 111.907 31.584C111.875 31.5346 111.842 31.477 111.785 31.4359C111.727 31.4934 111.751 31.551 111.751 31.6086C111.751 32.53 111.751 33.4514 111.76 34.3811C111.76 34.6691 111.776 34.6444 111.498 34.6444C111.187 34.6444 111.211 34.6773 111.211 34.3565C111.211 33.1388 111.211 31.9212 111.211 30.7036C111.211 30.3992 111.187 30.4321 111.489 30.4321C111.735 30.4321 111.694 30.3992 111.85 30.6131C112.276 31.1891 112.701 31.7649 113.127 32.3408C113.43 32.7522 113.725 33.1553 114.019 33.5667C114.036 33.5831 114.06 33.5995 114.11 33.6571Z" fill="#2B7777"/>
<path d="M173.432 34.7181C172.237 34.7346 171.263 33.7144 171.263 32.5297C171.263 31.3697 172.212 30.3249 173.481 30.3331C174.685 30.3413 175.626 31.3039 175.618 32.5132C175.618 33.7885 174.586 34.7428 173.432 34.7181ZM173.432 34.1751C173.866 34.1916 174.242 34.0435 174.562 33.7474C175.225 33.1303 175.201 31.9949 174.595 31.3862C174.242 31.0324 173.809 30.8596 173.317 30.9007C172.532 30.9666 171.934 31.5672 171.852 32.357C171.721 33.517 172.622 34.208 173.432 34.1751Z" fill="#2B7777"/>
<path d="M134.683 32.5135C134.683 31.9048 134.683 31.3042 134.683 30.6953C134.683 30.6295 134.683 30.5638 134.683 30.4979C134.683 30.4485 134.716 30.4238 134.757 30.4238C135.265 30.4238 135.764 30.3992 136.271 30.4403C136.501 30.4568 136.722 30.5226 136.918 30.646C137.271 30.8517 137.475 31.1561 137.524 31.5674C137.549 31.7649 137.549 31.9623 137.492 32.1516C137.402 32.4724 137.205 32.7192 136.911 32.8755C136.861 32.9002 136.812 32.9249 136.755 32.9495C136.722 32.9661 136.714 32.9989 136.73 33.0318C136.755 33.0812 136.787 33.1306 136.82 33.1799C137.074 33.5912 137.32 34.0026 137.574 34.414C137.606 34.4633 137.631 34.5127 137.655 34.562C137.664 34.5867 137.655 34.6197 137.622 34.6197C137.459 34.6279 137.295 34.6279 137.131 34.6279C137.099 34.6279 137.074 34.6032 137.049 34.5786C137.017 34.5292 136.992 34.4798 136.959 34.4305C136.722 34.0356 136.477 33.6406 136.239 33.2293C136.165 33.1059 136.083 33.0648 135.944 33.0729C135.731 33.0812 135.518 33.0729 135.305 33.0812C135.224 33.0812 135.208 33.1059 135.208 33.1882C135.208 33.4267 135.208 33.6653 135.208 33.8957C135.208 34.1014 135.208 34.3071 135.208 34.5127C135.208 34.6114 135.191 34.6361 135.101 34.6361C134.978 34.6361 134.855 34.6361 134.733 34.6361C134.692 34.6361 134.675 34.6114 134.667 34.5703C134.659 34.5045 134.659 34.4386 134.659 34.3729C134.683 33.764 134.683 33.1388 134.683 32.5135ZM135.231 31.7566C135.231 31.987 135.231 32.2174 135.231 32.4395C135.231 32.5712 135.24 32.5876 135.363 32.5876C135.641 32.5876 135.911 32.5958 136.19 32.5958C136.255 32.5958 136.321 32.5876 136.378 32.5712C136.771 32.4559 137.025 32.0693 136.968 31.6661C136.918 31.2548 136.583 30.9504 136.174 30.9421C135.895 30.934 135.625 30.9504 135.346 30.9586C135.24 30.9586 135.224 30.9833 135.224 31.0985C135.224 31.3206 135.231 31.5345 135.231 31.7566Z" fill="#2B7777"/>
<path d="M85.2424 32.5217C85.2424 31.9211 85.2424 31.3288 85.2424 30.7282C85.2424 30.6624 85.2424 30.5966 85.2424 30.5307C85.2424 30.4485 85.2671 30.4238 85.3403 30.4238C85.3896 30.4238 85.439 30.4238 85.4884 30.4238C86.2654 30.4238 87.0518 30.4238 87.8296 30.4238C87.8705 30.4238 87.9113 30.4238 87.9522 30.4238C88.0339 30.432 88.0586 30.4485 88.0586 30.5226C88.0586 30.6377 88.0586 30.7529 88.0586 30.8681C88.0586 30.9256 88.0177 30.9503 87.9607 30.9586C87.8952 30.9586 87.8296 30.9586 87.7641 30.9586C87.2075 30.9586 86.6586 30.9586 86.102 30.9586C86.0364 30.9586 85.9709 30.9586 85.9054 30.9586C85.8237 30.9586 85.799 30.9832 85.799 31.0573C85.799 31.3946 85.799 31.7237 85.799 32.061C85.799 32.1186 85.8322 32.1515 85.8892 32.1515C85.9709 32.1515 86.0526 32.1515 86.1352 32.1515C86.5445 32.1515 86.9454 32.1515 87.3547 32.1515C87.4118 32.1515 87.4696 32.1515 87.5267 32.1515C87.5675 32.1515 87.6084 32.1762 87.6084 32.2255C87.6084 32.3489 87.6084 32.4723 87.6084 32.5957C87.6084 32.6287 87.576 32.6534 87.5428 32.6534C87.4773 32.6615 87.4118 32.6615 87.3462 32.6615C86.9207 32.6615 86.5028 32.6615 86.0773 32.6615C86.0118 32.6615 85.9462 32.6615 85.8807 32.6698C85.8322 32.6698 85.8075 32.6945 85.799 32.7438C85.799 32.7521 85.799 32.7603 85.799 32.7685C85.799 33.1881 85.799 33.5994 85.799 34.0191C85.799 34.0766 85.8322 34.1095 85.8892 34.1095C85.9547 34.1095 86.0203 34.1095 86.0858 34.1095C86.6671 34.1095 87.2398 34.1095 87.8211 34.1095C87.8867 34.1095 87.9522 34.1095 88.0177 34.1095C88.0671 34.1095 88.0994 34.1342 88.0994 34.1836C88.0994 34.307 88.0994 34.4304 88.0994 34.5538C88.0994 34.6114 88.0586 34.6361 88.0016 34.6361C87.9607 34.6361 87.9199 34.6361 87.879 34.6361C87.0764 34.6361 86.2654 34.6361 85.4637 34.6361C85.2339 34.6361 85.2339 34.6361 85.2339 34.4057C85.2509 33.7804 85.2424 33.1551 85.2424 32.5217Z" fill="#2B7777"/>
<path d="M46.5507 32.5216C46.5507 31.921 46.5507 31.3122 46.5507 30.7116C46.5507 30.6458 46.5507 30.5799 46.5507 30.5142C46.5507 30.4648 46.5752 30.4401 46.6244 30.4319C46.6735 30.4237 46.7226 30.4319 46.7718 30.4319C47.5577 30.4319 48.3518 30.4319 49.1378 30.4319C49.1787 30.4319 49.2197 30.4319 49.2606 30.4319C49.3588 30.4401 49.3671 30.4484 49.3752 30.5471C49.3752 30.654 49.3752 30.761 49.3752 30.8679C49.3752 30.9255 49.3425 30.9584 49.2852 30.9584C49.2197 30.9584 49.1541 30.9584 49.0887 30.9584C48.5156 30.9584 47.9507 30.9584 47.3776 30.9584C47.3121 30.9584 47.2466 30.9584 47.1811 30.9667C47.1402 30.9667 47.1238 30.9913 47.1238 31.0324C47.1238 31.0736 47.1156 31.1147 47.1156 31.1559C47.1156 31.4273 47.1156 31.6988 47.1156 31.9622C47.1156 32.1678 47.1156 32.1596 47.3203 32.1596C47.6887 32.1596 48.0489 32.1596 48.4174 32.1596C48.5565 32.1596 48.6957 32.1596 48.8349 32.1596C48.8922 32.1596 48.9249 32.1843 48.9249 32.2501C48.9249 32.3652 48.9249 32.4804 48.9249 32.5956C48.9249 32.6285 48.9003 32.6532 48.8594 32.6614C48.794 32.6696 48.7284 32.6696 48.663 32.6696C48.2372 32.6696 47.8197 32.6696 47.394 32.6696C47.3285 32.6696 47.263 32.6696 47.1975 32.6696C47.1402 32.6696 47.1156 32.7026 47.1074 32.7601C47.1074 32.7848 47.1074 32.8095 47.1074 32.8342C47.1074 33.2044 47.1074 33.5664 47.1074 33.9366C47.1074 33.9696 47.1074 34.0024 47.1074 34.0353C47.1074 34.0847 47.132 34.1094 47.1811 34.1176C47.2466 34.1176 47.3121 34.1176 47.3776 34.1176C47.9671 34.1176 48.5483 34.1176 49.1378 34.1176C49.2033 34.1176 49.2688 34.1176 49.3343 34.1258C49.3834 34.1258 49.408 34.1587 49.408 34.2081C49.3997 34.7428 49.498 34.6524 49.015 34.6524C48.2946 34.6606 47.5659 34.6524 46.8455 34.6524C46.5261 34.6524 46.5507 34.6853 46.5507 34.3726C46.5507 33.7474 46.5507 33.1386 46.5507 32.5216Z" fill="#2B7777"/>
<path d="M151.401 32.53C151.401 31.9294 151.401 31.337 151.401 30.7364C151.401 30.6788 151.401 30.6213 151.401 30.5637C151.401 30.4403 151.418 30.432 151.549 30.4238C151.597 30.4238 151.647 30.4238 151.696 30.4238C152.441 30.4238 153.194 30.4238 153.94 30.4238C153.988 30.4238 154.037 30.4238 154.087 30.4238C154.218 30.432 154.226 30.432 154.226 30.5637C154.226 30.6624 154.226 30.7611 154.226 30.8598C154.226 30.9174 154.193 30.9503 154.135 30.9503C154.071 30.9503 154.005 30.9503 153.94 30.9503C153.366 30.9503 152.801 30.9503 152.228 30.9503C152.163 30.9503 152.097 30.9503 152.032 30.9586C151.999 30.9586 151.974 30.9832 151.966 31.0162C151.966 31.0326 151.958 31.049 151.958 31.0655C151.958 31.3946 151.958 31.7155 151.958 32.0445C151.958 32.1268 151.982 32.1432 152.065 32.1432C152.212 32.1432 152.359 32.1432 152.506 32.1432C152.85 32.1432 153.194 32.1432 153.53 32.1432C153.792 32.1432 153.775 32.1351 153.775 32.3983C153.775 32.4559 153.775 32.5134 153.768 32.5711C153.768 32.604 153.743 32.6287 153.702 32.6369C153.637 32.6451 153.571 32.6451 153.506 32.6451C153.08 32.6451 152.662 32.6451 152.237 32.6451C152.179 32.6451 152.122 32.6451 152.065 32.6451C151.966 32.6451 151.95 32.6698 151.941 32.7603C151.941 32.8014 151.941 32.8426 151.941 32.8837C151.941 33.2128 151.941 33.5336 151.941 33.8627C151.941 33.9203 151.941 33.9779 151.95 34.0355C151.95 34.0684 151.974 34.0931 152.015 34.1013C152.081 34.1013 152.146 34.1095 152.212 34.1095C152.801 34.1095 153.382 34.1095 153.972 34.1095C154.037 34.1095 154.103 34.1095 154.169 34.1095C154.226 34.1095 154.259 34.1506 154.259 34.2083C154.259 34.3234 154.259 34.4386 154.259 34.5538C154.259 34.6114 154.226 34.6443 154.169 34.6443C154.119 34.6443 154.071 34.6443 154.021 34.6443C153.235 34.6443 152.441 34.6443 151.655 34.6443C151.597 34.6443 151.54 34.6443 151.483 34.6443C151.434 34.6443 151.409 34.6114 151.409 34.562C151.409 34.4962 151.409 34.4304 151.409 34.3646C151.401 33.7557 151.401 33.1387 151.401 32.53Z" fill="#2B7777"/>
<path d="M101.076 32.5134C101.076 31.9047 101.076 31.3041 101.076 30.6953C101.076 30.6294 101.076 30.5637 101.076 30.4979C101.076 30.4485 101.109 30.4238 101.158 30.4238C101.207 30.4238 101.256 30.4238 101.305 30.4238C102.091 30.4238 102.885 30.4238 103.671 30.4238C103.721 30.4238 103.769 30.4238 103.819 30.4238C103.868 30.4238 103.893 30.4485 103.9 30.4979C103.9 30.506 103.9 30.5143 103.9 30.5226C103.893 31.0243 103.982 30.9421 103.507 30.9503C102.975 30.9586 102.452 30.9503 101.919 30.9503C101.854 30.9503 101.788 30.9503 101.722 30.9503C101.674 30.9503 101.649 30.975 101.641 31.0243C101.641 31.0409 101.641 31.0573 101.641 31.0737C101.641 31.3946 101.641 31.7072 101.641 32.0281C101.641 32.1268 101.657 32.1432 101.756 32.1432C102.124 32.1432 102.484 32.1432 102.853 32.1432C103 32.1432 103.147 32.1432 103.294 32.1432C103.442 32.1432 103.459 32.1515 103.45 32.2913C103.45 32.6945 103.507 32.6451 103.106 32.6451C102.697 32.6451 102.296 32.6451 101.887 32.6451C101.829 32.6451 101.772 32.6451 101.715 32.6451C101.665 32.6451 101.641 32.6698 101.633 32.7192C101.633 32.7356 101.633 32.7521 101.633 32.7685C101.633 33.1717 101.633 33.5666 101.633 33.9697C101.633 34.0849 101.649 34.0931 101.763 34.0931C102.394 34.0931 103.016 34.0931 103.647 34.0931C103.712 34.0931 103.778 34.0931 103.843 34.0931C103.917 34.0931 103.934 34.1178 103.941 34.2C103.941 34.2083 103.941 34.2165 103.941 34.2247C103.934 34.6936 104.007 34.6196 103.565 34.6196C102.812 34.6196 102.05 34.6196 101.297 34.6196C101.084 34.6196 101.084 34.6196 101.084 34.4057C101.076 33.7887 101.076 33.1552 101.076 32.5134Z" fill="#2B7777"/>
<path d="M158.737 31.5015C158.598 31.5344 158.442 31.5756 158.295 31.6167C158.245 31.6331 158.197 31.6167 158.164 31.5673C158.147 31.5426 158.123 31.5179 158.106 31.4933C157.681 30.9996 157.148 30.7939 156.51 30.942C155.879 31.0901 155.462 31.4933 155.298 32.1185C155.053 33.04 155.634 34.0025 156.625 34.1506C157.263 34.2493 157.795 34.019 158.172 33.4842C158.278 33.3361 158.262 33.2868 158.483 33.369C158.548 33.3937 158.622 33.4102 158.696 33.4266C158.819 33.4596 158.827 33.4842 158.761 33.5911C158.352 34.2823 157.763 34.6772 156.96 34.71C156.068 34.743 155.381 34.3563 154.947 33.5747C154.414 32.6204 154.684 31.4192 155.56 30.7693C156.437 30.1194 157.656 30.2099 158.417 30.9832C158.532 31.0984 158.631 31.23 158.72 31.3699C158.729 31.4028 158.753 31.4439 158.737 31.5015Z" fill="#2B7777"/>
<path d="M69.7447 34.6443C69.7201 34.5374 69.7774 34.4716 69.8102 34.3975C70.2851 33.2869 70.7681 32.1845 71.2429 31.0738C71.3166 30.8928 71.3984 30.7118 71.4721 30.5308C71.5049 30.4568 71.554 30.4156 71.6441 30.4239C71.7424 30.4321 71.8406 30.4239 71.9388 30.4239C71.9961 30.4239 72.0289 30.4486 72.0534 30.4979C72.1025 30.6131 72.1516 30.7201 72.2008 30.8352C72.7084 32.0199 73.2241 33.2046 73.7317 34.3811C73.7563 34.4387 73.7809 34.5045 73.8054 34.5621C73.8136 34.595 73.7972 34.6279 73.7563 34.6279C73.6089 34.6279 73.4616 34.6279 73.3142 34.6279C73.2732 34.6279 73.2323 34.6115 73.216 34.5703C73.1832 34.5045 73.1587 34.4387 73.1259 34.3728C73.0276 34.1425 72.9213 33.9122 72.8312 33.6736C72.7984 33.583 72.7412 33.5501 72.651 33.5501C72.34 33.5501 72.0288 33.5501 71.7259 33.5501C71.4558 33.5501 71.1856 33.5584 70.9236 33.5501C70.809 33.5501 70.7435 33.583 70.7026 33.69C70.6043 33.9368 70.4979 34.1836 70.3915 34.4387C70.3751 34.4798 70.3587 34.5292 70.3342 34.5703C70.3178 34.6115 70.2851 34.6362 70.2359 34.6362C70.064 34.6443 69.9002 34.6443 69.7447 34.6443ZM71.7669 31.1807C71.7424 31.2301 71.7178 31.2548 71.7096 31.2877C71.5212 31.7484 71.3248 32.2009 71.1365 32.6616C71.0955 32.7522 71.0628 32.8426 71.0218 32.9331C70.9973 33.0071 71.0137 33.0401 71.0955 33.0401C71.5458 33.0401 71.988 33.0401 72.4382 33.0401C72.5201 33.0401 72.5365 33.0071 72.5119 32.9331C72.5037 32.9084 72.4955 32.892 72.4874 32.8673C72.2499 32.3161 72.0125 31.7649 71.7669 31.1807Z" fill="#2B7777"/>
<path d="M182.16 34.7181C181.398 34.7593 180.833 34.2574 180.653 33.7227C180.539 33.3936 180.539 33.4511 180.833 33.3689C180.907 33.3442 180.989 33.2949 181.07 33.3196C181.161 33.3524 181.144 33.4594 181.169 33.5334C181.316 33.9283 181.676 34.1916 182.102 34.2081C182.201 34.2081 182.298 34.2163 182.397 34.2163C182.773 34.1998 183.101 33.9119 183.15 33.5417C183.175 33.3689 183.11 33.2208 182.995 33.0974C182.913 33.0069 182.807 32.9411 182.692 32.8917C182.511 32.8094 182.323 32.7519 182.143 32.6943C181.939 32.6285 181.742 32.5709 181.538 32.5051C181.382 32.4557 181.235 32.3817 181.104 32.283C180.678 31.9868 180.563 31.452 180.825 30.9995C180.891 30.8926 180.964 30.802 181.054 30.7198C181.513 30.3084 182.479 30.1768 183.06 30.6046C183.314 30.7856 183.494 31.016 183.601 31.3122C183.617 31.3533 183.625 31.3862 183.633 31.4273C183.649 31.4849 183.625 31.526 183.576 31.5425C183.453 31.5754 183.322 31.6083 183.199 31.6412C183.158 31.6494 183.133 31.6248 183.126 31.6001C183.11 31.559 183.101 31.5096 183.076 31.4602C182.921 31.0982 182.642 30.9008 182.258 30.8514C182.167 30.8432 182.077 30.8432 181.988 30.8432C181.652 30.8432 181.373 31.0488 181.267 31.3697C181.218 31.526 181.251 31.6577 181.349 31.7811C181.414 31.8634 181.504 31.9209 181.603 31.9703C181.767 32.0526 181.947 32.1102 182.127 32.1677C182.339 32.2336 182.544 32.2994 182.757 32.3652C182.938 32.4228 183.101 32.5133 183.257 32.6202C183.911 33.0892 183.805 33.8872 183.404 34.2904C183.142 34.5536 182.823 34.677 182.47 34.7181C182.373 34.7181 182.266 34.7181 182.16 34.7181Z" fill="#2B7777"/>
<path d="M94.6816 34.7182C93.6995 34.7346 92.6765 34.0025 92.5292 32.7931C92.3812 31.5755 93.2169 30.5636 94.3054 30.3825C95.165 30.2345 95.8773 30.5306 96.4254 31.2053C96.4748 31.2711 96.5156 31.3369 96.565 31.411C96.5973 31.4685 96.5812 31.5014 96.5156 31.5179C96.4016 31.5508 96.2782 31.5837 96.1641 31.6084C96.0901 31.6248 96.0407 31.6084 95.9922 31.5425C95.9675 31.5097 95.9429 31.4768 95.9182 31.4438C95.5003 30.9831 94.9846 30.7939 94.3795 30.9255C93.7735 31.0572 93.3556 31.4274 93.1675 32.0197C92.8561 32.9987 93.462 33.9778 94.4527 34.1423C95.0833 34.2493 95.6076 34.0271 95.9999 33.5088C96.0246 33.4759 96.0493 33.4431 96.0654 33.4101C96.131 33.3114 96.1395 33.3114 96.2458 33.3361C96.3607 33.369 96.4833 33.4019 96.5973 33.4348C96.6305 33.4431 96.6467 33.4759 96.6305 33.5171C96.6058 33.5746 96.5735 33.6322 96.5403 33.6899C96.2127 34.241 95.542 34.7429 94.6816 34.7182Z" fill="#2B7777"/>
<path d="M166.211 34.644C166.056 34.644 165.916 34.644 165.778 34.644C165.687 34.644 165.63 34.6193 165.589 34.5289C165.515 34.3396 165.434 34.1504 165.351 33.9611C165.31 33.8542 165.262 33.7555 165.212 33.6485C165.188 33.5828 165.147 33.5662 165.081 33.5662C164.942 33.5662 164.803 33.5662 164.664 33.5662C164.213 33.5662 163.772 33.5745 163.321 33.5662C163.198 33.5662 163.132 33.6074 163.084 33.7226C162.978 33.9859 162.863 34.2491 162.756 34.5124C162.715 34.6029 162.666 34.6605 162.56 34.6523C162.445 34.644 162.331 34.6523 162.216 34.6523C162.134 34.6523 162.118 34.6193 162.15 34.537C162.184 34.463 162.216 34.389 162.249 34.3149C162.781 33.0973 163.304 31.8715 163.837 30.6539C163.935 30.4235 163.894 30.44 164.156 30.44C164.467 30.44 164.402 30.3988 164.525 30.6868C165.065 31.9373 165.606 33.1879 166.146 34.4383C166.178 34.4877 166.211 34.5453 166.211 34.644ZM164.926 33.0315C164.959 32.9328 164.901 32.867 164.869 32.793C164.664 32.2911 164.451 31.781 164.238 31.2792C164.222 31.2462 164.222 31.2051 164.172 31.2051C163.935 31.7563 163.706 32.3075 163.469 32.8505C163.452 32.8917 163.435 32.9245 163.428 32.9657C163.419 32.9986 163.428 33.0315 163.469 33.0398C163.501 33.0479 163.534 33.0479 163.567 33.0479C163.984 33.0479 164.394 33.0479 164.812 33.0479C164.844 33.0479 164.885 33.0398 164.926 33.0315Z" fill="#2B7777"/>
<path d="M50.3418 32.5378C50.3418 31.9372 50.3418 31.3285 50.3418 30.7279C50.3418 30.6621 50.3418 30.5962 50.3418 30.5304C50.3418 30.4728 50.3663 30.4399 50.4237 30.4399C50.4646 30.4399 50.5055 30.4399 50.5465 30.4399C51.3488 30.4399 52.1592 30.4399 52.9616 30.4399C53.0026 30.4399 53.0435 30.4399 53.0844 30.4399C53.1171 30.4399 53.1417 30.4646 53.1499 30.4975C53.1581 30.5222 53.158 30.5468 53.158 30.5715C53.1499 31.0405 53.2236 30.9582 52.7815 30.9664C52.2329 30.9747 51.6926 30.9664 51.1441 30.9664C51.0786 30.9664 51.0131 30.9664 50.9476 30.9747C50.9148 30.9747 50.8903 30.9993 50.8903 31.0405C50.8903 31.0487 50.8903 31.057 50.8903 31.0651C50.8903 31.4025 50.8903 31.7315 50.8903 32.0689C50.8903 32.1264 50.9148 32.1593 50.9803 32.1593C51.0459 32.1593 51.1113 32.1593 51.1769 32.1593C51.6026 32.1593 52.0201 32.1593 52.4458 32.1593C52.5113 32.1593 52.5768 32.1593 52.6423 32.1676C52.6751 32.1676 52.6996 32.1923 52.7078 32.2334C52.716 32.3074 52.716 32.3815 52.716 32.4555C52.716 32.6776 52.7242 32.6695 52.5032 32.6695C52.0692 32.6695 51.6435 32.6695 51.2095 32.6695C51.1523 32.6695 51.095 32.6695 51.0376 32.6695C50.9148 32.6776 50.8985 32.6859 50.8985 32.8176C50.8985 33.2125 50.8985 33.5991 50.8985 33.994C50.8985 34.1091 50.9148 34.1256 51.0213 34.1256C51.3979 34.1256 51.7663 34.1256 52.1429 34.1256C52.454 34.1256 52.7651 34.1256 53.068 34.1256C53.1745 34.1256 53.1908 34.1421 53.1908 34.2325C53.1826 34.7344 53.2727 34.6522 52.7979 34.6522C52.0774 34.6604 51.3488 34.6522 50.6283 34.6522C50.5628 34.6522 50.4973 34.6522 50.4318 34.6522C50.3827 34.6522 50.3581 34.6275 50.35 34.5782C50.3418 34.5123 50.3418 34.4465 50.3418 34.3807C50.3418 33.7554 50.3418 33.1466 50.3418 32.5378Z" fill="#2B7777"/>
<path d="M97.302 32.5218C97.302 31.913 97.302 31.3125 97.302 30.7036C97.302 30.6378 97.302 30.572 97.302 30.5062C97.302 30.4568 97.3266 30.4321 97.3752 30.4321C97.4245 30.4321 97.4739 30.4321 97.5224 30.4321C98.3088 30.4321 99.1028 30.4321 99.8892 30.4321C99.9377 30.4321 99.9871 30.4321 100.036 30.4321C100.085 30.4321 100.118 30.4568 100.118 30.5062C100.118 30.6296 100.118 30.753 100.118 30.8764C100.118 30.9175 100.093 30.9504 100.044 30.9587C99.9786 30.9587 99.913 30.9669 99.8475 30.9669C99.2501 30.9669 98.6611 30.9669 98.0628 30.9669C97.8501 30.9669 97.8501 30.9669 97.8424 31.1808C97.8424 31.4606 97.8424 31.7402 97.8424 32.0117C97.8424 32.1516 97.8501 32.1598 97.9973 32.1598C98.4645 32.1598 98.9224 32.1598 99.3896 32.1598C99.6679 32.1598 99.6594 32.1351 99.6594 32.4231C99.6594 32.4313 99.6594 32.4395 99.6594 32.4478C99.6594 32.6699 99.6594 32.6617 99.4466 32.6617C99.0049 32.6617 98.5709 32.6617 98.1284 32.6617C98.0628 32.6617 97.9973 32.6617 97.9318 32.6617C97.8747 32.6617 97.8424 32.7028 97.8424 32.7604C97.8424 33.18 97.8424 33.5914 97.8424 34.0109C97.8424 34.0932 97.8662 34.1097 97.9488 34.1097C98.0143 34.1097 98.0798 34.1097 98.1454 34.1097C98.7266 34.1097 99.2994 34.1097 99.8807 34.1097C99.9462 34.1097 100.012 34.1097 100.077 34.1178C100.11 34.1178 100.134 34.1425 100.143 34.1754C100.143 34.2084 100.15 34.2412 100.15 34.2742C100.143 34.702 100.208 34.6361 99.7905 34.6444C99.0535 34.6444 98.3249 34.6444 97.5879 34.6444C97.5224 34.6444 97.4569 34.6444 97.3922 34.6444C97.3343 34.6444 97.302 34.6197 97.2935 34.5539C97.2935 34.488 97.2935 34.4223 97.2935 34.3565C97.302 33.7476 97.302 33.1306 97.302 32.5218Z" fill="#2B7777"/>
<path d="M140.054 32.5218C140.054 31.913 140.054 31.3125 140.054 30.7036C140.054 30.6378 140.054 30.572 140.054 30.5062C140.054 30.4568 140.078 30.4321 140.128 30.4321C140.177 30.4321 140.226 30.4321 140.275 30.4321C141.061 30.4321 141.855 30.4321 142.641 30.4321C142.69 30.4321 142.74 30.4321 142.789 30.4321C142.837 30.4321 142.862 30.4651 142.862 30.5144C142.862 30.5309 142.862 30.5473 142.862 30.5638C142.854 31.0327 142.928 30.9587 142.486 30.9587C141.953 30.9669 141.43 30.9587 140.897 30.9587C140.831 30.9587 140.766 30.9587 140.701 30.9587C140.611 30.9669 140.586 30.9834 140.586 31.0821C140.586 31.4029 140.586 31.7238 140.586 32.0364C140.586 32.1351 140.602 32.1516 140.701 32.1516C141.127 32.1516 141.544 32.1516 141.97 32.1516C142.084 32.1516 142.199 32.1516 142.314 32.1516C142.371 32.1516 142.403 32.1845 142.403 32.2421C142.403 32.3491 142.403 32.456 142.403 32.5629C142.403 32.6206 142.362 32.6452 142.314 32.6534C142.248 32.6534 142.183 32.6534 142.117 32.6534C141.7 32.6534 141.29 32.6534 140.873 32.6534C140.824 32.6534 140.774 32.6534 140.725 32.6534C140.602 32.6617 140.594 32.6699 140.594 32.8015C140.594 33.1965 140.594 33.5831 140.594 33.978C140.594 34.085 140.611 34.1014 140.725 34.1014C141.274 34.1014 141.814 34.1014 142.362 34.1014C142.51 34.1014 142.658 34.1014 142.805 34.1014C142.862 34.1014 142.895 34.1343 142.895 34.1919C142.895 34.2166 142.895 34.2412 142.895 34.2659C142.887 34.6937 142.952 34.628 142.543 34.6361C141.806 34.6361 141.077 34.6361 140.34 34.6361C140.275 34.6361 140.209 34.6361 140.144 34.6361C140.087 34.6361 140.054 34.6114 140.046 34.5457C140.046 34.4799 140.046 34.414 140.046 34.3482C140.054 33.7476 140.054 33.1306 140.054 32.5218Z" fill="#2B7777"/>
<path d="M143.509 30.4399C143.656 30.4235 143.787 30.4318 143.927 30.4318C143.984 30.4318 144.041 30.4318 144.098 30.4318C144.155 30.4318 144.18 30.4811 144.213 30.5222C144.401 30.7773 144.59 31.0324 144.778 31.2956C144.925 31.5013 145.072 31.7069 145.212 31.9126C145.285 32.0113 145.302 32.0196 145.367 31.9209C145.67 31.4519 146.022 31.0241 146.333 30.5716C146.399 30.4729 146.472 30.4235 146.595 30.4318C146.75 30.44 146.906 30.4318 147.053 30.4318C147.078 30.5222 147.012 30.5633 146.98 30.6128C146.578 31.1639 146.169 31.7152 145.768 32.2746C145.613 32.4885 145.613 32.4309 145.768 32.6449C146.194 33.229 146.62 33.8049 147.046 34.3807C147.094 34.4466 147.144 34.5124 147.184 34.5781C147.201 34.6111 147.184 34.644 147.144 34.644C146.98 34.644 146.816 34.644 146.653 34.644C146.595 34.644 146.555 34.6193 146.53 34.5864C146.497 34.5453 146.456 34.4959 146.424 34.4466C146.063 33.9611 145.687 33.4922 145.35 32.9904C145.31 32.9328 145.277 32.9328 145.244 32.9904C144.909 33.4922 144.532 33.9611 144.172 34.4466C144.139 34.4877 144.115 34.5288 144.081 34.5617C144.049 34.6111 144 34.6358 143.943 34.6358C143.778 34.6358 143.615 34.6358 143.452 34.6358C143.418 34.6358 143.394 34.5947 143.411 34.57C143.443 34.5124 143.484 34.463 143.525 34.4054C143.943 33.8295 144.368 33.2619 144.786 32.686C144.802 32.6695 144.818 32.6449 144.827 32.6284C144.958 32.4392 144.983 32.4803 144.835 32.2746C144.434 31.7316 144.033 31.1804 143.64 30.6292C143.583 30.5798 143.525 30.5305 143.509 30.4399Z" fill="#2B7777"/>
<path d="M90.4903 31.9952C90.6299 31.7978 90.7686 31.5921 90.9159 31.3946C91.1295 31.1067 91.3423 30.8187 91.555 30.5225C91.6044 30.4485 91.6691 30.4155 91.7593 30.4155C91.9065 30.4238 92.0546 30.4155 92.2018 30.4155C92.2674 30.4155 92.2835 30.4485 92.2427 30.5143C92.0052 30.8434 91.7593 31.1725 91.5218 31.5016C91.3252 31.7731 91.1295 32.0363 90.9329 32.3078C90.8342 32.4395 90.8342 32.4395 90.9406 32.5793C91.3831 33.1799 91.8248 33.7722 92.2589 34.3728C92.3082 34.4386 92.4223 34.5044 92.3737 34.5949C92.3329 34.6607 92.2265 34.6196 92.144 34.6196C92.0214 34.6196 91.8988 34.6114 91.7763 34.6114C91.7023 34.5126 91.6206 34.4222 91.5465 34.3235C91.2027 33.8627 90.8427 33.4103 90.5235 32.9248C90.458 32.9166 90.4418 32.9742 90.4171 33.0071C90.0733 33.5172 89.6716 34.0026 89.3116 34.5044C89.2546 34.5867 89.1891 34.6279 89.0903 34.6196C88.9354 34.6114 88.7712 34.6196 88.6078 34.6114C88.5993 34.5209 88.6563 34.4797 88.698 34.4304C89.1397 33.8216 89.5814 33.221 90.0325 32.6122C90.1874 32.3983 90.1797 32.4476 90.0325 32.242C89.664 31.7237 89.2869 31.2136 88.9108 30.6953C88.8699 30.6377 88.8206 30.5801 88.7797 30.5143C88.7627 30.4896 88.7389 30.4649 88.7465 30.4238C88.7627 30.3827 88.7959 30.3909 88.8282 30.3909C88.9593 30.3909 89.0903 30.3909 89.2214 30.3909C89.3201 30.3827 89.3857 30.4155 89.4512 30.4978C89.7618 30.9257 90.0733 31.3617 90.384 31.7895C90.3925 31.88 90.4248 31.954 90.4903 31.9952Z" fill="#2B7777"/>
<path d="M133.758 31.8472C133.758 32.2174 133.758 32.5794 133.758 32.9496C133.758 33.1718 133.734 33.3857 133.668 33.5995C133.496 34.1754 133.128 34.5374 132.539 34.6691C132.17 34.7514 131.793 34.7431 131.426 34.6444C130.934 34.5127 130.598 34.2001 130.426 33.7229C130.336 33.4761 130.295 33.2129 130.295 32.9496C130.287 32.1598 130.295 31.3618 130.295 30.572C130.295 30.5473 130.295 30.5226 130.295 30.4979C130.295 30.4651 130.32 30.4321 130.352 30.4321C130.5 30.4321 130.648 30.4321 130.795 30.4321C130.827 30.4321 130.852 30.4651 130.852 30.4979C130.852 30.5638 130.86 30.6296 130.86 30.6954C130.86 31.4112 130.86 32.1351 130.86 32.8509C130.86 33.0401 130.868 33.2293 130.917 33.4103C131.032 33.8299 131.294 34.085 131.72 34.1672C131.949 34.2084 132.17 34.2084 132.399 34.159C132.751 34.0767 132.989 33.8629 133.111 33.5173C133.186 33.3034 133.21 33.0895 133.21 32.8674C133.21 32.1598 133.21 31.444 133.21 30.7366C133.21 30.6707 133.21 30.6049 133.21 30.5391C133.21 30.4486 133.226 30.4321 133.333 30.4321C133.439 30.4321 133.546 30.4321 133.652 30.4321C133.751 30.4321 133.758 30.4486 133.758 30.5555C133.758 30.9834 133.758 31.4194 133.758 31.8472Z" fill="#2B7777"/>
<path d="M147.84 32.5136C147.84 31.913 147.84 31.3042 147.84 30.7036C147.84 30.6378 147.84 30.572 147.84 30.5062C147.84 30.4568 147.872 30.4321 147.914 30.4321C147.93 30.4321 147.946 30.4321 147.963 30.4321C148.421 30.4321 148.872 30.4321 149.33 30.4404C149.575 30.4486 149.813 30.5062 150.034 30.6213C150.369 30.7941 150.575 31.0574 150.665 31.4194C150.706 31.5921 150.722 31.7731 150.697 31.9542C150.64 32.4478 150.386 32.8015 149.919 32.9989C149.699 33.0895 149.469 33.1389 149.232 33.1389C148.994 33.1389 148.757 33.1389 148.528 33.1389C148.421 33.1389 148.397 33.1553 148.397 33.2705C148.397 33.6489 148.397 34.0191 148.397 34.3976C148.397 34.6691 148.405 34.6526 148.143 34.6526C148.069 34.6526 147.996 34.6526 147.922 34.6526C147.865 34.6526 147.832 34.6114 147.832 34.5621C147.832 34.4963 147.832 34.4305 147.832 34.3646C147.84 33.7394 147.84 33.1306 147.84 32.5136ZM148.912 30.9669V30.9587C148.781 30.9587 148.65 30.9587 148.519 30.9587C148.413 30.9587 148.397 30.9751 148.397 31.0903C148.397 31.4934 148.397 31.8883 148.397 32.2914C148.397 32.3655 148.397 32.4395 148.397 32.5136C148.397 32.5712 148.43 32.604 148.487 32.604C148.79 32.604 149.093 32.6206 149.387 32.5876C149.51 32.5712 149.625 32.5383 149.731 32.4806C149.928 32.3737 150.059 32.2092 150.108 31.9953C150.133 31.8966 150.133 31.7814 150.124 31.6744C150.108 31.4112 149.977 31.2137 149.74 31.0821C149.609 31.008 149.469 30.9669 149.322 30.9587C149.191 30.9669 149.052 30.9669 148.912 30.9669Z" fill="#2B7777"/>
<path d="M167.325 32.8012C167.325 32.2747 167.325 31.7564 167.325 31.2298C167.325 31.164 167.325 31.0982 167.325 31.0324C167.325 30.983 167.292 30.9583 167.251 30.9501C167.194 30.9501 167.137 30.9419 167.079 30.9419C166.785 30.9419 166.49 30.9419 166.203 30.9419C166.146 30.9419 166.088 30.9419 166.031 30.9336C165.982 30.9336 165.966 30.9007 165.957 30.8514C165.957 30.8349 165.957 30.8185 165.957 30.802C165.966 30.3331 165.884 30.4071 166.334 30.4071C167.219 30.4071 168.111 30.4071 168.995 30.4071C169.06 30.4071 169.126 30.4071 169.191 30.4071C169.232 30.4071 169.273 30.4318 169.273 30.4811C169.273 30.6045 169.273 30.7279 169.273 30.8514C169.273 30.8925 169.248 30.9254 169.2 30.9336C169.142 30.9419 169.085 30.9336 169.028 30.9336C168.733 30.9336 168.438 30.9336 168.151 30.9336C168.094 30.9336 168.037 30.9336 167.98 30.9336C167.923 30.9336 167.89 30.9666 167.89 31.0241C167.89 31.0982 167.89 31.1722 167.89 31.2462C167.89 32.2582 167.89 33.2702 167.89 34.2821C167.89 34.3397 167.89 34.3972 167.89 34.4548C167.89 34.6112 167.882 34.6194 167.726 34.6194C167.284 34.6112 167.35 34.6852 167.35 34.2491C167.325 33.7885 167.325 33.2948 167.325 32.8012Z" fill="#2B7777"/>
<path d="M55.6222 32.8093C55.6222 33.3359 55.6222 33.8542 55.6222 34.3807C55.6222 34.4465 55.6222 34.5123 55.6139 34.5782C55.6139 34.611 55.5894 34.644 55.5485 34.644C55.4093 34.644 55.2701 34.644 55.131 34.644C55.0982 34.644 55.0736 34.611 55.0736 34.5782C55.0736 34.5042 55.0654 34.4301 55.0654 34.3561C55.0654 33.3194 55.0654 32.2828 55.0654 31.2462C55.0654 30.95 55.09 30.9665 54.787 30.9665C54.4596 30.9665 54.1322 30.9665 53.8128 30.9665C53.6982 30.9665 53.6819 30.95 53.6819 30.8349C53.69 30.3577 53.6082 30.44 54.0503 30.44C54.9508 30.4317 55.8596 30.44 56.7602 30.44C56.9976 30.44 56.9812 30.4317 56.9812 30.6703C56.9812 31.0076 57.0221 30.9665 56.6783 30.9665C56.4081 30.9665 56.1379 30.9665 55.876 30.9665C55.8268 30.9665 55.7777 30.9665 55.7286 30.9665C55.6222 30.9747 55.6139 30.983 55.6058 31.0981C55.6058 31.1557 55.6058 31.2133 55.6058 31.2709C55.6222 31.7809 55.6222 32.2993 55.6222 32.8093Z" fill="#2B7777"/>
<path d="M161.029 32.7851C161.029 33.3199 161.029 33.8463 161.029 34.3811C161.029 34.4469 161.029 34.5127 161.021 34.5786C161.021 34.6114 160.997 34.6444 160.963 34.6444C160.825 34.6444 160.685 34.6444 160.546 34.6444C160.513 34.6444 160.488 34.6114 160.488 34.5786C160.488 34.5046 160.481 34.4305 160.481 34.3565C160.481 33.3199 160.481 32.2832 160.481 31.2466C160.481 30.9422 160.513 30.9669 160.21 30.9669C159.883 30.9669 159.563 30.9669 159.237 30.9669C159.13 30.9669 159.105 30.9504 159.105 30.8353C159.113 30.3663 159.031 30.4404 159.474 30.4321C160.35 30.4321 161.234 30.4321 162.11 30.4321C162.175 30.4321 162.241 30.4321 162.306 30.4321C162.388 30.4321 162.413 30.4568 162.413 30.5309C162.413 30.646 162.413 30.7612 162.413 30.8764C162.413 30.934 162.372 30.9669 162.315 30.9669C162.019 30.9669 161.725 30.9669 161.438 30.9669C161.332 30.9669 161.225 30.9669 161.119 30.9669C161.062 30.9669 161.029 30.9915 161.029 31.0574C161.029 31.1232 161.029 31.1891 161.029 31.2549C161.029 31.7567 161.029 32.275 161.029 32.7851Z" fill="#2B7777"/>
<path d="M123.164 33.583C123.164 33.3115 123.156 33.04 123.164 32.7768C123.173 32.6369 123.132 32.53 123.041 32.4147C122.607 31.8471 122.173 31.2711 121.739 30.6953C121.691 30.6294 121.641 30.5637 121.601 30.4979C121.584 30.4732 121.601 30.432 121.633 30.432C121.789 30.432 121.944 30.432 122.1 30.432C122.157 30.432 122.19 30.4567 122.223 30.4979C122.264 30.5554 122.313 30.613 122.361 30.6706C122.681 31.082 122.992 31.5015 123.311 31.9129C123.328 31.9376 123.352 31.9623 123.369 31.987C123.435 32.061 123.458 32.0692 123.516 31.987C123.86 31.5427 124.195 31.0902 124.539 30.646C124.744 30.3826 124.646 30.432 124.982 30.4238C125.072 30.4238 125.161 30.4238 125.252 30.4238C125.293 30.4238 125.31 30.4649 125.292 30.4896C125.244 30.5554 125.202 30.6213 125.154 30.6871C124.72 31.2547 124.286 31.8306 123.844 32.3983C123.745 32.5217 123.704 32.6451 123.713 32.8014C123.721 33.3115 123.713 33.8134 123.713 34.3234C123.713 34.381 123.713 34.4386 123.713 34.4962C123.704 34.6196 123.696 34.6361 123.566 34.6361C123.098 34.6278 123.173 34.7101 123.164 34.2412C123.164 34.0272 123.164 33.8051 123.164 33.583Z" fill="#2B7777"/>
<path d="M170.493 32.5383C170.493 33.1389 170.493 33.7476 170.493 34.3482C170.493 34.414 170.493 34.4799 170.493 34.5457C170.493 34.6033 170.469 34.6444 170.411 34.6444C170.28 34.6444 170.15 34.6444 170.018 34.6444C169.969 34.6444 169.944 34.6197 169.936 34.5703C169.936 34.521 169.928 34.4716 169.928 34.4223C169.928 33.1635 169.928 31.9048 169.928 30.6543C169.928 30.4321 169.928 30.4321 170.132 30.4321C170.542 30.4404 170.485 30.3745 170.485 30.7777C170.501 31.3618 170.493 31.9459 170.493 32.5383Z" fill="#2B7777"/>
<path d="M58.2418 32.5547C58.2418 33.1471 58.2418 33.7476 58.2418 34.34C58.2418 34.4058 58.2418 34.4716 58.2418 34.5374C58.2418 34.6197 58.2172 34.6444 58.1435 34.6444C58.0207 34.6444 57.8979 34.6444 57.7751 34.6444C57.7178 34.6444 57.6851 34.6197 57.6851 34.5539C57.6851 34.4963 57.6851 34.4387 57.6851 34.3811C57.6851 33.1471 57.6851 31.913 57.6851 30.6872C57.6851 30.6378 57.6851 30.5885 57.6851 30.5391C57.6932 30.4568 57.7097 30.4321 57.7834 30.4321C57.9062 30.4321 58.029 30.4321 58.1518 30.4321C58.2091 30.4321 58.2418 30.4651 58.2418 30.5226C58.2418 30.5885 58.2418 30.6543 58.2418 30.72C58.2418 31.3289 58.2418 31.9377 58.2418 32.5547Z" fill="#2B7777"/>
<path d="M110.106 32.5383C110.106 33.1471 110.106 33.7641 110.106 34.3729C110.106 34.4387 110.106 34.5046 110.098 34.5703C110.098 34.6033 110.073 34.6361 110.041 34.6361C109.901 34.6361 109.763 34.6361 109.623 34.6361C109.591 34.6361 109.566 34.6114 109.557 34.5786C109.55 34.5292 109.55 34.4799 109.55 34.4305C109.55 33.1635 109.55 31.8966 109.55 30.6296C109.55 30.5885 109.55 30.5473 109.55 30.5062C109.55 30.4568 109.582 30.4321 109.623 30.4321C109.754 30.4321 109.885 30.4321 110.016 30.4321C110.066 30.4321 110.09 30.4568 110.098 30.5062C110.098 30.572 110.098 30.6378 110.098 30.7036C110.106 31.3125 110.106 31.9295 110.106 32.5383Z" fill="#2B7777"/>
<path d="M168.75 22.2789C168.773 22.2542 168.798 22.246 168.839 22.246C168.904 22.246 168.97 22.246 169.035 22.246C171.86 22.246 174.676 22.246 177.501 22.246C177.599 22.246 177.698 22.2131 177.788 22.2789C177.714 22.2789 177.64 22.2871 177.567 22.2871C174.701 22.2871 171.844 22.2871 168.978 22.2871C168.897 22.2871 168.823 22.2789 168.75 22.2789Z" fill="#151919"/>
<path d="M156.682 18.0665C156.706 18.0418 156.731 18.0254 156.763 18.0254C156.821 18.0254 156.878 18.0254 156.935 18.0254C159.105 18.0254 161.275 18.0254 163.444 18.0254C163.517 18.0254 163.591 18.0254 163.665 18.0336C163.648 18.0418 163.625 18.0665 163.608 18.0665C163.559 18.0748 163.51 18.0665 163.46 18.0665C161.201 18.0665 158.941 18.0665 156.682 18.0665Z" fill="#151919"/>
<path d="M133.087 26.6968C133.644 26.6968 134.2 26.6968 134.758 26.6968C134.209 26.7543 133.652 26.7626 133.087 26.6968Z" fill="#151919"/>
<path d="M87.1582 26.6968C87.6654 26.6968 88.1812 26.6968 88.6893 26.6968C88.3046 26.7543 87.9114 26.7461 87.5182 26.7296C87.4033 26.7296 87.2808 26.7132 87.1582 26.6968Z" fill="#151919"/>
<path d="M49.6211 19.3337C49.6702 19.2925 49.7275 19.3007 49.7767 19.3007C49.9568 19.2925 50.1368 19.2925 50.3252 19.2925C50.0959 19.3254 49.8585 19.3584 49.6211 19.3337Z" fill="#151919"/>
<path d="M110.663 26.6475C110.803 26.6475 110.95 26.6557 111.089 26.6557C111.138 26.6557 111.187 26.6557 111.22 26.6886C111.04 26.7132 110.851 26.6804 110.663 26.6475Z" fill="#151919"/>
<path d="M112.357 26.697C112.407 26.6558 112.464 26.664 112.513 26.664C112.636 26.664 112.751 26.664 112.873 26.6558C112.71 26.6887 112.538 26.7134 112.357 26.697Z" fill="#151919"/>
<path d="M132.505 26.6475C132.62 26.6475 132.743 26.6557 132.858 26.6557C132.899 26.6557 132.939 26.6639 132.964 26.6886C132.817 26.7051 132.661 26.6804 132.505 26.6475Z" fill="#151919"/>
<path d="M50.4477 5.30625C50.3248 5.30625 50.202 5.32271 50.0874 5.27334C50.2102 5.26511 50.333 5.26511 50.4477 5.30625Z" fill="#151919"/>
<path d="M68.1317 5.30639C68.0089 5.30639 67.8861 5.32284 67.7715 5.27348C67.9025 5.26525 68.0171 5.27348 68.1317 5.30639Z" fill="#151919"/>
<path d="M86.667 26.6476C86.7895 26.6559 86.9206 26.6229 87.0355 26.6887C86.9121 26.7052 86.7895 26.6887 86.667 26.6476Z" fill="#151919"/>
<path d="M112.997 26.6395C113.094 26.5736 113.209 26.6065 113.316 26.5984C113.209 26.6312 113.103 26.6559 112.997 26.6395Z" fill="#151919"/>
<path d="M110.278 26.5984C110.385 26.6065 110.5 26.5736 110.597 26.6395C110.483 26.6559 110.376 26.6312 110.278 26.5984Z" fill="#151919"/>
<path d="M113.135 4.91137C113.045 4.91137 112.955 4.92782 112.873 4.87846C112.972 4.87023 113.053 4.87846 113.135 4.91137Z" fill="#151919"/>
<path d="M89.2954 26.6473C89.3771 26.5815 89.475 26.6143 89.5652 26.6062C89.4835 26.6308 89.3933 26.6555 89.2954 26.6473Z" fill="#151919"/>
<path d="M110.319 4.92792C110.27 4.97728 110.204 4.96083 110.147 4.96083C110.196 4.91969 110.262 4.92792 110.319 4.92792Z" fill="#151919"/>
<path d="M109.975 26.5486C110.049 26.5486 110.131 26.5321 110.196 26.5897C110.122 26.6061 110.049 26.5814 109.975 26.5486Z" fill="#151919"/>
<path d="M86.1836 4.92792C86.1351 4.97728 86.0696 4.96083 86.0117 4.96083C86.0611 4.91969 86.1181 4.92792 86.1836 4.92792Z" fill="#151919"/>
<path d="M109.975 4.98552C109.942 5.03489 109.893 5.0102 109.853 5.0102C109.893 4.9773 109.934 4.9773 109.975 4.98552Z" fill="#151919"/>
<path d="M136.059 26.5404C136.108 26.491 136.173 26.5075 136.231 26.5075C136.173 26.5322 136.116 26.5486 136.059 26.5404Z" fill="#151919"/>
<path d="M85.7422 26.4993C85.7992 26.4993 85.8647 26.4828 85.9141 26.5404C85.8571 26.5486 85.7992 26.5321 85.7422 26.4993Z" fill="#151919"/>
<path d="M109.729 5.02676C109.697 5.07612 109.648 5.05967 109.607 5.05967C109.648 5.01853 109.689 5.01853 109.729 5.02676Z" fill="#151919"/>
<path d="M86.0278 26.5568C86.0934 26.5568 86.1589 26.5404 86.2083 26.5898C86.1427 26.6062 86.0857 26.5898 86.0278 26.5568Z" fill="#151919"/>
<path d="M51.1357 19.1856C51.1848 19.1362 51.2586 19.1445 51.3158 19.1527C51.2586 19.1773 51.2012 19.1939 51.1357 19.1856Z" fill="#151919"/>
<path d="M98.8161 15.2118C98.7838 15.1871 98.7753 15.1707 98.8161 15.146C98.8323 15.1624 98.8323 15.1871 98.8161 15.2118Z" fill="#151919"/>
<path d="M69.073 5.44625C69.0321 5.44625 68.983 5.4627 68.9502 5.42156C68.9994 5.41333 69.0403 5.41333 69.073 5.44625Z" fill="#151919"/>
<path d="M138.777 5.25795L138.786 5.24902H138.777V5.25795Z" fill="#151919"/>
<path d="M112.153 8.93471C111.916 8.93471 111.67 8.93471 111.432 8.93471C111.465 8.91003 111.506 8.90186 111.547 8.90186C111.71 8.90186 111.882 8.90186 112.047 8.90186C112.087 8.90186 112.12 8.90186 112.153 8.93471Z" fill="#151919"/>
<path d="M111.31 8.93477C111.187 8.95119 111.064 8.98413 110.941 8.97587C111.056 8.91008 111.187 8.94294 111.31 8.93477Z" fill="#151919"/>
<path d="M110.868 8.98389C110.778 9.00857 110.696 9.03325 110.597 9.02499C110.679 8.96738 110.778 8.99206 110.868 8.98389Z" fill="#151919"/>
<path d="M110.482 22.5011C110.523 22.4929 110.565 22.5011 110.597 22.5258C110.565 22.5258 110.516 22.5423 110.482 22.5011Z" fill="#151919"/>
<path d="M88.7955 8.98398C88.6397 8.99223 88.484 8.9593 88.3291 8.94287C88.4517 8.94287 88.5665 8.94287 88.6891 8.94287C88.7299 8.94287 88.7708 8.95113 88.7955 8.98398Z" fill="#151919"/>
<path d="M86.9292 22.5421C87.0356 22.5339 87.1335 22.5504 87.2398 22.5833C87.1335 22.5751 87.0271 22.5997 86.9292 22.5421Z" fill="#151919"/>
<path d="M88.6074 22.5832C88.7053 22.5585 88.8117 22.5338 88.9096 22.5502C88.8202 22.5996 88.7138 22.5749 88.6074 22.5832Z" fill="#151919"/>
<path d="M89.3848 9.07428C89.3193 9.08253 89.2623 9.06602 89.2129 9.04134C89.2708 9.03317 89.3363 9.02492 89.3848 9.07428Z" fill="#151919"/>
<path d="M86.6342 9.04134C86.5771 9.06602 86.5201 9.0907 86.4546 9.07428C86.5116 9.02492 86.5771 9.03317 86.6342 9.04134Z" fill="#151919"/>
<path d="M67.6978 15.368C67.7961 15.3515 67.8943 15.3186 68.0007 15.335C67.9106 15.3927 67.8042 15.368 67.6978 15.368Z" fill="#151919"/>
<path d="M68.1809 9.22245C68.0909 9.23071 68.0008 9.19777 67.9189 9.18135C68.0008 9.18952 68.099 9.15667 68.1809 9.22245Z" fill="#151919"/>
<path d="M45.7812 15.4423C46.5754 15.4423 47.3695 15.4423 48.1636 15.4341C48.5812 15.4341 49.007 15.4341 49.4245 15.4341C49.3426 15.4917 49.2526 15.4588 49.1624 15.4588C48.4011 15.4588 47.6315 15.4588 46.8701 15.4588C46.559 15.4588 46.2479 15.4588 45.945 15.4588C45.8959 15.467 45.8304 15.4834 45.7812 15.4423Z" fill="#151919"/>
<path d="M49.6618 9.17296C49.5471 9.18121 49.4325 9.18121 49.3179 9.14002C49.4325 9.14002 49.5553 9.11534 49.6618 9.17296Z" fill="#151919"/>
<path d="M49.7109 15.4174C49.7765 15.3927 49.8502 15.3762 49.9239 15.3845C49.8583 15.4338 49.7846 15.4092 49.7109 15.4174Z" fill="#151919"/>
<path d="M50.0548 9.22234C49.9566 9.23051 49.8665 9.20583 49.7847 9.18115C49.8747 9.18941 49.9648 9.16473 50.0548 9.22234Z" fill="#151919"/>
<path d="M36.2435 19.9999H30.9303C30.9057 20.0411 30.9057 20.1151 30.9057 20.2714C30.9057 22.0813 30.9057 23.8995 30.8975 25.7095C30.8975 26.088 30.9548 25.9974 30.6355 26.1948C29.4075 26.9518 28.1795 27.7169 26.9514 28.4737C24.1187 30.2262 21.2942 31.9785 18.4615 33.7308C18.3469 33.8049 18.2405 33.8954 18.1013 33.9283C17.9867 33.8625 17.8721 33.8049 17.7657 33.7308C14.7528 31.8634 11.7401 29.9875 8.7272 28.12C7.65474 27.4536 6.58226 26.7872 5.50976 26.1291C5.38696 26.055 5.31328 25.9727 5.33784 25.8165C5.34603 25.7671 5.33784 25.7095 5.33784 25.6601C5.33784 23.8584 5.33784 22.0485 5.33784 20.2467C5.33784 20.0986 5.34603 20.0328 5.31328 19.9917H0.0245087C-5.22081e-05 20.0411 0.00813474 20.1151 0.00813474 20.2796C0.00813474 23.266 0.00813474 26.2525 0.00813474 29.2307C0.00813474 29.2718 0.0163217 29.3211 0.00813474 29.3623C-0.00823916 29.4857 0.0490695 29.5598 0.1555 29.6091C0.180061 29.6173 0.204622 29.6338 0.220995 29.6503C1.64553 30.4811 3.07824 31.3121 4.50277 32.143C8.62899 34.5453 12.7552 36.9394 16.8814 39.3417C17.2171 39.5392 17.5527 39.7284 17.8884 39.9341C18.044 40.0328 18.1914 40.0328 18.3469 39.9341C18.3961 39.9011 18.4533 39.8765 18.5024 39.8436C21.4825 38.1159 24.4708 36.38 27.4508 34.6523C30.3162 32.9904 33.1817 31.3286 36.0471 29.6667C36.3009 29.5186 36.2681 29.568 36.2681 29.2882C36.2681 29.2554 36.2681 29.2224 36.2681 29.1813C36.2681 27.7169 36.2681 26.2525 36.2681 24.7798C36.2681 24.7798 36.2681 24.7798 36.2763 24.7798C36.2763 23.2907 36.2763 21.7934 36.2763 20.3043C36.2681 20.1233 36.2763 20.0411 36.2435 19.9999Z" fill="#2B7777"/>
<path d="M36.1864 18.2065C36.1864 8.16948 28.0894 0 18.1341 0C8.17881 0 0.0737305 8.16948 0.0737305 18.2065H5.39525C5.39525 11.1148 11.1097 5.34759 18.126 5.34759C25.1421 5.34759 30.8649 11.1148 30.8649 18.2065H36.1864Z" fill="#627470"/>
</g>
</svg>
