<svg width="101" height="100" viewBox="0 0 101 100" fill="none" xmlns="http://www.w3.org/2000/svg">
<rect x="0.300781" width="100.398" height="99.7141" rx="49.857" fill="#F5F5F5"/>
<path fill-rule="evenodd" clip-rule="evenodd" d="M27.3571 50.2856C27.3571 37.5436 37.6866 27.2142 50.4286 27.2142C63.1706 27.2142 73.5 37.5436 73.5 50.2856C73.5 63.0276 63.1706 73.357 50.4286 73.357C37.6866 73.357 27.3571 63.0276 27.3571 50.2856ZM50.4286 22.357C35.004 22.357 22.5 34.8611 22.5 50.2856C22.5 65.7101 35.004 78.2142 50.4286 78.2142C57.2665 78.2142 63.5304 75.7568 68.3854 71.677L86.3542 89.6457C87.3026 90.5941 88.8403 90.5941 89.7887 89.6457C90.7371 88.6973 90.7371 87.1596 89.7887 86.2112L71.82 68.2425C75.8998 63.3874 78.3571 57.1235 78.3571 50.2856C78.3571 34.8611 65.8531 22.357 50.4286 22.357ZM50.4286 36.9285C45.22 36.9285 43.1429 39.9169 43.1429 41.7856C43.1429 43.1269 42.0555 44.2142 40.7143 44.2142C39.373 44.2142 38.2857 43.1269 38.2857 41.7856C38.2857 36.3685 43.4943 32.0713 50.4286 32.0713C53.9333 32.0713 57.2524 33.1228 59.7384 35.2263C62.2647 37.364 63.7857 40.4744 63.7857 44.2142C63.7857 47.6383 61.5057 50.0161 59.3897 51.4937C57.2242 53.0059 54.6936 53.9694 53.0426 54.5C52.9716 54.5228 52.9163 54.5657 52.884 54.6078C52.869 54.6272 52.8624 54.6421 52.8596 54.6498C52.8573 54.6565 52.8571 54.6596 52.8571 54.6623V57.5713C52.8571 58.9126 51.7698 59.9999 50.4286 59.9999C49.0873 59.9999 48 58.9126 48 57.5713V54.6623C48 52.3712 49.5647 50.5159 51.5564 49.8758C53.028 49.4029 55.0262 48.6166 56.6088 47.5114C58.2411 46.3716 58.9286 45.2643 58.9286 44.2142C58.9286 41.8825 58.021 40.1358 56.6009 38.9342C55.1404 37.6984 52.9952 36.9285 50.4286 36.9285ZM50.4286 68.4999C51.7698 68.4999 52.8571 67.4126 52.8571 66.0713C52.8571 64.73 51.7698 63.6427 50.4286 63.6427C49.0873 63.6427 48 64.73 48 66.0713C48 67.4126 49.0873 68.4999 50.4286 68.4999Z" fill="#D4D4D4"/>
</svg>
