<svg width="24" height="24" viewBox="0 0 24 24" fill="none" xmlns="http://www.w3.org/2000/svg">
<g clip-path="url(#clip0_6298_12244)">
<path d="M5.4477 3.64185L5.44738 3.64065C5.22782 2.8223 4.48684 2.25 3.636 2.25H2.25C1.83579 2.25 1.5 2.58579 1.5 3C1.5 3.41421 1.83579 3.75 2.25 3.75H3.636C3.80502 3.75 3.95404 3.86392 3.99862 4.02935L6.556 13.6208C5.91535 13.7874 5.32444 14.1223 4.84835 14.5983C4.14509 15.3016 3.75 16.2554 3.75 17.25C3.75 17.6642 4.08579 18 4.5 18H20.25C20.6642 18 21 17.6642 21 17.25C21 16.8358 20.6642 16.5 20.25 16.5H5.37868C5.4895 16.1866 5.66946 15.8986 5.90901 15.659C6.33097 15.2371 6.90326 15 7.5 15H18.718C19.0048 15 19.2665 14.8364 19.3922 14.5786C20.2783 12.7605 22.2449 7.67146 22.2449 7.67146C22.2449 7.67146 22.4749 6.98878 21.75 6.66441C21.0223 6.3388 20.7624 7 20.7624 7C20.7624 7 18.9543 12.0194 18.2471 13.5H8.07622C8.07622 13.5 6.27017 6.72771 5.4477 3.64185Z" fill="#713F12"/>
<path d="M5.25 18.75C4.85218 18.75 4.47065 18.908 4.18934 19.1893C3.90803 19.4706 3.75 19.8522 3.75 20.25C3.75 20.6478 3.90803 21.0294 4.18934 21.3107C4.47065 21.592 4.85218 21.75 5.25 21.75C5.64782 21.75 6.02935 21.592 6.31066 21.3107C6.59197 21.0294 6.75 20.6478 6.75 20.25C6.75 19.8522 6.59197 19.4706 6.31066 19.1893C6.02935 18.908 5.64782 18.75 5.25 18.75Z" fill="#713F12"/>
<path d="M18 18.75C17.6022 18.75 17.2206 18.908 16.9393 19.1893C16.658 19.4706 16.5 19.8522 16.5 20.25C16.5 20.6478 16.658 21.0294 16.9393 21.3107C17.2206 21.592 17.6022 21.75 18 21.75C18.3978 21.75 18.7794 21.592 19.0607 21.3107C19.342 21.0294 19.5 20.6478 19.5 20.25C19.5 19.8522 19.342 19.4706 19.0607 19.1893C18.7794 18.908 18.3978 18.75 18 18.75Z" fill="#713F12"/>
<path fill-rule="evenodd" clip-rule="evenodd" d="M13.375 3.25C13.7892 3.25 14.125 3.58579 14.125 4V6.625H16.75C17.1642 6.625 17.5 6.96079 17.5 7.375C17.5 7.78921 17.1642 8.125 16.75 8.125H14.125V10.75C14.125 11.1642 13.7892 11.5 13.375 11.5C12.9608 11.5 12.625 11.1642 12.625 10.75V8.125H10C9.58579 8.125 9.25 7.78921 9.25 7.375C9.25 6.96079 9.58579 6.625 10 6.625H12.625V4C12.625 3.58579 12.9608 3.25 13.375 3.25Z" fill="#713F12"/>
</g>
<defs>
<clipPath id="clip0_6298_12244">
<rect width="24" height="24" fill="white"/>
</clipPath>
</defs>
</svg>
