<svg width="25" height="24" viewBox="0 0 25 24" fill="none" xmlns="http://www.w3.org/2000/svg">
<path d="M8.1318 6.4279L8.13159 6.4271C7.98522 5.88154 7.49122 5.5 6.924 5.5H6C5.72386 5.5 5.5 5.72386 5.5 6C5.5 6.27614 5.72386 6.5 6 6.5H6.924C7.03668 6.5 7.13603 6.57595 7.16575 6.68623L8.87067 13.0805C8.44357 13.1916 8.04962 13.4148 7.73223 13.7322C7.26339 14.2011 7 14.837 7 15.5C7 15.7761 7.22386 16 7.5 16L18 16C18.2761 16 18.5 15.7761 18.5 15.5C18.5 15.2239 18.2761 15 18 15L8.08579 15C8.15967 14.791 8.27964 14.599 8.43934 14.4393C8.72064 14.158 9.10218 14 9.5 14L16.9787 14C17.1699 14 17.3443 13.8909 17.4281 13.7191C18.0189 12.507 19.33 9.11431 19.33 9.11431C19.33 9.11431 19.4833 8.65919 19 8.44294C18.5149 8.22587 18.3416 8.66667 18.3416 8.66667C18.3416 8.66667 17.1362 12.0129 16.6648 13L9.88414 13C9.88414 13 8.68011 8.48514 8.1318 6.4279Z" fill="#F8FBFC"/>
<path d="M8 16.5C7.73478 16.5 7.48043 16.6054 7.29289 16.7929C7.10536 16.9804 7 17.2348 7 17.5C7 17.7652 7.10536 18.0196 7.29289 18.2071C7.48043 18.3946 7.73478 18.5 8 18.5C8.26522 18.5 8.51957 18.3946 8.70711 18.2071C8.89464 18.0196 9 17.7652 9 17.5C9 17.2348 8.89464 16.9804 8.70711 16.7929C8.51957 16.6054 8.26522 16.5 8 16.5Z" fill="#F8FBFC"/>
<path d="M16.5 16.5C16.2348 16.5 15.9804 16.6054 15.7929 16.7929C15.6054 16.9804 15.5 17.2348 15.5 17.5C15.5 17.7652 15.6054 18.0196 15.7929 18.2071C15.9804 18.3946 16.2348 18.5 16.5 18.5C16.7652 18.5 17.0196 18.3946 17.2071 18.2071C17.3946 18.0196 17.5 17.7652 17.5 17.5C17.5 17.2348 17.3946 16.9804 17.2071 16.7929C17.0196 16.6054 16.7652 16.5 16.5 16.5Z" fill="#F8FBFC"/>
<path fill-rule="evenodd" clip-rule="evenodd" d="M13.4167 6.16667C13.6928 6.16667 13.9167 6.39052 13.9167 6.66667V8.41667L15.6667 8.41667C15.9428 8.41667 16.1667 8.64052 16.1667 8.91667C16.1667 9.19281 15.9428 9.41667 15.6667 9.41667L13.9167 9.41667V11.1667C13.9167 11.4428 13.6928 11.6667 13.4167 11.6667C13.1405 11.6667 12.9167 11.4428 12.9167 11.1667V9.41667H11.1667C10.8905 9.41667 10.6667 9.19281 10.6667 8.91667C10.6667 8.64052 10.8905 8.41667 11.1667 8.41667H12.9167V6.66667C12.9167 6.39052 13.1405 6.16667 13.4167 6.16667Z" fill="#F8FBFC"/>
</svg>
