<svg width="24" height="24" viewBox="0 0 24 24" fill="none" xmlns="http://www.w3.org/2000/svg">
<path fill-rule="evenodd" clip-rule="evenodd" d="M4.05546 3.05546C4.57118 2.53973 5.27065 2.25 6 2.25H18C18.7293 2.25 19.4288 2.53973 19.9445 3.05546C20.4603 3.57118 20.75 4.27065 20.75 5V21C20.75 21.2599 20.6154 21.5013 20.3943 21.638C20.1732 21.7746 19.8971 21.7871 19.6646 21.6708L16 19.8385L12.3354 21.6708C12.1243 21.7764 11.8757 21.7764 11.6646 21.6708L8 19.8385L4.33541 21.6708C4.10292 21.7871 3.82681 21.7746 3.6057 21.638C3.38459 21.5013 3.25 21.2599 3.25 21V5C3.25 4.27065 3.53973 3.57118 4.05546 3.05546ZM6 3.75C5.66848 3.75 5.35054 3.8817 5.11612 4.11612C4.8817 4.35054 4.75 4.66848 4.75 5V19.7865L7.66459 18.3292C7.87574 18.2236 8.12426 18.2236 8.33541 18.3292L12 20.1615L15.6646 18.3292C15.8757 18.2236 16.1243 18.2236 16.3354 18.3292L19.25 19.7865V5C19.25 4.66848 19.1183 4.35054 18.8839 4.11612C18.6495 3.8817 18.3315 3.75 18 3.75H6ZM6.25 7C6.25 6.58579 6.58579 6.25 7 6.25H17C17.4142 6.25 17.75 6.58579 17.75 7C17.75 7.41421 17.4142 7.75 17 7.75H7C6.58579 7.75 6.25 7.41421 6.25 7ZM6.25 11C6.25 10.5858 6.58579 10.25 7 10.25H17C17.4142 10.25 17.75 10.5858 17.75 11C17.75 11.4142 17.4142 11.75 17 11.75H7C6.58579 11.75 6.25 11.4142 6.25 11ZM6.25 15C6.25 14.5858 6.58579 14.25 7 14.25H17C17.4142 14.25 17.75 14.5858 17.75 15C17.75 15.4142 17.4142 15.75 17 15.75H7C6.58579 15.75 6.25 15.4142 6.25 15Z" fill="#9A3412"/>
</svg>
