<svg width="76" height="76" viewBox="0 0 76 76" fill="none" xmlns="http://www.w3.org/2000/svg">
<path d="M26.5626 59.1895C26.5626 60.4383 26.0665 61.6359 25.1835 62.5189C24.3005 63.4019 23.1028 63.898 21.8541 63.898C20.6053 63.898 19.4077 63.4019 18.5247 62.5189C17.6416 61.6359 17.1456 60.4383 17.1456 59.1895M26.5626 59.1895C26.5626 57.9407 26.0665 56.7431 25.1835 55.8601C24.3005 54.9771 23.1028 54.481 21.8541 54.481C20.6053 54.481 19.4077 54.9771 18.5247 55.8601C17.6416 56.7431 17.1456 57.9407 17.1456 59.1895M26.5626 59.1895H45.3965M17.1456 59.1895H11.2599C10.3234 59.1895 9.42515 58.8174 8.76289 58.1552C8.10063 57.4929 7.72857 56.5947 7.72857 55.6581V45.064M45.3965 59.1895H52.4593M45.3965 59.1895V45.064M7.72857 45.064V21.0978C7.72359 20.2382 8.03765 19.4074 8.60997 18.766C9.18229 18.1247 9.97219 17.7185 10.8268 17.626C21.2892 16.54 31.8359 16.54 42.2984 17.626C44.0719 17.8081 45.3965 19.3148 45.3965 21.0978V24.1049M7.72857 45.064H45.3965M61.8763 59.1895C61.8763 60.4383 61.3802 61.6359 60.4972 62.5189C59.6142 63.4019 58.4166 63.898 57.1678 63.898C55.919 63.898 54.7214 63.4019 53.8384 62.5189C52.9554 61.6359 52.4593 60.4383 52.4593 59.1895M61.8763 59.1895C61.8763 57.9407 61.3802 56.7431 60.4972 55.8601C59.6142 54.9771 58.4166 54.481 57.1678 54.481C55.919 54.481 54.7214 54.9771 53.8384 55.8601C52.9554 56.7431 52.4593 57.9407 52.4593 59.1895M61.8763 59.1895H65.4077C67.357 59.1895 68.9516 57.6074 68.8292 55.6613C68.1984 45.2952 64.7074 35.3066 58.7436 26.8045C58.1755 26.008 57.4339 25.3512 56.5747 24.8835C55.7154 24.4158 54.7612 24.1496 53.7839 24.1049H45.3965M45.3965 24.1049V45.064" stroke="#A3A3A3" stroke-width="4.7085" stroke-linecap="round" stroke-linejoin="round"/>
</svg>
