<svg width="343" height="467" viewBox="0 0 343 467" fill="none" xmlns="http://www.w3.org/2000/svg">
<g opacity="0.1">
<path d="M38.2812 59.98V10.3584" stroke="#1A2736" stroke-width="18.3026" stroke-linecap="round" stroke-linejoin="round"/>
<path d="M110.312 59.98V10.3584" stroke="#1A2736" stroke-width="18.3026" stroke-linecap="round" stroke-linejoin="round"/>
<path d="M142.453 9.97168H323.442C328.496 9.97168 332.593 14.0689 332.593 19.123V258.233C332.593 263.287 328.496 267.384 323.442 267.384H117.526C112.472 267.384 108.375 263.287 108.375 258.233V207.683" stroke="#1A2736" stroke-width="18.3026" stroke-linecap="round" stroke-linejoin="round"/>
<path d="M10.3984 69.6057C10.3984 64.718 14.3606 60.7559 19.2483 60.7559H130.116C135.003 60.7559 138.966 64.7181 138.966 69.6057V84.0855C138.966 119.588 110.185 148.369 74.6821 148.369V148.369C39.1792 148.369 10.3984 119.588 10.3984 84.0854V69.6057Z" stroke="#1A2736" stroke-width="18.3026" stroke-linejoin="round"/>
<path d="M46.0234 144.492V165.579C46.0234 170.633 50.1206 174.73 55.1747 174.73H94.1853C99.2394 174.73 103.337 170.633 103.337 165.579V144.492" stroke="#1A2736" stroke-width="18.3026" stroke-linejoin="round"/>
<path d="M74.6888 178.607C74.6888 178.607 59.9774 356.935 172.277 356.935C284.577 356.935 297.359 349.957 321.756 383.297C346.153 416.636 316.335 486.029 316.335 486.029" stroke="#1A2736" stroke-width="18.3026" stroke-linecap="round" stroke-linejoin="round"/>
<path d="M181.185 64.9851C191.829 59.7924 203.787 56.8789 216.425 56.8789C260.91 56.8789 296.973 92.9805 296.973 137.514C296.973 182.048 260.91 218.149 216.425 218.149C181.421 218.149 151.631 195.797 140.523 164.572" stroke="#1A2736" stroke-width="18.3026" stroke-linecap="round"/>
<ellipse cx="180.017" cy="137.515" rx="12.392" ry="12.4054" fill="#1A2736"/>
<ellipse cx="252.822" cy="137.515" rx="12.392" ry="12.4054" fill="#1A2736"/>
</g>
</svg>
