<svg width="500" height="500" viewBox="0 0 500 500" fill="none" xmlns="http://www.w3.org/2000/svg">
<path d="M252.18 449.42C186.74 449.42 121.29 449.42 55.8501 449.42C52.5001 449.42 52.7601 449.7 52.7601 446.42C52.7601 315.48 52.7601 184.53 52.7601 53.59C52.7601 50.31 52.5001 50.58 55.8401 50.58C186.73 50.58 317.61 50.58 448.5 50.58C451.91 50.58 451.59 50.31 451.59 53.75C451.59 184.58 451.59 315.41 451.59 446.25C451.59 449.76 451.92 449.42 448.34 449.42C382.95 449.42 317.56 449.42 252.18 449.42ZM370.81 388.53C370.81 396.94 370.84 405.35 370.78 413.76C370.78 415.26 371.22 415.82 372.77 415.78C376.36 415.69 379.97 415.67 383.56 415.78C385.3 415.84 385.72 415.18 385.68 413.56C385.58 409.36 385.68 405.15 385.63 400.94C385.61 399.67 386.06 399.1 387.36 399.15C388.46 399.2 389.58 399.21 390.68 399.15C391.92 399.07 392.72 399.57 393.4 400.62C396.39 405.21 399.48 409.74 402.47 414.32C403.11 415.3 403.81 415.77 405.02 415.76C409.61 415.7 414.21 415.74 418.8 415.73C419.23 415.73 419.81 415.92 420.05 415.53C420.35 415.02 419.79 414.63 419.52 414.24C415.9 408.94 412.29 403.63 408.61 398.37C407.8 397.21 407.91 396.69 409.2 396.05C414.76 393.28 418.06 388.81 418.73 382.59C419.46 375.85 417.86 369.92 412.13 365.69C408.24 362.83 403.72 361.74 399 361.67C390.31 361.54 381.62 361.66 372.94 361.57C371.25 361.55 370.76 362.1 370.78 363.76C370.85 372 370.81 380.25 370.81 388.5V388.53ZM333.26 416.79C335.25 416.79 337.23 416.72 339.21 416.35C359.63 412.44 368.37 390.85 358.8 374.34C352.66 363.75 340.01 358.51 327.26 361.09C309.13 364.75 299.6 382.89 306.45 399.84C310.67 410.28 321.11 416.79 333.27 416.79H333.26ZM131.44 415.75C133.54 415.75 135.65 415.76 137.75 415.75C139.49 415.73 139.59 415.57 138.89 413.93C131.69 396.9 124.47 379.88 117.31 362.84C116.82 361.68 116.16 361.25 114.94 361.26C111.34 361.31 107.74 361.35 104.15 361.24C102.62 361.2 101.9 361.78 101.33 363.16C97.8301 371.6 94.2401 379.99 90.6801 388.4C87.0601 396.97 83.4601 405.54 79.8201 414.1C79.3401 415.22 79.2901 415.8 80.8201 415.77C84.9201 415.7 89.0101 415.71 93.1101 415.77C94.3001 415.79 94.9101 415.33 95.3101 414.23C96.1301 412 97.0901 409.82 97.9301 407.59C98.3301 406.52 98.9201 406.03 100.13 406.04C106.16 406.09 112.2 406.09 118.23 406.04C119.42 406.04 120.03 406.48 120.44 407.57C121.3 409.85 122.31 412.07 123.17 414.35C123.57 415.4 124.18 415.79 125.28 415.76C127.33 415.7 129.38 415.74 131.42 415.74L131.44 415.75ZM240.45 415.75C242.55 415.75 244.66 415.69 246.76 415.77C248.29 415.83 248.45 415.28 247.86 414.02C247.11 412.42 246.46 410.76 245.77 409.13C239.26 393.73 232.73 378.34 226.26 362.93C225.76 361.73 225.11 361.23 223.79 361.25C220.14 361.32 216.48 361.32 212.83 361.25C211.51 361.22 210.83 361.75 210.34 362.93C203.15 380.02 195.94 397.11 188.68 414.18C188.09 415.57 188.55 415.78 189.81 415.77C193.91 415.73 198 415.73 202.1 415.77C203.2 415.78 203.83 415.4 204.21 414.35C205.08 412.02 206.07 409.73 206.95 407.4C207.32 406.43 207.91 406.05 208.95 406.06C215.04 406.09 221.13 406.1 227.22 406.06C228.35 406.06 228.93 406.51 229.32 407.52C230.16 409.69 231.15 411.8 231.91 413.99C232.4 415.38 233.19 415.87 234.63 415.79C236.56 415.69 238.5 415.77 240.44 415.76L240.45 415.75ZM145.28 388.71C145.28 397.12 145.3 405.53 145.26 413.94C145.26 415.3 145.68 415.8 147.07 415.78C150.78 415.71 154.49 415.69 158.19 415.78C159.78 415.82 160.17 415.18 160.14 413.73C160.07 409.97 160.11 406.21 160.12 402.44C160.12 400.19 160.16 400.18 162.48 400.14C166.07 400.09 169.67 400.35 173.25 399.78C178.52 398.95 183.33 397.12 186.9 392.95C191 388.17 191.66 382.48 190.69 376.53C189.84 371.3 187.01 367.36 182.37 364.76C178.77 362.75 174.89 361.7 170.79 361.67C163.04 361.6 155.3 361.63 147.55 361.63C145.3 361.63 145.29 361.63 145.29 363.97C145.29 372.21 145.29 380.46 145.29 388.7L145.28 388.71ZM277 416.79C286.3 416.92 293.78 413.57 299.53 406.43C300.82 404.83 300.85 404.77 299.12 403.53C296.56 401.69 293.93 399.94 291.42 398.03C290.2 397.1 289.49 396.97 288.35 398.27C284.58 402.56 279.75 404.4 274.16 402.95C267.92 401.33 265.13 396.62 264.23 390.56C263.34 384.61 266.47 378.01 271.4 375.41C276.84 372.55 283.77 373.93 287.97 378.84C288.92 379.94 289.54 380.21 290.76 379.2C293.31 377.08 296 375.12 298.61 373.08C300.53 371.58 300.49 371.55 298.86 369.67C291.85 361.64 282.74 359.34 272.69 360.87C256.35 363.37 246.33 378.2 249.39 394.46C251.88 407.65 263.61 417.26 277 416.8V416.79Z" fill="#00843F"/>
<path d="M385.66 381.11C385.66 379.29 385.67 377.46 385.66 375.64C385.66 374.76 386.02 374.26 386.92 374.28C390.72 374.36 394.55 373.88 398.33 374.59C402.86 375.44 405.1 379.2 403.63 383.3C402.73 385.81 400.75 387.03 398.28 387.47C394.5 388.15 390.68 387.8 386.87 387.82C385.94 387.82 385.65 387.26 385.66 386.41C385.68 384.64 385.66 382.87 385.66 381.11Z" fill="#00843F"/>
<path d="M333.5 373.84C341.45 373.87 347.58 380.42 347.56 388.85C347.53 397.25 341.44 403.58 333.42 403.55C325.58 403.52 319.3 396.88 319.32 388.66C319.34 380.15 325.41 373.81 333.5 373.84Z" fill="#00843F"/>
<path d="M109.21 394.58C107.6 394.58 106 394.58 104.39 394.58C103.48 394.58 102.99 394.33 103.4 393.3C105.15 388.93 106.88 384.56 108.63 380.19C108.75 379.89 108.86 379.5 109.24 379.48C109.74 379.46 109.81 379.95 109.95 380.29C111.64 384.56 113.31 388.84 115 393.12C115.39 394.11 115.12 394.59 114.02 394.58C112.41 394.56 110.81 394.58 109.2 394.58H109.21Z" fill="#00843F"/>
<path d="M218.07 394.58C216.52 394.58 214.97 394.56 213.43 394.58C212.44 394.59 211.93 394.33 212.38 393.22C214.14 388.81 215.88 384.38 217.64 379.97C217.75 379.69 217.82 379.24 218.25 379.34C218.45 379.39 218.63 379.71 218.73 379.95C220.48 384.37 222.22 388.79 223.97 393.21C224.33 394.13 224.06 394.58 223.06 394.58C221.4 394.58 219.74 394.58 218.09 394.58H218.07Z" fill="#00843F"/>
<path d="M160.13 381.2C160.13 379.27 160.15 377.33 160.13 375.4C160.12 374.37 160.53 373.86 161.6 373.89C164.41 373.97 167.23 373.7 170.03 374.19C173.74 374.84 176.02 377.13 176.19 380.5C176.39 384.61 174.56 387.3 170.73 388.25C167.58 389.03 164.35 388.54 161.15 388.59C160.24 388.6 160.14 387.88 160.14 387.18C160.13 385.19 160.14 383.2 160.14 381.21L160.13 381.2Z" fill="#00843F"/>
</svg>
