<svg width="500" height="500" viewBox="0 0 500 500" fill="none" xmlns="http://www.w3.org/2000/svg">
<path d="M190.86 256.39C190.44 259.46 188.98 262.3 186.73 264.43C184.6 266.32 181.56 267.26 177.66 267.26C175.43 267.32 173.22 266.91 171.16 266.06C169.45 265.33 167.95 264.21 166.77 262.78C165.63 261.36 164.78 259.72 164.27 257.97C163.71 256.09 163.44 254.13 163.44 252.16C163.44 247.2 164.74 243.42 167.27 240.9C170.07 238.26 173.82 236.88 177.66 237.07C179.25 237.07 180.79 237.24 182.23 237.61C183.67 237.96 184.97 238.52 186.14 239.26C187.27 240 188.25 241 189.03 242.17C189.79 243.34 190.31 244.76 190.55 246.34L190.64 246.77H195.21L195.17 246.18C194.96 243.98 194.26 241.86 193.13 239.96C192.08 238.25 190.67 236.8 189 235.7C187.35 234.62 185.54 233.81 183.63 233.31C181.69 232.83 179.72 232.57 177.67 232.57C174.39 232.57 171.47 233.16 169.02 234.31C166.68 235.39 164.61 237 163 239.01C161.46 240.97 160.33 243.08 159.61 245.36C158.08 250.2 158.18 255.41 159.89 260.19C161.53 264.89 165.17 268.62 169.83 270.37C172.2 271.26 174.83 271.72 177.68 271.72C180.18 271.72 182.51 271.33 184.62 270.55C186.64 269.82 188.51 268.71 190.12 267.29C191.66 265.93 192.91 264.28 193.82 262.44C194.71 260.61 195.28 258.61 195.49 256.53L195.53 255.96H190.96L190.87 256.37L190.86 256.39Z" fill="#003959"/>
<path d="M223.48 247.11C222.5 246.04 221.27 245.24 219.89 244.78C218.16 244.21 216.34 243.93 214.52 243.98C211.85 243.98 209.5 244.61 207.56 245.85C206.21 246.7 205.17 247.63 204.43 248.68V234.79H199.86V271.75H204.43V257.18C204.43 254.29 205.26 252.03 206.84 250.44C208.45 248.87 210.93 248.07 214.23 248.07C216.53 248.07 218.32 248.59 219.56 249.59C220.78 250.57 221.39 252.22 221.39 254.5V271.74H225.96V255.15C225.96 253.48 225.76 251.98 225.37 250.65C225.01 249.35 224.36 248.14 223.48 247.11Z" fill="#003959"/>
<path d="M244.94 243.48C243.37 243.48 241.98 243.7 240.79 244.09C238.68 244.76 236.87 246.16 235.68 248.03L235.14 248.92V244.29H230.31V271.75H235.14V257.77C235.14 256.03 235.4 254.55 235.9 253.31C236.72 251.16 238.46 249.49 240.64 248.77C241.64 248.44 242.66 248.27 243.68 248.27C244.83 248.27 245.96 248.36 247.09 248.55L247.7 248.66V243.77L247.27 243.7C246.51 243.55 245.7 243.48 244.94 243.48Z" fill="#003959"/>
<path d="M274.35 247.7C272.98 246.34 271.34 245.28 269.52 244.61C267.41 243.83 265.16 243.45 262.91 243.48C260.66 243.44 258.43 243.83 256.32 244.61C252.77 245.93 249.97 248.72 248.64 252.26C247.34 255.72 247.34 259.52 248.64 262.98C249.97 266.52 252.77 269.3 256.32 270.61C258.21 271.37 260.43 271.74 262.91 271.74C265.16 271.77 267.41 271.39 269.52 270.61C273.09 269.33 275.9 266.52 277.2 262.96C278.46 259.51 278.46 255.72 277.2 252.26C276.59 250.55 275.63 249 274.37 247.69M273.44 257.63C273.44 260.63 272.51 263.09 270.66 264.94C268.56 266.88 265.77 267.88 262.92 267.72C259.66 267.72 257.05 266.79 255.18 264.94C253.29 262.99 252.28 260.35 252.4 257.63C252.4 254.59 253.33 252.15 255.18 250.3C257.28 248.36 260.07 247.36 262.92 247.52C266.18 247.52 268.79 248.45 270.66 250.3C272.56 252.26 273.56 254.91 273.44 257.63Z" fill="#003959"/>
<path d="M316.84 243.48C312.82 243.41 309.01 245.32 306.66 248.59C306.02 247.28 305.07 246.15 303.88 245.31C301.91 244 299.57 243.36 297.21 243.48C294.38 243.48 292.12 244.05 290.4 245.13C289.17 245.92 288.09 246.93 287.23 248.11V244.28H282.49V271.74H287.23V256.35C287.23 253.55 288.03 251.39 289.62 249.89C291.37 248.35 293.66 247.54 295.99 247.65C298.27 247.65 300.03 248.19 301.21 249.26C302.38 250.35 302.95 251.67 302.95 253.35V271.74H307.69V255.63C307.57 253.46 308.36 251.35 309.86 249.78C311.57 248.27 313.82 247.5 316.1 247.65C318.6 247.65 320.47 248.22 321.64 249.32C322.81 250.45 323.4 252.17 323.4 254.45V271.74H328.14V253.19C328.14 250.23 327.16 247.84 325.25 246.1C323.36 244.36 320.53 243.47 316.86 243.47" fill="#003959"/>
<path d="M358.3 267.39C357.73 267.39 357.37 267.24 357.15 266.96C356.98 266.72 356.76 266.2 356.76 265V251.58C356.76 248.84 355.76 246.8 353.76 245.43C351.85 244.13 348.67 243.47 344.37 243.47C340.07 243.47 336.87 244.25 334.91 245.77C332.86 247.47 331.62 249.94 331.47 252.6L331.4 253.14H335.84L335.86 252.71C335.99 250.84 336.66 249.56 337.95 248.75C339.91 247.79 342.08 247.37 344.26 247.51C347.24 247.51 349.37 247.88 350.61 248.6C351.78 249.25 352.35 250.4 352.35 252.08C352.35 252.82 352.24 253.21 352.13 253.41C351.98 253.67 351.67 253.89 351.17 254.06C350.36 254.34 349.52 254.52 348.67 254.6C347.54 254.73 345.87 254.86 343.73 254.99C341.93 255.08 340.29 255.25 338.88 255.45C337.44 255.67 336.05 256.08 334.79 256.62C333.51 257.18 332.39 258.06 331.55 259.19C330.72 260.32 330.31 261.8 330.31 263.54C330.26 266.15 331.61 268.58 333.85 269.91C334.87 270.54 336.02 271 337.24 271.3C338.44 271.58 339.68 271.73 340.89 271.73C342.93 271.73 344.69 271.56 346.17 271.19C347.45 270.91 348.68 270.45 349.82 269.82C350.92 269.19 351.89 268.37 352.69 267.38L352.78 267.88C352.87 268.45 353.06 268.99 353.37 269.47C353.67 269.97 354.17 270.38 354.81 270.69C355.42 270.99 356.2 271.12 357.14 271.12C357.92 271.12 358.92 271.01 360.18 270.77H360.29L360.75 270.75V267.25L360.21 267.29C359.36 267.36 358.73 267.38 358.3 267.38M352.37 257.44V260.53C352.37 261.68 352.07 262.73 351.5 263.66C350.89 264.59 350.09 265.4 349.11 266.03C346.96 267.29 344.52 267.97 342.02 267.99C340.23 268.07 338.45 267.69 336.85 266.88C335.63 266.18 335.02 265.01 335.02 263.29C335.02 261.99 335.52 261.03 336.52 260.38C337.61 259.68 339.22 259.25 341.37 259.05L342.22 258.94C345.98 258.61 348.55 258.33 349.87 258.14C350.85 257.97 351.67 257.75 352.37 257.44Z" fill="#003959"/>
<path d="M381.11 234.78H362.93V271.74H381.67C384.21 271.74 386.52 271.26 388.54 270.33C390.51 269.42 392.25 268.08 393.63 266.39C395.02 264.65 396.07 262.66 396.7 260.52C397.37 258.28 397.72 255.85 397.72 253.26C397.72 247.45 396.28 242.89 393.48 239.67C390.63 236.41 386.48 234.78 381.11 234.78ZM367.72 239.22H380.98C384.92 239.22 387.89 240.37 389.76 242.7C391.65 245 392.63 248.57 392.63 253.27C392.63 255.86 392.33 258.1 391.72 259.9C391.11 261.7 390.26 263.16 389.2 264.25C388.16 265.34 386.92 266.12 385.57 266.6C384.18 267.08 382.63 267.32 380.96 267.32H367.72V239.23V239.22Z" fill="#003959"/>
<path d="M424.9 262.11C424.25 263.98 423.16 265.39 421.64 266.31C420.12 267.22 417.81 267.7 414.86 267.7C411.75 267.7 409.25 266.81 407.45 265.07C405.76 263.49 404.78 261.3 404.71 258.98H430.34V258.5C430.34 255.67 429.91 253.24 428.99 251.28C428.2 249.43 426.95 247.82 425.36 246.58C423.88 245.47 422.19 244.66 420.4 244.19C418.59 243.71 416.73 243.47 414.86 243.47C412.42 243.47 410.23 243.84 408.34 244.6C404.85 245.93 402.1 248.7 400.82 252.21C399.66 255.58 399.61 259.24 400.69 262.65C401.84 266.21 404.51 269.08 407.97 270.48C409.91 271.33 412.21 271.74 414.86 271.74C417.03 271.74 418.97 271.48 420.64 270.98C422.18 270.53 423.64 269.83 424.95 268.89C427.17 267.29 428.82 265.02 429.65 262.41L429.87 261.76H425.02L424.91 262.11H424.9ZM425.4 255.24H404.79C405.15 252.9 406.45 250.81 408.4 249.46C409.33 248.81 410.4 248.33 411.55 248C412.71 247.68 413.9 247.52 415.09 247.52C417.74 247.52 419.96 248.17 421.74 249.41C422.7 250.08 423.5 250.95 424.13 252.02C424.7 252.91 425.13 253.98 425.39 255.24H425.4Z" fill="#003959"/>
<path d="M446.27 256.04L457.66 243.47H451.62L443.31 252.8L434.96 243.47H428.98L440.22 256.04L428.15 269.56H434.17L443.3 259.36L452.5 269.56H458.59L446.26 256.04H446.27Z" fill="#003959"/>
<path d="M116.2 259.39C112.46 268.52 103.56 274.47 93.7001 274.44C87.1801 274.44 81.2601 271.9 76.8901 267.74C69.0601 269.57 61.9101 271.28 56.3701 272.65C64.3201 285.63 78.4801 293.53 93.7001 293.48C115.68 293.48 133.86 277.39 136.82 256.52C132.01 256.74 124.69 257.82 116.21 259.39" fill="#003959"/>
<path d="M76.8899 232.26C81.2399 228.13 87.1499 225.54 93.6999 225.54C103.92 225.54 112.64 231.8 116.2 240.61C123.01 241.98 129.89 242.93 136.81 243.48C133.85 222.61 115.68 206.52 93.6899 206.52C77.8199 206.52 63.9699 214.87 56.3599 227.37C61.8999 228.72 69.0599 230.44 76.8799 232.26" fill="#003959"/>
<mask id="mask0_875_29561" style="mask-type:luminance" maskUnits="userSpaceOnUse" x="47" y="206" width="92" height="88">
<path d="M138.92 206.75H47.6699V293.46H138.92V206.75Z" fill="white"/>
</mask>
<g mask="url(#mask0_875_29561)">
<path d="M96.4099 241.91C63.6699 229.69 60.0599 213.47 92.0999 206.73C68.4899 207.19 47.6599 226.43 47.6599 250.11V250.13C47.6599 273.81 68.4499 293.05 92.0799 293.48C60.0099 286.74 63.6599 270.56 96.4099 258.37C114.63 251.56 138.92 250.24 138.92 250.24V250.15C138.92 250.15 114.63 248.71 96.4099 241.93" fill="#C0CB23"/>
</g>
<mask id="mask1_875_29561" style="mask-type:luminance" maskUnits="userSpaceOnUse" x="463" y="265" width="3" height="3">
<path d="M465.1 265.46H463.23V267.31H465.1V265.46Z" fill="white"/>
</mask>
<g mask="url(#mask1_875_29561)">
<path d="M464.17 267.31C463.65 267.31 463.24 266.89 463.24 266.38C463.24 265.87 463.67 265.47 464.17 265.47C464.71 265.47 465.1 265.88 465.1 266.38C465.1 266.88 464.71 267.31 464.17 267.31ZM464.17 267.13C464.58 267.13 464.89 266.8 464.89 266.39C464.89 265.96 464.59 265.63 464.17 265.63C463.78 265.63 463.47 265.98 463.47 266.39C463.47 266.8 463.77 267.13 464.19 267.13H464.17ZM464.04 266.85H463.82V265.94L464.17 265.92C464.34 265.92 464.43 265.94 464.5 265.99C464.54 266.03 464.59 266.1 464.59 266.21C464.59 266.3 464.5 266.36 464.39 266.41C464.48 266.45 464.52 266.52 464.56 266.63L464.63 266.87H464.41C464.41 266.87 464.34 266.76 464.32 266.65C464.32 266.54 464.25 266.5 464.12 266.5H464.03V266.87L464.04 266.85ZM464.04 266.33H464.15C464.26 266.33 464.37 266.29 464.37 266.2C464.37 266.11 464.28 266.07 464.15 266.07H464.04V266.33Z" fill="#003959"/>
</g>
</svg>
