<svg width="500" height="500" viewBox="0 0 500 500" fill="none" xmlns="http://www.w3.org/2000/svg">
<path d="M213.37 265.8C209.91 265.8 207.42 264.32 205.95 261.4C204.49 258.51 203.76 254.62 203.76 249.84C203.76 245.06 204.53 241.19 206.04 238.33C207.56 235.45 210.05 233.99 213.43 233.99C215.62 233.99 217.33 234.62 218.49 235.88C219.62 237.11 220.44 238.81 220.93 240.95L236.26 240.87C235.49 231.95 229.75 226.9 228.01 225.55C224.32 222.71 219.4 221.27 213.38 221.27C205.44 221.27 199.11 223.89 194.57 229.07C190.03 234.24 187.73 241.36 187.73 250.23C187.73 259.1 189.94 265.96 194.29 270.95C198.64 275.94 204.95 278.47 213.04 278.47C219.64 278.47 224.94 276.79 228.8 273.48C232.64 270.18 235.08 265.58 236.24 259.4H221.25C220.69 261.36 219.8 262.92 218.59 264.06C217.36 265.22 215.6 265.8 213.37 265.8Z" fill="#3C3C3B"/>
<path d="M329.87 275.51L327.76 264C326.55 264.35 325.28 264.64 323.99 264.85C322.65 265.07 321.17 265.18 319.59 265.18C315.15 265.18 312.9 262.76 312.9 257.99V235.35H328.57V223.07H312.9V210.12H297.14V257.54C297.14 261.59 297.63 265.19 298.6 268.24C299.56 271.27 301.36 273.67 303.96 275.38C306.56 277.08 310.33 277.95 315.18 277.95C318.1 277.95 320.74 277.74 323.02 277.32C325.27 276.91 327.58 276.3 329.88 275.51" fill="#3C3C3B"/>
<path d="M337.18 233.38V276.9H353.05V223.07H347.49C341.81 223.07 337.18 227.69 337.18 233.38Z" fill="#3C3C3B"/>
<path d="M398.1 223.08L386.8 262.03L375.78 223.08H358.78L378.12 276.9H395.1L414.49 223.08H398.1Z" fill="#3C3C3B"/>
<path d="M253.43 222.98H236.91L258.31 271.83V271.87C258.31 271.87 257.38 274.83 256.95 276.16C256.56 277.36 256.33 277.56 255.55 278.24C255.44 278.34 255.31 278.45 255.17 278.58C254.06 279.58 252.49 280.09 250.5 280.09C249.67 280.09 248.8 280.02 247.91 279.9C247.04 279.78 245.94 279.54 244.64 279.21L242.22 290.46C245.46 291.64 249.11 292.24 253.07 292.24C256.5 292.24 259.32 291.58 261.46 290.3C263.6 289.01 265.46 287.05 267 284.47C269.86 279.67 290.42 226.41 291.74 222.99H275.81L265.21 256.19L253.42 222.99L253.43 222.98Z" fill="#3C3C3B"/>
<path d="M451.63 228.09L451.4 227.77C449.33 224.87 447.13 223.63 445.05 222.73C442.91 221.8 441 221.4 438.53 221.4C438.16 221.4 437.78 221.4 437.38 221.43C430.94 222.05 425.69 224.61 421.79 229.06C417.25 234.24 414.95 241.36 414.95 250.22C414.95 259.08 417.16 265.95 421.51 270.94C423.61 273.35 426.18 275.2 429.16 276.45C431.91 277.6 434.15 278.13 436.22 278.13C437.74 278.13 439.9 277.87 439.92 277.87C441.71 277.56 443.5 276.98 445.08 276.17C447.52 274.93 449.64 273.12 451.39 270.8L451.61 270.51V276.9H467.48V223.07H451.61V228.09H451.63ZM452.57 251.21C452.57 253.61 452.32 255.8 451.83 257.72C451.33 259.64 450.41 261.4 449.08 262.92C448.17 263.98 447.1 264.8 445.91 265.35C444.72 265.9 443.27 266.18 441.6 266.18C438.62 266.18 436.07 264.93 434.01 262.47C431.96 260.02 430.92 255.89 430.92 250.2C430.92 244.51 431.94 240.57 433.95 237.99C435.97 235.4 438.64 234.09 441.89 234.09C444.79 234.09 447.17 235.1 448.97 237.1C450.07 238.33 450.96 239.97 451.61 241.98C452.25 243.98 452.58 246.52 452.58 249.5V251.2L452.57 251.21Z" fill="#3C3C3B"/>
<path d="M345.16 200.5C340.14 200.5 336.05 204.59 336.05 209.61C336.05 214.63 340.14 218.72 345.16 218.72C350.18 218.72 354.27 214.63 354.27 209.61C354.27 204.59 350.18 200.5 345.16 200.5Z" fill="#3C3C3B"/>
<path d="M35.72 249.66C35.72 282.87 62.64 309.8 95.86 309.8C129.08 309.8 156 282.88 156 249.66C156 219.52 133.83 194.56 104.9 190.2C104.9 190.2 104.88 269.2 104.87 269.5C104.87 282 95.46 293.77 82.96 293.77C70.46 293.77 60.17 284.59 60.17 273.35C60.17 267.1 62.28 261.47 66.68 257.07C72.6 251.15 84.44 245.23 90.82 236.87C94.88 231.56 95.98 228.07 95.98 222.44C95.98 209.94 86.16 199.5 73.66 199.5C68.97 199.5 63.66 201.04 59.87 203.2C53.41 206.89 48.15 212.08 44.01 219.18C38.44 228.75 35.72 238.99 35.72 249.66Z" fill="#009E70"/>
</svg>
