<svg width="500" height="500" viewBox="0 0 500 500" fill="none" xmlns="http://www.w3.org/2000/svg">
<path d="M165.08 230.62C154.54 238.07 144.92 246.48 135.01 254.52C127.85 260.33 120.61 266.02 112.98 271.19C110.41 272.93 107.7 274.47 104.65 275.24C100.9 276.19 98.34 274.78 97.33 271.06C95.84 265.55 96.84 260.21 98.72 254.97C100.48 250.06 103.32 245.69 105.95 240.94C104.44 240.68 103.67 241.56 102.82 242.08C87.34 251.57 72.6 262.2 57.35 272.05C54.36 273.98 51.45 276.06 47.83 276.66C43.05 277.45 39.57 275.7 37.7 271.2C35.19 265.16 35.5 258.86 36.72 252.62C39.79 236.99 48.51 224.72 60.18 214.38C69.55 206.08 80.21 200.08 92.7 197.84C96.47 197.16 100.27 196.55 104.1 197.5C107.11 198.25 107.54 198.89 106.84 201.89C104.16 213.29 97.24 221.76 88.24 228.8C79.79 235.41 70.32 240.36 61.06 245.66C60.51 245.98 59.89 246.21 59.4 246.61C58.06 247.68 55.72 247.82 55.81 250.26C55.92 253.21 56.95 255.78 59.26 257.72C60.55 258.81 61.84 258.17 63.1 257.63C70.26 254.59 77.05 250.84 83.5 246.51C100.31 235.21 117.34 224.25 134.81 214C147.87 206.34 161.88 201.35 177.17 202.24C182.87 202.57 185.92 200.32 189.3 196.55C199.78 184.87 210.08 173.04 220.19 161.04C227.42 152.46 236.21 146.15 247.58 144.19C249.37 143.88 251.19 143.67 253 143.47C253.8 143.38 254.73 143.23 255.26 144.04C255.87 144.96 255.29 145.83 254.76 146.54C254.11 147.41 253.32 148.18 252.55 148.96C231.31 170.45 210.42 192.24 193.87 217.74C187.9 226.94 182.63 236.52 178.29 246.6C177.95 247.39 177.01 248.33 177.79 249.08C178.69 249.93 179.7 248.95 180.47 248.46C182.92 246.89 185.27 245.14 187.7 243.53C190.83 241.45 194.04 239.53 198.01 239.61C200.85 239.67 201.4 240.62 200.03 243.16C199.08 244.93 197.49 246 195.82 246.96C183.69 254 172.47 262.22 162.66 272.3C161.71 273.27 160.63 274.15 159.48 274.87C156.46 276.79 153.79 275.87 152.54 272.49C151.06 268.49 151.49 264.39 152.24 260.34C153.75 252.24 157.54 245.04 161.24 237.81C162.48 235.39 163.78 233 165.06 230.6L165.08 230.62ZM122.69 247.82C122.77 248.39 122.95 249.11 122.95 249.83C122.93 252.54 124.01 252.76 126.28 251.67C130.59 249.62 134.58 247.09 138.19 244.01C146.93 236.57 155.73 229.23 164.77 222.15C168.28 219.4 171.52 216.33 174.47 212.95C175.95 211.26 175.35 210.72 173.47 210.56C173.11 210.53 172.75 210.45 172.39 210.43C158.91 209.69 146.71 213.12 136.46 222.1C128.76 228.84 123.54 237.11 122.69 247.8V247.82ZM55.93 240.38C61.69 238.59 73.02 231.06 78.21 225.68C82.27 221.48 85.25 216.62 86.98 211.03C87.29 210.04 88.13 208.84 87.27 207.97C86.49 207.19 85.36 208.03 84.44 208.3C68.51 213.07 60.6 225.01 55.93 240.37V240.38Z" fill="#053573"/>
<path d="M240.03 289.57C247.62 293.69 251.58 300.24 255.94 306.38C261.99 314.9 270.49 319.05 280.5 320.73C289.73 322.29 298.99 321.58 308.33 320.99C307.97 322.1 307.03 322.14 306.32 322.43C293.73 327.52 280.64 330.09 267.06 329.55C257.79 329.18 248.77 327.47 240.65 322.54C236.59 320.08 233.05 317.06 230.86 312.84C224.58 300.74 213.72 296.07 201.12 294.08C194.54 293.04 187.92 293.48 180.6 293.74C182.49 292.28 184.07 291.67 185.65 291.07C193.13 288.19 201.02 287.26 208.88 286.25C209.83 286.13 211.12 286.43 211.51 285.3C211.82 284.39 210.81 283.71 210.31 282.97C208.35 280.12 205.3 278.19 203.77 274.95C199.15 265.2 198.91 255.08 202.09 245.07C208.82 223.86 223.49 209.64 243.25 200.36C252.51 196.01 262.31 194.27 272.56 195.88C291.37 198.83 300.15 213.67 298.01 230.57C295.21 252.6 282.56 268.02 264.15 279.32C256.88 283.78 249 286.88 240.05 289.57H240.03ZM223.81 256.29C223.81 256.93 223.8 257.57 223.81 258.21C224.06 270.71 231.88 276.31 243.54 271.91C265.22 263.73 274.37 243.15 272.81 223.62C272.24 216.45 267.56 212.6 260.67 212.41C254.98 212.25 249.79 213.88 245.2 217.05C231.51 226.51 224.64 239.78 223.8 256.29H223.81Z" fill="#FFB600"/>
<path d="M328.38 230.71C338.7 221.19 349.5 212.39 361.8 205.62C368.78 201.78 375.98 198.44 384.24 198.58C384.79 198.58 385.34 198.58 385.88 198.64C392.38 199.32 394.21 202.48 391.39 208.36C389.09 213.14 385.82 217.34 383.07 221.86C381.2 224.93 379.15 227.92 377.92 231.73C379.84 231.08 381.1 230.04 382.41 229.11C389.93 223.77 396.74 217.54 404.01 211.88C410.65 206.71 417.5 201.89 425.45 198.89C429.07 197.52 432.78 196.68 436.68 196.95C440.32 197.21 441.63 198.67 441.87 202.26C442.29 208.56 439.63 213.84 436.34 218.82C430.06 228.33 425.75 238.77 421.52 249.26C421.36 249.65 421.04 250.06 421.57 250.82C424.85 249 428.22 247.26 431.46 245.3C440.66 239.72 449.99 234.36 458.98 228.43C460.66 227.32 462.42 226.34 464.57 226.52C465.71 226.62 466.77 226.93 467.28 228.05C467.8 229.18 467.34 230.2 466.59 231.07C465.08 232.83 463.16 234.09 461.14 235.15C447.69 242.25 435.39 251.05 423.68 260.69C419.03 264.51 414.56 268.54 409.98 272.45C407.19 274.83 404.26 276.98 400.7 278.11C397.55 279.11 396.14 278.47 395.1 275.32C394.01 272.03 394.23 268.64 394.75 265.3C396.39 254.64 401.46 245.31 406.41 235.96C409.48 230.16 412.67 224.42 415.76 218.63C416.22 217.77 416.94 216.73 416.3 215.82C415.56 214.8 414.26 215.21 413.23 215.42C409.59 216.18 406.45 218.08 403.43 220.13C392.32 227.64 382.87 237 373.91 246.88C367.7 253.72 362.06 260.96 357.7 269.16C356.16 272.05 354.27 274.77 351.78 276.98C350.28 278.31 348.66 279.25 346.57 278.54C344.4 277.8 343.5 276.06 343.16 273.97C342.67 270.94 343.16 267.97 343.89 265.03C346.93 252.69 352.42 241.4 358.74 230.47C360.98 226.6 363.15 222.7 365.3 218.78C365.77 217.93 366.41 216.93 365.57 215.99C364.78 215.1 363.74 215.42 362.76 215.71C357.5 217.28 353.14 220.48 348.78 223.63C333.02 235.03 319.91 248.99 309.04 265.09C306.34 269.1 303.7 273.16 300.19 276.54C298.8 277.88 297.31 279.4 295.18 278.57C292.99 277.72 292.73 275.56 292.61 273.52C292.05 264.12 295.05 255.53 298.88 247.18C303.91 236.22 309.99 225.83 316.19 215.51C320.69 208.02 326.79 202.55 335.79 201.09C338.61 200.63 341.43 200.81 344.25 200.82C346.31 200.83 346.61 201.74 345.53 203.38C342.43 208.11 339.36 212.86 336.25 217.58C333.44 221.84 330.62 226.09 328.37 230.7L328.38 230.71Z" fill="#053573"/>
<path d="M216.87 355.22C217.07 356.64 216.46 356.88 215.32 356.28C212.98 355.05 210.61 353.88 208.34 352.55C206.74 351.61 205.38 351.63 203.78 352.61C201.69 353.89 199.44 354.91 197.26 356.05C195.55 356.95 195.13 356.3 195.45 354.61C195.9 352.2 196.26 349.76 196.73 347.35C197.06 345.69 196.72 344.36 195.42 343.18C193.54 341.46 191.8 339.59 189.97 337.82C188.72 336.61 189.16 335.94 190.65 335.69C193.25 335.25 195.86 334.81 198.48 334.53C200.04 334.36 200.94 333.59 201.58 332.25C202.6 330.11 203.65 327.99 204.76 325.9C205.12 325.23 205.21 324.07 206.2 324.15C207.09 324.23 207.23 325.32 207.59 326.03C208.63 328.05 209.69 330.08 210.62 332.15C211.28 333.62 212.22 334.42 213.89 334.57C216.33 334.79 218.76 335.24 221.19 335.6C221.9 335.71 222.82 335.66 223.13 336.38C223.47 337.19 222.59 337.64 222.11 338.13C220.38 339.88 218.66 341.64 216.85 343.3C215.67 344.38 215.18 345.49 215.54 347.15C216.13 349.81 216.45 352.53 216.89 355.23L216.87 355.22Z" fill="#FFB600"/>
<path d="M176.14 322.93C176.32 324.19 175.78 324.39 174.77 323.87C172.71 322.79 170.61 321.75 168.6 320.57C167.19 319.74 165.99 319.76 164.57 320.62C162.72 321.75 160.74 322.65 158.82 323.66C157.31 324.45 156.94 323.88 157.22 322.39C157.62 320.26 157.93 318.11 158.35 315.98C158.64 314.51 158.34 313.34 157.2 312.3C155.54 310.78 154 309.13 152.39 307.56C151.29 306.49 151.68 305.9 152.99 305.68C155.29 305.29 157.59 304.9 159.9 304.65C161.28 304.5 162.07 303.82 162.64 302.64C163.54 300.75 164.47 298.88 165.44 297.03C165.75 296.44 165.83 295.41 166.71 295.49C167.5 295.56 167.62 296.53 167.94 297.15C168.86 298.94 169.79 300.72 170.61 302.55C171.19 303.85 172.02 304.55 173.5 304.69C175.66 304.88 177.8 305.28 179.94 305.6C180.57 305.69 181.38 305.65 181.65 306.29C181.95 307 181.18 307.4 180.75 307.83C179.22 309.37 177.7 310.93 176.11 312.4C175.07 313.36 174.63 314.33 174.96 315.8C175.48 318.15 175.76 320.55 176.15 322.93H176.14Z" fill="#FFB600"/>
<path d="M126.56 308.66C126.7 309.64 126.28 309.8 125.5 309.39C123.9 308.55 122.27 307.74 120.71 306.83C119.61 306.19 118.68 306.2 117.58 306.87C116.15 307.75 114.6 308.45 113.11 309.23C111.94 309.84 111.65 309.4 111.87 308.25C112.18 306.59 112.42 304.93 112.75 303.27C112.97 302.13 112.75 301.22 111.85 300.41C110.56 299.23 109.37 297.95 108.11 296.73C107.25 295.9 107.55 295.44 108.58 295.27C110.36 294.97 112.15 294.67 113.95 294.47C115.02 294.35 115.64 293.82 116.08 292.91C116.78 291.44 117.5 289.99 118.26 288.55C118.5 288.09 118.57 287.29 119.25 287.35C119.86 287.4 119.95 288.16 120.2 288.64C120.92 290.03 121.64 291.41 122.28 292.84C122.73 293.85 123.37 294.4 124.52 294.5C126.2 294.65 127.86 294.96 129.52 295.2C130.01 295.27 130.64 295.24 130.85 295.74C131.08 296.29 130.48 296.6 130.15 296.94C128.96 298.14 127.78 299.35 126.54 300.49C125.73 301.23 125.39 301.99 125.64 303.13C126.04 304.96 126.26 306.82 126.56 308.67V308.66Z" fill="#FFB600"/>
</svg>
