<svg width="500" height="500" viewBox="0 0 500 500" fill="none" xmlns="http://www.w3.org/2000/svg">
<path d="M246.85 63.81C348.83 63.56 433.07 146.13 433.08 249.98C433.09 352.47 350.6 436.18 246.64 436.19C142.91 436.21 60.62 352.21 60.68 250.15C60.74 146.63 144.79 63.65 246.85 63.82V63.81ZM286.95 267C287.62 267.33 287.52 268 287.67 268.52C290.79 279 296.3 287.93 304.79 294.91C315.69 303.88 328.58 307.34 342.36 308.08C348.43 308.41 354.52 308.21 360.56 307.38C365.72 306.67 370.83 305.73 375.74 303.88C376.93 303.43 377.36 302.81 377.11 301.51C375.99 295.83 374.9 290.15 373.93 284.44C373.64 282.74 373.06 282.55 371.5 283C361.72 285.79 351.76 286.97 341.69 285.02C328.32 282.44 319.29 274.69 315.11 261.61C312.6 253.76 312.47 245.75 313.72 237.67C316.13 222.02 326.6 211.03 342.09 208.17C352.04 206.34 361.77 207.5 371.23 211.01C373.24 211.76 373.24 211.78 373.81 209.66C375.02 205.2 376.22 200.74 377.45 196.29C379.01 190.66 379.05 190.55 373.39 188.95C357.58 184.48 341.76 184.41 326.03 189.33C316.72 192.24 308.5 197.11 301.67 204.11C293.06 212.94 288.21 223.67 286.2 235.76C285.907 237.507 284.843 238.38 283.01 238.38C270.49 238.38 257.98 238.38 245.46 238.38C243.747 238.38 242.887 239.263 242.88 241.03C242.88 246.06 242.88 251.09 242.88 256.12C242.88 258.073 243.83 259.05 245.73 259.05C250.18 259.05 254.62 259.09 259.07 259.03C260.64 259.01 261.23 259.52 261.21 261.15C261.14 268.17 261.12 275.19 261.22 282.21C261.25 284.09 260.52 284.81 258.79 285.09C252.81 286.09 246.8 286.34 240.82 285.37C227.91 283.27 218.47 276.48 213.47 264.18C210.13 255.96 209.62 247.38 210.9 238.67C213.07 223.84 222.66 213.28 237.14 209.51C243.58 207.83 250.12 207.84 256.66 208.2C263.22 208.55 269.67 209.71 275.73 212.43C276.95 212.98 277.34 212.58 277.65 211.4C279.18 205.45 280.72 199.51 282.38 193.6C282.83 191.98 282.38 191.33 280.86 190.8C274.82 188.66 268.6 187.39 262.24 186.71C250.34 185.45 238.54 185.78 226.93 188.93C213.5 192.58 202.05 199.35 193.62 210.63C187.05 219.42 183.53 229.42 182.49 240.31C181.43 251.35 182.38 262.14 186.52 272.54C187.82 275.81 189.4 278.94 191.29 281.91C192.17 283.29 191.98 283.56 190.33 283.62C189.98 283.63 189.63 283.62 189.28 283.62C178.52 283.62 167.76 283.62 156.99 283.62C155.01 283.62 154.017 282.623 154.01 280.63C154.01 250.33 154.01 220.03 154.01 189.74C154.01 188.027 153.133 187.17 151.38 187.17C144.19 187.17 136.99 187.17 129.8 187.17C127.48 187.17 127.47 187.17 127.47 189.5C127.47 227.46 127.47 265.42 127.47 303.38C127.47 305.71 127.48 305.72 129.82 305.72C141.87 305.72 153.92 305.72 165.97 305.72C176.91 305.72 187.85 305.72 198.78 305.72C200.493 305.72 201.35 304.837 201.35 303.07C201.35 300.55 201.34 298.04 201.36 295.52C201.36 295.02 201.14 294.36 201.71 294.09C202.28 293.82 202.64 294.43 203.04 294.73C207.93 298.44 213.3 301.25 219.12 303.17C229.57 306.61 240.33 307.61 251.29 307.17C262.7 306.71 273.78 304.47 284.73 301.4C286.22 300.98 286.75 300.24 286.74 298.68C286.68 288.74 286.7 278.79 286.72 268.85C286.72 268.24 286.52 267.59 286.94 267H286.95Z" fill="#00788A"/>
</svg>
