<svg width="500" height="500" viewBox="0 0 500 500" fill="none" xmlns="http://www.w3.org/2000/svg">
<path d="M360.45 182.71C360.57 184.58 363.06 186.19 365.85 186.27H366.3C369.1 186.36 371.29 184.87 371.36 182.97C371.43 181.07 369.22 179.5 366.26 179.43H365.63C362.73 179.4 360.33 180.84 360.45 182.71ZM350.73 179.86H350.61C347.71 180.09 345.93 181.73 346.71 183.57C347.49 185.41 350.38 186.76 353.07 186.56H353.17C355.87 186.35 357.5 184.65 356.92 182.8C356.39 181.1 354.05 179.87 351.44 179.84C351.2 179.84 350.96 179.85 350.73 179.87M374.89 183.25C374.38 185.13 376.35 186.97 379.1 187.36H379.2C381.95 187.76 384.53 186.52 385.16 184.61C385.78 182.7 384.14 180.88 381.28 180.53H381.16C380.85 180.48 380.55 180.46 380.25 180.46C377.71 180.44 375.34 181.59 374.88 183.26M336.43 181.67L336.32 181.69C333.68 182.17 332.69 183.98 334.13 185.75C335.57 187.52 338.73 188.6 341.15 188.13L341.25 188.11C343.68 187.64 344.63 185.78 343.41 184C342.4 182.53 340.12 181.58 337.86 181.56C337.38 181.55 336.89 181.59 336.43 181.67ZM388.53 185.25C387.48 187.09 388.92 189.14 391.52 189.84L391.62 189.87C394.23 190.57 397.03 189.61 398.12 187.73C399.2 185.85 398.12 183.81 395.49 183.14L395.38 183.11C394.84 182.98 394.27 182.91 393.71 182.9C391.54 182.88 389.36 183.78 388.53 185.24M323.88 184.81L323.78 184.84C321.57 185.57 321.47 187.49 323.5 189.17C325.54 190.85 328.78 191.65 330.79 190.92L330.86 190.89C332.87 190.16 333.05 188.18 331.22 186.5C329.88 185.27 327.76 184.55 325.84 184.53C325.14 184.53 324.46 184.62 323.87 184.81M401.21 188.77C399.74 190.53 400.66 192.77 403.03 193.77L403.12 193.81C405.49 194.82 408.4 194.2 409.84 192.4C411.26 190.61 410.71 188.35 408.37 187.38L408.27 187.34C407.55 187.04 406.74 186.89 405.93 186.89C404.1 186.88 402.22 187.56 401.21 188.77ZM313.98 189.16L313.91 189.2C312.29 190.15 313.09 192.16 315.59 193.73C318.1 195.29 321.23 195.8 322.69 194.83L322.75 194.79C324.21 193.83 323.58 191.76 321.24 190.21C319.75 189.22 317.86 188.68 316.27 188.66C315.36 188.66 314.56 188.81 313.97 189.16M412.55 193.82C410.79 195.45 411.23 197.83 413.33 199.14L413.41 199.18C415.51 200.51 418.41 200.24 420.07 198.58C421.73 196.92 421.6 194.51 419.59 193.22L419.51 193.17C418.68 192.64 417.65 192.38 416.61 192.37C415.1 192.36 413.57 192.85 412.55 193.81M307.38 194.63L307.34 194.68C306.41 195.84 308.05 197.9 310.87 199.32C313.68 200.73 316.53 200.96 317.35 199.78L317.38 199.74C318.21 198.56 316.79 196.45 314.08 195.06C312.6 194.29 311.01 193.89 309.72 193.88C308.66 193.86 307.8 194.11 307.37 194.63M422.42 200.39C420.48 201.84 420.52 204.29 422.34 205.91L422.41 205.98C424.23 207.6 427.04 207.74 428.84 206.26C430.63 204.79 430.84 202.28 429.16 200.69L429.09 200.62C428.22 199.8 426.98 199.38 425.72 199.37C424.55 199.35 423.36 199.69 422.43 200.39M304.49 201.1V201.16C304.3 202.51 306.66 204.58 309.61 205.83C312.56 207.08 314.94 207.01 315.09 205.64V205.59C315.24 204.23 313.12 202.11 310.21 200.88C308.88 200.31 307.6 200.04 306.59 200.02C305.41 200.01 304.59 200.37 304.48 201.1M430.83 208.4C428.8 209.61 428.51 212.09 430.05 213.97L430.11 214.04C431.65 215.92 434.34 216.48 436.2 215.26C438.07 214.04 438.53 211.51 437.14 209.63L437.08 209.55C436.21 208.38 434.77 207.75 433.32 207.74C432.46 207.73 431.59 207.94 430.83 208.4ZM305.43 208.46L305.45 208.53C306 210.03 308.92 212.09 311.82 213.15C314.72 214.21 316.53 213.86 316 212.32L315.98 212.26C315.45 210.73 312.76 208.64 309.85 207.61C308.76 207.22 307.8 207.04 307.05 207.03C305.78 207.02 305.1 207.52 305.44 208.46M310.04 216.58L310.09 216.65C311.32 218.28 314.58 220.28 317.27 221.14C319.96 222 321.1 221.35 319.95 219.69L319.91 219.62C318.76 217.95 315.67 215.93 312.91 215.11C312.12 214.87 311.45 214.76 310.92 214.75C309.59 214.75 309.16 215.42 310.04 216.58ZM437.85 217.71C435.8 218.63 435.23 221.05 436.51 223.14L436.55 223.22C437.83 225.32 440.35 226.32 442.25 225.4C444.15 224.48 444.82 222.01 443.69 219.91L443.65 219.82C442.82 218.28 441.2 217.36 439.58 217.35C438.98 217.35 438.4 217.46 437.85 217.71ZM329.69 232.51L329.75 232.57C331.2 233.98 333.96 235.53 335.85 236.04C337.75 236.55 338.14 235.81 336.77 234.37L336.72 234.32C335.36 232.88 332.69 231.33 330.71 230.84C330.32 230.74 329.97 230.69 329.7 230.69C328.61 230.69 328.54 231.39 329.7 232.51M317.85 225.3L317.92 225.37C319.71 227.1 323.11 229.02 325.44 229.65C327.78 230.28 328.25 229.37 326.58 227.6L326.51 227.53C324.83 225.76 321.54 223.84 319.1 223.23C318.61 223.11 318.19 223.05 317.86 223.04C316.51 223.04 316.42 223.9 317.85 225.29M443.56 228.12C441.52 228.69 440.72 230.98 441.74 233.24L441.78 233.33C442.8 235.59 445.12 237.01 447.02 236.46C448.91 235.91 449.77 233.58 448.89 231.29L448.85 231.19C448.12 229.28 446.33 228.01 444.56 227.99C444.23 227.99 443.89 228.03 443.56 228.12ZM448.02 239.33C446.02 239.52 445.01 241.58 445.76 243.94L445.79 244.03C446.54 246.39 448.65 248.18 450.52 248.03C452.39 247.87 453.42 245.79 452.8 243.4L452.77 243.3C452.18 241.04 450.25 239.35 448.36 239.32C448.25 239.32 448.14 239.32 448.03 239.32M448.55 254.9V254.99C449.04 257.36 450.89 259.49 452.7 259.73C454.51 259.98 455.7 258.23 455.35 255.81V255.71C454.99 253.31 453.13 251.18 451.2 250.97C451.1 250.97 451.01 250.96 450.92 250.96C449.15 250.95 448.1 252.64 448.55 254.89M450.06 265.73V265.82C450.26 268.12 451.79 270.5 453.5 271.14C455.21 271.79 456.54 270.43 456.48 268.09V267.99C456.41 265.65 454.88 263.26 453.05 262.65C452.77 262.55 452.49 262.51 452.24 262.51C450.83 262.49 449.9 263.78 450.07 265.73M374.91 269.52C374.75 270.14 376.52 272.05 378.7 273.83L378.79 273.9C380.97 275.68 382.75 276.66 382.92 276.07C383.08 275.48 381.56 273.52 379.37 271.72L379.29 271.65C377.56 270.22 375.92 269.33 375.24 269.33C375.06 269.33 374.94 269.38 374.91 269.51M450.23 276.03V276.11C450.13 278.26 451.31 280.81 452.86 281.83C454.41 282.85 455.85 281.93 456.08 279.76V279.67C456.32 277.5 455.16 274.91 453.47 273.91C453.02 273.65 452.6 273.52 452.2 273.52C451.11 273.51 450.3 274.44 450.23 276.03ZM384.12 276.88C384.25 277.73 386.02 279.76 387.89 281.45L387.97 281.52C389.85 283.2 391.2 283.92 391.14 283.08C391.07 282.25 389.55 280.17 387.6 278.46L387.53 278.39C386.15 277.19 384.95 276.5 384.42 276.5C384.19 276.5 384.08 276.62 384.12 276.86M449.1 285.46V285.53C448.71 287.45 449.52 290.08 450.85 291.43C452.18 292.79 453.65 292.34 454.17 290.4L454.19 290.32C454.71 288.38 453.96 285.7 452.49 284.36C451.93 283.86 451.37 283.62 450.86 283.61C450.02 283.61 449.33 284.26 449.1 285.46ZM393.32 285.11C393.63 286.19 395.25 288.3 396.79 289.86L396.86 289.93C398.41 291.49 399.41 291.92 399.23 290.85C399.05 289.79 397.64 287.62 395.95 286.05L395.88 285.99C394.85 285.02 394 284.51 393.56 284.51C393.29 284.5 393.19 284.7 393.31 285.11M401.04 292.69C401.41 293.98 402.78 296.14 404.01 297.54L404.06 297.6C405.28 299 406.07 299.13 405.88 297.84C405.69 296.56 404.44 294.34 403.03 292.93L402.98 292.88C402.24 292.15 401.65 291.78 401.3 291.77C400.98 291.77 400.87 292.08 401.05 292.69M446.76 293.7L446.74 293.76C446.13 295.4 446.56 298.01 447.63 299.63C448.69 301.25 450.11 301.28 450.88 299.63L450.91 299.56C451.68 297.93 451.36 295.25 450.14 293.63C449.54 292.83 448.87 292.44 448.26 292.43C447.62 292.43 447.06 292.85 446.76 293.69M407.35 299.45C407.69 300.94 408.76 303.09 409.74 304.3L409.78 304.35C410.75 305.56 411.43 305.36 411.29 303.87C411.16 302.38 410.1 300.16 408.92 298.96L408.88 298.92C408.37 298.41 407.96 298.16 407.68 298.15C407.3 298.15 407.16 298.6 407.35 299.45ZM443.47 300.53L443.44 300.58C442.65 301.89 442.75 304.41 443.51 306.24C444.28 308.06 445.56 308.53 446.5 307.24L446.54 307.18C447.47 305.88 447.57 303.31 446.65 301.47C446.09 300.36 445.34 299.77 444.65 299.77C444.2 299.77 443.78 300.02 443.47 300.54M412.52 305.24C412.77 306.9 413.58 309.01 414.38 310L414.42 310.04C415.22 311.02 415.9 310.49 415.86 308.82C415.82 307.15 414.91 304.96 413.89 304L413.85 303.97C413.51 303.65 413.23 303.5 413.01 303.5C412.55 303.49 412.34 304.12 412.51 305.23M439.51 305.78L439.47 305.82C438.57 306.79 438.38 309.13 438.87 311.1C439.37 313.07 440.45 313.92 441.47 312.99L441.51 312.95C442.53 312.02 442.98 309.62 442.37 307.63C441.93 306.22 441.12 305.39 440.36 305.38C440.06 305.38 439.77 305.51 439.51 305.78ZM416.92 309.87C417.06 311.68 417.67 313.71 418.41 314.44L418.44 314.47C419.18 315.2 419.94 314.34 419.97 312.5C420.02 310.66 419.2 308.58 418.27 307.88L418.23 307.85C418.02 307.69 417.83 307.61 417.66 307.61C417.1 307.61 416.81 308.47 416.92 309.87ZM435.2 309.4L435.16 309.42C434.21 310.02 433.83 312.15 434.09 314.18C434.35 316.21 435.21 317.41 436.23 316.85L436.27 316.83C437.28 316.26 438 314.11 437.66 312.04C437.39 310.34 436.54 309.25 435.72 309.24C435.54 309.23 435.37 309.28 435.2 309.39M421 313.21C421.06 315.14 421.57 317.04 422.33 317.49L422.37 317.51C423.13 317.96 423.98 316.75 424.05 314.79C424.13 312.83 423.32 310.88 422.42 310.47H422.39C422.28 310.4 422.17 310.37 422.06 310.37C421.35 310.37 420.96 311.52 421 313.2M430.83 311.35H430.79C429.84 311.6 429.35 313.46 429.45 315.5C429.55 317.54 430.22 319.04 431.17 318.84H431.21C432.16 318.63 433.02 316.76 432.9 314.68C432.8 312.75 431.92 311.33 431.04 311.32C430.97 311.32 430.9 311.33 430.83 311.35ZM425.1 315.15C425.14 317.16 425.67 318.89 426.52 319.02H426.56C427.41 319.16 428.3 317.62 428.32 315.57C428.36 313.52 427.46 311.77 426.55 311.68H426.45C425.58 311.66 425.07 313.19 425.1 315.14" fill="url(#paint0_linear_875_29509)"/>
<path d="M369.96 165.53H369.25C365.21 165.53 361.2 167.23 360.6 169.39C360 171.55 362.8 173.38 366.56 173.43H367.14C370.91 173.49 374.44 171.71 375.36 169.51C376.25 167.34 374.03 165.59 370.06 165.54H369.96V165.53ZM380.08 169.75C378.56 171.92 380.55 174.05 384.13 174.46H384.27C387.87 174.88 391.84 173.37 393.52 171.14C395.2 168.91 393.84 166.85 390.08 166.5H389.92C389.58 166.46 389.24 166.44 388.89 166.43C385.38 166.39 381.45 167.77 380.08 169.75ZM348.5 166.28H348.33C344.26 166.6 341.14 168.51 341.53 170.63C341.92 172.74 345.4 174.27 349.11 173.99H349.25C352.97 173.69 355.79 171.69 355.76 169.55C355.73 167.63 353.17 166.27 349.69 166.24C349.3 166.24 348.9 166.24 348.49 166.28M397.85 171.81C395.61 173.96 396.77 176.35 400.02 177.13L400.15 177.16C403.41 177.93 407.57 176.75 409.84 174.53C412.1 172.31 411.61 169.96 408.32 169.24L408.18 169.21C407.56 169.08 406.88 169.01 406.18 169C403.16 168.97 399.65 170.06 397.85 171.8M328.19 168.62L328.03 168.64C324.24 169.25 322.26 171.34 323.67 173.38C325.08 175.41 329.03 176.63 332.45 176.03L332.58 176.01C336 175.41 337.89 173.23 336.87 171.18C336.05 169.53 333.39 168.49 330.4 168.46C329.67 168.46 328.93 168.5 328.2 168.62M310.06 172.46L309.93 172.5C306.71 173.39 306.04 175.62 308.36 177.56C310.69 179.49 314.85 180.37 317.73 179.48L317.84 179.45C320.72 178.56 321.5 176.23 319.52 174.31C318.12 172.94 315.54 172.14 313.01 172.12C312 172.11 310.99 172.22 310.06 172.47M413.6 175.69C410.87 177.77 411.26 180.41 414.09 181.56L414.19 181.6C417.03 182.76 421.15 181.96 423.79 179.81C426.42 177.66 426.66 175.02 423.92 173.93L423.8 173.89C423 173.57 422.03 173.41 420.99 173.41C418.47 173.38 415.53 174.22 413.6 175.7M295.53 177.71L295.43 177.76C293.02 178.91 293.7 181.25 296.76 183.05C299.82 184.85 303.91 185.4 306.03 184.23L306.11 184.19C308.24 183.03 307.83 180.6 305.05 178.82C303.32 177.71 300.99 177.12 298.89 177.09C297.62 177.08 296.43 177.28 295.52 177.71M426.94 181.44C423.93 183.41 423.7 186.23 426.08 187.78L426.17 187.84C428.55 189.39 432.51 189.02 435.32 187C438.12 184.97 438.89 182.1 436.7 180.62L436.6 180.55C435.73 179.96 434.5 179.67 433.14 179.66C431.09 179.65 428.74 180.26 426.94 181.44ZM285.65 184.25L285.59 184.31C284.17 185.69 286.1 188.11 289.66 189.74C293.23 191.38 296.93 191.59 298.17 190.18L298.21 190.13C299.44 188.72 297.88 186.24 294.51 184.63C292.72 183.77 290.71 183.33 289.02 183.31C287.54 183.31 286.3 183.62 285.64 184.26M437.85 189.13C434.76 190.91 434.05 193.88 436.01 195.81L436.08 195.88C438.04 197.81 441.73 197.93 444.56 196.11C447.38 194.29 448.48 191.24 446.78 189.36L446.71 189.28C445.85 188.33 444.39 187.84 442.75 187.83C441.14 187.82 439.38 188.25 437.85 189.13ZM281.11 191.95V192.02C280.75 193.61 283.75 196.05 287.53 197.5C291.32 198.94 294.41 198.83 294.68 197.2V197.13C294.96 195.5 292.36 193 288.66 191.59C287.01 190.96 285.39 190.64 284.08 190.63C282.46 190.63 281.3 191.07 281.12 191.95M446.57 198.68C443.53 200.2 442.5 203.24 444.08 205.51L444.14 205.6C445.73 207.89 449.12 208.54 451.88 207C454.63 205.46 455.91 202.34 454.6 200.08L454.54 199.98C453.74 198.6 452.06 197.85 450.18 197.83C449 197.83 447.74 198.1 446.57 198.68ZM282.06 200.69L282.09 200.76C282.8 202.54 286.6 204.96 290.34 206.19C294.08 207.43 296.37 206.99 295.68 205.16L295.66 205.09C294.97 203.27 291.55 200.79 287.78 199.6C286.42 199.17 285.2 198.95 284.24 198.94C282.54 198.93 281.62 199.54 282.07 200.67M453.45 210.02C450.55 211.19 449.27 214.19 450.54 216.78L450.59 216.88C451.85 219.47 454.95 220.67 457.58 219.51C460.22 218.34 461.59 215.24 460.6 212.65L460.56 212.54C459.85 210.66 457.96 209.57 455.88 209.55C455.08 209.55 454.25 209.71 453.45 210.03M288.21 210.31L288.28 210.39C289.95 212.32 294.24 214.69 297.68 215.69C301.13 216.7 302.5 215.92 300.95 213.94L300.89 213.87C299.33 211.89 295.34 209.49 291.78 208.53C290.79 208.26 289.94 208.14 289.28 208.13C287.55 208.12 287.01 208.92 288.21 210.31ZM298.84 220.64L298.94 220.73C301.38 222.78 305.83 225.05 308.78 225.81C311.74 226.57 312.2 225.48 309.92 223.38L309.83 223.3C307.56 221.19 303.28 218.91 300.16 218.2C299.54 218.06 299.02 217.99 298.6 217.98C296.9 217.97 296.88 219 298.83 220.65M458.79 222.85C456.04 223.6 454.61 226.45 455.57 229.28L455.61 229.39C456.57 232.21 459.36 233.95 461.87 233.24C464.38 232.52 465.85 229.58 465.12 226.73L465.09 226.61C464.49 224.24 462.42 222.69 460.17 222.67C459.72 222.67 459.25 222.72 458.79 222.85ZM312.58 231.13L312.69 231.21C315.36 233.09 319.23 234.97 321.31 235.4C323.4 235.83 323.06 234.63 320.57 232.69L320.47 232.62C317.98 230.68 314.13 228.81 311.87 228.42C311.59 228.38 311.36 228.35 311.16 228.35C309.72 228.34 310.23 229.47 312.57 231.13M462.74 236.85C460.15 237.12 458.59 239.71 459.26 242.67L459.29 242.78C459.95 245.74 462.41 247.98 464.79 247.77C467.17 247.55 468.74 244.91 468.28 241.91L468.26 241.78C467.84 238.95 465.63 236.85 463.22 236.83C463.06 236.83 462.9 236.83 462.74 236.84M461.51 256.44V256.55C461.86 259.54 463.94 262.21 466.16 262.51C468.39 262.82 470.08 260.59 469.93 257.55V257.42C469.77 254.38 467.7 251.72 465.28 251.48C465.17 251.48 465.06 251.47 464.95 251.46C462.7 251.45 461.18 253.59 461.51 256.44ZM462.22 270.08V270.19C462.21 273.09 463.82 276.08 465.84 276.89C467.85 277.7 469.67 276 469.88 273.05V272.92C470.1 269.97 468.47 266.96 466.25 266.2C465.91 266.08 465.58 266.03 465.26 266.02C463.52 266 462.22 267.63 462.21 270.08M371.96 271.66C371.94 272.34 374.26 274.57 376.9 276.7L377.01 276.79C379.65 278.91 381.62 280.15 381.67 279.51C381.71 278.88 379.79 276.58 377.11 274.41L377.01 274.33C374.86 272.58 372.9 271.48 372.21 271.47C372.06 271.47 371.96 271.53 371.96 271.66ZM461.22 283.02V283.12C460.81 285.81 461.9 289.01 463.61 290.3C465.33 291.59 467.22 290.46 467.84 287.73L467.86 287.62C468.47 284.89 467.4 281.63 465.46 280.38C464.95 280.04 464.43 279.89 463.95 279.88C462.62 279.88 461.52 281.05 461.23 283.02M384.67 282.1C384.98 283.05 387.13 285.42 389.24 287.45L389.33 287.54C391.44 289.57 392.81 290.49 392.65 289.58C392.48 288.66 390.71 286.21 388.45 284.16L388.37 284.08C386.74 282.59 385.37 281.73 384.85 281.73C384.66 281.73 384.58 281.85 384.67 282.11M395.02 292C395.45 293.21 397.22 295.68 398.77 297.56L398.84 297.64C400.39 299.52 401.33 300.12 401.14 298.94C400.95 297.76 399.49 295.2 397.69 293.3L397.62 293.23C396.48 292.01 395.56 291.36 395.16 291.35C394.93 291.35 394.86 291.56 395.02 292ZM458.48 294.79L458.45 294.88C457.69 297.26 458.19 300.54 459.5 302.24C460.82 303.94 462.68 303.42 463.7 301.03L463.74 300.93C464.75 298.53 464.32 295.17 462.74 293.48C462.14 292.84 461.49 292.53 460.87 292.53C459.86 292.53 458.94 293.32 458.47 294.8M402.91 301.17C403.27 302.63 404.52 305.15 405.56 306.85L405.6 306.92C406.63 308.62 407.35 308.88 407.31 307.43C407.27 305.99 406.21 303.38 404.85 301.66L404.8 301.59C404.06 300.65 403.45 300.18 403.12 300.17C402.84 300.17 402.74 300.5 402.91 301.16M454.15 304.96L454.11 305.03C453.05 307.03 452.96 310.26 453.79 312.28C454.62 314.31 456.31 314.39 457.66 312.4L457.72 312.31C459.06 310.32 459.32 307 458.19 304.96C457.63 303.95 456.89 303.44 456.16 303.43C455.42 303.43 454.68 303.94 454.14 304.95M408.55 309.42C408.7 311.11 409.35 313.63 410.01 315.12L410.04 315.19C410.7 316.67 411.41 316.56 411.64 314.87C411.86 313.19 411.2 310.56 410.18 309.08L410.14 309.02C409.68 308.35 409.28 308.02 408.99 308.01C408.64 308.01 408.46 308.49 408.54 309.42M448.63 313.23L448.58 313.29C447.31 314.86 446.7 317.93 447.02 320.18C447.34 322.44 448.69 323.06 450.24 321.53L450.31 321.46C451.86 319.92 452.77 316.77 452.16 314.48C451.8 313.08 451.03 312.33 450.2 312.32C449.67 312.32 449.12 312.61 448.63 313.22M412.52 316.56C412.36 318.46 412.49 320.95 412.94 322.18L412.96 322.23C413.41 323.47 414.33 322.97 414.87 321.05C415.41 319.14 415.07 316.55 414.24 315.33L414.21 315.29C413.92 314.86 413.64 314.66 413.41 314.65C412.96 314.65 412.62 315.33 412.52 316.56ZM442.45 319.44L442.4 319.48C441.04 320.6 440.05 323.42 439.87 325.81C439.7 328.2 440.6 329.31 442.19 328.24L442.26 328.2C443.85 327.14 445.3 324.26 445.23 321.81C445.19 320.03 444.46 319 443.54 318.98C443.19 318.98 442.83 319.13 442.45 319.43M415.61 322.39C415.12 324.47 414.87 326.87 415.33 327.82V327.86C415.79 328.81 417.03 327.91 417.85 325.8C418.67 323.69 418.51 321.19 417.74 320.28L417.71 320.25C417.52 320.02 417.32 319.91 417.12 319.91C416.55 319.91 415.99 320.84 415.62 322.4M436.22 323.54L436.17 323.57C434.86 324.23 433.62 326.73 433.05 329.18C432.48 331.62 432.89 333.13 434.35 332.55L434.42 332.52C435.87 331.92 437.69 329.39 438.11 326.88C438.47 324.78 437.82 323.4 436.84 323.39C436.64 323.38 436.43 323.43 436.22 323.54ZM418.65 326.75C417.9 328.98 417.5 331.26 418.11 331.89L418.14 331.92C418.75 332.55 420.34 331.24 421.31 328.96C422.29 326.68 422.14 324.32 421.31 323.75L421.28 323.73C421.15 323.64 421.02 323.6 420.89 323.6C420.13 323.6 419.3 324.87 418.66 326.76M430.44 325.54H430.4C429.22 325.76 427.94 327.91 427.11 330.34C426.33 332.67 426.27 334.45 427.33 334.46C427.33 334.46 427.42 334.46 427.47 334.46H427.52C428.73 334.3 430.67 332.17 431.44 329.67C432.18 327.32 431.66 325.54 430.62 325.52C430.55 325.52 430.49 325.52 430.43 325.53M422.33 329.47C421.46 331.82 421.13 333.91 422.03 334.18H422.07C422.96 334.45 424.81 332.73 425.79 330.32C426.77 327.91 426.45 325.76 425.45 325.57H425.41C425.36 325.56 425.31 325.55 425.26 325.55C424.29 325.54 423.17 327.25 422.33 329.48" fill="url(#paint1_linear_875_29509)"/>
<path d="M71.4901 228.67L60.2801 244.97L49.1401 228.67H41.1001V266.87H48.7101V240.09L60.2801 256.04L71.8101 240.09V266.87H79.4101V228.67H71.4901Z" fill="#181831"/>
<path d="M86.2803 238.87H94.2103V266.88H86.2803V238.87ZM86.2803 228.67H94.2103V235.38H86.2803V228.67Z" fill="#181831"/>
<path d="M99.3799 252.51C99.3799 250.25 99.7399 248.22 100.47 246.41C101.19 244.59 102.2 243.05 103.49 241.79C104.77 240.52 106.3 239.54 108.06 238.86C109.82 238.18 111.74 237.83 113.82 237.83C115.55 237.83 117.26 238.11 118.97 238.68C120.67 239.25 122.33 240.14 123.91 241.38L119.95 246.45C119.14 245.82 118.25 245.29 117.28 244.86C116.31 244.44 115.23 244.23 114.03 244.23C113.11 244.23 112.25 244.41 111.44 244.76C110.63 245.11 109.92 245.64 109.33 246.35C108.73 247.06 108.25 247.93 107.9 248.96C107.55 250 107.37 251.19 107.37 252.53C107.37 255.35 108 257.49 109.28 258.95C110.55 260.41 112.13 261.15 114.04 261.15C115.31 261.15 116.4 260.95 117.32 260.54C118.24 260.14 119.11 259.56 119.96 258.82L124.29 263.47C122.7 264.85 121.07 265.87 119.41 266.56C117.73 267.24 115.88 267.59 113.83 267.59C111.78 267.59 109.84 267.25 108.1 266.56C106.36 265.87 104.83 264.88 103.53 263.6C102.23 262.31 101.21 260.74 100.49 258.87C99.7699 257.01 99.3999 254.89 99.3999 252.53" fill="#181831"/>
<path d="M128.5 238.45H135.84L136.37 242.84C137.46 240.94 138.69 239.6 140.04 238.83C141.4 238.06 142.87 237.67 144.45 237.67C145.12 237.67 145.75 237.71 146.33 237.8C146.91 237.89 147.45 238.02 147.95 238.19L146.79 245.48C146.3 245.31 145.74 245.15 145.12 245.03C144.5 244.91 143.81 244.84 143.04 244.84C141.56 244.84 140.31 245.26 139.29 246.11C138.27 246.95 137.32 248.2 136.44 249.86V266.87H128.51V238.44L128.5 238.45Z" fill="#181831"/>
<path d="M157.35 252.45C157.35 255.23 157.89 257.45 158.97 259.11C160.05 260.76 161.62 261.6 163.7 261.6C165.78 261.6 167.25 260.77 168.32 259.11C169.39 257.46 169.93 255.24 169.93 252.45C169.93 249.66 169.36 247.71 168.24 246.14C167.12 244.57 165.6 243.79 163.7 243.79C161.8 243.79 160.22 244.58 159.08 246.14C157.93 247.71 157.36 249.82 157.36 252.45M149.37 252.4C149.37 250.22 149.73 248.22 150.46 246.43C151.19 244.64 152.19 243.1 153.48 241.84C154.76 240.57 156.28 239.58 158.02 238.88C159.76 238.17 161.65 237.82 163.7 237.82C165.75 237.82 167.64 238.17 169.38 238.88C171.12 239.59 172.63 240.57 173.9 241.84C175.17 243.11 176.16 244.64 176.89 246.43C177.61 248.22 177.98 250.22 177.98 252.4C177.98 254.72 177.64 256.83 176.95 258.71C176.26 260.59 175.3 262.19 174.05 263.49C172.8 264.79 171.3 265.8 169.53 266.51C167.77 267.21 165.83 267.57 163.72 267.57C161.61 267.57 159.62 267.22 157.85 266.51C156.09 265.8 154.58 264.8 153.33 263.49C152.08 262.19 151.11 260.59 150.43 258.71C149.74 256.82 149.39 254.72 149.39 252.4" fill="#181831"/>
<path d="M191.06 258.74C191.94 259.69 192.84 260.39 193.76 260.82C194.68 261.26 195.7 261.48 196.83 261.48C198.66 261.48 200.02 260.65 200.92 258.99C201.82 257.34 202.27 255.11 202.27 252.33C202.27 249.55 201.82 247.49 200.92 246.04C200.02 244.6 198.66 243.87 196.83 243.87C194.68 243.87 192.76 244.82 191.07 246.72V258.72L191.06 258.74ZM183.14 228.41H191.07V241.62C192.13 240.42 193.35 239.49 194.74 238.82C196.13 238.15 197.6 237.81 199.15 237.81C200.7 237.81 202.25 238.12 203.62 238.73C204.98 239.35 206.14 240.26 207.1 241.48C208.07 242.69 208.82 244.21 209.35 246.02C209.88 247.84 210.14 249.94 210.14 252.33C210.14 254.72 209.88 257.04 209.35 258.93C208.82 260.84 208.07 262.41 207.1 263.69C206.13 264.96 204.99 265.92 203.67 266.57C202.35 267.22 200.9 267.55 199.31 267.55C197.4 267.55 195.76 267.17 194.37 266.41C192.98 265.65 191.73 264.69 190.65 263.53L190.12 266.86H183.14V228.41Z" fill="#181831"/>
<path d="M215.37 238.87H223.3V266.88H215.37V238.87ZM215.37 228.67H223.3V235.38H215.37V228.67Z" fill="#181831"/>
<path d="M236.51 252.45C236.51 255.23 237.05 257.45 238.13 259.11C239.21 260.77 240.78 261.6 242.86 261.6C244.94 261.6 246.41 260.77 247.48 259.11C248.55 257.46 249.09 255.24 249.09 252.45C249.09 249.66 248.52 247.71 247.4 246.14C246.28 244.57 244.76 243.79 242.86 243.79C240.96 243.79 239.38 244.58 238.24 246.14C237.09 247.71 236.52 249.82 236.52 252.45M228.53 252.4C228.53 250.22 228.89 248.22 229.62 246.43C230.34 244.64 231.35 243.1 232.64 241.84C233.92 240.57 235.44 239.58 237.18 238.88C238.92 238.17 240.81 237.82 242.86 237.82C244.91 237.82 246.8 238.17 248.54 238.88C250.28 239.59 251.79 240.57 253.06 241.84C254.33 243.11 255.32 244.64 256.05 246.43C256.77 248.22 257.14 250.22 257.14 252.4C257.14 254.72 256.8 256.83 256.11 258.71C255.43 260.59 254.46 262.19 253.21 263.49C251.96 264.79 250.46 265.8 248.69 266.51C246.93 267.21 244.99 267.57 242.88 267.57C240.77 267.57 238.78 267.22 237.01 266.51C235.24 265.8 233.74 264.8 232.49 263.49C231.24 262.19 230.27 260.59 229.59 258.71C228.9 256.82 228.56 254.72 228.56 252.4" fill="#181831"/>
<path d="M270.22 228.41H262.29V266.88H270.22V228.41Z" fill="#181831"/>
<path d="M283.48 252.45C283.48 255.23 284.02 257.45 285.1 259.11C286.17 260.76 287.75 261.6 289.83 261.6C291.91 261.6 293.38 260.77 294.45 259.11C295.52 257.46 296.06 255.24 296.06 252.45C296.06 249.66 295.49 247.71 294.37 246.14C293.25 244.57 291.73 243.79 289.83 243.79C287.93 243.79 286.35 244.58 285.21 246.14C284.06 247.71 283.49 249.82 283.49 252.45M275.51 252.4C275.51 250.22 275.87 248.22 276.6 246.43C277.32 244.64 278.33 243.1 279.62 241.84C280.9 240.57 282.42 239.58 284.16 238.88C285.9 238.17 287.79 237.82 289.84 237.82C291.89 237.82 293.78 238.17 295.52 238.88C297.26 239.59 298.77 240.57 300.04 241.84C301.31 243.11 302.3 244.64 303.03 246.43C303.75 248.22 304.12 250.22 304.12 252.4C304.12 254.72 303.78 256.83 303.09 258.71C302.41 260.59 301.44 262.19 300.19 263.49C298.94 264.79 297.44 265.8 295.67 266.51C293.91 267.21 291.97 267.57 289.86 267.57C287.75 267.57 285.76 267.22 283.99 266.51C282.22 265.8 280.72 264.8 279.47 263.49C278.22 262.19 277.25 260.59 276.57 258.71C275.87 256.82 275.53 254.72 275.53 252.4" fill="#181831"/>
<path d="M320.26 253.35C321.7 253.35 322.86 252.9 323.72 251.98C324.58 251.06 325.02 249.81 325.02 248.23C325.02 246.65 324.59 245.37 323.72 244.43C322.86 243.48 321.7 243 320.26 243C318.82 243 317.76 243.48 316.88 244.43C316 245.38 315.56 246.65 315.56 248.23C315.56 249.81 316 251.07 316.88 251.98C317.76 252.89 318.88 253.35 320.26 253.35ZM321.52 267.98C320.4 267.91 319.36 267.82 318.43 267.72C317.5 267.62 316.62 267.46 315.82 267.24C314.66 267.95 314.08 268.93 314.08 270.2C314.08 271.22 314.6 271.96 315.64 272.42C316.68 272.87 318.43 273.1 320.9 273.1C323.37 273.1 325.35 272.89 326.56 272.47C327.76 272.05 328.35 271.4 328.35 270.51C328.35 270.05 328.25 269.68 328.03 269.37C327.82 269.07 327.45 268.83 326.92 268.66C326.39 268.49 325.68 268.34 324.81 268.24C323.93 268.14 322.84 268.05 321.53 267.98M306.73 270.52C306.73 269.22 307.08 268.1 307.79 267.16C308.5 266.23 309.48 265.41 310.75 264.7C309.63 263.58 309.06 262.29 309.06 260.84C309.06 259.82 309.34 258.91 309.88 258.12C310.42 257.33 311.16 256.67 312.08 256.14C310.84 255.22 309.85 254.11 309.09 252.81C308.33 251.51 307.96 249.96 307.96 248.16C307.96 246.61 308.28 245.2 308.91 243.91C309.54 242.62 310.41 241.54 311.5 240.63C312.59 239.73 313.88 239.04 315.38 238.55C316.88 238.06 318.51 237.81 320.27 237.81C323.48 237.81 326.17 238.6 328.36 240.18C329.38 239.47 330.51 238.94 331.74 238.56C332.97 238.18 334.52 238 336.39 238L336.44 243.02C335.49 243.02 334.6 243.06 333.77 243.12C332.94 243.18 332.14 243.33 331.37 243.54C332.11 244.91 332.48 246.44 332.48 248.13C332.48 249.82 332.14 251.31 331.45 252.6C330.76 253.89 329.84 254.97 328.7 255.85C327.55 256.73 326.25 257.4 324.79 257.86C323.33 258.32 321.83 258.54 320.27 258.54C318.83 258.54 317.38 258.35 315.94 257.96C315.27 258.32 314.93 258.84 314.93 259.55C314.93 259.87 315.04 260.15 315.27 260.4C315.5 260.65 315.9 260.85 316.48 261.01C317.06 261.17 317.84 261.29 318.8 261.38C319.76 261.47 321.01 261.54 322.52 261.62C326.75 261.8 329.98 262.49 332.22 263.7C334.46 264.91 335.58 266.88 335.58 269.59C335.58 272.3 334.4 274.24 332.04 275.72C329.68 277.2 326.02 277.94 321.05 277.94C316.54 277.94 313.02 277.32 310.51 276.09C307.99 274.86 306.73 273 306.73 270.5" fill="#181831"/>
<path d="M340.71 238.87H348.64V266.88H340.71V238.87ZM340.71 228.67H348.64V235.38H340.71V228.67Z" fill="#181831"/>
<path d="M353.81 252.51C353.81 250.25 354.17 248.22 354.9 246.41C355.63 244.6 356.63 243.05 357.92 241.79C359.2 240.52 360.73 239.54 362.49 238.86C364.25 238.18 366.17 237.83 368.25 237.83C369.98 237.83 371.69 238.11 373.4 238.68C375.1 239.25 376.76 240.14 378.34 241.38L374.38 246.45C373.57 245.82 372.68 245.29 371.71 244.86C370.74 244.44 369.66 244.23 368.46 244.23C367.54 244.23 366.68 244.41 365.87 244.76C365.06 245.11 364.35 245.64 363.76 246.35C363.16 247.06 362.68 247.93 362.33 248.96C361.98 250 361.8 251.19 361.8 252.53C361.8 255.35 362.43 257.49 363.71 258.95C364.98 260.41 366.56 261.15 368.47 261.15C369.74 261.15 370.83 260.95 371.75 260.54C372.67 260.14 373.54 259.56 374.39 258.82L378.72 263.47C377.13 264.85 375.5 265.87 373.84 266.56C372.16 267.24 370.31 267.59 368.26 267.59C366.21 267.59 364.27 267.25 362.53 266.56C360.79 265.88 359.26 264.88 357.96 263.6C356.66 262.31 355.64 260.74 354.92 258.87C354.2 257.01 353.83 254.89 353.83 252.53" fill="#181831"/>
<path d="M384.46 258.95C385.84 259.72 387.26 260.34 388.74 260.8C390.22 261.26 391.7 261.48 393.18 261.48C394.52 261.48 395.55 261.28 396.3 260.87C397.04 260.47 397.41 259.81 397.41 258.89C397.41 258.12 397.03 257.53 396.27 257.12C395.51 256.72 394.57 256.35 393.44 256.03C392.32 255.72 391.08 255.38 389.74 255.02C388.4 254.67 387.17 254.16 386.04 253.52C384.91 252.86 383.97 252.01 383.21 250.93C382.45 249.86 382.07 248.44 382.07 246.68C382.07 245.24 382.38 243.96 382.99 242.85C383.61 241.74 384.43 240.82 385.45 240.08C386.47 239.34 387.67 238.78 389.05 238.39C390.43 238 391.86 237.81 393.38 237.81C394.9 237.81 396.57 238 398.32 238.37C400.06 238.73 401.98 239.4 404.05 240.35L401.2 245.79C399.82 245.12 398.43 244.63 397.02 244.31C395.61 243.99 394.45 243.83 393.54 243.83C392.38 243.83 391.46 244.03 390.77 244.44C390.08 244.84 389.74 245.49 389.74 246.37C389.74 247.14 390.12 247.73 390.88 248.11C391.64 248.5 392.58 248.84 393.71 249.14C394.83 249.44 396.06 249.76 397.36 250.09C398.66 250.42 399.88 250.91 401.01 251.54C402.13 252.17 403.08 253.03 403.84 254.1C404.6 255.17 404.98 256.61 404.98 258.41C404.98 259.89 404.69 261.2 404.11 262.35C403.53 263.5 402.72 264.45 401.68 265.2C400.64 265.96 399.42 266.54 398.01 266.94C396.6 267.34 395.05 267.55 393.36 267.55C391.18 267.55 389.11 267.29 387.15 266.76C385.19 266.23 383.3 265.46 381.47 264.44L384.47 258.95H384.46Z" fill="#181831"/>
<path d="M411.38 239.18C410.87 239.46 410.47 239.86 410.18 240.37C409.89 240.89 409.74 241.43 409.74 241.99C409.74 242.55 409.88 243.09 410.16 243.6C410.45 244.11 410.84 244.51 411.36 244.79C411.87 245.07 412.41 245.22 412.97 245.22C413.53 245.22 414.07 245.08 414.59 244.79C415.1 244.51 415.5 244.11 415.78 243.6C416.06 243.09 416.21 242.55 416.21 241.99C416.21 241.43 416.07 240.88 415.77 240.37C415.48 239.85 415.08 239.45 414.57 239.18C414.06 238.9 413.53 238.76 412.98 238.76C412.42 238.76 411.89 238.9 411.38 239.18ZM414.26 239.74C414.67 239.96 414.99 240.28 415.23 240.7C415.46 241.12 415.58 241.56 415.58 242.01C415.58 242.46 415.46 242.9 415.24 243.31C415.01 243.72 414.69 244.04 414.28 244.27C413.87 244.5 413.44 244.62 412.98 244.62C412.52 244.62 412.1 244.5 411.69 244.27C411.28 244.04 410.96 243.72 410.73 243.31C410.5 242.9 410.39 242.47 410.39 242.01C410.39 241.55 410.51 241.12 410.75 240.7C410.98 240.28 411.31 239.96 411.71 239.74C412.12 239.52 412.54 239.4 412.99 239.4C413.44 239.4 413.86 239.5 414.26 239.74ZM412.21 243.73V242.32H412.39C412.58 242.32 412.75 242.36 412.87 242.47C413 242.57 413.16 242.81 413.35 243.18L413.64 243.74H414.5L414.1 243.05C413.96 242.8 413.87 242.66 413.85 242.63C413.75 242.5 413.67 242.41 413.62 242.37C413.56 242.33 413.49 242.28 413.38 242.24C413.68 242.2 413.9 242.09 414.06 241.91C414.22 241.73 414.3 241.52 414.3 241.28C414.3 241.1 414.26 240.94 414.17 240.79C414.09 240.64 413.98 240.53 413.85 240.46C413.72 240.39 413.54 240.34 413.31 240.33C413.23 240.33 412.86 240.33 412.22 240.33H411.53V243.76H412.2L412.21 243.73ZM412.21 240.85H412.49C412.88 240.85 413.14 240.86 413.23 240.89C413.32 240.92 413.41 240.98 413.46 241.05C413.51 241.12 413.54 241.21 413.54 241.3C413.54 241.39 413.51 241.49 413.46 241.56C413.4 241.63 413.33 241.69 413.23 241.72C413.13 241.75 412.88 241.76 412.48 241.76H412.2V240.83L412.21 240.85Z" fill="#181831"/>
<defs>
<linearGradient id="paint0_linear_875_29509" x1="326.89" y1="154.26" x2="444.05" y2="301.88" gradientUnits="userSpaceOnUse">
<stop stop-color="#30398F"/>
<stop offset="0.13" stop-color="#354092"/>
<stop offset="0.31" stop-color="#41539D"/>
<stop offset="0.53" stop-color="#5572AE"/>
<stop offset="0.78" stop-color="#729DC6"/>
<stop offset="1" stop-color="#90CBE0"/>
</linearGradient>
<linearGradient id="paint1_linear_875_29509" x1="329.61" y1="152.1" x2="446.77" y2="299.72" gradientUnits="userSpaceOnUse">
<stop stop-color="#30398F"/>
<stop offset="0.13" stop-color="#354092"/>
<stop offset="0.31" stop-color="#41539D"/>
<stop offset="0.53" stop-color="#5572AE"/>
<stop offset="0.78" stop-color="#729DC6"/>
<stop offset="1" stop-color="#90CBE0"/>
</linearGradient>
</defs>
</svg>
