<svg width="500" height="500" viewBox="0 0 500 500" fill="none" xmlns="http://www.w3.org/2000/svg">
<path d="M466.83 226.34C462.6 226.34 459.16 222.9 459.16 218.67C459.16 214.44 462.6 211 466.83 211C471.06 211 474.5 214.44 474.5 218.67C474.5 222.9 471.06 226.34 466.83 226.34ZM466.83 212.16C463.24 212.16 460.32 215.08 460.32 218.67C460.32 222.26 463.24 225.18 466.83 225.18C470.42 225.18 473.34 222.26 473.34 218.67C473.34 215.08 470.42 212.16 466.83 212.16Z" fill="#0352A9"/>
<path d="M463.68 214C464.31 213.87 465.21 213.8 466.07 213.8C467.4 213.8 468.26 214.04 468.87 214.59C469.36 215.02 469.63 215.68 469.63 216.43C469.63 217.71 468.83 218.55 467.81 218.9V218.94C468.56 219.2 469 219.89 469.23 220.89C469.55 222.24 469.77 223.17 469.98 223.54H468.69C468.53 223.27 468.32 222.44 468.04 221.23C467.75 219.9 467.24 219.39 466.1 219.35H464.92V223.54H463.67V214H463.68ZM464.93 218.4H466.21C467.54 218.4 468.39 217.67 468.39 216.56C468.39 215.31 467.49 214.77 466.17 214.75C465.57 214.75 465.14 214.81 464.94 214.86V218.39L464.93 218.4Z" fill="#0352A9"/>
<path d="M55.72 255.24V234.29C55.72 234.29 57.72 225.31 65.7 225.31C68.69 225.31 70.19 225.81 71.69 227.31V197.38L62.71 206.36C62.71 206.36 33.77 211.35 33.77 235.3C33.77 259.25 55.72 265.23 55.72 265.23V260.24C55.72 260.24 37.76 253.26 37.76 235.3C37.76 217.34 61.71 210.36 61.71 210.36V215.35C61.71 215.35 43.75 221.34 43.75 236.3C43.75 251.26 55.72 255.26 55.72 255.26V255.24Z" fill="#0352AB"/>
<path d="M75.18 216.33V237.28C75.18 237.28 73.18 246.26 65.2 246.26C62.21 246.26 60.71 245.76 59.21 244.26V274.19L68.19 265.21C68.19 265.21 97.13 260.22 97.13 236.27C97.13 212.32 75.18 206.34 75.18 206.34V211.33C75.18 211.33 93.14 218.31 93.14 236.27C93.14 254.23 69.19 261.21 69.19 261.21V256.22C69.19 256.22 87.15 250.23 87.15 235.27C87.15 220.31 75.18 216.31 75.18 216.31V216.33Z" fill="#0D6E44"/>
<path d="M462.09 192.99C461.56 192.94 461.03 192.94 460.5 192.94C401.25 192.94 342 192.94 282.75 192.94C223.75 192.94 164.75 192.96 105.75 192.91C103.63 192.91 101.84 193.14 100.59 195.01C100.42 195.27 100.15 195.47 99.9102 195.68C98.2602 197.12 96.6002 198.54 94.9602 199.99C94.4102 200.48 93.9902 201.1 94.3702 201.86C94.7502 202.64 95.5402 202.64 96.2302 202.49C97.2502 202.27 98.2702 202.33 99.3002 202.33C215.85 202.33 332.4 202.33 448.95 202.33C450.08 202.33 451.22 202.33 452.35 202.35C452.9 202.35 453.34 202.22 453.82 201.9C455.39 200.83 456.67 199.43 458.18 198.3C459.5 197.31 460.78 196.25 462.06 195.2C462.35 194.96 462.6 194.63 462.79 194.3C463.21 193.57 462.94 193.08 462.1 193L462.09 192.99ZM461.31 194.67C458.64 196.59 456.49 199.13 453.77 200.98C453.16 201.39 452.52 201.57 451.87 201.41C450.92 201.18 449.97 201.24 449.02 201.24C332.43 201.24 215.84 201.24 99.2502 201.23C98.3602 201.23 97.5002 201.36 96.6402 201.58C96.2302 201.69 95.6102 201.85 95.4302 201.29C95.2602 200.75 95.4302 200.05 95.9902 199.84C98.9202 198.76 100.62 196.23 102.8 194.26C103.37 193.74 103.9 193.39 104.74 193.39C163.99 193.41 223.24 193.41 282.49 193.41V193.43C340.86 193.43 399.22 193.43 457.59 193.43C458.65 193.43 459.72 193.41 460.78 193.41C461.14 193.41 461.51 193.41 461.64 193.85C461.75 194.21 461.59 194.49 461.32 194.69L461.31 194.67Z" fill="#0352A9"/>
<path d="M451.2 280.46C450.89 279.7 450.08 279.75 449.43 279.89C448.55 280.08 447.67 280.06 446.79 280.06C380.42 280.06 314.04 280.06 247.67 280.06C225.34 280.06 203.02 280.06 180.69 280.06C136.57 280.06 92.4502 280.06 48.3302 280.04C46.8002 280.04 45.3902 280.1 44.2602 281.32C43.8102 281.8 43.2302 282.16 42.7102 282.58C40.5402 284.3 38.3702 286.03 36.1902 287.73C35.6202 288.17 35.3102 288.71 35.5802 289.37C35.8702 290.1 36.6702 290.07 37.2402 290C39.7502 289.69 42.2602 289.86 44.7702 289.86C163.48 289.85 282.2 289.85 400.91 289.85C413.74 289.85 426.57 289.85 439.39 289.85C439.94 289.85 440.52 289.98 441.03 289.58C444.19 287.15 447.34 284.71 450.52 282.31C451.18 281.81 451.48 281.18 451.19 280.48L451.2 280.46Z" fill="#0352A9"/>
<path d="M461.64 193.84C461.51 193.4 461.14 193.39 460.78 193.4C459.72 193.4 458.65 193.42 457.59 193.42C399.22 193.42 340.86 193.42 282.49 193.42V193.4C223.24 193.4 163.99 193.4 104.74 193.38C103.9 193.38 103.38 193.73 102.8 194.25C100.62 196.22 98.9199 198.75 95.9899 199.83C95.4199 200.04 95.2499 200.74 95.4299 201.28C95.6099 201.84 96.2299 201.68 96.6399 201.57C97.4999 201.35 98.3599 201.22 99.2499 201.22C215.84 201.22 332.43 201.22 449.02 201.23C449.97 201.23 450.92 201.17 451.87 201.4C452.53 201.56 453.16 201.39 453.77 200.97C456.5 199.12 458.64 196.57 461.31 194.66C461.58 194.47 461.74 194.18 461.63 193.82L461.64 193.84Z" fill="#0352A9"/>
<path d="M321.9 220.2C322.16 220.51 322.28 220.87 322.43 221.23C322.85 222.25 323.26 223.29 324.2 223.95C325.79 225.07 326.87 224.97 328.76 223.47C329.49 222.89 330.11 222.77 330.84 223.36C333.45 225.44 337.19 223.64 338.12 220.35C338.75 218.14 337.61 215.76 335.48 214.39C333.9 213.37 332.07 213.55 330.73 214.88C330.35 215.25 329.96 215.62 329.62 216.02C329.06 216.68 328.41 216.69 327.88 216.1C325.98 213.99 323.54 213.58 320.9 213.78C317.63 214.03 315.07 215.48 313.45 218.4C313.21 218.83 313 219.28 312.71 219.67C312.51 219.93 312.31 220.34 311.89 220.23C311.54 220.13 311.54 219.71 311.46 219.42C311.21 218.42 310.91 217.47 310.18 216.68C308.27 214.6 305.98 213.77 303.12 213.71C297.89 213.6 293.56 218.43 293.27 223.35C293.15 225.39 293.14 225.45 291.12 225.93C289.87 226.22 288.68 227.55 288.59 228.76C288.49 230.03 289.36 231.3 290.62 231.83C291.41 232.16 292.44 231.97 292.98 232.85C293.49 233.69 293.07 234.58 293.05 235.44C293.05 235.76 293.05 236.08 293.05 236.4C293.05 238.1 293.05 239.8 293.07 241.5C293.09 242.51 292.66 243.26 291.9 243.87C291.6 244.11 291.29 244.35 291 244.61C290.02 245.51 289.6 246.84 289.99 247.82C290.41 248.89 291.65 249.7 292.95 249.71C295.43 249.72 297.91 249.71 300.39 249.72C301.24 249.72 302 249.47 302.69 249.03C303.97 248.21 304.31 246.51 303.39 245.45C302.93 244.92 302.45 244.39 301.81 244.05C300.73 243.47 300.32 242.49 300.3 241.33C300.28 240.06 300.3 238.78 300.3 237.51H300.29C300.29 236.34 300.29 235.17 300.29 234.01C300.29 232.42 300.69 231.87 302.21 232.16C304.04 232.51 305.19 231.69 306.17 230.41C306.73 229.68 307.18 229.78 307.61 230.47C308.15 231.32 308.83 231.84 309.89 231.98C311.16 232.15 311.54 232.73 311.53 234.02C311.53 236.5 311.49 238.97 311.53 241.45C311.55 242.52 311.05 243.26 310.31 243.91C309.94 244.24 309.57 244.57 309.19 244.88C308.29 245.62 307.77 246.57 308.23 247.68C308.71 248.85 309.69 249.65 311 249.69C313.69 249.76 316.4 249.9 319.07 249.65C321.26 249.44 322.44 248.25 322.2 246.43C322.07 245.4 321.34 244.79 320.6 244.29C319.25 243.37 318.65 242.24 318.72 240.55C318.81 238.33 318.94 236.1 318.61 233.88C318.48 233.02 319.24 232.28 320.16 232.26C320.66 232.26 321.15 232.29 321.65 232.26C323.23 232.2 324.32 231.4 324.9 229.97C325.37 228.82 324.91 227.43 323.74 226.5C322.89 225.82 321.9 225.53 320.77 225.8C319.64 226.07 318.68 225.58 318.63 224.67C318.55 223.18 318.67 221.69 319.47 220.37C320.1 219.32 321.11 219.27 321.89 220.21L321.9 220.2ZM307.21 227.43C306.72 227.86 306.43 227.34 306.18 227.05C305.2 225.94 304.01 225.39 302.84 225.5C300.41 225.67 300.3 225.15 300.53 223.13C300.62 222.38 300.65 221.57 301.06 220.88C301.38 220.33 301.73 219.68 302.45 219.73C303.18 219.78 303.58 220.35 303.76 221.06C304.07 222.29 304.74 223.29 305.71 224.13C306.92 225.18 308.06 225.27 309.34 224.33C309.51 224.2 309.66 224.03 309.85 223.95C310.32 223.74 310.69 222.83 311.31 223.66C311.69 224.16 311.33 225.43 310.69 225.56C309.32 225.84 308.24 226.54 307.22 227.43H307.21Z" fill="#0352A9"/>
<path d="M142.51 217.38C138.89 214.6 134.63 213.73 129.53 213.75C127.81 213.75 125.51 213.95 123.26 214.62C119.04 215.88 115.54 218.18 113.56 222.16C111.6 226.1 111.38 230.32 113.04 234.46C114.04 236.97 115.59 239.11 118.36 240C120.02 240.54 121.27 239.8 122.27 238.58C123.17 237.48 123.61 236.26 122.8 234.87C122.18 233.8 121.76 232.63 121.13 231.56C117.98 226.28 121.37 222.39 125.9 221.54C128.08 221.13 130.35 220.93 132.54 221.46C134.8 222.01 137.02 222.55 138.75 224.46C140.75 226.66 141.05 229.15 140.78 231.82C140.68 232.75 140.36 233.77 139.76 234.56C138.75 235.89 136.36 236.56 134.86 236.03C132.75 235.29 131.54 233.64 131.48 231.62C131.45 230.36 132.07 229.32 132.48 228.21C133.33 225.91 132.26 224.1 129.83 223.96C128.21 223.87 126.57 223.89 124.94 223.96C123.63 224.03 122.51 224.63 122 225.89C121.54 227 121.9 227.99 122.76 228.87C123.81 229.95 124.19 231.28 124.22 232.83C124.3 237.08 123.85 241.31 124.02 245.55C124.11 247.73 123.49 249.56 122.11 251.21C120.06 253.66 121.07 255.16 123.13 256.68C124.33 257.57 125.65 257.24 127.11 255.86C129.14 253.94 131.01 251.86 133.12 250.02C133.59 249.61 134.02 249.11 134.35 248.57C135.36 246.93 135.52 245.96 133.98 244.6C133.52 244.19 132.95 243.98 132.45 243.66C132.01 243.38 131.45 243.01 131.76 242.4C132.08 241.77 132.67 242.05 133.16 242.26C133.81 242.54 134.38 242.97 135.09 243.11C140.66 244.2 145.33 241.31 147.59 236.29C148.75 233.71 149.02 230.97 148.75 228.12C148.32 223.54 146.02 220.07 142.5 217.37L142.51 217.38Z" fill="#0352A9"/>
<path d="M260.7 240.06C259.88 239.57 259.63 238.78 259.73 237.87C260.01 235.37 260.08 232.86 259.66 230.38C259.27 228.06 258.11 226.15 255.77 225.35C253.44 224.55 251.16 224.89 249.33 226.59C247.42 228.37 247.59 228.43 245.59 226.59C242.87 224.09 239.06 224.71 236.94 226.84C235.64 228.15 235.34 228.17 234.53 226.54C233.83 225.13 232.5 224.57 231.3 225.29C229.33 226.48 227.48 227.85 225.9 229.53C224.46 231.05 224.73 232.57 226.56 233.61C226.74 233.71 226.94 233.8 227.13 233.89C228 234.31 228.46 234.92 228.41 235.98C228.33 237.71 228.33 239.45 228.4 241.18C228.44 242.23 228.06 243.03 227.37 243.74C227.03 244.1 226.67 244.44 226.32 244.79C224.75 246.38 224.86 247.85 226.68 249.12C227.34 249.58 228.12 249.77 228.9 249.68C230.56 249.5 232.2 249.5 233.86 249.68C235.28 249.83 236.29 249.1 236.91 247.83C237.56 246.52 237.08 245.27 236.27 244.38C234.64 242.58 234.73 240.49 234.89 238.38C234.99 236.99 235.13 235.56 235.86 234.29C236.52 233.14 237.82 232.48 238.87 232.77C239.88 233.05 240.7 234.24 240.72 235.48C240.74 236.51 240.72 237.53 240.72 238.56C240.72 239.73 240.78 240.9 240.7 242.06C240.62 243.37 239.38 244.02 238.82 245.06C238.8 245.09 238.78 245.12 238.76 245.15C238.22 246.07 237.86 246.99 238.5 248.03C239.13 249.08 239.96 249.72 241.24 249.7C243.05 249.67 244.86 249.65 246.66 249.7C248.19 249.74 249.17 248.97 249.72 247.69C250.26 246.44 249.89 245.32 248.97 244.29C248.28 243.52 247.61 242.61 247.54 241.55C247.4 239.36 247.52 237.18 248.11 235.04C248.48 233.7 249.65 232.76 250.93 232.87C252.07 232.97 252.88 234.09 252.89 235.61C252.89 237.56 252.83 239.51 252.91 241.45C252.98 243.26 252.5 244.9 251.54 246.37C250.84 247.45 250.9 248.33 251.63 249.35C252.87 251.09 254.63 251.5 256.05 250.2C257.77 248.62 259.46 247.01 261.12 245.37C262.53 243.97 263.06 241.44 260.71 240.05L260.7 240.06Z" fill="#0352A9"/>
<path d="M174.87 240C174.22 239.58 173.78 238.95 173.88 238.13C174.17 235.84 174.02 233.54 173.98 231.25C173.96 229.59 173.36 228.09 172.26 226.8C170.45 224.68 165.59 223.94 162.64 227.09C162.25 227.51 161.82 227.98 161.19 227.7C160.56 227.41 160.77 226.76 160.83 226.28C161.23 223.11 160.94 219.93 161.01 216.75C161.03 215.63 160.56 214.62 159.58 214.07C158.55 213.48 157.44 213.64 156.49 214.37C154.93 215.56 153.26 216.6 151.89 218.06C150.1 219.95 150.4 221.62 152.86 222.59C153.81 222.96 154.24 223.54 154.22 224.59C154.17 227.35 154.2 230.11 154.2 232.87C154.2 235.63 154.16 238.39 154.22 241.15C154.24 242.38 153.74 243.25 152.77 243.91C152.18 244.3 151.58 244.68 151.11 245.22C150.15 246.33 150.11 247.58 151.06 248.53C151.7 249.17 152.49 249.66 153.39 249.68C156.12 249.73 158.85 249.77 161.57 249.68C163 249.63 163.83 248.53 164.31 247.32C164.7 246.34 164.05 245.57 163.38 244.9C162.96 244.47 162.55 244.02 162.08 243.65C161.25 243.01 160.82 242.09 160.92 241.16C161.08 239.65 160.87 238.13 161.18 236.63C161.32 235.93 161.45 235.25 161.79 234.62C162.53 233.25 163.92 232.5 165.18 232.81C166.52 233.14 167.18 234.15 167.18 235.88C167.18 237.61 167.08 239.35 167.2 241.08C167.34 243.04 166.79 244.77 165.94 246.47C165.15 248.04 165.38 249.23 166.59 250.27C167.64 251.17 169.11 251.27 170.39 250.13C172.13 248.58 173.91 247.05 175.46 245.32C177.09 243.5 177.47 241.73 174.89 240.04L174.87 240Z" fill="#0352A9"/>
<path d="M201.22 244.2C200.47 243.6 199.78 242.78 199.78 241.8C199.77 239.12 199.64 236.43 199.88 233.75C200.14 230.84 199.21 228.4 196.76 226.65C195.46 225.72 193.96 225.27 192.41 225.12C188.97 224.78 185.59 225.07 182.62 227.02C181.52 227.74 180.43 228.66 180.14 230.09C179.91 231.25 180.28 232.25 181.22 233.02C182.28 233.88 183.47 234.09 184.69 233.51C186.26 232.77 187.78 231.93 189.3 231.11C189.79 230.85 190.3 230.75 190.84 230.83C191.95 231 192.8 231.97 192.67 232.94C192.51 234.12 191.54 233.94 190.77 233.92C188.01 233.85 185.44 234.62 182.99 235.73C178.43 237.79 177.96 240.68 178.55 244.5C179.03 247.63 181.26 249.43 184.2 250.32C186.82 251.11 190.83 250.15 191.7 247.04C191.81 246.65 192.13 246.32 192.39 245.91C192.84 246.21 192.82 246.59 192.92 246.92C193.54 248.98 194.55 249.72 196.71 249.72C197.45 249.72 198.2 249.68 198.94 249.72C200.43 249.81 201.51 249.11 202.11 247.85C202.55 246.93 202.62 245.35 201.21 244.22L201.22 244.2ZM192.7 244.16C192.7 244.43 192.81 244.78 192.48 244.92C192.1 245.08 192.04 244.67 191.86 244.49C191.71 244.34 191.58 244.17 191.46 244C190.34 242.45 189.82 242.31 188.09 243.12C187.29 243.5 186.47 243.46 186.02 242.7C185.59 241.98 185.76 241.18 186.52 240.66C187.19 240.2 187.83 239.69 188.66 239.53C189.42 239.38 190.19 239.25 190.95 239.13C192.02 238.95 192.65 239.46 192.7 240.57C192.73 241.21 192.7 241.84 192.7 242.48C192.7 243.05 192.71 243.61 192.7 244.18V244.16Z" fill="#0352A9"/>
<path d="M395.04 243.94C394.1 243.19 393.8 242.21 393.85 241.03C393.91 239.62 393.86 238.2 393.86 236.78H393.88C393.88 235.36 393.88 233.95 393.88 232.53C393.88 229.35 391.96 226.62 388.9 225.62C385.67 224.56 382.4 224.78 379.2 225.77C377.26 226.37 375.65 227.53 374.62 229.34C373.6 231.14 374.95 233.44 377.02 233.62C378.66 233.76 379.81 232.77 381.14 232.16C382.28 231.63 383.29 230.76 384.65 230.79C385.79 230.82 386.88 231.85 386.8 232.84C386.69 234.2 385.62 233.91 384.79 233.91C381.63 233.91 378.72 234.82 375.98 236.28C374.43 237.11 373.37 238.45 372.76 240.09C371.7 242.98 372.54 245.49 374.41 247.77C377.33 251.33 383.43 251.65 385.53 247.44C386.23 246.04 386.19 244.82 384.94 243.39C384.2 242.55 383.61 242.49 381.99 243.25C381.09 243.67 380.36 243.44 379.85 242.69C379.38 241.99 379.6 241.34 380.19 240.7C381.48 239.31 383.23 239.29 384.89 239.09C386.44 238.9 386.99 239.52 387 241.11C387 242.91 386.98 244.72 387.03 246.52C387.08 248.25 388.33 249.64 389.85 249.68C391.05 249.72 392.27 249.77 393.46 249.64C394.74 249.51 395.84 248.89 396.36 247.63C396.89 246.36 396.38 245.3 395.5 244.37C395.35 244.22 395.21 244.05 395.05 243.92L395.04 243.94Z" fill="#0352A9"/>
<path d="M286.7 244.05C285.73 243.18 285.32 242.16 285.4 240.85C285.49 239.44 285.42 238.02 285.42 236.6H285.44C285.44 235.26 285.44 233.91 285.44 232.57C285.43 229.05 283.24 226.28 279.81 225.42C277.33 224.8 274.82 224.85 272.34 225.32C270.24 225.72 268.29 226.59 266.75 228.13C265.58 229.29 265.36 231.18 266.2 232.29C267.17 233.57 268.74 234.36 270.58 233.34C272 232.55 273.45 231.79 274.9 231.07C276.1 230.47 277.23 230.77 278 231.82C278.31 232.24 278.51 232.71 278.28 233.21C278.04 233.73 277.59 233.98 276.98 233.94C274.01 233.75 271.26 234.56 268.59 235.74C264.51 237.54 263.21 241.39 264.55 245.52C265.05 247.05 266.29 247.9 267.4 248.85C270.73 251.69 275.43 250.85 277.23 247.16C277.87 245.83 277.63 244.58 276.5 243.38C275.65 242.49 275.29 242.47 273.57 243.25C273.51 243.28 273.44 243.31 273.38 243.34C272.55 243.69 271.89 243.38 271.43 242.72C270.97 242.07 271.13 241.44 271.67 240.81C273.06 239.19 274.99 239.25 276.84 239.09C277.96 238.99 278.38 239.46 278.39 240.59C278.4 242.18 278.31 243.78 278.39 245.37C278.55 248.14 279.82 249.91 282.69 249.7C283.4 249.65 284.11 249.72 284.82 249.68C286.55 249.58 287.81 248.48 287.98 246.94C288.12 245.74 287.56 244.8 286.71 244.05H286.7Z" fill="#0352A9"/>
<path d="M460.83 237.87C458.84 235.89 456.28 234.94 453.65 234.16C452.81 233.91 451.97 233.73 451.22 233.2C450.53 232.71 449.96 232.22 450.33 231.31C450.64 230.54 451.74 230.19 452.63 230.56C454.6 231.38 456.24 232.73 458.02 233.86C459.05 234.52 459.86 234.8 460.72 234.28C461.93 233.55 462.49 232.62 462.08 231.47C461.37 229.52 460.65 227.53 459.4 225.84C458.29 224.33 456.79 224.23 455.37 225.46C454.64 226.1 453.89 226.23 453.04 225.78C452.21 225.34 451.33 225.1 450.52 225.2C447.91 225.2 445.71 226.44 444.2 228.66C442.76 230.78 442.64 233.67 444.22 235.69C445.93 237.86 448.34 239.08 450.97 239.84C452.13 240.18 453.23 240.65 454.3 241.19C454.86 241.48 455.28 242.04 455.05 242.68C454.84 243.28 454.36 243.74 453.62 243.78C452.77 243.82 452.03 243.57 451.31 243.13C449.7 242.14 448.44 240.74 446.93 239.63C445.78 238.79 444.52 238.66 443.57 239.27C442.35 240.05 441.64 241.52 442.15 242.85C442.93 244.89 443.59 247 444.69 248.9C445.99 251.15 447.52 251.34 449.53 249.61C450.26 248.99 451 249.05 451.79 249.44C452.52 249.81 453.25 250.11 454.11 250.12C456.81 250.16 459.03 249.26 460.89 247.23C463.37 244.52 463.42 240.45 460.81 237.86L460.83 237.87Z" fill="#0352A9"/>
<path d="M410.97 232.15C411.84 232.34 412.66 232.24 413.48 232C414.87 231.59 415.98 230.25 416 229.05C416.02 227.77 414.95 226.39 413.53 225.95C412.65 225.68 411.75 225.58 410.81 225.78C408.96 226.16 408.48 225.72 408.56 223.86C408.56 223.68 408.56 223.5 408.61 223.33C408.95 222.24 408.67 221.23 408.2 220.26C407.23 218.29 405.63 218.03 404.05 219.6C402.17 221.47 400.8 223.79 398.78 225.54C398.25 226 397.81 226.57 397.41 227.15C396.73 228.12 396.42 229.2 396.98 230.33C397.55 231.48 398.53 232.01 399.81 232.06C401.29 232.11 401.75 232.62 401.75 234.08C401.75 237.19 401.69 240.31 401.75 243.42C401.83 247.74 404.47 250.36 408.63 250.36C411.84 250.36 414.17 248.96 415.49 246.26C416.48 244.22 415.54 241.79 413.4 240.93C412.49 240.56 411.65 240.83 411.14 241.55C410.65 242.26 409.96 242.42 409.34 242.3C408.55 242.15 408.5 241.35 408.58 240.64C408.83 238.49 408.82 236.36 408.6 234.2C408.43 232.53 409.35 231.76 411 232.13L410.97 232.15Z" fill="#0352A9"/>
<path d="M423.72 226.32C418.98 228.66 417.42 234.67 417.75 238.91C418.03 242.51 419.47 245.54 422.34 247.94C426.2 251.17 432.41 251.42 436.39 248.33C437.64 247.35 438.71 246.27 439.04 244.64C439.25 243.59 438.52 242.06 437.46 241.39C436.37 240.7 435.32 240.76 434.24 241.58C433.39 242.23 432.47 242.76 431.49 243.18C429.39 244.08 426.57 243.2 425.63 241.37C425.15 240.43 425.41 239.99 426.46 239.92C427.56 239.85 428.63 240.26 429.74 240.17C431.85 240.02 433.96 239.76 436.07 239.74C437.99 239.73 439.21 238.57 439.59 236.86C440.08 234.63 439.76 232.57 438.58 230.49C435.27 224.62 428.75 223.83 423.71 226.32H423.72ZM425.32 234.23C424.98 233.68 425.36 233.3 425.66 232.92C427.13 231.07 430.15 230.63 431.86 231.83C432.42 232.22 432.85 232.7 432.71 233.4C432.56 234.14 431.94 234.49 431.24 234.56C430.61 234.62 429.97 234.57 429.47 234.57C428.46 234.61 427.58 234.51 426.7 234.74C426.16 234.89 425.64 234.74 425.31 234.22L425.32 234.23Z" fill="#0352A9"/>
<path d="M221.66 225.91C219.67 224.53 218.27 224.65 216.04 226.23C215.38 226.7 214.67 226.75 214.14 226.12C212.79 224.49 211.51 224.82 210.04 225.88C208.56 226.95 207.15 228.13 205.75 229.32C204.37 230.5 204.23 232.84 206.42 233.67C206.65 233.76 206.88 233.87 207.07 234.01C207.65 234.42 208.29 234.89 208.16 235.68C207.85 237.55 208.06 239.42 208.01 241.29C207.98 242.44 207.55 243.3 206.47 243.84C205.77 244.18 205.15 244.69 204.72 245.35C203.51 247.2 204.51 248.91 206.59 249.48C208.23 249.93 209.9 249.59 211.67 249.73C213.26 249.48 214.99 249.98 216.71 249.39C217.87 248.99 218.71 248.38 218.99 247.28C219.3 246.07 218.54 245.07 217.56 244.54C215.29 243.31 214.5 241.51 214.79 239.02C214.94 237.69 214.81 236.33 214.81 234.99C214.81 234.71 214.81 234.42 214.82 234.14C214.87 233.28 215.32 232.51 216.1 232.39C216.98 232.25 217.1 233.19 217.31 233.86C217.35 233.99 217.35 234.14 217.39 234.27C217.89 235.75 219.49 236.45 220.9 235.83C222.79 235.01 223.68 233.49 223.86 231.53C224.08 229.19 223.53 227.23 221.64 225.92L221.66 225.91Z" fill="#0352A9"/>
<path d="M338.57 244.14C337.52 243.4 336.95 242.53 337.04 241.14C337.17 239.2 337.07 237.25 337.07 235.31H337.09C337.09 233.19 337.07 231.07 337.09 228.95C337.1 227.53 336.48 226.47 335.35 225.67C334.8 225.29 334.21 225.13 333.56 225.42C331.51 226.34 329.66 227.63 328.2 229.26C326.55 231.11 325.96 232.46 328.5 233.96C330.06 234.88 330.25 235.36 329.94 237.17C329.76 238.25 329.74 239.37 329.94 240.44C330.2 241.88 329.86 242.94 328.65 243.85C327.83 244.47 326.88 245.11 326.66 246.24C326.31 248 327.71 249.61 329.77 249.67C332.35 249.75 334.94 249.73 337.52 249.67C339.25 249.63 340.6 247.85 340.25 246.23C340.04 245.25 339.33 244.66 338.58 244.13L338.57 244.14Z" fill="#0352A9"/>
<path d="M368.68 243.89C367.83 243.26 367.2 242.44 367.34 241.39C367.64 239.06 367.36 236.73 367.49 234.71C367.49 232.46 367.5 230.51 367.49 228.56C367.47 226.25 365.23 224.49 363 225.99C361.51 226.99 359.97 227.88 358.7 229.2C356.46 231.54 356.5 232.41 359.18 234.18C359.92 234.67 360.32 235.23 360.28 236.18C360.21 237.95 360.24 239.72 360.26 241.49C360.26 242.4 359.95 243.09 359.21 243.68C358.5 244.25 357.73 244.83 357.31 245.66C356.36 247.56 357.84 249.65 360.17 249.7C362.54 249.75 364.92 249.69 367.29 249.72C368.35 249.73 369.23 249.34 370.02 248.72C370.88 248.05 371.11 246.96 370.62 245.95C370.19 245.06 369.44 244.47 368.67 243.9L368.68 243.89Z" fill="#0352A9"/>
<path d="M353.42 243.86C352.45 243.2 352.15 242.38 352.16 241.26C352.2 237.27 352.18 233.27 352.18 229.27H352.21C352.21 225.13 352.21 221 352.21 216.86C352.21 215.65 351.67 214.75 350.66 214.15C349.62 213.53 348.61 213.75 347.7 214.46C346.23 215.6 344.76 216.75 343.3 217.91C341.55 219.31 341.74 221.47 343.77 222.44C344.82 222.94 345.18 223.64 345.17 224.78C345.12 229.73 345.03 234.68 345.19 239.63C345.26 241.77 344.78 243.4 343.04 244.67C341.99 245.44 341.62 246.57 342.1 247.78C342.58 248.98 343.62 249.67 344.92 249.69C347.43 249.74 349.95 249.76 352.46 249.69C354.66 249.62 355.99 247.59 355.15 245.7C354.8 244.9 354.11 244.34 353.42 243.87V243.86Z" fill="#0352A9"/>
<path d="M363.6 224.39C366.75 224.41 368.61 221.92 368.69 219.05C368.76 216.24 365.83 213.43 363.78 213.75C361.36 213.36 358.67 216.94 358.77 219.09C358.88 221.5 360.94 224.37 363.6 224.39Z" fill="#0352A9"/>
<path d="M231.68 304C231.07 302.61 230.37 301.27 229.83 299.84C229.19 298.12 228.42 296.45 227.66 294.78C227.34 294.07 226.77 293.57 225.92 293.6C225.16 293.63 224.63 294.06 224.42 294.76C223.95 296.32 223.07 297.71 222.58 299.27C221.97 301.22 221.24 303.14 220.2 304.92C219.97 305.31 219.76 305.77 219.29 305.22C218.66 304.49 217.86 304.41 216.98 304.44C215.92 304.48 214.85 304.47 213.79 304.47C212.77 304.47 212.3 304.02 212.26 303.01C212.2 301.65 212.9 301.08 214.5 301.35C215.53 301.52 216.55 301.55 217.56 301.45C218.51 301.36 219 300.79 218.88 299.78C218.77 298.87 218.23 298.5 217.37 298.51C216.17 298.51 214.96 298.53 213.76 298.54C213.37 298.54 212.97 298.59 212.71 298.2C212.38 297.7 212.03 297.22 212.4 296.55C212.78 295.87 213.37 295.71 214.02 295.84C215.25 296.07 216.49 296.01 217.72 295.97C218.5 295.94 219.31 295.76 219.31 294.67C219.31 293.77 218.85 293.3 217.72 293.23C216.8 293.18 215.88 293.22 214.96 293.22C214.04 293.22 213.12 293.19 212.2 293.23C210.23 293.33 209.51 294.14 209.48 296.1C209.46 297.55 209.85 298.99 209.62 300.43C209.36 302.05 209.39 303.67 209.71 305.27C209.95 306.49 210.34 306.82 211.58 306.82C214.84 306.82 218.1 306.78 221.35 306.8C222.23 306.8 222.85 306.42 223.04 305.65C223.5 303.8 224.61 303.09 226.46 303.39C226.6 303.41 226.74 303.39 226.88 303.39C227.83 303.29 228.42 303.67 228.73 304.59C228.92 305.16 229.19 305.71 229.49 306.22C230.02 307.13 230.94 306.93 231.68 306.71C232.48 306.48 232.31 305.72 232.11 305.09C232 304.72 231.83 304.37 231.67 304.01L231.68 304ZM226.09 300.66C225.41 300.66 225.02 300.36 225.02 299.66C225.02 298.9 225.34 298.06 226.05 298.03C226.86 298 226.94 298.95 227.13 299.57C227.12 300.31 226.77 300.66 226.08 300.67L226.09 300.66Z" fill="#0352A9"/>
<path d="M337.89 294.84C337.84 293.92 337.29 293.37 336.42 293.33C335.59 293.3 334.93 293.67 334.75 294.62C334.66 295.07 334.59 295.52 334.58 295.98C334.54 297.29 334.71 298.58 334.92 299.87C334.98 300.23 335.05 300.63 334.65 300.8C334.28 300.95 334.08 300.6 333.91 300.34C333.52 299.75 333.19 299.12 332.79 298.54C331.76 297.03 330.74 295.51 329.65 294.04C329.19 293.41 328.53 293.04 327.7 293.38C326.85 293.73 326.7 294.44 326.66 295.28C326.6 296.34 326.93 297.35 326.81 298.44C326.57 300.82 326.69 303.23 326.53 305.63C326.48 306.46 327.06 307.03 328.04 307C328.96 306.97 329.58 306.6 329.57 305.64C329.57 303.98 329.74 302.32 329.44 300.67C329.36 300.24 329.19 299.63 329.73 299.45C330.25 299.28 330.52 299.84 330.72 300.23C331.78 302.35 333.47 304.06 334.61 306.13C334.98 306.8 336.42 307.09 337.24 306.72C338.03 306.36 337.93 305.6 337.84 304.96C337.73 304.15 337.61 303.35 337.68 302.54C337.86 300.4 337.57 298.25 337.89 296.44C337.89 295.7 337.91 295.28 337.89 294.85V294.84Z" fill="#0352A9"/>
<path d="M270.46 299.63C269.92 299.47 269.37 299.3 268.81 299.23C267.79 299.12 266.73 298.99 266 299.99C265.69 300.41 265.54 300.86 265.8 301.37C266.04 301.86 266.39 302.14 266.96 302.13C267.35 302.12 267.74 302.13 268.13 302.16C268.59 302.21 268.9 302.5 269.04 302.94C269.2 303.46 268.81 303.74 268.47 303.97C267.09 304.91 264.52 304.61 263.34 303.41C262.03 302.07 261.8 299.16 262.88 297.48C264.16 295.48 266.69 295.19 268.39 296.83C268.72 297.14 269.09 297.44 269.49 297.64C270.11 297.96 270.83 298.13 271.34 297.52C271.82 296.95 271.71 296.21 271.28 295.65C270.31 294.4 269.09 293.43 267.53 293.01C264.83 292.28 261.96 293.67 260.55 296.09C259.39 298.08 259.01 300.15 259.68 302.29C260.46 304.79 262.47 307.3 266.69 306.8C266.99 306.8 267.45 306.79 267.91 306.8C270.49 306.88 272.86 304.66 272.15 301.46C271.94 300.51 271.39 299.88 270.45 299.61L270.46 299.63Z" fill="#0352A9"/>
<path d="M391.2 298.67C392.25 296.85 391.9 295.53 390.15 294.36C388.23 293.08 386.15 293.07 383.97 293.35C382.82 293.5 382.38 294.13 382.12 295.18C381.76 296.61 382.15 297.99 382.17 299.39C382.2 301.32 381.77 303.25 382.13 305.2C382.34 306.36 382.59 306.76 383.79 306.81C384.71 306.85 385.63 306.81 386.55 306.81C387.05 306.81 387.54 306.81 388.04 306.81C389.07 306.81 390.1 306.87 390.97 306.15C392.6 304.81 393.43 302.54 391.53 300.76C390.89 300.16 390.73 299.48 391.2 298.67ZM388.52 296.12C389.04 296.39 389.34 296.78 389.33 297.37C389.33 297.98 388.88 298.21 388.41 298.4C387.85 298.63 387.25 298.72 386.64 298.68C386.36 298.68 386.07 298.73 385.79 298.68C385.03 298.53 384.64 297.99 384.56 297.27C384.47 296.51 385 295.98 385.61 295.87C386.57 295.7 387.58 295.63 388.52 296.11V296.12ZM384.87 303.24C384.79 301.88 385.23 301.45 386.7 301.46C386.84 301.46 386.98 301.46 387.12 301.46C387.26 301.46 387.4 301.46 387.54 301.47C388.82 301.49 389.54 302.01 389.62 302.96C389.69 303.88 389.18 304.28 387.73 304.46C387.45 304.49 387.18 304.58 386.9 304.61C385.62 304.77 384.93 304.3 384.87 303.24Z" fill="#0352A9"/>
<path d="M350.4 299.71C349.23 299.26 348.01 299.07 346.76 299.21C345.92 299.3 345.41 300 345.4 300.93C345.39 301.9 345.97 302.22 346.8 302.3C347.12 302.33 347.44 302.3 347.75 302.32C348.18 302.36 348.47 302.6 348.58 303.02C348.68 303.42 348.46 303.69 348.17 303.93C346.63 305.18 343.36 304.55 342.47 302.78C341.47 300.78 341.75 298.82 342.83 296.92C342.97 296.68 343.39 296.5 343.07 296.12C343.12 296.07 343.17 296.01 343.23 295.96C343.41 295.96 343.61 296.03 343.75 295.97C345.77 295.15 347.46 295.5 348.83 297.26C349.34 297.92 350.1 297.96 350.7 297.5C351.43 296.95 351.29 296.08 350.81 295.5C349.41 293.79 347.61 292.65 345.31 292.86C342.47 293.13 340.56 294.74 339.42 297.35C338.19 300.16 338.83 302.66 340.56 304.98C341.48 306.22 342.71 306.97 344.39 306.84C345.59 306.75 346.8 306.79 348 306.81C349.56 306.83 350.67 306.03 351.32 304.74C352.03 303.32 351.94 301.79 351.22 300.35C351.06 300.02 350.74 299.84 350.4 299.71Z" fill="#0352A9"/>
<path d="M310.06 302.32C309.18 301.17 309.16 301.18 310.17 300.17C310.95 299.39 311.67 298.55 311.74 297.38C311.85 295.63 310.34 293.79 308.39 293.26C306.96 292.87 305.5 293.19 304.06 293.04C301.38 292.76 300.23 294.15 300.32 296.85C300.36 298.12 300.32 299.4 300.32 300.67H300.33C300.33 302.33 300.33 303.99 300.33 305.66C300.33 306.67 300.96 306.82 301.81 306.81C302.67 306.8 303.41 306.74 303.43 305.65C303.45 304.84 303.43 304.02 303.42 303.21C303.42 301.8 304.15 301.29 305.46 301.81C306.03 302.04 306.52 302.38 306.87 302.89C307.49 303.83 308.16 304.75 308.71 305.73C309.23 306.65 309.86 307.13 310.98 307.03C312.3 306.91 312.72 306.34 312.04 305.19C311.45 304.19 310.75 303.26 310.04 302.34L310.06 302.32ZM304.32 295.84C304.75 295.73 305.23 295.82 305.69 295.82C306.25 295.83 306.82 295.72 307.37 295.9C308.04 296.12 308.63 296.44 308.73 297.2C308.8 297.77 307.7 298.92 307.07 298.91C306.05 298.9 305.02 298.85 304.02 298.68C303.29 298.55 303.08 297.9 303.08 297.21C303.08 296.39 303.63 296 304.32 295.84Z" fill="#0352A9"/>
<path d="M206.11 302.12C205.52 301.49 205.51 300.97 206.17 300.43C206.39 300.25 206.59 300.05 206.78 299.84C208.52 297.99 208.01 295.13 205.8 293.88C204.45 293.11 203.02 293.18 201.57 293.21C201.14 293.21 200.72 293.21 200.29 293.21C196.87 293.17 196.85 294.32 196.89 296.58C196.93 299.33 197.07 302.1 196.82 304.85C196.71 306.07 197.02 306.69 198.02 306.79C199.13 306.89 199.63 306.41 199.72 305.16C199.78 304.34 199.59 303.54 199.56 302.74C199.52 301.78 200.04 301.31 200.99 301.34C201.67 301.36 202.21 301.69 202.69 302.11C203.42 302.74 203.93 303.54 204.5 304.31C205.24 305.33 205.52 306.9 207.31 306.84C207.72 306.83 208.12 307.07 208.43 306.62C208.74 306.17 208.58 305.75 208.37 305.32C207.8 304.13 207.01 303.09 206.11 302.14V302.12ZM200.96 298.74C200.14 298.72 199.6 298.32 199.54 297.48C199.47 296.57 199.97 296 200.83 295.81C201.27 295.72 201.74 295.79 202.35 295.79C202.72 295.83 203.26 295.68 203.77 295.89C204.46 296.18 205.22 296.46 205.12 297.4C205.04 298.16 203.84 299.04 203.06 298.89C202.36 298.76 201.66 298.74 200.96 298.73V298.74Z" fill="#0352A9"/>
<path d="M256.7 293.61C255.89 293.61 255.2 294.58 255.19 295.7C255.19 295.74 255.19 295.77 255.19 295.81C255.47 297.2 255.23 298.63 255.53 300.02C255.62 300.43 255.79 301 255.19 301.21C254.63 301.4 254.34 300.95 254.13 300.54C253.18 298.76 251.96 297.16 250.86 295.47C250.51 294.94 250.18 294.39 249.78 293.91C249.32 293.35 248.65 293.17 247.96 293.31C247.28 293.44 247.17 294.06 247.1 294.63C246.85 296.56 247.01 298.51 246.95 299.9C246.95 302.15 246.97 303.85 246.94 305.55C246.93 306.14 247.2 306.5 247.66 306.72C248.72 307.24 249.87 306.52 249.9 305.35C249.93 303.59 249.92 301.82 249.69 300.07C249.65 299.79 249.55 299.37 249.95 299.24C250.32 299.12 250.54 299.45 250.72 299.69C251.35 300.53 251.97 301.38 252.55 302.25C253.43 303.57 254.27 304.9 255.12 306.23C255.61 307 256.37 307.25 257.12 306.93C257.79 306.64 258.03 305.92 258.02 305.15C258.01 304.23 257.74 303.34 257.84 302.41C258.07 300.18 257.83 297.92 258.19 295.68C258.38 294.48 257.62 293.61 256.73 293.62L256.7 293.61Z" fill="#0352A9"/>
<path d="M418.31 299.15C418.31 297.48 418.33 296.24 418.31 295C418.3 294.4 418.06 293.86 417.46 293.65C417.02 293.5 416.55 293.52 416.19 293.92C415.84 294.31 415.7 294.77 415.73 295.29C415.82 296.98 415.58 298.68 415.92 300.36C415.98 300.69 416.08 301.13 415.7 301.33C415.28 301.55 415.11 301.08 414.85 300.88C414.5 300.61 414.38 300.18 414.17 299.81C413.08 297.82 411.71 296.03 410.35 294.23C409.88 293.61 409.26 293.13 408.44 293.5C407.65 293.86 407.35 294.56 407.47 295.43C407.81 297.93 407.33 300.42 407.47 302.92C407.52 303.8 407.16 304.66 407.28 305.55C407.41 306.46 407.97 306.78 408.84 306.78C409.62 306.78 410.22 306.48 410.24 305.67C410.27 304.05 410.4 302.42 410.14 300.8C410.05 300.27 409.74 299.51 410.39 299.29C410.95 299.1 411.28 299.83 411.58 300.3C412.79 302.2 413.99 304.12 415.2 306.02C415.75 306.89 416.63 306.9 417.48 306.73C418.26 306.57 418.18 305.86 418.17 305.26C418.12 303.07 418.52 300.89 418.35 299.14L418.31 299.15Z" fill="#0352A9"/>
<path d="M427.53 293.67C425.87 293.24 424.23 293.42 422.58 293.38C420.93 293.35 420.2 294.11 420.17 295.78C420.14 297.23 420.17 298.68 420.17 300.47C420.3 301.95 419.96 303.79 420.35 305.61C420.53 306.45 421 306.81 421.83 306.81C423.39 306.8 424.94 306.78 426.5 306.8C427.93 306.81 428.97 306.15 429.83 305.06C431.83 302.54 431.95 299.73 430.91 296.89C430.36 295.38 429.36 294.13 427.54 293.66L427.53 293.67ZM424.47 295.97C425.14 295.99 425.81 296.08 426.46 296.21C427.75 296.47 428.54 297.42 428.68 298.83C428.72 299.25 428.68 299.68 428.68 300.1H428.7C428.7 300.14 428.7 300.17 428.7 300.21C428.85 303.5 427.26 304.33 424.21 304.3C423.28 304.3 422.83 303.66 422.97 302.73C423.23 301.01 423.22 299.29 422.98 297.57C422.85 296.59 423.4 295.94 424.45 295.97H424.47Z" fill="#0352A9"/>
<path d="M194.96 302.15C194.48 301.77 193.97 301.8 193.52 302.22C193.14 302.58 192.77 302.97 192.43 303.37C191.24 304.8 189.18 304.93 187.84 303.63C186.42 302.25 186.57 300.49 186.79 298.77C186.97 297.39 187.69 296.27 189.15 295.96C190.6 295.66 191.87 295.96 192.67 297.42C192.87 297.78 193.14 298.25 193.82 298.14C195.17 297.92 195.77 296.59 194.88 295.42C193.79 293.99 192.32 293.1 190.48 292.98C188.28 292.84 186.59 293.87 185.22 295.47C183.15 297.88 183.02 300.65 184.26 303.41C185.29 305.71 186.98 307.33 189.84 306.83C189.95 306.83 190.05 306.82 190.16 306.83C192.75 307.16 194.24 305.76 195.29 303.62C195.6 302.98 195.44 302.53 194.94 302.14L194.96 302.15Z" fill="#0352A9"/>
<path d="M374.2 302.58C373.03 301.36 373.09 300.93 374.51 299.97C376.2 298.83 376.35 296.88 375.03 295.32C373.49 293.5 371.54 293.06 369.57 293.21C365.48 293.21 365.1 293.47 364.55 296.5C364.47 296.96 364.5 297.41 364.55 297.87C364.67 298.88 364.84 299.87 364.72 300.91C364.53 302.52 364.52 304.13 364.82 305.74C365 306.68 365.6 306.84 366.37 306.78C367.13 306.71 367.48 306.22 367.47 305.48C367.47 304.7 367.45 303.92 367.44 303.15C367.44 301.68 368.34 301.11 369.67 301.77C370.62 302.24 371.29 303 371.84 303.89C372.41 304.81 372.94 305.78 373.61 306.62C374.13 307.27 375.26 307.23 375.9 306.76C376.72 306.16 376.22 305.54 375.89 305C375.38 304.16 374.86 303.31 374.17 302.59L374.2 302.58ZM369.92 295.79C369.92 295.79 369.92 295.77 369.92 295.76C370.48 295.8 371.07 295.74 371.59 295.9C372.24 296.09 373.02 296.31 372.98 297.24C372.93 298.19 372.26 298.73 371.44 298.86C370.51 299.01 369.54 298.95 368.6 298.86C367.78 298.78 367.03 297.87 367.15 297.17C367.29 296.29 367.88 295.84 368.76 295.8C369.15 295.78 369.53 295.8 369.92 295.8V295.79Z" fill="#0352A9"/>
<path d="M286.87 300.03C285.61 299.15 284.24 298.39 282.66 298.17C282.27 298.11 281.9 297.99 281.58 297.76C280.73 297.16 280.77 296.57 281.69 296.1C283.01 295.42 284.41 295.74 285.38 296.95C286.1 297.84 287.36 298.2 287.96 297.69C288.56 297.17 288.4 296.07 287.57 295.13C284.73 291.9 281.04 292.04 278.41 295.47C277.56 296.57 277.55 297.4 278.31 298.55C279.51 300.36 281.36 301.1 283.35 301.6C284 301.76 284.67 301.87 285.23 302.27C286.11 302.9 286.06 303.75 285.11 304.27C283.72 305.03 282.04 304.8 280.92 303.68C280.52 303.28 280.15 302.84 279.72 302.49C279.26 302.12 278.71 301.93 278.15 302.28C277.6 302.62 277.67 303.19 277.74 303.71C277.79 304.15 278.08 304.47 278.34 304.8C279.64 306.43 281.27 307.21 283.22 306.8C284.96 306.92 286.38 306.83 287.59 305.45C289.5 303.27 288.92 301.47 286.87 300.03Z" fill="#0352A9"/>
<path d="M361.49 304.44C360.12 304.52 358.74 304.34 357.36 304.61C356.29 304.82 355.67 304.26 355.6 303.17C355.51 301.71 355.87 301.27 357.14 301.29C358.38 301.3 359.62 301.34 360.86 301.33C361.83 301.33 362.38 300.81 362.39 299.96C362.41 299.22 361.73 298.51 360.87 298.52C359.74 298.52 358.61 298.39 357.49 298.66C356.84 298.81 356.2 298.74 355.81 298.08C355.48 297.52 355.47 296.92 355.83 296.37C356.21 295.78 356.83 295.69 357.44 295.83C358.67 296.11 359.91 295.97 361.14 295.97C362.13 295.97 362.87 295.31 362.79 294.55C362.68 293.61 362 293.24 361.15 293.22C359.38 293.18 357.61 293.14 355.84 293.23C353.6 293.35 352.99 294.06 352.99 296.27C352.99 299.27 353.28 302.27 353.19 305.27C353.16 306.37 353.6 306.77 354.74 306.8C355.91 306.83 357.08 306.8 358.25 306.8C359.49 306.8 360.73 306.83 361.97 306.79C362.98 306.75 363.32 306.04 362.78 305.19C362.48 304.72 362.09 304.39 361.48 304.42L361.49 304.44Z" fill="#0352A9"/>
<path d="M404.3 295.53C404.09 295.32 403.87 295.1 403.66 294.89C403.1 293.73 400.63 292.76 399.05 293.05C395.6 293.69 392.32 297.66 393.49 301.65C394.32 304.52 395.93 307.36 400.06 306.84C400.48 306.79 400.91 306.83 401.33 306.81C402.17 306.78 402.94 306.48 403.57 305.95C406.21 303.76 406.72 300.81 405.9 297.82C405.66 296.96 405.45 295.85 404.3 295.52V295.53ZM399.72 304.52C398.05 304.52 396.74 303.41 396.44 301.52C396.21 300.13 396.2 298.71 396.96 297.41C397.94 295.73 399.24 295.23 401.1 295.84C401.37 295.93 401.61 296.08 401.91 296.01C402.29 296.29 402.74 296.49 402.86 297.01C403.2 298.32 403.58 299.61 403.46 301.02C403.28 303.15 401.86 304.54 399.72 304.53V304.52Z" fill="#0352A9"/>
<path d="M240.86 293.66C240.43 293.32 239.91 293.17 239.37 293.2C237.12 293.34 234.86 293.31 232.61 293.2C232.43 293.2 232.25 293.2 232.08 293.24C231.33 293.44 230.77 293.9 230.8 294.71C230.83 295.49 231.46 295.85 232.16 295.97C232.61 296.05 233.08 295.99 233.54 295.99C234.41 296 234.8 296.58 234.7 297.3C234.5 298.75 234.67 300.2 234.59 301.4C234.59 302.81 234.57 303.98 234.59 305.14C234.61 306.35 235.04 306.81 236.04 306.78C236.98 306.75 237.39 306.28 237.4 305.17C237.41 303.01 237.41 300.85 237.4 298.7C237.39 296.17 237.38 296.17 239.91 295.8C240.47 295.72 240.96 295.49 241.14 294.93C241.28 294.5 241.29 294 240.87 293.66H240.86Z" fill="#0352A9"/>
<path d="M298.51 293.37C298.14 293.2 297.75 293.22 297.37 293.2C296.1 293.16 294.84 293.55 293.57 293.39C292.69 293.28 291.82 293.12 290.93 293.21C289.92 293.31 289.16 293.94 289.28 294.66C289.43 295.61 290.11 295.88 291 295.83C291.34 295.81 291.71 295.89 292.04 295.98C292.76 296.19 293.11 296.74 292.98 297.43C292.71 298.88 292.94 300.32 292.85 301.48C292.85 303.01 292.81 304.25 292.86 305.48C292.9 306.37 293.46 306.95 294.33 306.96C295.22 306.97 295.72 306.38 295.83 305.51C295.87 305.2 295.85 304.87 295.85 304.56C295.85 302.19 295.83 299.82 295.83 297.45C295.83 296.3 296.14 295.95 297.3 295.83C297.62 295.8 297.95 295.86 298.25 295.78C298.77 295.64 299.24 295.41 299.28 294.75C299.32 294.11 299.12 293.66 298.52 293.38L298.51 293.37Z" fill="#0352A9"/>
<path d="M319.37 292.88C315.43 292.82 313.01 295.86 312.46 299.95C312.16 302.14 313.31 303.8 314.59 305.41C315.79 306.92 317.44 306.92 319.14 306.83C320.45 306.75 321.83 307.08 323 306.1C325.66 303.87 326.55 300.25 325.12 297.09C324 294.63 322.15 292.92 319.38 292.88H319.37ZM318.49 304.5C317.01 304.26 315.88 303.04 315.77 301.54C315.74 301.08 315.77 300.62 315.77 299.93C315.82 299.43 315.65 298.69 315.94 297.97C316.51 296.57 317.72 295.77 319.24 295.79C320.63 295.81 321.93 296.8 322.37 298.21C322.85 299.75 322.74 301.28 322.12 302.75C321.58 304.05 320.06 304.74 318.48 304.49L318.49 304.5Z" fill="#0352A9"/>
<path d="M244.11 293.62C243.19 293.5 242.77 294.08 242.56 294.88C242.49 295.15 242.44 295.43 242.44 295.71C242.44 298.93 242.43 302.14 242.44 305.36C242.44 306.39 242.88 306.8 243.84 306.8C244.81 306.8 245.21 306.4 245.23 305.36C245.25 303.7 245.23 302.04 245.23 300.38H245.24C245.24 298.65 245.26 296.92 245.24 295.19C245.23 294.44 245.01 293.75 244.12 293.64L244.11 293.62Z" fill="#0352A9"/>
<path d="M442.06 300.56C441.07 299.66 440 298.88 438.58 298.66C437.74 298.53 436.93 298.11 436.12 297.78C435.73 297.62 435.29 297.39 435.34 296.88C435.4 296.3 435.9 296.03 436.39 295.97C437.52 295.82 438.67 295.72 439.51 296.78C439.85 297.21 440.36 297.41 440.89 297.5C441.36 297.58 441.72 297.43 441.88 296.93C442.1 296.21 441.64 295.26 440.86 294.89C440.78 294.69 440.64 294.54 440.44 294.46C440.43 293.77 439.85 293.63 439.38 293.43C437.1 292.49 434.59 293.29 433.01 295.39C432.45 296.14 432.37 296.92 432.57 297.79C432.98 299.53 434.33 300.33 435.79 301.03C436.97 301.6 438.36 301.53 439.51 302.21C439.9 302.44 440.19 302.73 440.2 303.19C440.21 303.69 439.84 303.92 439.45 304.12C437.8 304.97 436.01 304.58 434.92 303.09C434.69 302.77 434.47 302.45 434.14 302.24C433.71 301.95 433.24 301.8 432.75 302.09C432.3 302.36 432.08 302.75 432.07 303.32C432.05 305.26 434.3 307.04 436.42 306.71C437.1 306.71 437.77 306.71 438.45 306.71C440.02 307.13 441.15 306.5 442.18 305.34C443.56 303.77 443.6 301.97 442.05 300.55L442.06 300.56Z" fill="#0352A9"/>
</svg>
