<svg width="500" height="500" viewBox="0 0 500 500" fill="none" xmlns="http://www.w3.org/2000/svg">
<path fill-rule="evenodd" clip-rule="evenodd" d="M181.64 165.02L158.72 151.79C155.59 149.99 152.74 151.3 151.16 154.03L132.96 185.56C131.33 188.37 129.31 190.76 123.55 190.15C100.66 187.76 77.44 198.71 65.2 219.93C48.58 248.7 58.44 285.5 87.22 302.12C116 318.73 152.8 308.87 169.41 280.09C181.65 258.88 179.53 233.29 166.01 214.67C162.6 209.99 163.66 207.03 165.29 204.21L183.49 172.69C185.07 169.96 184.79 166.83 181.65 165.02" fill="#A9C540"/>
<path fill-rule="evenodd" clip-rule="evenodd" d="M28.8701 321.08C15.3801 313.3 11.52 306.62 11.53 291.05V208.96C11.52 193.38 15.3801 186.71 28.8701 178.93L99.97 137.88C111.87 130.99 119.41 130.15 130.27 135.54C132.39 136.59 135.25 139.19 132.84 143.36L121.23 163.46C119.67 166.19 117.69 168.47 112.93 168.75C86.4 170.19 61.1101 184.59 46.8301 209.31C24.3501 248.24 37.7 298.01 76.63 320.5C115.55 342.95 165.32 329.63 187.79 290.7C202.07 265.97 201.9 236.88 189.89 213.18C187.74 208.91 188.73 206.05 190.31 203.33L201.92 183.22C204.31 179.06 208 180.24 209.97 181.54C220.07 188.25 223.12 195.21 223.1 208.96V291.05C223.1 306.63 219.25 313.3 205.76 321.08L134.66 362.13C121.17 369.92 113.47 369.92 99.99 362.13L28.89 321.09L28.8701 321.08Z" fill="#211E19"/>
<path fill-rule="evenodd" clip-rule="evenodd" d="M71.8401 249.16C71.8801 274.24 92.2201 294.54 117.3 294.54C142.38 294.54 162.71 274.23 162.75 249.16H71.8501H71.8401Z" fill="white"/>
<path d="M288.25 310.37C294.44 310.37 299.85 309.85 304.45 308.79V316.69C299.71 318.27 294.24 319.06 288.05 319.06C278.56 319.06 271.57 316.53 267.05 311.45C262.54 306.38 260.28 298.4 260.28 287.54V218.16H244.37V212.43L260.28 207.98L265.22 183.67H270.26V209.66H301.79V218.16H270.26V286.15C270.26 294.39 271.71 300.48 274.61 304.44C277.51 308.39 282.06 310.37 288.25 310.37Z" fill="#2B2621"/>
<path d="M369.98 207.59C374.52 207.59 379.4 208.05 384.61 208.97L382.73 218.36C378.25 217.24 373.6 216.68 368.8 216.68C359.64 216.68 352.13 220.57 346.27 228.34C340.4 236.12 337.47 245.93 337.47 257.79V317.08H327.69V209.65H335.99L336.98 229.02H337.67C342.09 221.11 346.8 215.56 351.81 212.37C356.81 209.17 362.88 207.58 369.99 207.58" fill="#2B2621"/>
<path d="M449.33 319.06C433.98 319.06 421.96 314.22 413.26 304.53C404.56 294.85 400.21 281.34 400.21 264.01C400.21 246.68 404.72 232.37 413.75 222.46C422.78 212.55 435.13 207.59 450.81 207.59C460.1 207.59 468.99 209.2 477.49 212.43L474.82 221.13C465.53 218.03 457.46 216.49 450.61 216.49C437.43 216.49 427.45 220.56 420.67 228.69C413.88 236.83 410.49 248.54 410.49 263.83C410.49 278.32 413.88 289.67 420.67 297.87C427.45 306.07 436.94 310.18 449.13 310.18C458.88 310.18 467.94 308.43 476.31 304.94V314.03C469.46 317.39 460.47 319.07 449.33 319.07" fill="#2B2621"/>
</svg>
