<svg width="500" height="500" viewBox="0 0 500 500" fill="none" xmlns="http://www.w3.org/2000/svg">
<path d="M49.4 370.3H56.93L65.24 395.82H59.18L57.43 390.14H48.13L46.43 395.86H41L49.38 370.29L49.4 370.3ZM49.4 386.04H56.14L52.89 375.01L49.4 386.04ZM67.56 389.18V377.15H72.7V388.47C72.7 391 73.73 392.22 75.95 392.22C78 392.32 79.75 390.75 79.85 388.7C79.85 388.51 79.85 388.31 79.83 388.12V377.16H84.97V395.87H79.86V392.9C78.72 395.09 76.39 396.39 73.92 396.21C70.3 396.21 67.58 394.07 67.58 389.18H67.54H67.56ZM90.32 390.28V380.78H87.95V377.1H90.32V373.07H95.46V377.1H99.39V380.78H95.5V389.77C95.5 391.27 96.25 391.99 97.57 391.99C98.24 392.01 98.92 391.89 99.54 391.63V395.62C98.53 395.96 97.46 396.13 96.39 396.12C92.47 396.17 90.36 394.17 90.36 390.28H90.32ZM102.99 368.69H108.17V380.11C109.35 377.89 111.72 376.56 114.24 376.71C117.91 376.71 120.52 378.93 120.52 383.92V395.79H115.38V384.65C115.38 382.12 114.38 380.91 112.09 380.91C110.05 380.79 108.31 382.35 108.19 384.38C108.18 384.59 108.19 384.8 108.21 385V395.84H103.03L102.99 368.67V368.69ZM123.79 386.68V386.36C123.79 380.51 128.04 376.68 133.65 376.68C139.26 376.68 143.46 380.43 143.46 386.25V386.53C143.46 392.47 139.22 396.16 133.62 396.16C128.02 396.16 123.84 392.49 123.84 386.67H123.8L123.79 386.68ZM138.21 386.61V386.36C138.21 382.8 136.52 380.65 133.64 380.65C130.76 380.65 129.07 382.72 129.07 386.29V386.57C129.07 390.13 130.72 392.28 133.64 392.28C136.56 392.28 138.25 390.13 138.25 386.6H138.21V386.61ZM146.91 377.11H152.09V380.67C153.08 378.23 155.53 376.69 158.16 376.86V381.68C154.35 381.68 152.13 382.87 152.13 386.43V395.86H146.95L146.91 377.11ZM161.25 371.77C161.18 370.15 162.44 368.77 164.06 368.7C165.68 368.63 167.06 369.89 167.13 371.51C167.2 373.13 165.94 374.51 164.32 374.58C164.27 374.58 164.23 374.58 164.18 374.58C162.61 374.61 161.32 373.37 161.28 371.8L161.24 371.76L161.25 371.77ZM161.64 377.11H166.78V395.86H161.64V377.11ZM169.74 395.21L178.95 381.11H170.64V377.11H186.48V377.75L177.19 391.79H186.12V395.86H169.77L169.73 395.21H169.74ZM188.02 386.68V386.4C187.77 381.29 191.7 376.94 196.81 376.69C197.08 376.68 197.34 376.68 197.61 376.69C202.43 376.69 206.71 379.52 206.71 386.19V387.61H193.29C193.43 390.71 195.12 392.5 197.93 392.5C200.3 392.5 201.49 391.47 201.82 389.89H206.71C206.09 393.93 202.89 396.17 197.78 396.17C192.14 396.21 188.04 392.68 188.04 386.72L188 386.68H188.02ZM201.68 384.43C201.5 381.62 200.07 380.26 197.61 380.26C195.15 380.26 193.73 381.79 193.32 384.43H201.68ZM208.99 386.72V386.44C208.99 380.3 212.55 376.69 217.21 376.69C219.63 376.52 221.93 377.78 223.09 379.91V368.66H228.23V395.86H223.09V392.76C221.89 394.92 219.62 396.25 217.15 396.25C212.6 396.2 209.03 392.96 209.03 386.75L208.99 386.71V386.72ZM223.24 386.54V386.26C223.24 382.54 221.59 380.66 218.78 380.66C215.97 380.66 214.28 382.62 214.28 386.34V386.62C214.28 390.32 216.06 392.15 218.64 392.15C221.22 392.15 223.28 390.36 223.28 386.58L223.24 386.54ZM241.2 370.26H249.51C258.46 370.26 262.89 375.12 262.89 382.75V383.03C262.89 390.67 258.43 395.77 249.47 395.77H241.16L241.2 370.25V370.26ZM249.35 391.28C254.48 391.28 256.91 388.39 256.91 383.11V382.83C256.91 377.58 254.65 374.77 249.27 374.77H246.98V391.29H249.34L249.35 391.28ZM266.4 371.77C266.33 370.15 267.59 368.77 269.21 368.7C270.83 368.63 272.21 369.89 272.28 371.51C272.35 373.13 271.09 374.51 269.47 374.58C269.42 374.58 269.37 374.58 269.32 374.58C267.76 374.61 266.47 373.37 266.43 371.81C266.43 371.81 266.43 371.81 266.43 371.8L266.39 371.76L266.4 371.77ZM266.79 377.11H271.92V395.86H266.79V377.11ZM275.35 389.92H280.1C280.31 391.59 281.14 392.57 283.39 392.57C285.38 392.57 286.31 391.82 286.31 390.53C286.31 389.24 285.21 388.71 282.53 388.32C277.57 387.57 275.64 386.15 275.64 382.5C275.64 378.62 279.2 376.68 283.03 376.68C287.16 376.68 290.27 378.18 290.74 382.46H285.99C285.86 381.08 284.63 380.06 283.25 380.19C283.19 380.19 283.13 380.2 283.07 380.21C281.4 380.21 280.42 380.99 280.42 382.13C280.42 383.27 281.32 383.77 283.98 384.16C288.66 384.84 291.22 386.02 291.22 390.01C291.22 394 288.3 396.15 283.37 396.15C278.44 396.15 275.52 393.98 275.34 389.9L275.35 389.92ZM295.4 390.25V380.75H293.03V377.07H295.4V373.04H300.54V377.07H304.47V380.75H300.54V389.74C300.54 391.24 301.29 391.96 302.61 391.96C303.28 391.98 303.96 391.86 304.58 391.6V395.59C303.57 395.93 302.5 396.1 301.43 396.09C297.51 396.17 295.4 394.18 295.4 390.28V390.24V390.25ZM308.07 377.11H313.25V380.67C314.22 378.22 316.65 376.66 319.28 376.81V381.63C315.46 381.63 313.25 382.82 313.25 386.38V395.86H308.07V377.11ZM322.41 371.77C322.34 370.15 323.6 368.77 325.22 368.7C326.84 368.63 328.22 369.89 328.29 371.51C328.36 373.13 327.1 374.51 325.48 374.58C325.43 374.58 325.38 374.58 325.33 374.58C323.77 374.61 322.48 373.37 322.44 371.81C322.44 371.81 322.44 371.81 322.44 371.8L322.4 371.76L322.41 371.77ZM322.8 377.11H327.93V395.86H322.8V377.11ZM337.89 392.86V395.86H332.71V368.69H337.89V380.08C339.14 377.99 341.39 376.72 343.83 376.72C348.39 376.72 351.96 380.12 351.96 386.29V386.57C351.96 392.74 348.4 396.2 343.83 396.2C341.37 396.32 339.06 395.02 337.89 392.85V392.86ZM346.73 386.61V386.36C346.73 382.57 344.88 380.72 342.27 380.72C339.66 380.72 337.71 382.61 337.71 386.36V386.64C337.71 390.38 339.49 392.21 342.31 392.21C345.13 392.21 346.72 390.24 346.72 386.61H346.74H346.73ZM355.29 389.18V377.15H360.44V388.47C360.44 391 361.47 392.22 363.68 392.22C365.74 392.32 367.49 390.74 367.59 388.68C367.59 388.49 367.59 388.3 367.57 388.11V377.15H372.7V395.86H367.56V392.89C366.42 395.08 364.08 396.38 361.62 396.2C357.96 396.2 355.26 394.06 355.26 389.17H355.28L355.29 389.18ZM378.06 390.28V380.78H375.69V377.1H378.06V373.07H383.19V377.1H387.12V380.78H383.19V389.77C383.19 391.27 383.95 391.99 385.27 391.99C385.94 392.01 386.61 391.89 387.23 391.63V395.62C386.22 395.96 385.16 396.13 384.1 396.12C380.15 396.17 378.04 394.17 378.04 390.28H378.06ZM389.58 386.72V386.36C389.58 380.51 393.83 376.68 399.44 376.68C405.05 376.68 409.25 380.43 409.25 386.25V386.53C409.25 392.47 405 396.16 399.41 396.16C393.82 396.16 389.57 392.49 389.57 386.67L389.59 386.71L389.58 386.72ZM403.99 386.65V386.37C403.99 382.81 402.32 380.66 399.43 380.66C396.54 380.66 394.86 382.73 394.86 386.3V386.58C394.86 390.14 396.5 392.29 399.43 392.29C402.36 392.29 403.97 390.14 403.97 386.61L403.99 386.65ZM412.7 377.15H417.88V380.71C418.85 378.26 421.28 376.7 423.91 376.85V381.67C420.09 381.67 417.88 382.86 417.88 386.42V395.86H412.7V377.15Z" fill="#1C1C1B"/>
<path d="M318.57 277.21C308.52 277.21 303.26 269.62 303.26 260.05C303.26 250.48 309.02 243.07 318.07 243.07C327.12 243.07 334.04 250.33 334.04 260.05C334.04 269.77 328.1 277.21 318.6 277.21M363.2 259.53C363.2 286.9 345.92 302.56 324.01 302.56C317.59 302.56 308.75 300.26 303.93 296.06V333.75H425.05L363.19 259.52L363.2 259.53ZM238.45 248.51C231.54 246.21 229.57 244.72 229.57 242.42C229.57 240.12 231.87 238.95 235.66 238.95C243.72 238.95 253.1 242.74 257.71 245.05L266.27 224.1C256.34 219.14 245.4 216.56 234.3 216.55C214.71 216.55 202.24 228.09 202.24 242.76C202.24 254.97 208.33 262.72 224.62 267.83C234.5 270.96 238.12 272.58 238.12 275.75C238.12 278.22 235.82 279.87 232.03 279.87C226.09 279.87 217.21 277.5 209.97 273.77L201.42 293.72C207.5 298.67 220.67 302.63 233.67 302.63C253.75 302.63 266.1 291.74 266.1 275.59C266.1 260.75 255.41 254.22 238.44 248.54M323.64 216.56C310.49 216.56 299.89 224.22 296.23 229.82L292.67 220.68C292.18 219.2 290.87 218.21 288.56 218.21H274.79V333.76H41.7L110.01 251.75V261.87C110.01 285.29 121.69 302.6 146.06 302.6C156.65 302.8 166.57 297.42 172.18 288.43L176.18 297.93C176.68 299.41 178 300.4 180.3 300.4H193.64V218.18H164.32V262.03C164.32 269.15 159.39 276.04 151.15 276.04C142.91 276.04 139.28 270.27 139.28 260.88V216.55L233.29 103.74L327.31 216.55H323.63L323.64 216.56ZM443.29 321.33V333.76H440.92V321.3H436.46V319.39H447.84V321.3L443.3 321.32L443.29 321.33ZM464.15 333.78V321.75H464.08L459.33 333.76H457.82L453.07 321.75V333.76H450.7V319.39H454.36L458.66 330.3L462.88 319.39H466.51V333.76L464.16 333.78H464.15Z" fill="#FC6143"/>
</svg>
