<svg width="72" height="72" viewBox="0 0 72 72" fill="none" xmlns="http://www.w3.org/2000/svg">
<path fill-rule="evenodd" clip-rule="evenodd" d="M13.5 13.5C13.5 8.52944 17.5294 4.5 22.5 4.5H56.25C57.4926 4.5 58.5 5.50736 58.5 6.75V51.75C58.5 52.9926 57.4926 54 56.25 54H22.5138L22.4992 54.0004C22.4762 54.0012 22.4323 54.003 22.3703 54.0075C22.2455 54.0164 22.0526 54.0353 21.8152 54.0749C21.3298 54.1558 20.7169 54.3134 20.1312 54.6062C19.5544 54.8946 19.046 55.2919 18.6768 55.8457C18.317 56.3855 18 57.2062 18 58.5C18 59.7938 18.317 60.6145 18.6768 61.1543C19.046 61.7081 19.5544 62.1054 20.1312 62.3938C20.7169 62.6866 21.3298 62.8442 21.8152 62.9251C22.0526 62.9647 22.2455 62.9836 22.3703 62.9925C22.4323 62.997 22.4762 62.9988 22.4992 62.9996L22.5138 63H56.25C57.4926 63 58.5 64.0074 58.5 65.25C58.5 66.4926 57.4926 67.5 56.25 67.5H22.5V65.25C22.5 67.5 22.4989 67.5 22.4977 67.5L22.4953 67.5L22.4899 67.5L22.4773 67.4999L22.4444 67.4995C22.4191 67.4991 22.3873 67.4984 22.3492 67.4971C22.2733 67.4946 22.1722 67.4899 22.0497 67.4811C21.8053 67.4636 21.4708 67.4298 21.0754 67.3639C20.2952 67.2339 19.2206 66.9696 18.1188 66.4187C17.0081 65.8634 15.829 64.995 14.9326 63.6504C14.0268 62.2917 13.5 60.5812 13.5 58.5V13.5ZM18 50.6418C18.0397 50.6212 18.0793 50.601 18.1188 50.5813C19.2206 50.0304 20.2952 49.7661 21.0754 49.6361C21.4708 49.5702 21.8053 49.5364 22.0497 49.5189C22.1722 49.5101 22.2733 49.5054 22.3492 49.5029C22.3873 49.5016 22.4191 49.5009 22.4444 49.5005L22.4773 49.5001L22.4899 49.5L22.4953 49.5L22.4977 49.5C22.4989 49.5 22.5 49.5 22.5 51.75V49.5H54V9H51.75V20.25C51.75 21.0298 51.3462 21.754 50.6829 22.164C50.0196 22.5739 49.1912 22.6112 48.4938 22.2625L45 20.5156L41.5062 22.2625C40.8088 22.6112 39.9804 22.5739 39.3171 22.164C38.6538 21.754 38.25 21.0298 38.25 20.25V9H22.5C20.0147 9 18 11.0147 18 13.5V50.6418ZM42.75 9V16.6094L43.9938 15.9875C44.6272 15.6708 45.3728 15.6708 46.0062 15.9875L47.25 16.6094V9H42.75ZM22.5 58.5C22.5 57.2574 23.5074 56.25 24.75 56.25H56.25C57.4926 56.25 58.5 57.2574 58.5 58.5C58.5 59.7426 57.4926 60.75 56.25 60.75H24.75C23.5074 60.75 22.5 59.7426 22.5 58.5Z" fill="#7D8D89"/>
</svg>
