<svg width="72" height="72" viewBox="0 0 72 72" fill="none" xmlns="http://www.w3.org/2000/svg">
<path fill-rule="evenodd" clip-rule="evenodd" d="M4.5 6.75C4.5 5.50736 5.50736 4.5 6.75 4.5H65.25C66.4926 4.5 67.5 5.50736 67.5 6.75V13.5C67.5 14.7426 66.4926 15.75 65.25 15.75H63V54C63 55.2426 61.9926 56.25 60.75 56.25H38.25V59.102C39.5951 59.8801 40.5 61.3344 40.5 63C40.5 65.4853 38.4853 67.5 36 67.5C33.5147 67.5 31.5 65.4853 31.5 63C31.5 61.3344 32.4049 59.8801 33.75 59.102V56.25H11.25C10.0074 56.25 9 55.2426 9 54V15.75H6.75C5.50736 15.75 4.5 14.7426 4.5 13.5V6.75ZM13.5 15.75V51.75H58.5V15.75H13.5ZM63 11.25V9H9V11.25H63ZM18 22.5C18 21.2574 19.0074 20.25 20.25 20.25H40.5C41.7426 20.25 42.75 21.2574 42.75 22.5C42.75 23.7426 41.7426 24.75 40.5 24.75H20.25C19.0074 24.75 18 23.7426 18 22.5ZM18 31.5C18 30.2574 19.0074 29.25 20.25 29.25H27C28.2426 29.25 29.25 30.2574 29.25 31.5C29.25 32.7426 28.2426 33.75 27 33.75H20.25C19.0074 33.75 18 32.7426 18 31.5ZM31.5 31.5C31.5 30.2574 32.5074 29.25 33.75 29.25H51.75C52.9926 29.25 54 30.2574 54 31.5C54 32.7426 52.9926 33.75 51.75 33.75H33.75C32.5074 33.75 31.5 32.7426 31.5 31.5ZM18 38.25C18 37.0074 19.0074 36 20.25 36H51.75C52.9926 36 54 37.0074 54 38.25C54 39.4926 52.9926 40.5 51.75 40.5H20.25C19.0074 40.5 18 39.4926 18 38.25ZM18 45C18 43.7574 19.0074 42.75 20.25 42.75H33.75C34.9926 42.75 36 43.7574 36 45C36 46.2426 34.9926 47.25 33.75 47.25H20.25C19.0074 47.25 18 46.2426 18 45Z" fill="#7D8D89"/>
</svg>
